<svg width="10" height="7" viewBox="0 0 10 7" fill="none" xmlns="http://www.w3.org/2000/svg">
<path d="M4.99302 3.35309L1.98883 0.345333C1.8799 0.236331 1.75055 0.149861 1.60818 0.0908659C1.46581 0.0318704 1.31322 0.0015048 1.15911 0.00150481C1.005 0.00150482 0.852404 0.0318704 0.710036 0.0908659C0.567668 0.149861 0.43832 0.236331 0.329382 0.345333C0.117856 0.569104 -1.34597e-08 0.865349 0 1.17327C1.34597e-08 1.48119 0.117856 1.77744 0.329382 2.00121L4.73552 6.4145C4.80252 6.48111 4.89317 6.5185 4.98765 6.5185C5.08214 6.5185 5.17278 6.48111 5.23979 6.4145L9.64235 2.00121C9.7539 1.8942 9.84299 1.76602 9.9044 1.62416C9.96581 1.48231 9.9983 1.32963 9.99999 1.17506C10.0011 0.942948 9.9331 0.715758 9.80468 0.522411C9.67625 0.329065 9.49319 0.178308 9.27881 0.0893327C9.06442 0.00035794 8.82841 -0.0228094 8.60082 0.0227792C8.37323 0.0683679 8.16435 0.180651 8.00078 0.345333L4.99302 3.35309Z" fill="currentColor"/>
</svg>
