<svg width="10" height="10" viewBox="0 0 10 10" fill="none" xmlns="http://www.w3.org/2000/svg">
<path d="M0.19887 0.198869C-0.0662896 0.464029 -0.0662893 0.893937 0.19887 1.1591L4.03977 5L0.198869 8.8409C-0.0662899 9.10606 -0.0662896 9.53597 0.198869 9.80113C0.464029 10.0663 0.893936 10.0663 1.1591 9.80113L5 5.96023L8.84091 9.80113C9.10606 10.0663 9.53597 10.0663 9.80113 9.80113C10.0663 9.53597 10.0663 9.10606 9.80113 8.8409L5.96023 5L9.80113 1.1591C10.0663 0.893937 10.0663 0.464029 9.80113 0.198869C9.53597 -0.0662899 9.10606 -0.0662895 8.84091 0.198869L5 4.03977L1.1591 0.198869C0.893937 -0.0662897 0.464029 -0.0662899 0.19887 0.198869Z" fill="currentColor"/>
</svg>
