<svg width="20" height="20" viewBox="0 0 20 20" fill="none" xmlns="http://www.w3.org/2000/svg">
<path d="M19.2714 17.6562H2.92969C2.6061 17.6562 2.34375 17.3939 2.34375 17.0703C2.34375 16.7467 2.6061 16.4844 2.92969 16.4844H19.2701C19.3897 15.8227 19.6873 15.3373 19.8817 15.0781C20.1715 14.6919 19.8958 14.1406 19.413 14.1406H2.92969C1.31168 14.1406 0 15.4523 0 17.0703C0 18.6883 1.31168 20 2.92969 20H19.413C19.8959 20 20.1715 19.4488 19.8818 19.0625C19.5138 18.5718 19.3453 18.0659 19.2714 17.6562Z" fill="currentColor"/>
<path d="M3.94531 9.86589V11.1329C3.94531 11.3636 4.0807 11.5728 4.29117 11.6673C6.07285 12.4677 8.04696 12.8907 10 12.8907C11.9531 12.8907 13.9272 12.4677 15.7088 11.6673C15.9193 11.5728 16.0547 11.3636 16.0547 11.1329V9.86589C14.1585 10.695 12.0685 11.1329 10 11.1329C7.93157 11.1328 5.84153 10.695 3.94531 9.86589Z" fill="currentColor"/>
<path d="M16.0547 5.97284L10.533 7.72976C10.1887 7.83996 9.81137 7.83996 9.46707 7.72976L3.94531 5.97284V8.5823L4.29117 8.73765C6.07285 9.53796 8.04696 9.96097 10 9.96097C11.9531 9.96097 13.9272 9.53796 15.7088 8.73765L16.0547 8.5823V5.97284Z" fill="currentColor"/>
<path d="M18.7714 2.76194L10.1777 0.0275684C10.0621 -0.00918946 9.93793 -0.00918946 9.82235 0.0275684L1.22859 2.76194C0.956368 2.84859 0.820274 3.08452 0.820313 3.32042V7.13144L0.0691407 9.38503C-0.0331641 9.69203 0.132734 10.0239 0.439727 10.1262C0.746641 10.2285 1.07856 10.0626 1.1809 9.75562L1.40625 9.07949L1.63164 9.75562C1.71352 10.0012 1.94207 10.1565 2.18746 10.1564C2.24887 10.1564 2.31137 10.1467 2.37281 10.1262C2.67981 10.0239 2.8457 9.6921 2.7434 9.38507L1.99219 7.13144V4.12159L9.82235 6.613C9.93793 6.6498 10.0621 6.6498 10.1777 6.613L18.7714 3.87862C19.3158 3.70546 19.3158 2.93515 18.7714 2.76194Z" fill="currentColor"/>
</svg>
