<svg width="16" height="13" viewBox="0 0 16 13" fill="none" xmlns="http://www.w3.org/2000/svg">
<path d="M16 7.83961L13.935 5.69461L16 3.91464V7.83961Z" fill="currentColor"/>
<path d="M2.0675 5.69461L0 7.84211V3.91464L2.0675 5.69461Z" fill="currentColor"/>
<path d="M16 9.78964V11.7646C16 12.2421 15.6125 12.6297 15.135 12.6297H0.865C0.387469 12.6297 0 12.2422 0 11.7646V9.78964L3.09247 6.57961L6.625 9.62208C6.9925 9.93714 7.47997 10.1121 8 10.1121C8.52003 10.1121 9.01 9.93714 9.3775 9.62208L12.9075 6.57961L16 9.78964Z" fill="currentColor"/>
<path d="M16 1.46211V2.32711L8.45494 8.82711C8.21244 9.03711 7.78747 9.03711 7.54497 8.82711L0 2.32711V1.46211C0 0.984641 0.387437 0.599609 0.865 0.599609H15.135C15.6125 0.599609 16 0.984641 16 1.46211Z" fill="currentColor"/>
</svg>
