<svg width="20" height="20" viewBox="0 0 20 20" fill="none" xmlns="http://www.w3.org/2000/svg">
<path d="M13.3333 13.2127V14.2424C13.3333 14.7445 12.9264 15.1515 12.4242 15.1515H7.57574C7.07375 15.1515 6.66664 14.7445 6.66664 14.2424V13.2127L1.21207 12.2209V18.4849C1.21207 18.987 1.61918 19.394 2.12117 19.394H17.8787C18.3809 19.394 18.7879 18.987 18.7879 18.4849V12.2211L13.3333 13.2127Z" fill="currentColor"/>
<path d="M19.0909 3.63637H14.5455V0.909102C14.5455 0.407031 14.1385 0 13.6364 0H6.36363C5.86164 0 5.45453 0.407031 5.45453 0.909102V3.63641H0.909102C0.407109 3.63637 0 4.04348 0 4.54547V9.39395C0 9.83328 0.314297 10.2098 0.746484 10.2884L6.66664 11.3648V10.6061C6.66664 10.104 7.07375 9.69699 7.57574 9.69699H12.4243C12.9264 9.69699 13.3334 10.104 13.3334 10.6061V11.3648L19.2536 10.2884C19.6859 10.2098 20 9.83328 20 9.39395V4.54547C20 4.04348 19.5931 3.63637 19.0909 3.63637ZM12.7273 3.63641H7.27273V1.8182H12.7273V3.63641Z" fill="currentColor"/>
</svg>
