<svg width="17" height="20" viewBox="0 0 17 20" fill="none" xmlns="http://www.w3.org/2000/svg">
<path d="M10.7335 13.2395C9.91358 13.2395 9.1619 13.5963 8.46206 13.9617C8.39891 13.9948 8.33532 14.0108 8.26777 14.0108C7.85228 14.0109 7.05948 13.4415 5.64204 10.7284C4.43127 8.41082 4.11618 7.07956 4.70542 6.77157C6.30248 5.93745 7.06418 4.83808 5.92875 1.93913C5.41812 0.634273 4.71439 0 3.77714 0C3.04421 0 2.3195 0.402188 1.68003 0.756995C1.53974 0.83481 1.40725 0.908357 1.2789 0.975409C0.372705 1.44879 -0.0988857 2.95363 0.0174038 5.00094C0.145075 7.24725 0.955699 9.89061 2.29996 12.4639C4.88882 17.4182 8.3412 20 10.4135 20C10.4136 20 10.4137 20 10.4138 20C10.6783 20 10.9191 19.9675 11.1295 19.8817C12.0447 19.5088 13.7483 18.82 14.1539 17.4951C14.3715 16.7845 14.193 15.9954 13.6235 15.1442C12.7642 13.8607 11.8189 13.2395 10.7335 13.2395Z" fill="currentColor"/>
<path d="M14.7478 5.2989C13.9323 4.00537 12.6988 2.86864 11.5286 2.33235C11.0629 2.11894 10.5121 2.32332 10.2986 2.78922C10.085 3.25505 10.2895 3.80576 10.7554 4.01929C11.5898 4.40174 12.5634 5.31369 13.1781 6.28866C13.7984 7.27242 14.2014 8.55526 14.181 9.48081C14.1696 9.9931 14.5757 10.4176 15.088 10.4289C15.095 10.4291 15.102 10.4292 15.109 10.4292C15.6118 10.4292 16.025 10.0272 16.0362 9.52182C16.0649 8.2229 15.5712 6.60475 14.7478 5.2989Z" fill="currentColor"/>
<path d="M8.76992 6.85118C9.20328 7.04987 9.80069 7.6289 10.1596 8.19804C10.5214 8.772 10.7862 9.56704 10.7755 10.0473C10.764 10.5596 11.1701 10.9842 11.6824 10.9956C11.6894 10.9958 11.6965 10.9959 11.7035 10.9959C12.2063 10.9959 12.6195 10.5939 12.6307 10.0887C12.6523 9.12093 12.1935 7.9448 11.7293 7.2084C11.2695 6.479 10.4151 5.56402 9.54325 5.16437C9.07747 4.95078 8.5267 5.1554 8.31311 5.62111C8.09959 6.08689 8.30414 6.63766 8.76992 6.85118Z" fill="currentColor"/>
</svg>
