<svg width="20" height="20" viewBox="0 0 20 20" fill="none" xmlns="http://www.w3.org/2000/svg">
<path d="M18.7678 11.6903C18.8728 11.1428 18.9283 10.578 18.9283 9.99997C18.9283 5.06911 14.9308 1.07189 10.0001 1.07189C9.42204 1.07189 8.85709 1.12747 8.30959 1.23245C6.33853 -0.48574 3.34594 -0.407855 1.46907 1.46895C-0.407862 3.3457 -0.485807 6.33848 1.23257 8.30966C1.12765 8.85703 1.07207 9.42199 1.07207 9.99997C1.07207 14.9309 5.06953 18.9281 10.0001 18.9281C10.5782 18.9281 11.1433 18.8725 11.6908 18.7675C13.6618 20.4857 16.6544 20.4079 18.5313 18.531C20.408 16.6542 20.486 13.6615 18.7678 11.6903ZM10.1702 15.4989C7.52596 15.4989 5.32245 14.317 5.32245 12.8746C5.32245 12.2337 5.68285 11.6525 6.50406 11.6525C7.76634 11.6525 7.88665 13.4554 10.0505 13.4554C11.0919 13.4554 11.7531 12.9947 11.7531 12.3938C11.7531 11.6525 11.112 11.5324 10.0704 11.272L8.34759 10.8514C6.6445 10.4306 5.32245 9.72952 5.32245 7.76622C5.32245 5.38228 7.68615 4.50094 9.70952 4.50094C11.9334 4.50094 14.177 5.38228 14.177 6.72439C14.177 7.40541 13.7159 8.00679 12.9549 8.00679C11.813 8.00679 11.7726 6.6645 9.93002 6.6645C8.90843 6.6645 8.24734 6.94489 8.24734 7.56603C8.24734 8.24705 8.90843 8.40712 9.81013 8.60762L11.0318 8.88819C12.6942 9.26852 14.6779 9.96979 14.6779 12.0135C14.6779 14.397 12.3737 15.4989 10.1702 15.4989Z" fill="currentColor"/>
</svg>
