<svg width="20" height="20" viewBox="0 0 20 20" fill="none" xmlns="http://www.w3.org/2000/svg">
<path d="M19.955 18.5626L18.5184 15.6902C18.3059 15.2644 17.8776 14.9994 17.401 14.9994H16.8385L12.047 10.2079L12.3878 9.86709C12.7745 9.48129 12.7745 8.85214 12.3703 8.44797C11.852 7.92967 11.3704 7.60801 10.8546 7.43634C10.4829 7.31216 10.1879 7.01717 10.0638 6.64555C9.89127 6.12889 9.57047 5.64727 9.05213 5.12979L4.63231 0.710791C3.71817 -0.203351 2.11823 -0.207492 1.19995 0.710791L0.709971 1.19995C0.25249 1.65825 0 2.26741 0 2.9182C0 3.56567 0.25249 4.17483 0.709971 4.63313L5.12897 9.05213C5.64727 9.57043 6.12893 9.89209 6.64473 10.0638C7.01639 10.1879 7.31138 10.4829 7.43552 10.8546C7.60719 11.3712 7.92967 11.8528 8.46297 12.3862C8.65215 12.5753 8.90128 12.6795 9.16712 12.6795C9.43129 12.6795 9.6796 12.5762 9.86709 12.3887L10.2079 12.0479L14.9994 16.8393V17.4018C14.9994 17.8784 15.2644 18.3067 15.6902 18.5201L18.5626 19.9567C18.6226 19.985 18.6859 19.9992 18.7492 19.9992C18.8567 19.9992 18.9634 19.9575 19.0442 19.8775L19.8775 19.0442C20.0042 18.9167 20.035 18.7234 19.955 18.5626Z" fill="currentColor"/>
<path d="M19.9925 3.91566C19.9842 3.77149 19.8858 3.63399 19.7592 3.56567C19.6292 3.49568 19.4717 3.49818 19.345 3.57399L17.0643 4.94144C16.3718 4.58313 15.9193 3.91148 15.8435 3.14569L18.3901 1.61825C18.5068 1.54826 18.5818 1.42576 18.5918 1.28995C18.601 1.15413 18.5435 1.02246 18.4376 0.936641C17.6935 0.335807 16.811 0.0124995 15.841 0C14.8086 0 13.7678 0.478301 12.9853 1.31327C12.0554 2.30405 11.6254 3.28651 11.6696 4.31482C11.6937 4.87898 11.4412 5.46896 10.9496 5.96226C10.8504 6.06557 10.8104 6.21224 10.8454 6.35056C10.8787 6.48973 10.9821 6.60137 11.1179 6.64637C11.7521 6.85636 12.3537 7.25302 12.9586 7.85882C13.202 8.10213 13.3661 8.3988 13.4469 8.7421C13.4819 8.88878 13.5936 9.00541 13.7386 9.04709C13.7761 9.05791 13.8144 9.06291 13.8528 9.06291C13.962 9.06291 14.0678 9.02041 14.1478 8.94123L14.8802 8.20877C15.2186 8.29294 15.526 8.33294 15.8327 8.33294C16.9752 8.33294 18.0801 7.85628 18.8651 7.02467C19.66 6.18143 20.0609 5.07729 19.9925 3.91566Z" fill="currentColor"/>
<path d="M9.05045 13.7419C9.00627 13.6003 8.89128 13.4903 8.74714 13.4569C8.41298 13.3786 8.11135 13.212 7.87386 12.9745C7.25888 12.3603 6.85722 11.7528 6.64559 11.117C6.59977 10.9795 6.48641 10.8762 6.34642 10.8429C6.20643 10.8087 6.05811 10.8521 5.95562 10.9537L5.8773 11.0329C5.46813 11.4412 4.86984 11.6662 4.16655 11.6662C1.8691 11.6662 0 13.5353 0 15.8327C0 15.9785 0.0183196 16.1185 0.0374985 16.2593L0.0508182 16.3577C0.0683175 16.4968 0.155814 16.6185 0.282488 16.6793C0.409163 16.741 0.557477 16.7343 0.679152 16.6618L3.35154 15.0586C4.04401 15.4169 4.4965 16.0885 4.57231 16.8543L1.78493 18.5267C1.66411 18.5992 1.58826 18.7276 1.58326 18.8675C1.57744 19.0075 1.64325 19.1417 1.75743 19.2234C2.46908 19.7292 3.29904 19.9983 4.15901 20H4.16401C5.19897 20 6.24392 19.5142 7.03221 18.6684C7.94967 17.6842 8.37384 16.7093 8.33048 15.6877C8.30798 15.1577 8.53129 14.6102 8.95877 14.1461C9.05963 14.0377 9.09463 13.8836 9.05045 13.7419Z" fill="currentColor"/>
</svg>
