<svg width="18" height="20" viewBox="0 0 18 20" fill="none" xmlns="http://www.w3.org/2000/svg">
<path d="M8.95257 10.3855C11.8097 10.3855 14.1453 8.04991 14.1453 5.19275C14.1453 2.33559 11.8097 0 8.95257 0C6.09541 0 3.75986 2.33559 3.75986 5.19275C3.75986 8.04991 6.09545 10.3855 8.95257 10.3855Z" fill="currentColor"/>
<path d="M17.8642 14.5352C17.7281 14.195 17.5467 13.8776 17.3426 13.5828C16.2995 12.0408 14.6896 11.0204 12.8755 10.771C12.6488 10.7483 12.3994 10.7936 12.2179 10.9297C11.2655 11.6326 10.1318 11.9954 8.95262 11.9954C7.77345 11.9954 6.63968 11.6326 5.6873 10.9297C5.50587 10.7936 5.25644 10.7256 5.0297 10.771C3.21564 11.0204 1.583 12.0408 0.562599 13.5828C0.358519 13.8776 0.177095 14.2177 0.041071 14.5352C-0.0269412 14.6712 -0.00428496 14.8299 0.0637272 14.966C0.245151 15.2835 0.471887 15.601 0.675967 15.873C0.993415 16.3039 1.33356 16.6894 1.71907 17.0522C2.03651 17.3696 2.39932 17.6644 2.76216 17.9592C4.55353 19.2971 6.70774 20 8.92996 20C11.1522 20 13.3064 19.297 15.0978 17.9592C15.4606 17.6871 15.8234 17.3696 16.1409 17.0522C16.5037 16.6894 16.8665 16.3039 17.184 15.873C17.4107 15.5783 17.6148 15.2835 17.7962 14.966C17.9095 14.8299 17.9322 14.6712 17.8642 14.5352Z" fill="currentColor"/>
</svg>
