<svg width="16" height="16" viewBox="0 0 16 16" fill="none" xmlns="http://www.w3.org/2000/svg">
<path d="M8 0C3.58172 0 0 3.58172 0 8C0 12.4183 3.58172 16 8 16C12.4183 16 16 12.4183 16 8C16 3.58172 12.4183 0 8 0ZM13.0711 4.5625H11.6128C11.4451 3.85897 11.2276 3.21209 10.9694 2.64019C11.4627 2.91444 11.9209 3.25884 12.331 3.66897C12.6082 3.94616 12.8552 4.24544 13.0711 4.5625ZM14.125 8C14.125 8.53463 14.0565 9.05866 13.9246 9.5625H11.9235C11.9735 9.05713 12 8.53478 12 8C12 7.46522 11.9735 6.94287 11.9235 6.4375H13.9246C14.0565 6.94134 14.125 7.46537 14.125 8ZM8 14.125C7.8375 14.125 7.34225 13.8056 6.84863 12.8183C6.64416 12.4094 6.46869 11.9435 6.32513 11.4375H9.67484C9.53128 11.9435 9.35584 12.4094 9.15134 12.8183C8.65775 13.8056 8.1625 14.125 8 14.125ZM5.96291 9.5625C5.90519 9.05478 5.875 8.53034 5.875 8C5.875 7.46966 5.90519 6.94522 5.96291 6.4375H10.0371C10.0948 6.94522 10.125 7.46966 10.125 8C10.125 8.53034 10.0948 9.05478 10.0371 9.5625H5.96291ZM1.875 8C1.875 7.46537 1.94347 6.94134 2.07544 6.4375H4.0765C4.02647 6.94287 4 7.46522 4 8C4 8.53478 4.02647 9.05713 4.0765 9.5625H2.07544C1.94347 9.05866 1.875 8.53463 1.875 8ZM8 1.875C8.1625 1.875 8.65775 2.19441 9.15137 3.18166C9.35584 3.59063 9.53131 4.05647 9.67488 4.5625H6.32513C6.46869 4.0565 6.64413 3.59063 6.84863 3.18166C7.34225 2.19441 7.8375 1.875 8 1.875ZM5.03059 2.64019C4.77234 3.21209 4.55491 3.85894 4.38725 4.5625H2.92891C3.14481 4.24544 3.39178 3.94616 3.66897 3.66897C4.07909 3.25884 4.53728 2.91444 5.03059 2.64019ZM2.92891 11.4375H4.38725C4.55491 12.141 4.77238 12.7879 5.03059 13.3598C4.53728 13.0856 4.07906 12.7412 3.66897 12.331C3.39178 12.0538 3.14478 11.7546 2.92891 11.4375ZM10.9694 13.3598C11.2277 12.7879 11.4451 12.1411 11.6128 11.4375H13.0711C12.8552 11.7546 12.6082 12.0538 12.331 12.331C11.9209 12.7412 11.4627 13.0856 10.9694 13.3598Z" fill="currentColor"/>
</svg>
