<svg width="85" height="60" viewBox="0 0 85 60" fill="none" xmlns="http://www.w3.org/2000/svg">
<path fill-rule="evenodd" clip-rule="evenodd" d="M33.6071 41.0646L33.6044 17.096L56.4909 29.1216L33.6071 41.0646ZM83.8588 12.9426C83.8588 12.9426 83.0303 7.06449 80.4918 4.47596C77.2703 1.07702 73.6597 1.06099 72.0053 0.863719C60.1518 -1.25212e-05 42.3715 0 42.3715 0H42.3344C42.3344 0 24.5541 -1.25212e-05 12.7006 0.863719C11.0435 1.06099 7.4356 1.07702 4.21148 4.47596C1.67295 7.06449 0.847051 12.9426 0.847051 12.9426C0.847051 12.9426 0 19.8472 0 26.749V33.2217C0 40.1262 0.847051 47.0281 0.847051 47.0281C0.847051 47.0281 1.67295 52.9062 4.21148 55.4947C7.4356 58.8937 11.6682 58.7871 13.5529 59.1416C20.3294 59.7974 42.3529 60 42.3529 60C42.3529 60 60.1518 59.9734 72.0053 59.1096C73.6597 58.9097 77.2703 58.8937 80.4918 55.4947C83.0303 52.9062 83.8588 47.0281 83.8588 47.0281C83.8588 47.0281 84.7059 40.1262 84.7059 33.2217V26.749C84.7059 19.8472 83.8588 12.9426 83.8588 12.9426Z" fill="currentColor"/>
</svg>
