<svg width="843" height="420" viewBox="0 0 843 420" fill="none" xmlns="http://www.w3.org/2000/svg">
<g opacity="0.3">
<path opacity="0.3" d="M456.046 190.686L395.226 264.076L354.848 184.042L456.046 190.686Z" fill="white" stroke="white" stroke-width="1.4967"/>
<path opacity="0.3" d="M841.219 271.282L806.91 312.682L784.133 267.534L841.219 271.282Z" fill="white" stroke="white" stroke-width="1.4967"/>
<path opacity="0.3" d="M5.44162 155.298L62.0836 131.473L61.3101 189.26L5.44162 155.298Z" fill="white" stroke="white" stroke-width="1.4967"/>
<path opacity="0.3" d="M649.792 386.875L599.295 380.068L624.161 339.104L649.792 386.875Z" fill="white" stroke="white" stroke-width="1.4967"/>
<path opacity="0.3" d="M667.18 199.877L691.883 210.587L673.359 227.852L667.18 199.877Z" fill="white" stroke="white" stroke-width="1.4967"/>
<path opacity="0.3" d="M226.577 261.616C226.577 306.686 190.04 343.223 144.969 343.223C99.8985 343.223 63.3616 306.686 63.3616 261.616C63.3616 216.545 99.8985 180.008 144.969 180.008C190.04 180.008 226.577 216.545 226.577 261.616Z" fill="white" stroke="white" stroke-width="1.4967"/>
<g opacity="0.55">
<path opacity="0.1" d="M659.178 226.557C659.178 233.801 653.305 239.674 646.061 239.674C638.816 239.674 632.944 233.801 632.944 226.557C632.944 219.313 638.816 213.44 646.061 213.44C653.305 213.44 659.178 219.313 659.178 226.557Z" fill="white" stroke="white" stroke-width="1.4967"/>
</g>
<path opacity="0.3" d="M404.754 123.825C404.754 138.247 393.063 149.938 378.642 149.938C364.22 149.938 352.53 138.247 352.53 123.825C352.53 109.404 364.22 97.7132 378.642 97.7132C393.063 97.7132 404.754 109.404 404.754 123.825Z" fill="white" stroke="white" stroke-width="1.4967"/>
<g opacity="0.3">
<path d="M124.607 22.6719L37.5586 109.722C37.9618 112.21 38.4838 114.658 39.1232 117.06L131.947 24.2365C129.544 23.597 127.095 23.075 124.607 22.6719Z" fill="white" stroke="white" stroke-width="1.00997" stroke-miterlimit="10"/>
<path d="M131.945 24.2363L39.1211 117.06C39.7325 119.359 40.4428 121.618 41.2598 123.825L138.709 26.375C136.503 25.558 134.244 24.8478 131.945 24.2363Z" fill="white" stroke="white" stroke-width="1.00997" stroke-miterlimit="10"/>
<path d="M161.207 39.4902L54.375 146.322C55.7287 147.931 57.1412 149.488 58.623 150.977L165.862 43.7383C164.372 42.2577 162.816 40.8453 161.207 39.4902Z" fill="white" stroke="white" stroke-width="1.00997" stroke-miterlimit="10"/>
<path d="M156.183 35.6133L50.5 141.296C51.7255 143.025 53.0138 144.704 54.3769 146.322L161.209 39.4902C159.591 38.1271 157.911 36.8375 156.183 35.6133Z" fill="white" stroke="white" stroke-width="1.00997" stroke-miterlimit="10"/>
<path d="M144.967 29.0195L43.9023 130.084C44.8489 132.071 45.8888 134.004 46.9982 135.892L150.774 32.1154C148.888 31.006 146.955 29.9661 144.967 29.0195Z" fill="white" stroke="white" stroke-width="1.00997" stroke-miterlimit="10"/>
<path d="M150.776 32.1152L47 135.891C48.0907 137.746 49.2589 139.547 50.4991 141.296L156.182 35.613C154.431 34.3741 152.63 33.2059 150.776 32.1152Z" fill="white" stroke="white" stroke-width="1.00997" stroke-miterlimit="10"/>
<path d="M138.711 26.375L41.2617 123.824C42.0507 125.958 42.9345 128.046 43.905 130.083L144.97 29.0183C142.933 28.0491 140.845 27.1653 138.711 26.375Z" fill="white" stroke="white" stroke-width="1.00997" stroke-miterlimit="10"/>
<path d="M41.7812 69.8846L84.7674 26.8984C65.12 34.5921 49.4763 50.2372 41.7812 69.8846Z" fill="white" stroke="white" stroke-width="1.00997" stroke-miterlimit="10"/>
<path d="M84.7695 26.8979L41.7833 69.8841C40.196 73.9372 38.933 78.1532 38.0586 82.512L97.3987 23.1719C93.0399 24.0476 88.8239 25.3106 84.7695 26.8979Z" fill="white" stroke="white" stroke-width="1.00997" stroke-miterlimit="10"/>
<path d="M116.576 21.8008L36.6875 101.689C36.8344 104.408 37.1321 107.086 37.5593 109.721L124.608 22.6712C121.972 22.2467 119.294 21.949 116.576 21.8008Z" fill="white" stroke="white" stroke-width="1.00997" stroke-miterlimit="10"/>
<path d="M112.402 21.6816C110.796 21.6816 109.207 21.7484 107.627 21.8472L36.7319 92.7419C36.6332 94.3225 36.5664 95.9112 36.5664 97.5172C36.5664 98.9176 36.6105 100.309 36.6852 101.69L116.574 21.8018C115.193 21.7257 113.802 21.6816 112.402 21.6816Z" fill="white" stroke="white" stroke-width="1.00997" stroke-miterlimit="10"/>
<path d="M97.3963 23.1714L38.0561 82.5115C37.386 85.8464 36.9467 89.2627 36.7305 92.7404L107.625 21.8457C104.147 22.062 100.731 22.5025 97.3963 23.1714Z" fill="white" stroke="white" stroke-width="1.00997" stroke-miterlimit="10"/>
<path d="M187.148 84.7715L99.6562 172.263C102.274 172.706 104.935 173.019 107.636 173.186L188.07 92.7509C187.903 90.0501 187.591 87.3895 187.148 84.7715Z" fill="white" stroke="white" stroke-width="1.00997" stroke-miterlimit="10"/>
<path d="M188.24 97.5166C188.24 95.9146 188.173 94.3299 188.075 92.752L107.641 173.187C109.217 173.284 110.803 173.351 112.405 173.351C113.776 173.351 115.139 173.309 116.493 173.239L188.129 101.603C188.198 100.251 188.24 98.889 188.24 97.5166Z" fill="white" stroke="white" stroke-width="1.00997" stroke-miterlimit="10"/>
<path d="M188.124 101.604L116.488 173.239C119.937 173.056 123.32 172.628 126.632 171.999L186.884 111.747C187.514 108.435 187.941 105.052 188.124 101.604Z" fill="white" stroke="white" stroke-width="1.00997" stroke-miterlimit="10"/>
<path d="M186.885 111.748L126.633 172C130.886 171.192 135.015 170.037 138.986 168.55L183.436 124.1C184.922 120.131 186.077 116.001 186.885 111.748Z" fill="white" stroke="white" stroke-width="1.00997" stroke-miterlimit="10"/>
<path d="M183.435 124.1L138.984 168.55C159.478 160.877 175.761 144.595 183.435 124.1Z" fill="white" stroke="white" stroke-width="1.00997" stroke-miterlimit="10"/>
<path d="M185.541 77.4766L92.3633 170.654C94.7503 171.307 97.1827 171.844 99.6578 172.263L187.149 84.7711C186.73 82.2973 186.194 79.8636 185.541 77.4766Z" fill="white" stroke="white" stroke-width="1.00997" stroke-miterlimit="10"/>
<path d="M174.039 53.3652L68.25 159.155C69.9895 160.403 71.7771 161.586 73.6221 162.686L177.57 58.7373C176.469 56.8923 175.288 55.1048 174.039 53.3652Z" fill="white" stroke="white" stroke-width="1.00997" stroke-miterlimit="10"/>
<path d="M170.133 48.3691L63.2539 155.247C64.8626 156.618 66.5287 157.919 68.2495 159.154L174.039 53.3648C172.805 51.6453 171.504 49.9778 170.133 48.3691Z" fill="white" stroke="white" stroke-width="1.00997" stroke-miterlimit="10"/>
<path d="M183.363 70.752L85.6367 168.478C87.8315 169.305 90.0756 170.03 92.3625 170.655L185.54 77.4778C184.915 75.1909 184.192 72.9467 183.363 70.752Z" fill="white" stroke="white" stroke-width="1.00997" stroke-miterlimit="10"/>
<path d="M165.864 43.7383L58.625 150.977C60.1055 152.467 61.6582 153.885 63.2575 155.248L170.136 48.3708C168.772 46.7714 167.354 45.2201 165.864 43.7383Z" fill="white" stroke="white" stroke-width="1.00997" stroke-miterlimit="10"/>
<path d="M180.697 64.5176L79.4023 165.812C81.4302 166.794 83.5142 167.678 85.6382 168.479L183.364 70.7534C182.563 68.6281 181.679 66.5455 180.697 64.5176Z" fill="white" stroke="white" stroke-width="1.00997" stroke-miterlimit="10"/>
<path d="M177.573 58.7383L73.625 162.687C75.502 163.807 77.4258 164.855 79.403 165.812L180.697 64.5176C179.74 62.5391 178.692 60.6153 177.573 58.7383Z" fill="white" stroke="white" stroke-width="1.00997" stroke-miterlimit="10"/>
</g>
<path opacity="0.5" d="M565.149 145.854C565.069 145.485 564.997 145.114 564.931 144.74L598.092 111.58C598.465 111.645 598.836 111.718 599.205 111.798L565.149 145.854Z" fill="white" stroke="white" stroke-width="1.4967"/>
<path opacity="0.5" d="M565.879 148.57C565.77 148.232 565.667 147.891 565.571 147.547L600.899 112.22C601.243 112.316 601.583 112.419 601.921 112.527L565.879 148.57Z" fill="white" stroke="white" stroke-width="1.4967"/>
<path opacity="0.5" d="M572.294 159.391C572.079 159.163 571.868 158.93 571.661 158.694L612.045 118.31C612.281 118.517 612.514 118.728 612.742 118.943L572.294 159.391Z" fill="white" stroke="white" stroke-width="1.4967"/>
<path opacity="0.5" d="M570.697 157.542C570.501 157.294 570.309 157.043 570.121 156.788L610.14 116.769C610.395 116.957 610.646 117.15 610.894 117.346L570.697 157.542Z" fill="white" stroke="white" stroke-width="1.4967"/>
<path opacity="0.5" d="M567.951 153.394C567.793 153.105 567.64 152.815 567.493 152.521L605.87 114.143C606.164 114.291 606.455 114.443 606.744 114.601L567.951 153.394Z" fill="white" stroke="white" stroke-width="1.4967"/>
<path opacity="0.5" d="M569.248 155.545C569.07 155.277 568.897 155.007 568.728 154.733L608.085 115.376C608.359 115.545 608.629 115.718 608.897 115.896L569.248 155.545Z" fill="white" stroke="white" stroke-width="1.4967"/>
<path opacity="0.5" d="M566.821 151.075C566.686 150.764 566.557 150.449 566.434 150.132L603.483 113.083C603.8 113.206 604.115 113.335 604.426 113.47L566.821 151.075Z" fill="white" stroke="white" stroke-width="1.4967"/>
<path opacity="0.5" d="M568.356 125.41C570.859 121.102 574.453 117.508 578.762 115.005L568.356 125.41Z" fill="white" stroke="white" stroke-width="1.4967"/>
<path opacity="0.5" d="M565.709 131.507C565.917 130.82 566.15 130.143 566.407 129.477L582.829 113.055C583.495 112.798 584.172 112.565 584.859 112.357L565.709 131.507Z" fill="white" stroke="white" stroke-width="1.4967"/>
<path opacity="0.5" d="M564.668 142.886C564.624 142.481 564.588 142.074 564.56 141.664L595.018 111.207C595.427 111.234 595.834 111.27 596.24 111.315L564.668 142.886Z" fill="white" stroke="white" stroke-width="1.4967"/>
<path opacity="0.5" d="M564.54 138.237L591.589 111.189C592.047 111.163 592.505 111.146 592.965 111.143L564.495 139.613C564.498 139.154 564.515 138.696 564.54 138.237Z" fill="white" stroke="white" stroke-width="1.4967"/>
<path opacity="0.5" d="M564.755 135.905C564.826 135.37 564.912 134.84 565.013 134.317L587.667 111.662C588.191 111.562 588.721 111.476 589.255 111.405L564.755 135.905Z" fill="white" stroke="white" stroke-width="1.4967"/>
<path opacity="0.5" d="M590.977 168.291C590.569 168.261 590.165 168.222 589.762 168.175L621.525 136.411C621.572 136.813 621.611 137.219 621.641 137.626L590.977 168.291Z" fill="white" stroke="white" stroke-width="1.4967"/>
<path opacity="0.5" d="M593.008 168.375L621.727 139.657C621.727 139.691 621.727 139.725 621.727 139.759C621.727 140.18 621.717 140.599 621.698 141.017L594.369 168.347C593.95 168.365 593.531 168.376 593.111 168.376C593.077 168.376 593.043 168.376 593.008 168.375Z" fill="white" stroke="white" stroke-width="1.4967"/>
<path opacity="0.5" d="M598.254 167.906C597.733 168.001 597.209 168.082 596.68 168.149L621.499 143.33C621.432 143.859 621.351 144.383 621.256 144.903L598.254 167.906Z" fill="white" stroke="white" stroke-width="1.4967"/>
<path opacity="0.5" d="M602.991 166.62C602.343 166.859 601.684 167.074 601.015 167.265L620.616 147.663C620.425 148.332 620.21 148.991 619.972 149.639L602.991 166.62Z" fill="white" stroke="white" stroke-width="1.4967"/>
<path opacity="0.5" d="M618.195 153.531C615.576 158.291 611.641 162.225 606.881 164.845L618.195 153.531Z" fill="white" stroke="white" stroke-width="1.4967"/>
<path opacity="0.5" d="M587.923 167.899C587.551 167.831 587.183 167.755 586.817 167.673L621.025 133.465C621.107 133.831 621.182 134.2 621.249 134.571L587.923 167.899Z" fill="white" stroke="white" stroke-width="1.4967"/>
<path opacity="0.5" d="M577.979 164.049C577.707 163.879 577.439 163.704 577.173 163.525L616.872 123.825C617.051 124.091 617.226 124.36 617.396 124.631L577.979 164.049Z" fill="white" stroke="white" stroke-width="1.4967"/>
<path opacity="0.5" d="M575.941 162.642C575.688 162.452 575.439 162.258 575.193 162.06L615.414 121.839C615.612 122.085 615.806 122.335 615.996 122.587L575.941 162.642Z" fill="white" stroke="white" stroke-width="1.4967"/>
<path opacity="0.5" d="M585.132 167.242C584.79 167.143 584.451 167.038 584.115 166.927L620.277 130.765C620.388 131.101 620.493 131.44 620.592 131.782L585.132 167.242Z" fill="white" stroke="white" stroke-width="1.4967"/>
<path opacity="0.5" d="M573.35 160.453L613.803 120C614.019 120.228 614.231 120.459 614.44 120.695L574.044 161.091C573.809 160.882 573.577 160.669 573.35 160.453Z" fill="white" stroke="white" stroke-width="1.4967"/>
<path opacity="0.5" d="M582.562 166.363C582.246 166.238 581.932 166.108 581.621 165.972L619.324 128.269C619.46 128.58 619.59 128.894 619.715 129.211L582.562 166.363Z" fill="white" stroke="white" stroke-width="1.4967"/>
<path opacity="0.5" d="M580.182 165.295C579.89 165.147 579.6 164.993 579.313 164.834L618.182 125.964C618.341 126.25 618.495 126.54 618.645 126.833L580.182 165.295Z" fill="white" stroke="white" stroke-width="1.4967"/>
<g opacity="0.3">
<path d="M325.281 248.027L275.055 298.253C275.287 299.69 275.589 301.102 275.957 302.488L329.514 248.931C328.128 248.561 326.716 248.26 325.281 248.027Z" fill="white" stroke="white" stroke-width="0.748349" stroke-miterlimit="10"/>
<path d="M329.514 248.93L275.957 302.487C276.309 303.812 276.719 305.115 277.191 306.39L333.417 250.163C332.144 249.692 330.841 249.282 329.514 248.93Z" fill="white" stroke="white" stroke-width="0.748349" stroke-miterlimit="10"/>
<path d="M346.398 257.73L284.758 319.371C285.539 320.299 286.354 321.197 287.209 322.057L349.084 260.182C348.224 259.327 347.326 258.511 346.398 257.73Z" fill="white" stroke="white" stroke-width="0.748349" stroke-miterlimit="10"/>
<path d="M343.5 255.494L282.523 316.471C283.23 317.468 283.975 318.437 284.76 319.371L346.4 257.73C345.467 256.944 344.498 256.2 343.5 255.494Z" fill="white" stroke="white" stroke-width="0.748349" stroke-miterlimit="10"/>
<path d="M337.031 251.689L278.719 310.002C279.265 311.148 279.864 312.263 280.505 313.353L340.382 253.476C339.292 252.835 338.178 252.235 337.031 251.689Z" fill="white" stroke="white" stroke-width="0.748349" stroke-miterlimit="10"/>
<path d="M340.381 253.475L280.504 313.351C281.133 314.422 281.807 315.461 282.522 316.47L343.499 255.493C342.49 254.779 341.45 254.105 340.381 253.475Z" fill="white" stroke="white" stroke-width="0.748349" stroke-miterlimit="10"/>
<path d="M333.418 250.164L277.191 306.391C277.647 307.622 278.157 308.826 278.717 310.002L337.03 251.69C335.853 251.129 334.649 250.619 333.418 250.164Z" fill="white" stroke="white" stroke-width="0.748349" stroke-miterlimit="10"/>
<path d="M277.492 275.267L302.294 250.465C290.958 254.904 281.931 263.93 277.492 275.267Z" fill="white" stroke="white" stroke-width="0.748349" stroke-miterlimit="10"/>
<path d="M302.295 250.466L277.493 275.268C276.577 277.607 275.848 280.039 275.344 282.554L309.582 248.316C307.066 248.821 304.634 249.55 302.295 250.466Z" fill="white" stroke="white" stroke-width="0.748349" stroke-miterlimit="10"/>
<path d="M320.645 247.525L274.551 293.619C274.636 295.188 274.807 296.733 275.054 298.253L325.28 248.027C323.759 247.782 322.214 247.611 320.645 247.525Z" fill="white" stroke="white" stroke-width="0.748349" stroke-miterlimit="10"/>
<path d="M318.24 247.455C317.313 247.455 316.396 247.494 315.484 247.55L274.579 288.455C274.523 289.367 274.484 290.284 274.484 291.21C274.484 292.018 274.51 292.82 274.554 293.619L320.648 247.525C319.85 247.48 319.047 247.455 318.24 247.455Z" fill="white" stroke="white" stroke-width="0.748349" stroke-miterlimit="10"/>
<path d="M309.581 248.316L275.343 282.554C274.957 284.477 274.702 286.449 274.578 288.456L315.483 247.551C313.477 247.675 311.505 247.929 309.581 248.316Z" fill="white" stroke="white" stroke-width="0.748349" stroke-miterlimit="10"/>
<path d="M361.368 283.857L310.887 334.338C312.397 334.595 313.932 334.775 315.491 334.871L361.9 288.462C361.804 286.903 361.624 285.367 361.368 283.857Z" fill="white" stroke="white" stroke-width="0.748349" stroke-miterlimit="10"/>
<path d="M361.996 291.212C361.996 290.288 361.957 289.372 361.901 288.463L315.492 334.872C316.403 334.928 317.317 334.967 318.241 334.967C319.033 334.967 319.818 334.943 320.6 334.901L361.932 293.569C361.972 292.788 361.996 292.002 361.996 291.212Z" fill="white" stroke="white" stroke-width="0.748349" stroke-miterlimit="10"/>
<path d="M361.93 293.568L320.598 334.9C322.588 334.795 324.539 334.548 326.45 334.185L361.214 299.421C361.577 297.511 361.824 295.559 361.93 293.568Z" fill="white" stroke="white" stroke-width="0.748349" stroke-miterlimit="10"/>
<path d="M361.213 299.422L326.449 334.186C328.903 333.72 331.286 333.054 333.577 332.195L359.224 306.548C360.081 304.259 360.747 301.876 361.213 299.422Z" fill="white" stroke="white" stroke-width="0.748349" stroke-miterlimit="10"/>
<path d="M359.225 306.549L333.578 332.196C345.402 327.769 354.797 318.374 359.225 306.549Z" fill="white" stroke="white" stroke-width="0.748349" stroke-miterlimit="10"/>
<path d="M360.438 279.648L306.676 333.411C308.054 333.787 309.457 334.097 310.884 334.339L361.365 283.858C361.124 282.429 360.815 281.026 360.438 279.648Z" fill="white" stroke="white" stroke-width="0.748349" stroke-miterlimit="10"/>
<path d="M353.804 265.736L292.766 326.775C293.77 327.494 294.802 328.176 295.866 328.812L355.841 268.836C355.207 267.772 354.525 266.74 353.804 265.736Z" fill="white" stroke="white" stroke-width="0.748349" stroke-miterlimit="10"/>
<path d="M351.55 262.854L289.883 324.521C290.811 325.311 291.772 326.063 292.765 326.775L353.803 265.737C353.092 264.743 352.34 263.781 351.55 262.854Z" fill="white" stroke="white" stroke-width="0.748349" stroke-miterlimit="10"/>
<path d="M359.183 275.768L302.797 332.153C304.064 332.631 305.359 333.049 306.678 333.41L360.44 279.647C360.078 278.329 359.661 277.035 359.183 275.768Z" fill="white" stroke="white" stroke-width="0.748349" stroke-miterlimit="10"/>
<path d="M349.664 260.445L287.789 322.321C288.643 323.18 289.539 323.999 290.462 324.785L352.129 263.118C351.342 262.196 350.524 261.3 349.664 260.445Z" fill="white" stroke="white" stroke-width="0.748349" stroke-miterlimit="10"/>
<path d="M357.645 272.17L299.199 330.616C300.37 331.182 301.572 331.692 302.797 332.155L359.183 275.769C358.721 274.542 358.211 273.341 357.645 272.17Z" fill="white" stroke="white" stroke-width="0.748349" stroke-miterlimit="10"/>
<path d="M355.839 268.836L295.863 328.812C296.946 329.458 298.057 330.062 299.197 330.614L357.642 272.168C357.09 271.029 356.485 269.919 355.839 268.836Z" fill="white" stroke="white" stroke-width="0.748349" stroke-miterlimit="10"/>
</g>
<g opacity="0.3">
<path d="M738.394 296.004L688.168 346.23C688.4 347.666 688.702 349.079 689.07 350.465L742.627 296.908C741.243 296.538 739.83 296.236 738.394 296.004Z" fill="white" stroke="white" stroke-width="0.748349" stroke-miterlimit="10"/>
<path d="M742.627 296.906L689.07 350.463C689.423 351.789 689.833 353.093 690.304 354.367L746.531 298.14C745.257 297.669 743.954 297.259 742.627 296.906Z" fill="white" stroke="white" stroke-width="0.748349" stroke-miterlimit="10"/>
<path d="M759.511 305.705L697.871 367.345C698.652 368.273 699.468 369.172 700.322 370.031L762.198 308.156C761.338 307.302 760.439 306.487 759.511 305.705Z" fill="white" stroke="white" stroke-width="0.748349" stroke-miterlimit="10"/>
<path d="M756.614 303.471L695.637 364.448C696.343 365.445 697.088 366.414 697.873 367.347L759.513 305.707C758.58 304.922 757.611 304.177 756.614 303.471Z" fill="white" stroke="white" stroke-width="0.748349" stroke-miterlimit="10"/>
<path d="M750.144 299.664L691.832 357.976C692.378 359.123 692.977 360.238 693.618 361.327L753.495 301.45C752.406 300.81 751.291 300.21 750.144 299.664Z" fill="white" stroke="white" stroke-width="0.748349" stroke-miterlimit="10"/>
<path d="M753.494 301.451L693.617 361.328C694.246 362.399 694.92 363.437 695.636 364.447L756.613 303.47C755.603 302.754 754.563 302.08 753.494 301.451Z" fill="white" stroke="white" stroke-width="0.748349" stroke-miterlimit="10"/>
<path d="M746.532 298.139L690.305 354.366C690.76 355.596 691.27 356.801 691.831 357.977L750.143 299.665C748.967 299.104 747.762 298.594 746.532 298.139Z" fill="white" stroke="white" stroke-width="0.748349" stroke-miterlimit="10"/>
<path d="M690.605 323.243L715.407 298.441C704.072 302.88 695.044 311.908 690.605 323.243Z" fill="white" stroke="white" stroke-width="0.748349" stroke-miterlimit="10"/>
<path d="M715.408 298.44L690.606 323.242C689.691 325.581 688.962 328.014 688.457 330.529L722.695 296.291C720.18 296.796 717.747 297.525 715.408 298.44Z" fill="white" stroke="white" stroke-width="0.748349" stroke-miterlimit="10"/>
<path d="M733.758 295.5L687.664 341.594C687.75 343.163 687.92 344.707 688.167 346.228L738.393 296.002C736.873 295.758 735.327 295.585 733.758 295.5Z" fill="white" stroke="white" stroke-width="0.748349" stroke-miterlimit="10"/>
<path d="M731.353 295.432C730.426 295.432 729.509 295.47 728.597 295.526L687.692 336.431C687.636 337.343 687.598 338.26 687.598 339.187C687.598 339.994 687.623 340.797 687.667 341.595L733.761 295.501C732.963 295.457 732.161 295.432 731.353 295.432Z" fill="white" stroke="white" stroke-width="0.748349" stroke-miterlimit="10"/>
<path d="M722.694 296.292L688.456 330.53C688.071 332.454 687.817 334.426 687.691 336.432L728.596 295.527C726.59 295.653 724.618 295.906 722.694 296.292Z" fill="white" stroke="white" stroke-width="0.748349" stroke-miterlimit="10"/>
<path d="M774.481 331.834L724 382.315C725.51 382.57 727.045 382.75 728.604 382.848L775.014 336.438C774.917 334.879 774.737 333.344 774.481 331.834Z" fill="white" stroke="white" stroke-width="0.748349" stroke-miterlimit="10"/>
<path d="M775.109 339.186C775.109 338.262 775.071 337.347 775.015 336.438L728.605 382.847C729.516 382.903 730.43 382.941 731.354 382.941C732.146 382.941 732.931 382.917 733.712 382.876L775.044 341.544C775.085 340.763 775.109 339.978 775.109 339.186Z" fill="white" stroke="white" stroke-width="0.748349" stroke-miterlimit="10"/>
<path d="M775.043 341.545L733.711 382.877C735.701 382.772 737.653 382.525 739.564 382.161L774.329 347.398C774.691 345.487 774.938 343.535 775.043 341.545Z" fill="white" stroke="white" stroke-width="0.748349" stroke-miterlimit="10"/>
<path d="M774.328 347.396L739.562 382.16C742.016 381.694 744.399 381.028 746.69 380.17L772.337 354.523C773.196 352.233 773.862 349.85 774.328 347.396Z" fill="white" stroke="white" stroke-width="0.748349" stroke-miterlimit="10"/>
<path d="M772.338 354.525L746.691 380.172C758.516 375.744 767.91 366.35 772.338 354.525Z" fill="white" stroke="white" stroke-width="0.748349" stroke-miterlimit="10"/>
<path d="M773.551 327.625L719.789 381.387C721.167 381.764 722.57 382.074 723.998 382.315L774.479 331.834C774.238 330.406 773.928 329.003 773.551 327.625Z" fill="white" stroke="white" stroke-width="0.748349" stroke-miterlimit="10"/>
<path d="M766.917 313.713L705.879 374.751C706.883 375.471 707.915 376.153 708.979 376.788L768.954 316.813C768.32 315.749 767.638 314.717 766.917 313.713Z" fill="white" stroke="white" stroke-width="0.748349" stroke-miterlimit="10"/>
<path d="M764.663 310.83L702.996 372.497C703.924 373.287 704.886 374.039 705.878 374.752L766.917 313.714C766.205 312.72 765.454 311.759 764.663 310.83Z" fill="white" stroke="white" stroke-width="0.748349" stroke-miterlimit="10"/>
<path d="M772.296 323.744L715.91 380.13C717.176 380.608 718.472 381.026 719.791 381.386L773.553 327.624C773.192 326.305 772.774 325.01 772.296 323.744Z" fill="white" stroke="white" stroke-width="0.748349" stroke-miterlimit="10"/>
<path d="M762.2 308.156L700.324 370.032C701.179 370.891 702.074 371.71 702.997 372.496L764.664 310.829C763.878 309.906 763.059 309.011 762.2 308.156Z" fill="white" stroke="white" stroke-width="0.748349" stroke-miterlimit="10"/>
<path d="M770.758 320.146L712.312 378.591C713.483 379.157 714.685 379.667 715.91 380.13L772.296 323.744C771.834 322.519 771.324 321.316 770.758 320.146Z" fill="white" stroke="white" stroke-width="0.748349" stroke-miterlimit="10"/>
<path d="M768.952 316.812L708.977 376.788C710.059 377.434 711.17 378.039 712.31 378.59L770.756 320.146C770.203 319.006 769.598 317.895 768.952 316.812Z" fill="white" stroke="white" stroke-width="0.748349" stroke-miterlimit="10"/>
</g>
<path d="M791.988 134.954L787.158 130.125L786.629 129.596L786.1 130.125L781.272 134.954L778.656 132.337L783.484 127.509L784.013 126.98L783.484 126.451L778.656 121.622L781.272 119.006L786.1 123.835L786.629 124.364L787.158 123.835L791.988 119.006L794.603 121.622L789.774 126.451L789.245 126.98L789.774 127.509L794.603 132.338L791.988 134.954Z" fill="white" stroke="white" stroke-width="1.4967"/>
<path d="M789.774 160.988L794.603 165.818L791.988 168.433L787.158 163.604L786.629 163.075L786.1 163.604L781.272 168.433L778.656 165.818L783.484 160.988L784.013 160.459L783.484 159.93L778.656 155.102L781.272 152.486L786.1 157.314L786.629 157.843L787.158 157.314L791.988 152.486L794.603 155.102L789.774 159.93L789.245 160.459L789.774 160.988Z" fill="white" stroke="white" stroke-width="1.4967"/>
<path d="M794.603 188.578L789.774 193.408L789.245 193.937L789.774 194.466L794.603 199.294L791.988 201.91L787.158 197.082L786.629 196.553L786.1 197.082L781.272 201.91L778.656 199.294L783.484 194.466L784.013 193.937L783.484 193.408L778.656 188.578L781.272 185.963L786.1 190.792L786.629 191.321L787.158 190.792L791.988 185.963L794.603 188.578Z" fill="white" stroke="white" stroke-width="1.4967"/>
<path d="M513.143 352.879V352.391H513.631V352.879H513.143Z" fill="white" stroke="white" stroke-width="1.4967"/>
<path d="M528.319 352.879V352.391H528.807V352.879H528.319Z" fill="white" stroke="white" stroke-width="1.4967"/>
<path d="M543.491 352.879V352.391H543.979V352.879H543.491Z" fill="white" stroke="white" stroke-width="1.4967"/>
<path d="M558.666 352.879V352.391H559.155V352.879H558.666Z" fill="white" stroke="white" stroke-width="1.4967"/>
<path d="M573.842 352.879V352.391H574.331V352.879H573.842Z" fill="white" stroke="white" stroke-width="1.4967"/>
<path d="M589.018 352.879V352.391H589.506V352.879H589.018Z" fill="white" stroke="white" stroke-width="1.4967"/>
<path d="M513.143 363.942V363.453H513.631V363.942H513.143Z" fill="white" stroke="white" stroke-width="1.4967"/>
<path d="M528.319 363.942V363.453H528.807V363.942H528.319Z" fill="white" stroke="white" stroke-width="1.4967"/>
<path d="M543.491 363.942V363.453H543.979V363.942H543.491Z" fill="white" stroke="white" stroke-width="1.4967"/>
<path d="M558.666 363.942V363.453H559.155V363.942H558.666Z" fill="white" stroke="white" stroke-width="1.4967"/>
<path d="M573.842 363.942V363.453H574.331V363.942H573.842Z" fill="white" stroke="white" stroke-width="1.4967"/>
<path d="M589.018 363.942V363.453H589.506V363.942H589.018Z" fill="white" stroke="white" stroke-width="1.4967"/>
<path d="M513.143 375.004V374.516H513.631V375.004H513.143Z" fill="white" stroke="white" stroke-width="1.4967"/>
<path d="M528.319 375.004V374.516H528.807V375.004H528.319Z" fill="white" stroke="white" stroke-width="1.4967"/>
<path d="M543.491 375.004V374.516H543.979V375.004H543.491Z" fill="white" stroke="white" stroke-width="1.4967"/>
<path d="M558.666 375.004V374.516H559.155V375.004H558.666Z" fill="white" stroke="white" stroke-width="1.4967"/>
<path d="M573.842 375.004V374.516H574.331V375.004H573.842Z" fill="white" stroke="white" stroke-width="1.4967"/>
<path d="M589.018 375.004V374.516H589.506V375.004H589.018Z" fill="white" stroke="white" stroke-width="1.4967"/>
<path d="M513.143 386.067V385.578H513.631V386.067H513.143Z" fill="white" stroke="white" stroke-width="1.4967"/>
<path d="M528.319 386.067V385.578H528.807V386.067H528.319Z" fill="white" stroke="white" stroke-width="1.4967"/>
<path d="M543.491 386.067V385.578H543.979V386.067H543.491Z" fill="white" stroke="white" stroke-width="1.4967"/>
<path d="M558.666 386.067V385.578H559.155V386.067H558.666Z" fill="white" stroke="white" stroke-width="1.4967"/>
<path d="M573.842 386.067V385.578H574.331V386.067H573.842Z" fill="white" stroke="white" stroke-width="1.4967"/>
<path d="M589.018 386.067V385.578H589.506V386.067H589.018Z" fill="white" stroke="white" stroke-width="1.4967"/>
<path d="M513.143 397.129V396.641H513.631V397.129H513.143Z" fill="white" stroke="white" stroke-width="1.4967"/>
<path d="M528.319 397.129V396.641H528.807V397.129H528.319Z" fill="white" stroke="white" stroke-width="1.4967"/>
<path d="M543.491 397.129V396.641H543.979V397.129H543.491Z" fill="white" stroke="white" stroke-width="1.4967"/>
<path d="M558.666 397.129V396.641H559.155V397.129H558.666Z" fill="white" stroke="white" stroke-width="1.4967"/>
<path d="M573.842 397.129V396.641H574.331V397.129H573.842Z" fill="white" stroke="white" stroke-width="1.4967"/>
<path d="M589.018 397.129V396.641H589.506V397.129H589.018Z" fill="white" stroke="white" stroke-width="1.4967"/>
<path d="M513.143 408.19V407.701H513.631V408.19H513.143Z" fill="white" stroke="white" stroke-width="1.4967"/>
<path d="M528.319 408.19V407.701H528.807V408.19H528.319Z" fill="white" stroke="white" stroke-width="1.4967"/>
<path d="M543.491 408.19V407.701H543.979V408.19H543.491Z" fill="white" stroke="white" stroke-width="1.4967"/>
<path d="M558.666 408.19V407.701H559.155V408.19H558.666Z" fill="white" stroke="white" stroke-width="1.4967"/>
<path d="M573.842 408.19V407.701H574.331V408.19H573.842Z" fill="white" stroke="white" stroke-width="1.4967"/>
<path d="M589.018 408.19V407.701H589.506V408.19H589.018Z" fill="white" stroke="white" stroke-width="1.4967"/>
<path d="M513.143 419.252V418.764H513.631V419.252H513.143Z" fill="white" stroke="white" stroke-width="1.4967"/>
<path d="M528.319 419.252V418.764H528.807V419.252H528.319Z" fill="white" stroke="white" stroke-width="1.4967"/>
<path d="M543.491 419.252V418.764H543.979V419.252H543.491Z" fill="white" stroke="white" stroke-width="1.4967"/>
<path d="M558.666 419.252V418.764H559.155V419.252H558.666Z" fill="white" stroke="white" stroke-width="1.4967"/>
<path d="M573.842 419.252V418.764H574.331V419.252H573.842Z" fill="white" stroke="white" stroke-width="1.4967"/>
<path d="M589.018 419.252V418.764H589.506V419.252H589.018Z" fill="white" stroke="white" stroke-width="1.4967"/>
<path d="M220.576 31.5747V31.0862H221.065V31.5747H220.576Z" fill="white" stroke="white" stroke-width="1.4967"/>
<path d="M235.752 31.5747V31.0862H236.241V31.5747H235.752Z" fill="white" stroke="white" stroke-width="1.4967"/>
<path d="M250.924 31.5747V31.0862H251.413V31.5747H250.924Z" fill="white" stroke="white" stroke-width="1.4967"/>
<path d="M266.1 31.5747V31.0862H266.588V31.5747H266.1Z" fill="white" stroke="white" stroke-width="1.4967"/>
<path d="M281.276 31.5747V31.0862H281.764V31.5747H281.276Z" fill="white" stroke="white" stroke-width="1.4967"/>
<path d="M296.451 31.5747V31.0862H296.94V31.5747H296.451Z" fill="white" stroke="white" stroke-width="1.4967"/>
<path d="M220.576 42.6372V42.1487H221.065V42.6372H220.576Z" fill="white" stroke="white" stroke-width="1.4967"/>
<path d="M235.752 42.6372V42.1487H236.241V42.6372H235.752Z" fill="white" stroke="white" stroke-width="1.4967"/>
<path d="M250.924 42.6372V42.1487H251.413V42.6372H250.924Z" fill="white" stroke="white" stroke-width="1.4967"/>
<path d="M266.1 42.6372V42.1487H266.588V42.6372H266.1Z" fill="white" stroke="white" stroke-width="1.4967"/>
<path d="M281.276 42.6372V42.1487H281.764V42.6372H281.276Z" fill="white" stroke="white" stroke-width="1.4967"/>
<path d="M296.451 42.6372V42.1487H296.94V42.6372H296.451Z" fill="white" stroke="white" stroke-width="1.4967"/>
<path d="M220.576 53.6997V53.2112H221.065V53.6997H220.576Z" fill="white" stroke="white" stroke-width="1.4967"/>
<path d="M235.752 53.6997V53.2112H236.241V53.6997H235.752Z" fill="white" stroke="white" stroke-width="1.4967"/>
<path d="M250.924 53.6997V53.2112H251.413V53.6997H250.924Z" fill="white" stroke="white" stroke-width="1.4967"/>
<path d="M266.1 53.6997V53.2112H266.588V53.6997H266.1Z" fill="white" stroke="white" stroke-width="1.4967"/>
<path d="M281.276 53.6997V53.2112H281.764V53.6997H281.276Z" fill="white" stroke="white" stroke-width="1.4967"/>
<path d="M296.451 53.6997V53.2112H296.94V53.6997H296.451Z" fill="white" stroke="white" stroke-width="1.4967"/>
<path d="M220.576 64.7622V64.2737H221.065V64.7622H220.576Z" fill="white" stroke="white" stroke-width="1.4967"/>
<path d="M235.752 64.7622V64.2737H236.241V64.7622H235.752Z" fill="white" stroke="white" stroke-width="1.4967"/>
<path d="M250.924 64.7622V64.2737H251.413V64.7622H250.924Z" fill="white" stroke="white" stroke-width="1.4967"/>
<path d="M266.1 64.7622V64.2737H266.588V64.7622H266.1Z" fill="white" stroke="white" stroke-width="1.4967"/>
<path d="M281.276 64.7622V64.2737H281.764V64.7622H281.276Z" fill="white" stroke="white" stroke-width="1.4967"/>
<path d="M296.451 64.7622V64.2737H296.94V64.7622H296.451Z" fill="white" stroke="white" stroke-width="1.4967"/>
<path d="M220.576 75.8247V75.3362H221.065V75.8247H220.576Z" fill="white" stroke="white" stroke-width="1.4967"/>
<path d="M235.752 75.8247V75.3362H236.241V75.8247H235.752Z" fill="white" stroke="white" stroke-width="1.4967"/>
<path d="M250.924 75.8247V75.3362H251.413V75.8247H250.924Z" fill="white" stroke="white" stroke-width="1.4967"/>
<path d="M266.1 75.8247V75.3362H266.588V75.8247H266.1Z" fill="white" stroke="white" stroke-width="1.4967"/>
<path d="M281.276 75.8247V75.3362H281.764V75.8247H281.276Z" fill="white" stroke="white" stroke-width="1.4967"/>
<path d="M296.451 75.8247V75.3362H296.94V75.8247H296.451Z" fill="white" stroke="white" stroke-width="1.4967"/>
<path d="M220.576 86.8853V86.3968H221.065V86.8853H220.576Z" fill="white" stroke="white" stroke-width="1.4967"/>
<path d="M235.752 86.8853V86.3968H236.241V86.8853H235.752Z" fill="white" stroke="white" stroke-width="1.4967"/>
<path d="M250.924 86.8853V86.3968H251.413V86.8853H250.924Z" fill="white" stroke="white" stroke-width="1.4967"/>
<path d="M266.1 86.8853V86.3968H266.588V86.8853H266.1Z" fill="white" stroke="white" stroke-width="1.4967"/>
<path d="M281.276 86.8853V86.3968H281.764V86.8853H281.276Z" fill="white" stroke="white" stroke-width="1.4967"/>
<path d="M296.451 86.8853V86.3968H296.94V86.8853H296.451Z" fill="white" stroke="white" stroke-width="1.4967"/>
<path d="M220.576 97.9478V97.4593H221.065V97.9478H220.576Z" fill="white" stroke="white" stroke-width="1.4967"/>
<path d="M235.752 97.9478V97.4593H236.241V97.9478H235.752Z" fill="white" stroke="white" stroke-width="1.4967"/>
<path d="M250.924 97.9478V97.4593H251.413V97.9478H250.924Z" fill="white" stroke="white" stroke-width="1.4967"/>
<path d="M266.1 97.9478V97.4593H266.588V97.9478H266.1Z" fill="white" stroke="white" stroke-width="1.4967"/>
<path d="M281.276 97.9478V97.4593H281.764V97.9478H281.276Z" fill="white" stroke="white" stroke-width="1.4967"/>
<path d="M296.451 97.9478V97.4593H296.94V97.9478H296.451Z" fill="white" stroke="white" stroke-width="1.4967"/>
<path d="M667.051 0V14.6278" stroke="white" stroke-miterlimit="10"/>
<path d="M659.738 7.31445H674.365" stroke="white" stroke-miterlimit="10"/>
<path d="M706.91 0V14.6278" stroke="white" stroke-miterlimit="10"/>
<path d="M699.598 7.31445H714.225" stroke="white" stroke-miterlimit="10"/>
<path d="M746.77 0V14.6278" stroke="white" stroke-miterlimit="10"/>
<path d="M739.457 7.31445H754.085" stroke="white" stroke-miterlimit="10"/>
<path d="M786.629 0V14.6278" stroke="white" stroke-miterlimit="10"/>
<path d="M779.316 7.31445H793.944" stroke="white" stroke-miterlimit="10"/>
<path d="M667.051 30.3535V44.9813" stroke="white" stroke-miterlimit="10"/>
<path d="M659.738 37.666H674.365" stroke="white" stroke-miterlimit="10"/>
<path d="M706.91 30.3535V44.9813" stroke="white" stroke-miterlimit="10"/>
<path d="M699.598 37.666H714.225" stroke="white" stroke-miterlimit="10"/>
<path d="M746.77 30.3535V44.9813" stroke="white" stroke-miterlimit="10"/>
<path d="M739.457 37.666H754.085" stroke="white" stroke-miterlimit="10"/>
<path d="M786.629 30.3535V44.9813" stroke="white" stroke-miterlimit="10"/>
<path d="M779.316 37.666H793.944" stroke="white" stroke-miterlimit="10"/>
<path d="M667.051 60.7051V75.3328" stroke="white" stroke-miterlimit="10"/>
<path d="M659.738 68.0195H674.365" stroke="white" stroke-miterlimit="10"/>
<path d="M706.91 60.7051V75.3328" stroke="white" stroke-miterlimit="10"/>
<path d="M699.598 68.0195H714.225" stroke="white" stroke-miterlimit="10"/>
<path d="M746.77 60.7051V75.3328" stroke="white" stroke-miterlimit="10"/>
<path d="M739.457 68.0195H754.085" stroke="white" stroke-miterlimit="10"/>
<path d="M786.629 60.7051V75.3328" stroke="white" stroke-miterlimit="10"/>
<path d="M779.316 68.0195H793.944" stroke="white" stroke-miterlimit="10"/>
<path d="M667.051 91.0566V105.684" stroke="white" stroke-miterlimit="10"/>
<path d="M659.738 98.3691H674.365" stroke="white" stroke-miterlimit="10"/>
<path d="M706.91 91.0566V105.684" stroke="white" stroke-miterlimit="10"/>
<path d="M699.598 98.3691H714.225" stroke="white" stroke-miterlimit="10"/>
<path d="M746.77 91.0566V105.684" stroke="white" stroke-miterlimit="10"/>
<path d="M739.457 98.3691H754.085" stroke="white" stroke-miterlimit="10"/>
<path d="M786.629 91.0566V105.684" stroke="white" stroke-miterlimit="10"/>
<path d="M779.316 98.3691H793.944" stroke="white" stroke-miterlimit="10"/>
<path d="M73.1445 200.207L191.794 21.1543L226.31 327.484L275.927 163.534L362.217 223.937L431.249 135.489L586.572 213.15L634.032 185.105" stroke="white" stroke-width="0.5" stroke-miterlimit="10"/>
<path d="M157.688 72.6211L14.8984 102.052L73.1438 200.207L201.5 111.76L230.624 182.889L247.881 154.905L287.79 216.386L353.588 161.377L446.35 180.732L486.259 81.5577L521.853 247.667L560.685 174.32L616.773 208.835L634.031 185.106" stroke="white" stroke-width="0.5" stroke-miterlimit="10"/>
<path d="M14.8984 102.051L127.466 118.23L226.309 327.484L362.216 223.936L287.79 216.386L302.892 118.23L353.588 161.376L437.721 229.33L431.248 135.489L525.089 102.051L560.685 174.319" stroke="white" stroke-width="0.5" stroke-miterlimit="10"/>
<path d="M247.883 154.905L302.893 118.23L362.218 223.937L446.352 180.732" stroke="white" stroke-width="0.5" stroke-miterlimit="10"/>
<path d="M73.1445 200.206L131.39 209.554L121.48 166.898" stroke="white" stroke-width="0.5" stroke-miterlimit="10"/>
<path d="M230.624 182.889L172.277 213.097L245.821 263.014L287.791 216.386L230.624 182.889Z" stroke="white" stroke-width="0.5" stroke-miterlimit="10"/>
<path d="M27.287 102.051C27.287 109.379 21.3461 115.32 14.0177 115.32C6.68923 115.32 0.748349 109.379 0.748349 102.051C0.748349 94.7224 6.68923 88.7816 14.0177 88.7816C21.3461 88.7816 27.287 94.7224 27.287 102.051Z" fill="white" stroke="white" stroke-width="1.4967"/>
<path d="M130.642 118.23C130.642 121.487 128.003 124.126 124.746 124.126C121.489 124.126 118.85 121.487 118.85 118.23C118.85 114.974 121.489 112.334 124.746 112.334C128.003 112.334 130.642 114.975 130.642 118.23Z" fill="white" stroke="white" stroke-width="1.4967"/>
<path d="M220.022 243.801C220.022 245.983 218.254 247.751 216.073 247.751C213.892 247.751 212.123 245.983 212.123 243.801C212.123 241.62 213.892 239.852 216.073 239.852C218.254 239.852 220.022 241.62 220.022 243.801Z" fill="white" stroke="white" stroke-width="1.4967"/>
<path d="M252.486 261.617C252.486 264.874 249.846 267.513 246.59 267.513C243.333 267.513 240.694 264.874 240.694 261.617C240.694 258.36 243.333 255.721 246.59 255.721C249.846 255.721 252.486 258.36 252.486 261.617Z" fill="white" stroke="white" stroke-width="1.4967"/>
<path d="M436.247 136.91C436.247 140.167 433.608 142.806 430.351 142.806C427.095 142.806 424.455 140.167 424.455 136.91C424.455 133.653 427.095 131.014 430.351 131.014C433.608 131.014 436.247 133.653 436.247 136.91Z" fill="white" stroke="white" stroke-width="1.4967"/>
<path d="M489.087 82.0953C489.087 83.567 487.893 84.7606 486.421 84.7606C484.95 84.7606 483.756 83.567 483.756 82.0953C483.756 80.6236 484.95 79.4301 486.421 79.43C487.894 79.4312 489.087 80.6241 489.087 82.0953Z" fill="white" stroke="white" stroke-width="1.4967"/>
<path d="M563.348 174.32C563.348 175.792 562.155 176.985 560.683 176.985C559.211 176.985 558.018 175.792 558.018 174.32C558.018 172.848 559.211 171.655 560.683 171.655C562.156 171.655 563.348 172.848 563.348 174.32Z" fill="white" stroke="white" stroke-width="1.4967"/>
<path d="M508.927 173.433C508.927 174.905 507.733 176.098 506.261 176.098C504.79 176.098 503.596 174.905 503.596 173.433C503.596 171.961 504.79 170.768 506.261 170.768C507.734 170.768 508.927 171.961 508.927 173.433Z" fill="white" stroke="white" stroke-width="1.4967"/>
<path d="M525.536 102.052C525.536 102.298 525.336 102.499 525.089 102.499C524.843 102.499 524.643 102.298 524.643 102.052C524.643 101.806 524.843 101.606 525.089 101.606C525.336 101.606 525.536 101.806 525.536 102.052Z" fill="white" stroke="white" stroke-width="1.4967"/>
<path d="M617.696 209.22C617.696 209.466 617.496 209.667 617.25 209.667C617.003 209.667 616.803 209.466 616.803 209.22C616.803 208.974 617.003 208.774 617.25 208.774C617.496 208.774 617.696 208.974 617.696 209.22Z" fill="white" stroke="white" stroke-width="1.4967"/>
<path d="M436.998 227.307L436.998 227.307C437.898 227.306 438.629 228.037 438.629 228.939C438.629 229.841 437.899 230.571 436.998 230.571C436.096 230.571 435.366 229.841 435.366 228.939C435.366 228.037 436.096 227.307 436.998 227.307Z" fill="white" stroke="white" stroke-width="1.4967"/>
<path d="M194.659 21.1549C194.659 23.3362 192.891 25.1045 190.71 25.1045C188.528 25.1045 186.76 23.3362 186.76 21.1549C186.76 18.9737 188.528 17.2054 190.71 17.2054C192.891 17.2054 194.659 18.9737 194.659 21.1549Z" fill="white" stroke="white" stroke-width="1.4967"/>
<path d="M204.964 111.587C204.964 113.008 203.811 114.161 202.389 114.161C200.967 114.161 199.815 113.008 199.815 111.587C199.815 110.165 200.967 109.012 202.389 109.012C203.811 109.012 204.964 110.165 204.964 111.587Z" fill="white" stroke="white" stroke-width="1.4967"/>
<path d="M247.881 151.299L247.882 151.299C249.304 151.298 250.456 152.45 250.456 153.872C250.456 155.294 249.304 156.447 247.881 156.447C246.46 156.447 245.307 155.294 245.307 153.872C245.307 152.451 246.459 151.299 247.881 151.299Z" fill="white" stroke="white" stroke-width="1.4967"/>
<path d="M290.365 215.893C290.365 217.314 289.212 218.468 287.79 218.468C286.369 218.468 285.217 217.316 285.217 215.893C285.217 214.472 286.37 213.319 287.79 213.319C289.213 213.319 290.365 214.471 290.365 215.893Z" fill="white" stroke="white" stroke-width="1.4967"/>
<path d="M471.267 121.553C471.267 122.437 470.55 123.154 469.666 123.154C468.782 123.154 468.065 122.437 468.065 121.553C468.065 120.668 468.782 119.951 469.666 119.951C470.55 119.951 471.267 120.668 471.267 121.553Z" fill="white" stroke="white" stroke-width="1.4967"/>
<path d="M277.131 164.244C277.131 165.129 276.414 165.845 275.529 165.845C274.645 165.845 273.928 165.129 273.928 164.244C273.928 163.36 274.645 162.643 275.529 162.643C276.414 162.643 277.131 163.36 277.131 164.244Z" fill="white" stroke="white" stroke-width="1.4967"/>
<path d="M243.896 199.289C243.896 200.173 243.179 200.89 242.295 200.89C241.411 200.89 240.694 200.173 240.694 199.289C240.694 198.405 241.411 197.688 242.295 197.688C243.179 197.688 243.896 198.405 243.896 199.289Z" fill="white" stroke="white" stroke-width="1.4967"/>
<path d="M304.564 118.23C304.564 119.115 303.847 119.832 302.963 119.832C302.079 119.832 301.362 119.115 301.362 118.23C301.362 117.346 302.078 116.629 302.963 116.629C303.848 116.63 304.564 117.348 304.564 118.23Z" fill="white" stroke="white" stroke-width="1.4967"/>
<path d="M362.834 222.951C362.834 223.836 362.117 224.552 361.232 224.552C360.348 224.552 359.631 223.836 359.631 222.951C359.631 222.067 360.348 221.35 361.232 221.35C362.117 221.35 362.834 222.067 362.834 222.951Z" fill="white" stroke="white" stroke-width="1.4967"/>
<path d="M404.541 171.084C404.541 171.968 403.824 172.685 402.939 172.685C402.055 172.685 401.338 171.968 401.338 171.084C401.338 170.2 402.055 169.483 402.939 169.483C403.824 169.483 404.541 170.2 404.541 171.084Z" fill="white" stroke="white" stroke-width="1.4967"/>
<path d="M607.15 202.207C607.15 203.091 606.433 203.808 605.549 203.808C604.664 203.808 603.948 203.091 603.948 202.207C603.948 201.323 604.664 200.606 605.549 200.606C606.433 200.606 607.15 201.323 607.15 202.207Z" fill="white" stroke="white" stroke-width="1.4967"/>
<path d="M494.552 113.533C494.552 114.418 493.836 115.135 492.951 115.135C492.067 115.135 491.35 114.418 491.35 113.533C491.35 112.649 492.067 111.932 492.951 111.932C493.836 111.932 494.552 112.649 494.552 113.533Z" fill="white" stroke="white" stroke-width="1.4967"/>
<path d="M635.631 185.559C635.631 186.443 634.914 187.16 634.029 187.16C633.145 187.16 632.428 186.443 632.428 185.559C632.428 184.674 633.145 183.957 634.029 183.957C634.914 183.957 635.631 184.674 635.631 185.559Z" fill="white" stroke="white" stroke-width="1.4967"/>
<path d="M523.279 247.668C523.279 248.552 522.562 249.269 521.678 249.269C520.793 249.269 520.076 248.552 520.076 247.668C520.076 246.784 520.793 246.067 521.678 246.067C522.562 246.067 523.279 246.784 523.279 247.668Z" fill="white" stroke="white" stroke-width="1.4967"/>
<path d="M174.851 213.294C174.851 214.715 173.698 215.868 172.276 215.868C170.855 215.868 169.701 214.716 169.701 213.294C169.701 211.872 170.854 210.719 172.276 210.719C173.697 210.719 174.851 211.871 174.851 213.294Z" fill="white" stroke="white" stroke-width="1.4967"/>
<path d="M229.288 327.485C229.288 328.907 228.135 330.059 226.713 330.059C225.292 330.059 224.139 328.907 224.139 327.485C224.139 326.063 225.292 324.91 226.713 324.91C228.135 324.91 229.288 326.063 229.288 327.485Z" fill="white" stroke="white" stroke-width="1.4967"/>
<path d="M20.3233 129.239C20.3233 131.42 18.555 133.189 16.3737 133.189C14.1924 133.189 12.4241 131.42 12.4241 129.239C12.4241 127.058 14.1924 125.289 16.3737 125.289C18.555 125.289 20.3233 127.058 20.3233 129.239Z" fill="white" stroke="white" stroke-width="1.4967"/>
<path d="M134.38 209.554C134.38 211.205 133.041 212.544 131.39 212.544C129.74 212.544 128.401 211.205 128.401 209.554C128.401 207.904 129.739 206.565 131.39 206.565C133.042 206.565 134.38 207.904 134.38 209.554Z" fill="white" stroke="white" stroke-width="1.4967"/>
<path d="M76.134 200.678C76.134 202.328 74.7949 203.667 73.1443 203.667C71.4937 203.667 70.1546 202.328 70.1546 200.678C70.1546 199.027 71.4937 197.688 73.1443 197.688C74.7949 197.688 76.134 199.027 76.134 200.678Z" fill="white" stroke="white" stroke-width="1.4967"/>
<path d="M144.796 151.579C144.796 152.625 143.948 153.474 142.901 153.474C141.855 153.474 141.006 152.625 141.006 151.579C141.006 150.532 141.855 149.684 142.901 149.684C143.948 149.684 144.796 150.532 144.796 151.579Z" fill="white" stroke="white" stroke-width="1.4967"/>
<path d="M122.467 222.951C122.467 223.298 122.186 223.578 121.84 223.578C121.494 223.578 121.213 223.298 121.213 222.951C121.213 222.605 121.494 222.325 121.84 222.325C122.186 222.325 122.467 222.605 122.467 222.951Z" fill="white" stroke="white" stroke-width="1.4967"/>
<path d="M216.701 174.32C216.701 174.667 216.421 174.947 216.074 174.947C215.728 174.947 215.448 174.667 215.448 174.32C215.448 173.974 215.728 173.694 216.074 173.694C216.421 173.694 216.701 173.974 216.701 174.32Z" fill="white" stroke="white" stroke-width="1.4967"/>
<path d="M264.724 202.207C264.724 202.553 264.444 202.834 264.098 202.834C263.751 202.834 263.471 202.553 263.471 202.207C263.471 201.861 263.751 201.58 264.098 201.58C264.444 201.58 264.724 201.861 264.724 202.207Z" fill="white" stroke="white" stroke-width="1.4967"/>
<path d="M164.01 213.945C164.01 214.292 163.729 214.572 163.383 214.572C163.037 214.572 162.756 214.292 162.756 213.945C162.756 213.599 163.037 213.319 163.383 213.319C163.729 213.319 164.01 213.599 164.01 213.945Z" fill="white" stroke="white" stroke-width="1.4967"/>
<path d="M210.627 248.5C210.627 248.846 210.346 249.127 210 249.127C209.654 249.127 209.373 248.846 209.373 248.5C209.373 248.154 209.654 247.873 210 247.873C210.346 247.873 210.627 248.154 210.627 248.5Z" fill="white" stroke="white" stroke-width="1.4967"/>
<path d="M259.385 260.242C259.385 260.589 259.104 260.869 258.758 260.869C258.412 260.869 258.131 260.589 258.131 260.242C258.131 259.896 258.412 259.616 258.758 259.616C259.104 259.616 259.385 259.896 259.385 260.242Z" fill="white" stroke="white" stroke-width="1.4967"/>
<path d="M317.486 192.397C317.486 192.743 317.206 193.023 316.859 193.023C316.513 193.023 316.233 192.743 316.233 192.397C316.233 192.05 316.513 191.77 316.859 191.77C317.206 191.77 317.486 192.05 317.486 192.397Z" fill="white" stroke="white" stroke-width="1.4967"/>
<path d="M255.786 265.914C255.786 265.769 255.903 265.651 256.048 265.651C256.193 265.651 256.311 265.769 256.311 265.914C256.311 266.059 256.193 266.176 256.048 266.176C255.904 266.176 255.786 266.059 255.786 265.914Z" fill="white" stroke="white" stroke-width="1.4967"/>
<path d="M413.044 168.734C413.044 168.589 413.161 168.472 413.306 168.472C413.451 168.472 413.569 168.589 413.569 168.734C413.569 168.879 413.451 168.996 413.306 168.996C413.161 168.996 413.044 168.879 413.044 168.734Z" fill="white" stroke="white" stroke-width="1.4967"/>
<path d="M443.032 136.686L443.029 136.686C443.03 136.686 443.03 136.686 443.031 136.686M443.032 136.686L443.033 136.686C443.032 136.686 443.031 136.686 443.031 136.686M443.032 136.686C443.031 136.686 443.031 136.686 443.031 136.686M443.032 136.686C443.032 136.686 443.032 136.686 443.033 136.686C443.176 136.684 443.291 136.567 443.291 136.423C443.291 136.279 443.174 136.162 443.03 136.161C443.03 136.161 443.029 136.161 443.029 136.161C442.884 136.161 442.767 136.278 442.767 136.423C442.767 136.564 442.881 136.685 443.029 136.686C443.03 136.686 443.03 136.686 443.031 136.686" fill="white" stroke="white" stroke-width="1.4967"/>
<path d="M395.294 190.037C395.294 189.892 395.411 189.774 395.556 189.774C395.701 189.774 395.819 189.892 395.819 190.037C395.819 190.182 395.701 190.299 395.556 190.299C395.411 190.299 395.294 190.182 395.294 190.037Z" fill="white" stroke="white" stroke-width="1.4967"/>
<path d="M343.938 177.941C343.938 177.796 344.056 177.679 344.201 177.679C344.346 177.679 344.463 177.796 344.463 177.941C344.463 178.086 344.346 178.203 344.201 178.203C344.056 178.203 343.938 178.086 343.938 177.941Z" fill="white" stroke="white" stroke-width="1.4967"/>
<path d="M220.778 236.371L220.775 236.371C220.776 236.371 220.776 236.371 220.777 236.371M220.778 236.371L220.779 236.371C220.778 236.371 220.777 236.371 220.777 236.371M220.778 236.371C220.777 236.371 220.777 236.371 220.777 236.371M220.778 236.371C220.778 236.371 220.778 236.371 220.779 236.371C220.922 236.369 221.037 236.253 221.037 236.109C221.037 235.964 220.921 235.847 220.776 235.847C220.776 235.847 220.775 235.847 220.775 235.847C220.63 235.847 220.513 235.964 220.513 236.109C220.513 236.249 220.627 236.37 220.775 236.371C220.776 236.371 220.776 236.371 220.777 236.371" fill="white" stroke="white" stroke-width="1.4967"/>
<path d="M221.485 250.361C221.485 250.216 221.603 250.099 221.748 250.099C221.893 250.099 222.01 250.216 222.01 250.361C222.01 250.506 221.893 250.623 221.748 250.623C221.603 250.623 221.485 250.506 221.485 250.361Z" fill="white" stroke="white" stroke-width="1.4967"/>
<path d="M168.692 224.328C168.692 224.183 168.81 224.065 168.955 224.065C169.1 224.065 169.217 224.183 169.217 224.328C169.217 224.473 169.1 224.59 168.955 224.59C168.81 224.59 168.692 224.473 168.692 224.328Z" fill="white" stroke="white" stroke-width="1.4967"/>
<path d="M253.205 138.285C253.205 138.632 252.925 138.912 252.578 138.912C252.232 138.912 251.951 138.632 251.951 138.285C251.951 137.939 252.232 137.659 252.578 137.659C252.925 137.659 253.205 137.939 253.205 138.285Z" fill="white" stroke="white" stroke-width="1.4967"/>
<path d="M294.564 176.566C294.564 176.913 294.284 177.193 293.938 177.193C293.591 177.193 293.311 176.913 293.311 176.566C293.311 176.22 293.591 175.94 293.938 175.94C294.283 175.94 294.564 176.221 294.564 176.566Z" fill="white" stroke="white" stroke-width="1.4967"/>
<path d="M407.291 177.941C407.291 178.288 407.01 178.568 406.664 178.568C406.318 178.568 406.037 178.288 406.037 177.941C406.037 177.595 406.318 177.315 406.664 177.315C407.01 177.315 407.291 177.595 407.291 177.941Z" fill="white" stroke="white" stroke-width="1.4967"/>
<path d="M440.006 144.932C440.006 145.278 439.725 145.558 439.379 145.558C439.033 145.558 438.752 145.278 438.752 144.932C438.752 144.585 439.033 144.305 439.379 144.305C439.725 144.305 440.006 144.585 440.006 144.932Z" fill="white" stroke="white" stroke-width="1.4967"/>
<path d="M550.576 194.902C550.576 195.249 550.296 195.529 549.949 195.529C549.603 195.529 549.323 195.249 549.323 194.902C549.323 194.556 549.603 194.276 549.949 194.276C550.296 194.276 550.576 194.556 550.576 194.902Z" fill="white" stroke="white" stroke-width="1.4967"/>
<path d="M459.556 149.199C459.556 149.546 459.276 149.826 458.93 149.826C458.583 149.826 458.303 149.546 458.303 149.199C458.303 148.853 458.583 148.573 458.93 148.573C459.276 148.573 459.556 148.853 459.556 149.199Z" fill="white" stroke="white" stroke-width="1.4967"/>
<path d="M389.471 190.035C389.471 190.382 389.19 190.662 388.844 190.662C388.497 190.662 388.217 190.382 388.217 190.035C388.217 189.689 388.497 189.409 388.844 189.409C389.19 189.409 389.471 189.689 389.471 190.035Z" fill="white" stroke="white" stroke-width="1.4967"/>
<path d="M350.892 153.873C350.892 154.219 350.612 154.5 350.266 154.5C349.919 154.5 349.639 154.219 349.639 153.873C349.639 153.527 349.919 153.246 350.266 153.246C350.612 153.246 350.892 153.527 350.892 153.873Z" fill="white" stroke="white" stroke-width="1.4967"/>
<path d="M404.943 202.207C404.943 202.553 404.663 202.834 404.317 202.834C403.97 202.834 403.69 202.553 403.69 202.207C403.69 201.861 403.97 201.58 404.317 201.58C404.663 201.58 404.943 201.861 404.943 202.207Z" fill="white" stroke="white" stroke-width="1.4967"/>
<path d="M137.131 118.231C137.131 118.577 136.85 118.857 136.504 118.857C136.158 118.857 135.877 118.577 135.877 118.231C135.877 117.884 136.158 117.604 136.504 117.604C136.85 117.604 137.131 117.884 137.131 118.231Z" fill="white" stroke="white" stroke-width="1.4967"/>
<path d="M6.0096 120.982C6.0096 121.329 5.72921 121.609 5.38288 121.609C5.03656 121.609 4.75616 121.329 4.75616 120.982C4.75616 120.636 5.03656 120.356 5.38288 120.356C5.72921 120.356 6.0096 120.636 6.0096 120.982Z" fill="white" stroke="white" stroke-width="1.4967"/>
<path d="M122.467 166.9C122.467 167.247 122.186 167.527 121.84 167.527C121.494 167.527 121.213 167.247 121.213 166.9C121.213 166.554 121.494 166.274 121.84 166.274C122.186 166.274 122.467 166.554 122.467 166.9Z" fill="white" stroke="white" stroke-width="1.4967"/>
<path d="M776.06 305.111L692.341 178.771L667.987 394.917L632.978 279.234L572.092 321.855L523.382 259.447L413.788 314.244L380.301 294.456" stroke="white" stroke-width="0.5" stroke-miterlimit="10"/>
<path d="M716.406 215.086L817.158 235.852L776.06 305.11L685.492 242.702L664.942 292.891L652.766 273.144L624.606 316.526L578.179 277.712L512.728 291.369L484.568 221.391L459.453 338.598L432.054 286.844L392.477 311.199L380.301 294.455" stroke="white" stroke-width="0.5" stroke-miterlimit="10"/>
<path d="M817.159 235.854L737.732 247.269L667.988 394.918L572.093 321.855L624.607 316.527L613.951 247.269L578.18 277.713L518.817 325.66L523.383 259.447L457.169 235.854L432.055 286.846" stroke="white" stroke-width="0.5" stroke-miterlimit="10"/>
<path d="M652.764 273.144L613.949 247.268L572.091 321.854L512.727 291.368" stroke="white" stroke-width="0.5" stroke-miterlimit="10"/>
<path d="M776.059 305.111L734.961 311.707L741.954 281.609" stroke="white" stroke-width="0.5" stroke-miterlimit="10"/>
<path d="M664.942 292.891L706.111 314.205L654.219 349.426L624.605 316.526L664.942 292.891Z" stroke="white" stroke-width="0.5" stroke-miterlimit="10"/>
<path d="M826.925 235.854C826.925 240.903 822.831 244.997 817.782 244.997C812.732 244.997 808.639 240.903 808.639 235.854C808.639 230.805 812.732 226.711 817.782 226.711C822.831 226.711 826.925 230.805 826.925 235.854Z" fill="white" stroke="white" stroke-width="1.4967"/>
<path d="M675.209 333.305H675.209C676.627 333.305 677.776 334.453 677.776 335.871C677.776 337.289 676.628 338.438 675.209 338.438C673.792 338.438 672.643 337.288 672.643 335.871C672.643 334.453 673.793 333.304 675.209 333.305Z" fill="white" stroke="white" stroke-width="1.4967"/>
<path d="M486.115 221.774C486.115 222.69 485.372 223.434 484.455 223.434C483.538 223.434 482.795 222.69 482.795 221.774C482.795 220.857 483.538 220.114 484.455 220.114C485.372 220.114 486.115 220.857 486.115 221.774Z" fill="white" stroke="white" stroke-width="1.4967"/>
<path d="M432.053 288.506C431.137 288.506 430.393 287.762 430.393 286.846C430.393 285.928 431.136 285.186 432.053 285.186C432.969 285.186 433.713 285.93 433.713 286.846C433.713 287.762 432.969 288.506 432.053 288.506Z" fill="white" stroke="white" stroke-width="1.4967"/>
<path d="M470.455 287.879C469.539 287.879 468.795 287.135 468.795 286.219C468.795 285.303 469.539 284.559 470.455 284.559C471.372 284.559 472.115 285.303 472.115 286.219C472.115 287.135 471.372 287.879 470.455 287.879Z" fill="white" stroke="white" stroke-width="1.4967"/>
<path d="M457.265 235.854C457.265 235.906 457.222 235.948 457.171 235.948C457.119 235.948 457.076 235.906 457.076 235.854C457.076 235.802 457.119 235.76 457.171 235.76C457.222 235.76 457.265 235.802 457.265 235.854Z" fill="white" stroke="white" stroke-width="1.4967"/>
<path d="M392.141 311.377V311.377H392.143C392.194 311.377 392.237 311.42 392.237 311.471C392.237 311.523 392.195 311.565 392.143 311.565C392.091 311.565 392.049 311.523 392.049 311.471C392.049 311.417 392.092 311.377 392.141 311.377Z" fill="white" stroke="white" stroke-width="1.4967"/>
<path d="M519.327 324.453H519.328C519.842 324.453 520.259 324.87 520.259 325.385C520.259 325.899 519.842 326.316 519.328 326.316C518.813 326.316 518.397 325.899 518.397 325.385C518.397 324.869 518.814 324.453 519.327 324.453Z" fill="white" stroke="white" stroke-width="1.4967"/>
<path d="M693.108 181.338C691.691 181.338 690.541 180.19 690.541 178.772C690.541 177.355 691.691 176.205 693.108 176.205C694.525 176.205 695.674 177.355 695.674 178.772C695.674 180.189 694.526 181.338 693.108 181.338Z" fill="white" stroke="white" stroke-width="1.4967"/>
<path d="M684.868 244.177C683.986 244.177 683.272 243.462 683.272 242.581C683.272 241.699 683.986 240.985 684.868 240.985C685.749 240.985 686.464 241.699 686.464 242.581C686.464 243.462 685.749 244.177 684.868 244.177Z" fill="white" stroke="white" stroke-width="1.4967"/>
<path d="M652.766 274.014C651.884 274.014 651.17 273.3 651.17 272.419C651.17 271.537 651.884 270.823 652.766 270.823C653.648 270.823 654.362 271.537 654.362 272.419C654.362 273.3 653.648 274.014 652.766 274.014Z" fill="white" stroke="white" stroke-width="1.4967"/>
<path d="M624.606 317.774C623.724 317.774 623.01 317.06 623.01 316.178C623.01 315.297 623.724 314.582 624.606 314.582C625.488 314.582 626.202 315.297 626.202 316.178C626.202 317.06 625.488 317.774 624.606 317.774Z" fill="white" stroke="white" stroke-width="1.4967"/>
<path d="M578.18 279.891C577.299 279.891 576.584 279.177 576.584 278.295C576.584 277.415 577.299 276.7 578.18 276.7C579.062 276.7 579.776 277.414 579.776 278.295C579.776 279.177 579.062 279.891 578.18 279.891Z" fill="white" stroke="white" stroke-width="1.4967"/>
<path d="M514.323 290.774C514.323 291.655 513.608 292.37 512.727 292.37C511.846 292.37 511.131 291.655 511.131 290.774C511.131 289.893 511.846 289.178 512.727 289.178C513.608 289.178 514.323 289.893 514.323 290.774Z" fill="white" stroke="white" stroke-width="1.4967"/>
<path d="M496.275 250.523C495.773 250.523 495.366 250.116 495.366 249.613C495.366 249.111 495.773 248.703 496.275 248.703C496.778 248.703 497.185 249.111 497.185 249.613C497.185 250.116 496.778 250.523 496.275 250.523Z" fill="white" stroke="white" stroke-width="1.4967"/>
<path d="M633.26 280.646C632.757 280.646 632.35 280.239 632.35 279.736C632.35 279.234 632.757 278.826 633.26 278.826C633.762 278.826 634.169 279.234 634.169 279.736C634.169 280.239 633.762 280.646 633.26 280.646Z" fill="white" stroke="white" stroke-width="1.4967"/>
<path d="M657.619 304.463C657.619 304.965 657.211 305.373 656.709 305.373C656.206 305.373 655.799 304.965 655.799 304.463C655.799 303.96 656.206 303.553 656.709 303.553C657.211 303.553 657.619 303.96 657.619 304.463Z" fill="white" stroke="white" stroke-width="1.4967"/>
<path d="M613.9 248.179C613.398 248.179 612.991 247.772 612.991 247.269C612.991 246.769 613.397 246.361 613.901 246.36C614.403 246.36 614.81 246.767 614.81 247.269C614.81 247.772 614.403 248.179 613.9 248.179Z" fill="white" stroke="white" stroke-width="1.4967"/>
<path d="M572.787 322.07C572.284 322.07 571.877 321.663 571.877 321.16C571.877 320.658 572.284 320.25 572.787 320.25C573.29 320.25 573.697 320.658 573.697 321.16C573.697 321.663 573.29 322.07 572.787 322.07Z" fill="white" stroke="white" stroke-width="1.4967"/>
<path d="M543.361 285.472C542.859 285.472 542.451 285.065 542.451 284.562C542.451 284.06 542.859 283.653 543.361 283.653C543.864 283.653 544.271 284.06 544.271 284.562C544.271 285.065 543.864 285.472 543.361 285.472Z" fill="white" stroke="white" stroke-width="1.4967"/>
<path d="M400.4 307.431C399.898 307.431 399.491 307.024 399.491 306.521C399.491 306.019 399.898 305.612 400.4 305.612C400.903 305.612 401.31 306.019 401.31 306.521C401.31 307.024 400.903 307.431 400.4 307.431Z" fill="white" stroke="white" stroke-width="1.4967"/>
<path d="M479.85 244.865C479.347 244.865 478.94 244.457 478.94 243.955C478.94 243.452 479.347 243.045 479.85 243.045C480.352 243.045 480.759 243.452 480.759 243.955C480.759 244.457 480.352 244.865 479.85 244.865Z" fill="white" stroke="white" stroke-width="1.4967"/>
<path d="M380.303 295.685C379.8 295.685 379.393 295.278 379.393 294.775C379.393 294.273 379.8 293.866 380.303 293.866C380.805 293.866 381.212 294.273 381.212 294.775C381.212 295.278 380.805 295.685 380.303 295.685Z" fill="white" stroke="white" stroke-width="1.4967"/>
<path d="M459.58 339.509C459.077 339.509 458.67 339.102 458.67 338.6C458.67 338.097 459.077 337.69 459.58 337.69C460.082 337.69 460.49 338.097 460.49 338.6C460.49 339.102 460.082 339.509 459.58 339.509Z" fill="white" stroke="white" stroke-width="1.4967"/>
<path d="M591.455 289.339C590.952 289.339 590.545 288.932 590.545 288.43C590.545 287.929 590.952 287.521 591.456 287.52C591.958 287.52 592.365 287.927 592.365 288.43C592.365 288.932 591.957 289.339 591.455 289.339Z" fill="white" stroke="white" stroke-width="1.4967"/>
<path d="M706.114 315.94C705.232 315.94 704.518 315.226 704.518 314.344C704.518 313.463 705.233 312.748 706.114 312.748C706.995 312.748 707.71 313.463 707.71 314.344C707.71 315.226 706.995 315.94 706.114 315.94Z" fill="white" stroke="white" stroke-width="1.4967"/>
<path d="M667.704 396.514C666.822 396.514 666.108 395.8 666.108 394.919C666.108 394.037 666.822 393.323 667.704 393.323C668.585 393.323 669.3 394.037 669.3 394.919C669.3 395.8 668.585 396.514 667.704 396.514Z" fill="white" stroke="white" stroke-width="1.4967"/>
<path d="M816.12 257.602C814.702 257.602 813.553 256.454 813.553 255.036C813.553 253.618 814.701 252.469 816.12 252.469C817.537 252.469 818.686 253.619 818.686 255.036C818.686 256.453 817.538 257.602 816.12 257.602Z" fill="white" stroke="white" stroke-width="1.4967"/>
<path d="M734.962 313.597C733.917 313.597 733.073 312.751 733.073 311.708C733.073 310.665 733.918 309.819 734.962 309.819C736.005 309.819 736.852 310.665 736.852 311.708C736.852 312.751 736.006 313.597 734.962 313.597Z" fill="white" stroke="white" stroke-width="1.4967"/>
<path d="M776.06 307.331C775.017 307.331 774.17 306.485 774.17 305.441C774.17 304.399 775.016 303.553 776.06 303.553C777.103 303.553 777.948 304.398 777.948 305.441C777.948 306.485 777.103 307.331 776.06 307.331Z" fill="white" stroke="white" stroke-width="1.4967"/>
<path d="M726.842 271.917C726.225 271.917 725.725 271.417 725.725 270.801C725.725 270.183 726.224 269.684 726.842 269.684C727.459 269.684 727.958 270.183 727.958 270.801C727.958 271.418 727.459 271.917 726.842 271.917Z" fill="white" stroke="white" stroke-width="1.4967"/>
<path d="M741.705 321.382C741.582 321.382 741.483 321.283 741.483 321.16C741.483 321.037 741.582 320.938 741.705 320.938C741.828 320.938 741.927 321.037 741.927 321.16C741.927 321.283 741.828 321.382 741.705 321.382Z" fill="white" stroke="white" stroke-width="1.4967"/>
<path d="M675.209 287.068C675.086 287.068 674.987 286.968 674.987 286.846C674.987 286.723 675.086 286.623 675.209 286.623C675.331 286.623 675.431 286.723 675.431 286.846C675.431 286.968 675.332 287.068 675.209 287.068Z" fill="white" stroke="white" stroke-width="1.4967"/>
<path d="M641.326 306.744C641.204 306.744 641.104 306.643 641.104 306.521C641.104 306.399 641.203 306.299 641.326 306.299C641.449 306.299 641.548 306.399 641.548 306.521C641.548 306.644 641.449 306.744 641.326 306.744Z" fill="white" stroke="white" stroke-width="1.4967"/>
<path d="M712.389 315.027C712.266 315.027 712.166 314.927 712.166 314.805C712.166 314.682 712.266 314.582 712.389 314.582C712.511 314.582 712.611 314.682 712.611 314.805C712.611 314.927 712.511 315.027 712.389 315.027Z" fill="white" stroke="white" stroke-width="1.4967"/>
<path d="M679.494 339.408C679.371 339.408 679.272 339.308 679.272 339.185C679.272 339.062 679.371 338.963 679.494 338.963C679.617 338.963 679.716 339.063 679.716 339.185C679.716 339.308 679.617 339.408 679.494 339.408Z" fill="white" stroke="white" stroke-width="1.4967"/>
<path d="M645.092 347.693C644.97 347.693 644.869 347.593 644.869 347.471C644.869 347.347 644.968 347.248 645.092 347.248C645.214 347.248 645.314 347.348 645.314 347.471C645.314 347.593 645.214 347.693 645.092 347.693Z" fill="white" stroke="white" stroke-width="1.4967"/>
<path d="M604.096 299.822C603.973 299.822 603.873 299.722 603.873 299.599C603.873 299.477 603.973 299.377 604.096 299.377C604.218 299.377 604.318 299.477 604.318 299.599C604.318 299.722 604.218 299.822 604.096 299.822Z" fill="white" stroke="white" stroke-width="1.4967"/>
<path d="M647.007 351.815C647.197 351.815 647.35 351.662 647.35 351.472C647.35 351.283 647.197 351.129 647.007 351.129C646.818 351.129 646.664 351.283 646.664 351.472C646.664 351.662 646.818 351.815 647.007 351.815Z" fill="white" stroke="white" stroke-width="1.4967"/>
<path d="M535.703 282.904C535.703 283.093 535.857 283.247 536.046 283.247C536.236 283.247 536.389 283.093 536.389 282.904C536.389 282.714 536.236 282.561 536.046 282.561C535.857 282.561 535.703 282.714 535.703 282.904Z" fill="white" stroke="white" stroke-width="1.4967"/>
<path d="M514.73 260.107C514.73 260.295 514.881 260.447 515.069 260.45C515.07 260.45 515.072 260.45 515.074 260.45C515.263 260.45 515.417 260.296 515.417 260.107C515.417 259.917 515.263 259.764 515.074 259.764C514.884 259.762 514.73 259.917 514.73 260.107Z" fill="white" stroke="white" stroke-width="1.4967"/>
<path d="M548.227 297.935C548.227 298.124 548.38 298.278 548.57 298.278C548.759 298.278 548.913 298.124 548.913 297.935C548.913 297.745 548.759 297.592 548.57 297.592C548.38 297.592 548.227 297.745 548.227 297.935Z" fill="white" stroke="white" stroke-width="1.4967"/>
<path d="M584.808 289.743C584.997 289.743 585.151 289.589 585.151 289.4C585.151 289.21 584.997 289.057 584.808 289.057C584.618 289.057 584.465 289.21 584.465 289.4C584.465 289.589 584.618 289.743 584.808 289.743Z" fill="white" stroke="white" stroke-width="1.4967"/>
<path d="M671.551 330.443C671.551 330.632 671.704 330.786 671.894 330.786C672.083 330.786 672.237 330.632 672.237 330.443C672.237 330.253 672.083 330.1 671.894 330.1C671.704 330.1 671.551 330.253 671.551 330.443Z" fill="white" stroke="white" stroke-width="1.4967"/>
<path d="M671.206 340.842C671.396 340.842 671.55 340.689 671.55 340.499C671.55 340.31 671.396 340.156 671.206 340.156C671.017 340.156 670.863 340.31 670.863 340.499C670.863 340.689 671.017 340.842 671.206 340.842Z" fill="white" stroke="white" stroke-width="1.4967"/>
<path d="M708.113 322.13C708.113 322.32 708.267 322.473 708.456 322.473C708.646 322.473 708.799 322.32 708.799 322.13C708.799 321.941 708.646 321.787 708.456 321.787C708.267 321.787 708.113 321.941 708.113 322.13Z" fill="white" stroke="white" stroke-width="1.4967"/>
<path d="M649.451 261.642C649.329 261.642 649.229 261.542 649.229 261.42C649.229 261.296 649.328 261.198 649.451 261.198C649.573 261.198 649.673 261.298 649.673 261.42C649.673 261.542 649.573 261.642 649.451 261.642Z" fill="white" stroke="white" stroke-width="1.4967"/>
<path d="M620.267 288.652C620.145 288.652 620.045 288.552 620.045 288.43C620.045 288.307 620.145 288.207 620.267 288.207C620.39 288.207 620.49 288.307 620.49 288.43C620.49 288.552 620.39 288.652 620.267 288.652Z" fill="white" stroke="white" stroke-width="1.4967"/>
<path d="M540.732 289.622C540.61 289.622 540.51 289.523 540.51 289.4C540.51 289.278 540.61 289.178 540.732 289.178C540.855 289.178 540.954 289.278 540.954 289.4C540.954 289.523 540.855 289.622 540.732 289.622Z" fill="white" stroke="white" stroke-width="1.4967"/>
<path d="M517.65 266.329C517.528 266.329 517.428 266.23 517.428 266.107C517.428 265.987 517.526 265.886 517.651 265.885C517.774 265.886 517.872 265.984 517.872 266.107C517.872 266.229 517.772 266.329 517.65 266.329Z" fill="white" stroke="white" stroke-width="1.4967"/>
<path d="M439.631 301.589C439.509 301.589 439.409 301.489 439.409 301.367C439.409 301.245 439.509 301.145 439.631 301.145C439.753 301.145 439.853 301.244 439.853 301.367C439.853 301.49 439.753 301.589 439.631 301.589Z" fill="white" stroke="white" stroke-width="1.4967"/>
<path d="M503.853 269.343C503.731 269.343 503.631 269.244 503.631 269.121C503.631 268.998 503.731 268.899 503.853 268.899C503.975 268.899 504.076 268.999 504.076 269.121C504.076 269.244 503.976 269.343 503.853 269.343Z" fill="white" stroke="white" stroke-width="1.4967"/>
<path d="M553.306 298.156C553.184 298.156 553.084 298.056 553.084 297.933C553.084 297.811 553.184 297.711 553.306 297.711C553.428 297.711 553.529 297.811 553.529 297.933C553.529 298.056 553.429 298.156 553.306 298.156Z" fill="white" stroke="white" stroke-width="1.4967"/>
<path d="M580.525 272.64C580.403 272.64 580.303 272.54 580.303 272.418C580.303 272.295 580.403 272.196 580.525 272.196C580.647 272.196 580.747 272.296 580.747 272.418C580.747 272.54 580.647 272.64 580.525 272.64Z" fill="white" stroke="white" stroke-width="1.4967"/>
<path d="M542.389 306.744C542.267 306.744 542.166 306.643 542.166 306.521C542.166 306.398 542.265 306.299 542.389 306.299C542.511 306.299 542.611 306.399 542.611 306.521C542.611 306.644 542.511 306.744 542.389 306.744Z" fill="white" stroke="white" stroke-width="1.4967"/>
<path d="M731.357 247.492C731.235 247.492 731.135 247.391 731.135 247.269C731.135 247.147 731.235 247.047 731.357 247.047C731.48 247.047 731.579 247.147 731.579 247.269C731.579 247.392 731.48 247.492 731.357 247.492Z" fill="white" stroke="white" stroke-width="1.4967"/>
<path d="M823.877 249.433C823.753 249.433 823.655 249.334 823.655 249.211C823.655 249.088 823.754 248.989 823.877 248.989C823.999 248.989 824.099 249.089 824.099 249.211C824.099 249.333 824 249.433 823.877 249.433Z" fill="white" stroke="white" stroke-width="1.4967"/>
<path d="M741.705 281.831C741.582 281.831 741.483 281.732 741.483 281.609C741.483 281.487 741.583 281.387 741.705 281.387C741.827 281.387 741.927 281.487 741.927 281.609C741.927 281.732 741.828 281.831 741.705 281.831Z" fill="white" stroke="white" stroke-width="1.4967"/>
<path d="M239.198 185.1C239.198 190.161 235.095 194.264 230.034 194.264C224.972 194.264 220.869 190.161 220.869 185.1C220.869 180.039 224.972 175.936 230.034 175.936C235.095 175.936 239.198 180.039 239.198 185.1Z" fill="white" stroke="white" stroke-width="1.4967"/>
<path opacity="0.5" d="M792.609 343.094C803.439 352.265 804.784 368.479 795.613 379.309C786.442 390.139 770.228 391.484 759.398 382.313C748.568 373.142 747.224 356.928 756.394 346.098C765.565 335.268 781.779 333.923 792.609 343.094Z" fill="white" stroke="white" stroke-width="1.4967"/>
<path opacity="0.5" d="M265.9 334.338C265.9 338.94 262.169 342.672 257.566 342.672C252.964 342.672 249.233 338.94 249.233 334.338C249.233 329.736 252.964 326.004 257.566 326.004C262.169 326.004 265.9 329.736 265.9 334.338Z" fill="white" stroke="white" stroke-width="1.4967"/>
<path opacity="0.5" d="M571.769 110.244C577.996 111.708 581.857 117.941 580.394 124.168C578.93 130.394 572.696 134.255 566.47 132.792C560.244 131.328 556.383 125.095 557.846 118.868C559.31 112.642 565.543 108.781 571.769 110.244Z" fill="white" stroke="white" stroke-width="1.4967"/>
<path d="M583.301 103.245C583.301 104.242 582.492 105.051 581.495 105.051C580.498 105.051 579.69 104.242 579.69 103.245C579.69 102.248 580.498 101.44 581.495 101.44C582.492 101.44 583.301 102.248 583.301 103.245Z" fill="white" stroke="white" stroke-width="1.4967"/>
<path d="M592.329 213.004C592.329 216.26 589.69 218.9 586.433 218.9C583.177 218.9 580.537 216.26 580.537 213.004C580.537 209.747 583.177 207.108 586.433 207.108C589.689 207.108 592.329 209.748 592.329 213.004Z" fill="white" stroke="white" stroke-width="1.4967"/>
<path d="M356.162 162.202C356.162 163.623 355.009 164.776 353.587 164.776C352.166 164.776 351.014 163.624 351.014 162.202C351.014 160.779 352.166 159.627 353.587 159.627C355.01 159.628 356.162 160.781 356.162 162.202Z" fill="white" stroke="white" stroke-width="1.4967"/>
<path d="M448.923 179.885C448.923 181.307 447.771 182.46 446.35 182.46C444.928 182.46 443.776 181.308 443.776 179.885C443.776 178.464 444.928 177.311 446.35 177.311C447.771 177.312 448.923 178.465 448.923 179.885Z" fill="white" stroke="white" stroke-width="1.4967"/>
<path d="M336.377 176.564C336.377 177.449 335.66 178.166 334.775 178.166C333.891 178.166 333.174 177.449 333.174 176.564C333.174 175.68 333.891 174.963 334.775 174.963C335.66 174.963 336.377 175.68 336.377 176.564Z" fill="white" stroke="white" stroke-width="1.4967"/>
<path d="M671.603 294.451C671.603 297.901 668.807 300.697 665.357 300.697C661.908 300.697 659.112 297.901 659.112 294.451C659.112 291.002 661.908 288.205 665.357 288.205C668.807 288.205 671.603 291.002 671.603 294.451Z" fill="white" stroke="white" stroke-width="1.4967"/>
<path d="M739.65 251.209C737.473 251.209 735.709 249.444 735.709 247.269C735.709 245.093 737.474 243.328 739.65 243.328C741.826 243.328 743.59 245.092 743.59 247.269C743.59 249.445 741.826 251.209 739.65 251.209Z" fill="white" stroke="white" stroke-width="1.4967"/>
<path d="M413.884 318.08C411.707 318.08 409.944 316.316 409.944 314.14C409.944 311.964 411.709 310.2 413.884 310.2C416.06 310.2 417.824 311.964 417.824 314.14C417.824 316.316 416.061 318.08 413.884 318.08Z" fill="white" stroke="white" stroke-width="1.4967"/>
<path d="M653.677 352.381C651.5 352.381 649.737 350.617 649.737 348.441C649.737 346.264 651.501 344.5 653.677 344.5C655.854 344.5 657.617 346.264 657.617 348.441C657.617 350.617 655.854 352.381 653.677 352.381Z" fill="white" stroke="white" stroke-width="1.4967"/>
<path d="M527.957 260.448C527.957 262.624 526.193 264.389 524.017 264.389C521.841 264.389 520.076 262.624 520.076 260.448C520.076 258.272 521.841 256.508 524.017 256.508C526.193 256.508 527.957 258.272 527.957 260.448Z" fill="white" stroke="white" stroke-width="1.4967"/>
</g>
</svg>
