<svg width="843" height="420" viewBox="0 0 843 420" fill="none" xmlns="http://www.w3.org/2000/svg">
<g opacity="0.3">
<path opacity="0.3" d="M386.685 190.688L447.504 264.078L487.882 184.044L386.685 190.688Z" fill="white" stroke="white" stroke-width="1.4967"/>
<path opacity="0.3" d="M1.51128 271.284L35.8202 312.684L58.5972 267.536L1.51128 271.284Z" fill="white" stroke="white" stroke-width="1.4967"/>
<path opacity="0.3" d="M837.289 155.298L780.647 131.473L781.42 189.26L837.289 155.298Z" fill="white" stroke="white" stroke-width="1.4967"/>
<path opacity="0.3" d="M192.935 386.877L243.431 380.07L218.566 339.106L192.935 386.877Z" fill="white" stroke="white" stroke-width="1.4967"/>
<path opacity="0.3" d="M175.551 199.879L150.847 210.589L169.372 227.854L175.551 199.879Z" fill="white" stroke="white" stroke-width="1.4967"/>
<path opacity="0.3" d="M616.154 261.618C616.154 306.688 652.691 343.225 697.761 343.225C742.832 343.225 779.369 306.688 779.369 261.618C779.369 216.547 742.832 180.01 697.761 180.01C652.691 180.01 616.154 216.547 616.154 261.618Z" fill="white" stroke="white" stroke-width="1.4967"/>
<g opacity="0.55">
<path opacity="0.1" d="M183.553 226.557C183.553 233.801 189.425 239.674 196.67 239.674C203.914 239.674 209.787 233.801 209.787 226.557C209.787 219.313 203.914 213.44 196.67 213.44C189.425 213.44 183.553 219.313 183.553 226.557Z" fill="white" stroke="white" stroke-width="1.4967"/>
</g>
<path opacity="0.3" d="M437.977 123.825C437.977 138.247 449.667 149.938 464.089 149.938C478.51 149.938 490.201 138.247 490.201 123.825C490.201 109.404 478.51 97.7132 464.089 97.7132C449.667 97.7132 437.977 109.404 437.977 123.825Z" fill="white" stroke="white" stroke-width="1.4967"/>
<g opacity="0.3">
<path d="M718.124 22.6758L805.172 109.725C804.769 112.214 804.247 114.662 803.607 117.064L710.784 24.2404C713.187 23.601 715.635 23.079 718.124 22.6758Z" fill="white" stroke="white" stroke-width="1.00997" stroke-miterlimit="10"/>
<path d="M710.786 24.2383L803.609 117.062C802.998 119.361 802.288 121.62 801.471 123.826L704.021 26.377C706.228 25.5599 708.487 24.8497 710.786 24.2383Z" fill="white" stroke="white" stroke-width="1.00997" stroke-miterlimit="10"/>
<path d="M681.523 39.4922L788.355 146.324C787.002 147.933 785.589 149.49 784.107 150.979L676.868 43.7402C678.358 42.2597 679.915 40.8472 681.523 39.4922Z" fill="white" stroke="white" stroke-width="1.00997" stroke-miterlimit="10"/>
<path d="M686.548 35.6172L792.23 141.3C791.005 143.029 789.717 144.708 788.354 146.326L681.522 39.4941C683.14 38.131 684.819 36.8414 686.548 35.6172Z" fill="white" stroke="white" stroke-width="1.00997" stroke-miterlimit="10"/>
<path d="M697.763 29.0195L798.828 130.084C797.882 132.071 796.842 134.004 795.732 135.892L691.956 32.1154C693.842 31.006 695.776 29.9661 697.763 29.0195Z" fill="white" stroke="white" stroke-width="1.00997" stroke-miterlimit="10"/>
<path d="M691.954 32.1172L795.73 135.893C794.64 137.748 793.472 139.549 792.231 141.297L686.549 35.6149C688.299 34.376 690.1 33.2079 691.954 32.1172Z" fill="white" stroke="white" stroke-width="1.00997" stroke-miterlimit="10"/>
<path d="M704.019 26.375L801.469 123.824C800.68 125.958 799.796 128.046 798.825 130.083L697.761 29.0183C699.798 28.0491 701.886 27.1653 704.019 26.375Z" fill="white" stroke="white" stroke-width="1.00997" stroke-miterlimit="10"/>
<path d="M800.949 69.8846L757.963 26.8984C777.61 34.5921 793.254 50.2372 800.949 69.8846Z" fill="white" stroke="white" stroke-width="1.00997" stroke-miterlimit="10"/>
<path d="M757.961 26.8979L800.947 69.8841C802.535 73.9372 803.797 78.1532 804.672 82.512L745.332 23.1719C749.691 24.0476 753.907 25.3106 757.961 26.8979Z" fill="white" stroke="white" stroke-width="1.00997" stroke-miterlimit="10"/>
<path d="M726.154 21.8008L806.043 101.689C805.896 104.408 805.598 107.086 805.171 109.721L718.123 22.6712C720.758 22.2467 723.436 21.949 726.154 21.8008Z" fill="white" stroke="white" stroke-width="1.00997" stroke-miterlimit="10"/>
<path d="M730.328 21.6836C731.935 21.6836 733.523 21.7503 735.104 21.8491L805.999 92.7438C806.097 94.3245 806.164 95.9131 806.164 97.5192C806.164 98.9196 806.12 100.311 806.045 101.692L726.157 21.8037C727.537 21.7276 728.928 21.6836 730.328 21.6836Z" fill="white" stroke="white" stroke-width="1.00997" stroke-miterlimit="10"/>
<path d="M745.334 23.1733L804.674 82.5135C805.345 85.8483 805.784 89.2646 806 92.7423L735.105 21.8477C738.583 22.0639 741.999 22.5045 745.334 23.1733Z" fill="white" stroke="white" stroke-width="1.00997" stroke-miterlimit="10"/>
<path d="M655.583 84.7734L743.074 172.265C740.456 172.708 737.796 173.021 735.095 173.188L654.66 92.7528C654.827 90.0521 655.139 87.3914 655.583 84.7734Z" fill="white" stroke="white" stroke-width="1.00997" stroke-miterlimit="10"/>
<path d="M654.491 97.5186C654.491 95.9166 654.558 94.3319 654.655 92.7539L735.09 173.189C733.513 173.286 731.927 173.353 730.325 173.353C728.954 173.353 727.591 173.311 726.237 173.241L654.602 101.605C654.532 100.253 654.491 98.891 654.491 97.5186Z" fill="white" stroke="white" stroke-width="1.00997" stroke-miterlimit="10"/>
<path d="M654.607 101.605L726.242 173.241C722.794 173.058 719.411 172.63 716.099 172.001L655.847 111.749C655.217 108.437 654.789 105.054 654.607 101.605Z" fill="white" stroke="white" stroke-width="1.00997" stroke-miterlimit="10"/>
<path d="M655.846 111.75L716.098 172.002C711.844 171.194 707.715 170.039 703.745 168.552L659.294 124.102C657.808 120.133 656.653 116.003 655.846 111.75Z" fill="white" stroke="white" stroke-width="1.00997" stroke-miterlimit="10"/>
<path d="M659.295 124.102L703.746 168.552C683.252 160.879 666.969 144.597 659.295 124.102Z" fill="white" stroke="white" stroke-width="1.00997" stroke-miterlimit="10"/>
<path d="M657.19 77.4805L750.367 170.658C747.98 171.311 745.548 171.847 743.073 172.267L655.581 84.775C656 82.3012 656.537 79.8675 657.19 77.4805Z" fill="white" stroke="white" stroke-width="1.00997" stroke-miterlimit="10"/>
<path d="M668.691 53.3672L774.48 159.157C772.741 160.405 770.953 161.588 769.108 162.688L665.16 58.7393C666.261 56.8943 667.443 55.1067 668.691 53.3672Z" fill="white" stroke="white" stroke-width="1.00997" stroke-miterlimit="10"/>
<path d="M672.598 48.3711L779.477 155.248C777.868 156.62 776.202 157.921 774.481 159.156L668.692 53.3667C669.925 51.6472 671.227 49.9798 672.598 48.3711Z" fill="white" stroke="white" stroke-width="1.00997" stroke-miterlimit="10"/>
<path d="M659.368 70.7539L757.094 168.48C754.899 169.307 752.655 170.032 750.368 170.657L657.191 77.4797C657.815 75.1928 658.539 72.9487 659.368 70.7539Z" fill="white" stroke="white" stroke-width="1.00997" stroke-miterlimit="10"/>
<path d="M676.866 43.7383L784.105 150.977C782.625 152.467 781.072 153.885 779.473 155.248L672.594 48.3708C673.959 46.7714 675.376 45.2201 676.866 43.7383Z" fill="white" stroke="white" stroke-width="1.00997" stroke-miterlimit="10"/>
<path d="M662.034 64.5195L763.328 165.814C761.3 166.796 759.216 167.68 757.092 168.481L659.366 70.7554C660.167 68.6301 661.051 66.5474 662.034 64.5195Z" fill="white" stroke="white" stroke-width="1.00997" stroke-miterlimit="10"/>
<path d="M665.157 58.7383L769.105 162.687C767.228 163.807 765.305 164.855 763.328 165.812L662.033 64.5176C662.99 62.5391 664.038 60.6153 665.157 58.7383Z" fill="white" stroke="white" stroke-width="1.00997" stroke-miterlimit="10"/>
</g>
<path opacity="0.5" d="M277.581 145.854C277.661 145.485 277.734 145.114 277.799 144.74L244.639 111.58C244.265 111.645 243.894 111.718 243.526 111.798L277.581 145.854Z" fill="white" stroke="white" stroke-width="1.4967"/>
<path opacity="0.5" d="M276.852 148.57C276.961 148.232 277.063 147.891 277.16 147.547L241.832 112.22C241.488 112.316 241.147 112.419 240.809 112.527L276.852 148.57Z" fill="white" stroke="white" stroke-width="1.4967"/>
<path opacity="0.5" d="M270.436 159.391C270.651 159.163 270.862 158.93 271.07 158.694L230.685 118.31C230.449 118.517 230.217 118.728 229.988 118.943L270.436 159.391Z" fill="white" stroke="white" stroke-width="1.4967"/>
<path opacity="0.5" d="M272.033 157.542C272.229 157.294 272.421 157.043 272.61 156.788L232.591 116.769C232.336 116.957 232.085 117.15 231.837 117.346L272.033 157.542Z" fill="white" stroke="white" stroke-width="1.4967"/>
<path opacity="0.5" d="M274.78 153.392C274.937 153.104 275.09 152.813 275.237 152.519L236.86 114.142C236.566 114.289 236.275 114.441 235.987 114.599L274.78 153.392Z" fill="white" stroke="white" stroke-width="1.4967"/>
<path opacity="0.5" d="M273.483 155.545C273.661 155.277 273.834 155.007 274.003 154.733L234.646 115.376C234.372 115.545 234.101 115.718 233.834 115.896L273.483 155.545Z" fill="white" stroke="white" stroke-width="1.4967"/>
<path opacity="0.5" d="M275.909 151.075C276.044 150.764 276.173 150.449 276.297 150.132L239.247 113.083C238.93 113.206 238.616 113.335 238.304 113.47L275.909 151.075Z" fill="white" stroke="white" stroke-width="1.4967"/>
<path opacity="0.5" d="M274.374 125.41C271.872 121.102 268.277 117.508 263.969 115.005L274.374 125.41Z" fill="white" stroke="white" stroke-width="1.4967"/>
<path opacity="0.5" d="M277.022 131.507C276.814 130.82 276.58 130.143 276.324 129.477L259.902 113.055C259.236 112.798 258.559 112.565 257.871 112.357L277.022 131.507Z" fill="white" stroke="white" stroke-width="1.4967"/>
<path opacity="0.5" d="M278.062 142.888C278.107 142.483 278.143 142.076 278.17 141.666L247.713 111.209C247.303 111.236 246.896 111.272 246.491 111.317L278.062 142.888Z" fill="white" stroke="white" stroke-width="1.4967"/>
<path opacity="0.5" d="M278.19 138.237L251.141 111.189C250.683 111.163 250.225 111.146 249.766 111.143L278.236 139.613C278.233 139.154 278.216 138.696 278.19 138.237Z" fill="white" stroke="white" stroke-width="1.4967"/>
<path opacity="0.5" d="M277.975 135.903C277.904 135.368 277.818 134.839 277.717 134.315L255.063 111.66C254.539 111.56 254.01 111.474 253.476 111.403L277.975 135.903Z" fill="white" stroke="white" stroke-width="1.4967"/>
<path opacity="0.5" d="M251.754 168.291C252.161 168.261 252.566 168.222 252.968 168.175L221.206 136.411C221.158 136.813 221.12 137.219 221.089 137.626L251.754 168.291Z" fill="white" stroke="white" stroke-width="1.4967"/>
<path opacity="0.5" d="M249.722 168.375L221.003 139.657C221.003 139.691 221.003 139.725 221.003 139.759C221.003 140.18 221.014 140.599 221.032 141.017L248.362 168.347C248.78 168.365 249.199 168.376 249.62 168.376C249.654 168.376 249.688 168.376 249.722 168.375Z" fill="white" stroke="white" stroke-width="1.4967"/>
<path opacity="0.5" d="M244.477 167.904C244.997 167.999 245.522 168.08 246.051 168.147L221.231 143.328C221.298 143.857 221.38 144.381 221.474 144.901L244.477 167.904Z" fill="white" stroke="white" stroke-width="1.4967"/>
<path opacity="0.5" d="M239.74 166.62C240.388 166.859 241.046 167.074 241.716 167.265L222.114 147.663C222.305 148.332 222.52 148.991 222.758 149.639L239.74 166.62Z" fill="white" stroke="white" stroke-width="1.4967"/>
<path opacity="0.5" d="M224.535 153.529C227.155 158.289 231.089 162.223 235.849 164.843L224.535 153.529Z" fill="white" stroke="white" stroke-width="1.4967"/>
<path opacity="0.5" d="M254.808 167.899C255.179 167.831 255.548 167.755 255.914 167.673L221.706 133.465C221.624 133.831 221.549 134.2 221.481 134.571L254.808 167.899Z" fill="white" stroke="white" stroke-width="1.4967"/>
<path opacity="0.5" d="M264.751 164.049C265.023 163.879 265.292 163.704 265.557 163.525L225.858 123.825C225.679 124.091 225.504 124.36 225.335 124.631L264.751 164.049Z" fill="white" stroke="white" stroke-width="1.4967"/>
<path opacity="0.5" d="M266.789 162.644C267.042 162.454 267.292 162.26 267.538 162.062L227.317 121.841C227.119 122.087 226.925 122.337 226.734 122.589L266.789 162.644Z" fill="white" stroke="white" stroke-width="1.4967"/>
<path opacity="0.5" d="M257.599 167.24C257.94 167.141 258.28 167.036 258.616 166.925L222.453 130.763C222.343 131.099 222.238 131.438 222.139 131.78L257.599 167.24Z" fill="white" stroke="white" stroke-width="1.4967"/>
<path opacity="0.5" d="M269.381 160.451L228.927 119.998C228.712 120.226 228.499 120.457 228.29 120.693L268.686 161.089C268.922 160.88 269.153 160.667 269.381 160.451Z" fill="white" stroke="white" stroke-width="1.4967"/>
<path opacity="0.5" d="M260.168 166.363C260.485 166.238 260.799 166.108 261.109 165.972L223.406 128.269C223.271 128.58 223.141 128.894 223.016 129.211L260.168 166.363Z" fill="white" stroke="white" stroke-width="1.4967"/>
<path opacity="0.5" d="M262.549 165.293C262.841 165.145 263.13 164.991 263.417 164.832L224.548 125.962C224.389 126.249 224.235 126.538 224.086 126.831L262.549 165.293Z" fill="white" stroke="white" stroke-width="1.4967"/>
<g opacity="0.3">
<path d="M517.45 248.027L567.676 298.253C567.443 299.69 567.142 301.102 566.773 302.488L513.216 248.931C514.602 248.561 516.015 248.26 517.45 248.027Z" fill="white" stroke="white" stroke-width="0.748349" stroke-miterlimit="10"/>
<path d="M513.217 248.93L566.773 302.487C566.421 303.812 566.011 305.115 565.54 306.39L509.313 250.163C510.587 249.692 511.89 249.282 513.217 248.93Z" fill="white" stroke="white" stroke-width="0.748349" stroke-miterlimit="10"/>
<path d="M496.332 257.73L557.973 319.371C557.192 320.299 556.376 321.197 555.522 322.057L493.646 260.182C494.506 259.327 495.404 258.511 496.332 257.73Z" fill="white" stroke="white" stroke-width="0.748349" stroke-miterlimit="10"/>
<path d="M499.23 255.492L560.207 316.469C559.501 317.466 558.756 318.435 557.971 319.369L496.331 257.728C497.264 256.942 498.233 256.198 499.23 255.492Z" fill="white" stroke="white" stroke-width="0.748349" stroke-miterlimit="10"/>
<path d="M505.7 251.688L564.012 310C563.466 311.146 562.866 312.261 562.225 313.351L502.349 253.474C503.438 252.833 504.553 252.234 505.7 251.688Z" fill="white" stroke="white" stroke-width="0.748349" stroke-miterlimit="10"/>
<path d="M502.35 253.473L562.227 313.349C561.598 314.42 560.924 315.459 560.208 316.468L499.231 255.491C500.24 254.777 501.28 254.103 502.35 253.473Z" fill="white" stroke="white" stroke-width="0.748349" stroke-miterlimit="10"/>
<path d="M509.312 250.16L565.539 306.387C565.084 307.618 564.574 308.822 564.013 309.998L505.701 251.686C506.877 251.125 508.081 250.615 509.312 250.16Z" fill="white" stroke="white" stroke-width="0.748349" stroke-miterlimit="10"/>
<path d="M565.238 275.267L540.436 250.465C551.772 254.904 560.799 263.93 565.238 275.267Z" fill="white" stroke="white" stroke-width="0.748349" stroke-miterlimit="10"/>
<path d="M540.435 250.462L565.237 275.264C566.153 277.603 566.882 280.035 567.387 282.55L533.149 248.312C535.664 248.817 538.096 249.546 540.435 250.462Z" fill="white" stroke="white" stroke-width="0.748349" stroke-miterlimit="10"/>
<path d="M522.086 247.523L568.18 293.618C568.094 295.186 567.923 296.731 567.676 298.251L517.45 248.025C518.971 247.78 520.517 247.609 522.086 247.523Z" fill="white" stroke="white" stroke-width="0.748349" stroke-miterlimit="10"/>
<path d="M524.491 247.453C525.417 247.453 526.335 247.492 527.246 247.548L568.151 288.453C568.207 289.365 568.246 290.282 568.246 291.208C568.246 292.016 568.221 292.818 568.177 293.617L522.083 247.523C522.881 247.478 523.683 247.453 524.491 247.453Z" fill="white" stroke="white" stroke-width="0.748349" stroke-miterlimit="10"/>
<path d="M533.15 248.316L567.387 282.554C567.773 284.477 568.028 286.449 568.152 288.456L527.247 247.551C529.254 247.675 531.226 247.929 533.15 248.316Z" fill="white" stroke="white" stroke-width="0.748349" stroke-miterlimit="10"/>
<path d="M481.363 283.855L531.844 334.336C530.334 334.593 528.799 334.773 527.239 334.869L480.83 288.46C480.926 286.901 481.106 285.365 481.363 283.855Z" fill="white" stroke="white" stroke-width="0.748349" stroke-miterlimit="10"/>
<path d="M480.734 291.21C480.734 290.286 480.773 289.37 480.829 288.461L527.238 334.87C526.328 334.926 525.413 334.965 524.489 334.965C523.698 334.965 522.913 334.941 522.131 334.899L480.798 293.567C480.758 292.786 480.734 292 480.734 291.21Z" fill="white" stroke="white" stroke-width="0.748349" stroke-miterlimit="10"/>
<path d="M480.801 293.566L522.133 334.899C520.142 334.793 518.192 334.546 516.28 334.183L481.516 299.419C481.153 297.509 480.906 295.557 480.801 293.566Z" fill="white" stroke="white" stroke-width="0.748349" stroke-miterlimit="10"/>
<path d="M481.517 299.418L516.281 334.182C513.827 333.716 511.445 333.05 509.154 332.191L483.507 306.544C482.65 304.255 481.983 301.872 481.517 299.418Z" fill="white" stroke="white" stroke-width="0.748349" stroke-miterlimit="10"/>
<path d="M483.505 306.547L509.152 332.194C497.328 327.767 487.934 318.372 483.505 306.547Z" fill="white" stroke="white" stroke-width="0.748349" stroke-miterlimit="10"/>
<path d="M482.292 279.648L536.055 333.411C534.677 333.787 533.274 334.097 531.847 334.339L481.366 283.858C481.606 282.429 481.916 281.026 482.292 279.648Z" fill="white" stroke="white" stroke-width="0.748349" stroke-miterlimit="10"/>
<path d="M488.927 265.734L549.965 326.773C548.961 327.492 547.929 328.174 546.865 328.81L486.889 268.834C487.523 267.77 488.206 266.738 488.927 265.734Z" fill="white" stroke="white" stroke-width="0.748349" stroke-miterlimit="10"/>
<path d="M491.181 262.852L552.848 324.519C551.92 325.309 550.959 326.061 549.965 326.773L488.927 265.735C489.639 264.741 490.39 263.779 491.181 262.852Z" fill="white" stroke="white" stroke-width="0.748349" stroke-miterlimit="10"/>
<path d="M483.548 275.766L539.934 332.151C538.667 332.629 537.372 333.047 536.053 333.408L482.29 279.645C482.652 278.328 483.07 277.033 483.548 275.766Z" fill="white" stroke="white" stroke-width="0.748349" stroke-miterlimit="10"/>
<path d="M493.062 260.445L554.938 322.321C554.083 323.18 553.187 323.999 552.265 324.785L490.598 263.118C491.384 262.196 492.202 261.3 493.062 260.445Z" fill="white" stroke="white" stroke-width="0.748349" stroke-miterlimit="10"/>
<path d="M485.086 272.168L543.531 330.614C542.36 331.18 541.159 331.69 539.933 332.153L483.548 275.767C484.01 274.54 484.52 273.339 485.086 272.168Z" fill="white" stroke="white" stroke-width="0.748349" stroke-miterlimit="10"/>
<path d="M486.892 268.836L546.867 328.812C545.784 329.458 544.674 330.062 543.534 330.614L485.088 272.168C485.641 271.029 486.245 269.919 486.892 268.836Z" fill="white" stroke="white" stroke-width="0.748349" stroke-miterlimit="10"/>
</g>
<g opacity="0.3">
<path d="M104.337 296L154.562 346.226C154.33 347.662 154.028 349.075 153.66 350.461L100.103 296.904C101.488 296.534 102.9 296.232 104.337 296Z" fill="white" stroke="white" stroke-width="0.748349" stroke-miterlimit="10"/>
<path d="M100.103 296.902L153.66 350.459C153.308 351.785 152.898 353.089 152.427 354.363L96.1997 298.136C97.4733 297.665 98.7763 297.255 100.103 296.902Z" fill="white" stroke="white" stroke-width="0.748349" stroke-miterlimit="10"/>
<path d="M83.219 305.703L144.859 367.343C144.078 368.271 143.263 369.17 142.408 370.03L80.5329 308.154C81.3927 307.3 82.2912 306.485 83.219 305.703Z" fill="white" stroke="white" stroke-width="0.748349" stroke-miterlimit="10"/>
<path d="M86.1169 303.469L147.094 364.446C146.388 365.443 145.643 366.412 144.858 367.345L83.2173 305.705C84.1504 304.92 85.1197 304.175 86.1169 303.469Z" fill="white" stroke="white" stroke-width="0.748349" stroke-miterlimit="10"/>
<path d="M92.5863 299.664L150.898 357.976C150.352 359.123 149.753 360.238 149.112 361.327L89.2354 301.45C90.3248 300.81 91.4395 300.21 92.5863 299.664Z" fill="white" stroke="white" stroke-width="0.748349" stroke-miterlimit="10"/>
<path d="M89.2365 301.449L149.113 361.326C148.484 362.397 147.81 363.435 147.095 364.445L86.1179 303.468C87.1272 302.752 88.1672 302.078 89.2365 301.449Z" fill="white" stroke="white" stroke-width="0.748349" stroke-miterlimit="10"/>
<path d="M96.1989 298.137L152.426 354.364C151.971 355.594 151.461 356.799 150.9 357.975L92.5877 299.663C93.7638 299.102 94.968 298.592 96.1989 298.137Z" fill="white" stroke="white" stroke-width="0.748349" stroke-miterlimit="10"/>
<path d="M152.125 323.239L127.323 298.438C138.659 302.876 147.686 311.904 152.125 323.239Z" fill="white" stroke="white" stroke-width="0.748349" stroke-miterlimit="10"/>
<path d="M127.322 298.438L152.124 323.24C153.04 325.579 153.769 328.012 154.273 330.527L120.036 296.289C122.551 296.794 124.983 297.523 127.322 298.438Z" fill="white" stroke="white" stroke-width="0.748349" stroke-miterlimit="10"/>
<path d="M108.972 295.496L155.066 341.59C154.981 343.159 154.81 344.703 154.563 346.224L104.337 295.998C105.858 295.754 107.404 295.582 108.972 295.496Z" fill="white" stroke="white" stroke-width="0.748349" stroke-miterlimit="10"/>
<path d="M111.378 295.43C112.304 295.43 113.221 295.468 114.133 295.524L155.038 336.429C155.094 337.341 155.133 338.258 155.133 339.185C155.133 339.993 155.107 340.795 155.063 341.593L108.969 295.499C109.768 295.455 110.57 295.43 111.378 295.43Z" fill="white" stroke="white" stroke-width="0.748349" stroke-miterlimit="10"/>
<path d="M120.036 296.288L154.274 330.526C154.66 332.45 154.914 334.422 155.039 336.428L114.134 295.523C116.141 295.649 118.113 295.903 120.036 296.288Z" fill="white" stroke="white" stroke-width="0.748349" stroke-miterlimit="10"/>
<path d="M68.2495 331.832L118.73 382.313C117.221 382.568 115.685 382.748 114.126 382.846L67.7169 336.437C67.813 334.877 67.9932 333.342 68.2495 331.832Z" fill="white" stroke="white" stroke-width="0.748349" stroke-miterlimit="10"/>
<path d="M67.6211 339.186C67.6211 338.262 67.6598 337.347 67.7158 336.438L114.125 382.847C113.215 382.903 112.3 382.941 111.376 382.941C110.585 382.941 109.8 382.917 109.019 382.876L67.6864 341.544C67.645 340.763 67.6211 339.978 67.6211 339.186Z" fill="white" stroke="white" stroke-width="0.748349" stroke-miterlimit="10"/>
<path d="M67.6874 341.543L109.02 382.875C107.029 382.77 105.077 382.523 103.167 382.16L68.4017 347.396C68.0399 345.485 67.7929 343.533 67.6874 341.543Z" fill="white" stroke="white" stroke-width="0.748349" stroke-miterlimit="10"/>
<path d="M68.4028 347.395L103.168 382.158C100.714 381.692 98.3312 381.026 96.0403 380.168L70.3933 354.521C69.5349 352.231 68.8687 349.848 68.4028 347.395Z" fill="white" stroke="white" stroke-width="0.748349" stroke-miterlimit="10"/>
<path d="M70.3921 354.523L96.0391 380.17C84.2148 375.742 74.8203 366.348 70.3921 354.523Z" fill="white" stroke="white" stroke-width="0.748349" stroke-miterlimit="10"/>
<path d="M69.179 327.621L122.941 381.384C121.564 381.76 120.161 382.07 118.732 382.311L68.2511 331.83C68.4928 330.402 68.8025 328.999 69.179 327.621Z" fill="white" stroke="white" stroke-width="0.748349" stroke-miterlimit="10"/>
<path d="M75.8133 313.711L136.852 374.749C135.848 375.469 134.816 376.151 133.752 376.786L73.776 316.811C74.4102 315.747 75.0924 314.715 75.8133 313.711Z" fill="white" stroke="white" stroke-width="0.748349" stroke-miterlimit="10"/>
<path d="M78.0673 310.828L139.734 372.495C138.807 373.285 137.844 374.037 136.852 374.75L75.8138 313.712C76.5254 312.719 77.277 311.757 78.0673 310.828Z" fill="white" stroke="white" stroke-width="0.748349" stroke-miterlimit="10"/>
<path d="M70.4345 323.742L126.82 380.128C125.555 380.606 124.258 381.024 122.939 381.384L69.177 327.622C69.5388 326.303 69.9566 325.008 70.4345 323.742Z" fill="white" stroke="white" stroke-width="0.748349" stroke-miterlimit="10"/>
<path d="M80.5309 308.156L142.406 370.032C141.552 370.891 140.656 371.71 139.734 372.496L78.0665 310.829C78.8528 309.906 79.6712 309.011 80.5309 308.156Z" fill="white" stroke="white" stroke-width="0.748349" stroke-miterlimit="10"/>
<path d="M71.9723 320.145L130.418 378.589C129.247 379.155 128.046 379.665 126.82 380.128L70.4344 323.742C70.8963 322.517 71.4063 321.314 71.9723 320.145Z" fill="white" stroke="white" stroke-width="0.748349" stroke-miterlimit="10"/>
<path d="M73.7783 316.809L133.754 376.784C132.671 377.43 131.56 378.035 130.42 378.586L71.9747 320.142C72.5274 319.002 73.1322 317.891 73.7783 316.809Z" fill="white" stroke="white" stroke-width="0.748349" stroke-miterlimit="10"/>
</g>
<path d="M50.7427 134.956L55.5723 130.127L56.1015 129.597L56.6306 130.127L61.4588 134.956L64.0746 132.339L59.2462 127.511L58.7171 126.982L59.2462 126.453L64.0746 121.624L61.4588 119.008L56.6306 123.837L56.1015 124.366L55.5723 123.837L50.7427 119.008L48.127 121.624L52.9565 126.453L53.4859 126.982L52.9565 127.511L48.127 132.34L50.7427 134.956Z" fill="white" stroke="white" stroke-width="1.4967"/>
<path d="M52.9566 160.986L48.127 165.816L50.7426 168.432L55.5723 163.602L56.1015 163.073L56.6306 163.602L61.4589 168.431L64.0746 165.816L59.2462 160.986L58.7171 160.457L59.2462 159.928L64.0745 155.1L61.4588 152.484L56.6306 157.312L56.1015 157.841L55.5723 157.312L50.7427 152.484L48.1271 155.1L52.9565 159.928L53.4858 160.457L52.9566 160.986Z" fill="white" stroke="white" stroke-width="1.4967"/>
<path d="M48.127 188.58L52.9566 193.41L53.4858 193.939L52.9565 194.468L48.1271 199.296L50.7427 201.912L55.5723 197.084L56.1015 196.555L56.6306 197.084L61.4588 201.912L64.0745 199.296L59.2462 194.468L58.7171 193.939L59.2462 193.41L64.0746 188.58L61.4589 185.965L56.6306 190.794L56.1015 191.323L55.5723 190.794L50.7426 185.965L48.127 188.58Z" fill="white" stroke="white" stroke-width="1.4967"/>
<path d="M329.588 352.877V352.389H329.099V352.877H329.588Z" fill="white" stroke="white" stroke-width="1.4967"/>
<path d="M314.412 352.877V352.389H313.923V352.877H314.412Z" fill="white" stroke="white" stroke-width="1.4967"/>
<path d="M299.24 352.877V352.389H298.751V352.877H299.24Z" fill="white" stroke="white" stroke-width="1.4967"/>
<path d="M284.064 352.877V352.389H283.576V352.877H284.064Z" fill="white" stroke="white" stroke-width="1.4967"/>
<path d="M268.888 352.877V352.389H268.4V352.877H268.888Z" fill="white" stroke="white" stroke-width="1.4967"/>
<path d="M253.713 352.877V352.389H253.224V352.877H253.713Z" fill="white" stroke="white" stroke-width="1.4967"/>
<path d="M329.588 363.94V363.451H329.099V363.94H329.588Z" fill="white" stroke="white" stroke-width="1.4967"/>
<path d="M314.412 363.94V363.451H313.923V363.94H314.412Z" fill="white" stroke="white" stroke-width="1.4967"/>
<path d="M299.24 363.94V363.451H298.751V363.94H299.24Z" fill="white" stroke="white" stroke-width="1.4967"/>
<path d="M284.064 363.94V363.451H283.576V363.94H284.064Z" fill="white" stroke="white" stroke-width="1.4967"/>
<path d="M268.888 363.94V363.451H268.4V363.94H268.888Z" fill="white" stroke="white" stroke-width="1.4967"/>
<path d="M253.713 363.94V363.451H253.224V363.94H253.713Z" fill="white" stroke="white" stroke-width="1.4967"/>
<path d="M329.588 375.002V374.514H329.099V375.002H329.588Z" fill="white" stroke="white" stroke-width="1.4967"/>
<path d="M314.412 375.002V374.514H313.923V375.002H314.412Z" fill="white" stroke="white" stroke-width="1.4967"/>
<path d="M299.24 375.002V374.514H298.751V375.002H299.24Z" fill="white" stroke="white" stroke-width="1.4967"/>
<path d="M284.064 375.002V374.514H283.576V375.002H284.064Z" fill="white" stroke="white" stroke-width="1.4967"/>
<path d="M268.888 375.002V374.514H268.4V375.002H268.888Z" fill="white" stroke="white" stroke-width="1.4967"/>
<path d="M253.713 375.002V374.514H253.224V375.002H253.713Z" fill="white" stroke="white" stroke-width="1.4967"/>
<path d="M329.588 386.065V385.576H329.099V386.065H329.588Z" fill="white" stroke="white" stroke-width="1.4967"/>
<path d="M314.412 386.065V385.576H313.923V386.065H314.412Z" fill="white" stroke="white" stroke-width="1.4967"/>
<path d="M299.24 386.065V385.576H298.751V386.065H299.24Z" fill="white" stroke="white" stroke-width="1.4967"/>
<path d="M284.064 386.065V385.576H283.576V386.065H284.064Z" fill="white" stroke="white" stroke-width="1.4967"/>
<path d="M268.888 386.065V385.576H268.4V386.065H268.888Z" fill="white" stroke="white" stroke-width="1.4967"/>
<path d="M253.713 386.065V385.576H253.224V386.065H253.713Z" fill="white" stroke="white" stroke-width="1.4967"/>
<path d="M329.588 397.127V396.639H329.099V397.127H329.588Z" fill="white" stroke="white" stroke-width="1.4967"/>
<path d="M314.412 397.127V396.639H313.923V397.127H314.412Z" fill="white" stroke="white" stroke-width="1.4967"/>
<path d="M299.24 397.127V396.639H298.751V397.127H299.24Z" fill="white" stroke="white" stroke-width="1.4967"/>
<path d="M284.064 397.127V396.639H283.576V397.127H284.064Z" fill="white" stroke="white" stroke-width="1.4967"/>
<path d="M268.888 397.127V396.639H268.4V397.127H268.888Z" fill="white" stroke="white" stroke-width="1.4967"/>
<path d="M253.713 397.127V396.639H253.224V397.127H253.713Z" fill="white" stroke="white" stroke-width="1.4967"/>
<path d="M329.588 408.19V407.701H329.099V408.19H329.588Z" fill="white" stroke="white" stroke-width="1.4967"/>
<path d="M314.412 408.19V407.701H313.923V408.19H314.412Z" fill="white" stroke="white" stroke-width="1.4967"/>
<path d="M299.24 408.19V407.701H298.751V408.19H299.24Z" fill="white" stroke="white" stroke-width="1.4967"/>
<path d="M284.064 408.19V407.701H283.576V408.19H284.064Z" fill="white" stroke="white" stroke-width="1.4967"/>
<path d="M268.888 408.19V407.701H268.4V408.19H268.888Z" fill="white" stroke="white" stroke-width="1.4967"/>
<path d="M253.713 408.19V407.701H253.224V408.19H253.713Z" fill="white" stroke="white" stroke-width="1.4967"/>
<path d="M329.588 419.252V418.764H329.099V419.252H329.588Z" fill="white" stroke="white" stroke-width="1.4967"/>
<path d="M314.412 419.252V418.764H313.923V419.252H314.412Z" fill="white" stroke="white" stroke-width="1.4967"/>
<path d="M299.24 419.252V418.764H298.751V419.252H299.24Z" fill="white" stroke="white" stroke-width="1.4967"/>
<path d="M284.064 419.252V418.764H283.576V419.252H284.064Z" fill="white" stroke="white" stroke-width="1.4967"/>
<path d="M268.888 419.252V418.764H268.4V419.252H268.888Z" fill="white" stroke="white" stroke-width="1.4967"/>
<path d="M253.713 419.252V418.764H253.224V419.252H253.713Z" fill="white" stroke="white" stroke-width="1.4967"/>
<path d="M622.154 31.5728V31.0843H621.666V31.5728H622.154Z" fill="white" stroke="white" stroke-width="1.4967"/>
<path d="M606.978 31.5728V31.0843H606.49V31.5728H606.978Z" fill="white" stroke="white" stroke-width="1.4967"/>
<path d="M591.806 31.5728V31.0843H591.318V31.5728H591.806Z" fill="white" stroke="white" stroke-width="1.4967"/>
<path d="M576.631 31.5728V31.0843H576.142V31.5728H576.631Z" fill="white" stroke="white" stroke-width="1.4967"/>
<path d="M561.455 31.5728V31.0843H560.966V31.5728H561.455Z" fill="white" stroke="white" stroke-width="1.4967"/>
<path d="M546.279 31.5728V31.0843H545.791V31.5728H546.279Z" fill="white" stroke="white" stroke-width="1.4967"/>
<path d="M622.154 42.6353V42.1468H621.666V42.6353H622.154Z" fill="white" stroke="white" stroke-width="1.4967"/>
<path d="M606.978 42.6353V42.1468H606.49V42.6353H606.978Z" fill="white" stroke="white" stroke-width="1.4967"/>
<path d="M591.806 42.6353V42.1468H591.318V42.6353H591.806Z" fill="white" stroke="white" stroke-width="1.4967"/>
<path d="M576.631 42.6353V42.1468H576.142V42.6353H576.631Z" fill="white" stroke="white" stroke-width="1.4967"/>
<path d="M561.455 42.6353V42.1468H560.966V42.6353H561.455Z" fill="white" stroke="white" stroke-width="1.4967"/>
<path d="M546.279 42.6353V42.1468H545.791V42.6353H546.279Z" fill="white" stroke="white" stroke-width="1.4967"/>
<path d="M622.154 53.6978V53.2093H621.666V53.6978H622.154Z" fill="white" stroke="white" stroke-width="1.4967"/>
<path d="M606.978 53.6978V53.2093H606.49V53.6978H606.978Z" fill="white" stroke="white" stroke-width="1.4967"/>
<path d="M591.806 53.6978V53.2093H591.318V53.6978H591.806Z" fill="white" stroke="white" stroke-width="1.4967"/>
<path d="M576.631 53.6978V53.2093H576.142V53.6978H576.631Z" fill="white" stroke="white" stroke-width="1.4967"/>
<path d="M561.455 53.6978V53.2093H560.966V53.6978H561.455Z" fill="white" stroke="white" stroke-width="1.4967"/>
<path d="M546.279 53.6978V53.2093H545.791V53.6978H546.279Z" fill="white" stroke="white" stroke-width="1.4967"/>
<path d="M622.154 64.7603V64.2718H621.666V64.7603H622.154Z" fill="white" stroke="white" stroke-width="1.4967"/>
<path d="M606.978 64.7603V64.2718H606.49V64.7603H606.978Z" fill="white" stroke="white" stroke-width="1.4967"/>
<path d="M591.806 64.7603V64.2718H591.318V64.7603H591.806Z" fill="white" stroke="white" stroke-width="1.4967"/>
<path d="M576.631 64.7603V64.2718H576.142V64.7603H576.631Z" fill="white" stroke="white" stroke-width="1.4967"/>
<path d="M561.455 64.7603V64.2718H560.966V64.7603H561.455Z" fill="white" stroke="white" stroke-width="1.4967"/>
<path d="M546.279 64.7603V64.2718H545.791V64.7603H546.279Z" fill="white" stroke="white" stroke-width="1.4967"/>
<path d="M622.154 75.8228V75.3343H621.666V75.8228H622.154Z" fill="white" stroke="white" stroke-width="1.4967"/>
<path d="M606.978 75.8228V75.3343H606.49V75.8228H606.978Z" fill="white" stroke="white" stroke-width="1.4967"/>
<path d="M591.806 75.8228V75.3343H591.318V75.8228H591.806Z" fill="white" stroke="white" stroke-width="1.4967"/>
<path d="M576.631 75.8228V75.3343H576.142V75.8228H576.631Z" fill="white" stroke="white" stroke-width="1.4967"/>
<path d="M561.455 75.8228V75.3343H560.966V75.8228H561.455Z" fill="white" stroke="white" stroke-width="1.4967"/>
<path d="M546.279 75.8228V75.3343H545.791V75.8228H546.279Z" fill="white" stroke="white" stroke-width="1.4967"/>
<path d="M622.154 86.8853V86.3968H621.666V86.8853H622.154Z" fill="white" stroke="white" stroke-width="1.4967"/>
<path d="M606.978 86.8853V86.3968H606.49V86.8853H606.978Z" fill="white" stroke="white" stroke-width="1.4967"/>
<path d="M591.806 86.8853V86.3968H591.318V86.8853H591.806Z" fill="white" stroke="white" stroke-width="1.4967"/>
<path d="M576.631 86.8853V86.3968H576.142V86.8853H576.631Z" fill="white" stroke="white" stroke-width="1.4967"/>
<path d="M561.455 86.8853V86.3968H560.966V86.8853H561.455Z" fill="white" stroke="white" stroke-width="1.4967"/>
<path d="M546.279 86.8853V86.3968H545.791V86.8853H546.279Z" fill="white" stroke="white" stroke-width="1.4967"/>
<path d="M622.154 97.9439V97.4554H621.666V97.9439H622.154Z" fill="white" stroke="white" stroke-width="1.4967"/>
<path d="M606.978 97.9439V97.4554H606.49V97.9439H606.978Z" fill="white" stroke="white" stroke-width="1.4967"/>
<path d="M591.806 97.9439V97.4554H591.318V97.9439H591.806Z" fill="white" stroke="white" stroke-width="1.4967"/>
<path d="M576.631 97.9439V97.4554H576.142V97.9439H576.631Z" fill="white" stroke="white" stroke-width="1.4967"/>
<path d="M561.455 97.9439V97.4554H560.966V97.9439H561.455Z" fill="white" stroke="white" stroke-width="1.4967"/>
<path d="M546.279 97.9439V97.4554H545.791V97.9439H546.279Z" fill="white" stroke="white" stroke-width="1.4967"/>
<path d="M175.68 0V14.6278" stroke="white" stroke-miterlimit="10"/>
<path d="M182.992 7.31641H168.366" stroke="white" stroke-miterlimit="10"/>
<path d="M135.82 0V14.6278" stroke="white" stroke-miterlimit="10"/>
<path d="M143.133 7.31641H128.505" stroke="white" stroke-miterlimit="10"/>
<path d="M95.9609 0V14.6278" stroke="white" stroke-miterlimit="10"/>
<path d="M103.273 7.31641H88.6456" stroke="white" stroke-miterlimit="10"/>
<path d="M56.1016 0V14.6278" stroke="white" stroke-miterlimit="10"/>
<path d="M63.4141 7.31641H48.7863" stroke="white" stroke-miterlimit="10"/>
<path d="M175.68 30.3516V44.9793" stroke="white" stroke-miterlimit="10"/>
<path d="M182.992 37.6641H168.366" stroke="white" stroke-miterlimit="10"/>
<path d="M135.82 30.3516V44.9793" stroke="white" stroke-miterlimit="10"/>
<path d="M143.133 37.6641H128.505" stroke="white" stroke-miterlimit="10"/>
<path d="M95.9609 30.3516V44.9793" stroke="white" stroke-miterlimit="10"/>
<path d="M103.273 37.6641H88.6456" stroke="white" stroke-miterlimit="10"/>
<path d="M56.1016 30.3516V44.9793" stroke="white" stroke-miterlimit="10"/>
<path d="M63.4141 37.6641H48.7863" stroke="white" stroke-miterlimit="10"/>
<path d="M175.68 60.7031V75.3309" stroke="white" stroke-miterlimit="10"/>
<path d="M182.992 68.0195H168.366" stroke="white" stroke-miterlimit="10"/>
<path d="M135.82 60.7031V75.3309" stroke="white" stroke-miterlimit="10"/>
<path d="M143.133 68.0195H128.505" stroke="white" stroke-miterlimit="10"/>
<path d="M95.9609 60.7031V75.3309" stroke="white" stroke-miterlimit="10"/>
<path d="M103.273 68.0195H88.6456" stroke="white" stroke-miterlimit="10"/>
<path d="M56.1016 60.7031V75.3309" stroke="white" stroke-miterlimit="10"/>
<path d="M63.4141 68.0195H48.7863" stroke="white" stroke-miterlimit="10"/>
<path d="M175.68 91.0586V105.686" stroke="white" stroke-miterlimit="10"/>
<path d="M182.992 98.3711H168.366" stroke="white" stroke-miterlimit="10"/>
<path d="M135.82 91.0586V105.686" stroke="white" stroke-miterlimit="10"/>
<path d="M143.133 98.3711H128.505" stroke="white" stroke-miterlimit="10"/>
<path d="M95.9609 91.0586V105.686" stroke="white" stroke-miterlimit="10"/>
<path d="M103.273 98.3711H88.6456" stroke="white" stroke-miterlimit="10"/>
<path d="M56.1016 91.0586V105.686" stroke="white" stroke-miterlimit="10"/>
<path d="M63.4141 98.3711H48.7863" stroke="white" stroke-miterlimit="10"/>
<path d="M769.586 200.209L650.936 21.1562L616.421 327.486L566.804 163.536L480.514 223.938L411.481 135.491L256.159 213.152L208.699 185.107" stroke="white" stroke-width="0.5" stroke-miterlimit="10"/>
<path d="M685.043 72.6211L827.832 102.052L769.587 200.207L641.23 111.76L612.107 182.889L594.849 154.905L554.94 216.386L489.142 161.377L396.38 180.732L356.471 81.5577L320.877 247.667L282.045 174.32L225.957 208.835L208.7 185.106" stroke="white" stroke-width="0.5" stroke-miterlimit="10"/>
<path d="M827.832 102.055L715.265 118.234L616.422 327.488L480.514 223.94L554.94 216.389L539.838 118.234L489.143 161.38L405.01 229.334L411.482 135.493L317.641 102.055L282.046 174.323" stroke="white" stroke-width="0.5" stroke-miterlimit="10"/>
<path d="M594.848 154.905L539.837 118.23L480.513 223.937L396.379 180.732" stroke="white" stroke-width="0.5" stroke-miterlimit="10"/>
<path d="M769.586 200.21L711.341 209.557L721.25 166.902" stroke="white" stroke-width="0.5" stroke-miterlimit="10"/>
<path d="M612.106 182.891L670.453 213.099L596.91 263.016L554.94 216.388L612.106 182.891Z" stroke="white" stroke-width="0.5" stroke-miterlimit="10"/>
<path d="M815.443 102.053C815.443 109.381 821.384 115.322 828.713 115.322C836.041 115.322 841.982 109.381 841.982 102.053C841.982 94.7244 836.041 88.7835 828.713 88.7835C821.384 88.7835 815.443 94.7244 815.443 102.053Z" fill="white" stroke="white" stroke-width="1.4967"/>
<path d="M712.089 118.23C712.089 121.487 714.728 124.126 717.985 124.126C721.241 124.126 723.881 121.487 723.881 118.23C723.881 114.974 721.241 112.334 717.985 112.334C714.728 112.334 712.089 114.975 712.089 118.23Z" fill="white" stroke="white" stroke-width="1.4967"/>
<path d="M622.708 243.8C622.708 245.981 624.476 247.749 626.658 247.749C628.839 247.749 630.607 245.981 630.607 243.8C630.607 241.618 628.839 239.85 626.658 239.85C624.476 239.85 622.708 241.618 622.708 243.8Z" fill="white" stroke="white" stroke-width="1.4967"/>
<path d="M590.245 261.617C590.245 264.874 592.884 267.513 596.141 267.513C599.397 267.513 602.037 264.874 602.037 261.617C602.037 258.36 599.397 255.721 596.141 255.721C592.884 255.721 590.245 258.36 590.245 261.617Z" fill="white" stroke="white" stroke-width="1.4967"/>
<path d="M406.483 136.91C406.483 140.167 409.122 142.806 412.379 142.806C415.636 142.806 418.275 140.167 418.275 136.91C418.275 133.653 415.636 131.014 412.379 131.014C409.122 131.014 406.483 133.653 406.483 136.91Z" fill="white" stroke="white" stroke-width="1.4967"/>
<path d="M353.644 82.0972C353.644 83.569 354.837 84.7625 356.309 84.7625C357.781 84.7625 358.974 83.569 358.974 82.0972C358.974 80.6256 357.781 79.4321 356.309 79.4319C354.837 79.4331 353.644 80.6261 353.644 82.0972Z" fill="white" stroke="white" stroke-width="1.4967"/>
<path d="M279.382 174.32C279.382 175.792 280.576 176.985 282.047 176.985C283.519 176.985 284.713 175.792 284.713 174.32C284.713 172.848 283.519 171.655 282.047 171.655C280.574 171.655 279.382 172.848 279.382 174.32Z" fill="white" stroke="white" stroke-width="1.4967"/>
<path d="M333.804 173.433C333.804 174.905 334.997 176.098 336.469 176.098C337.941 176.098 339.134 174.905 339.134 173.433C339.134 171.961 337.941 170.768 336.469 170.768C334.996 170.768 333.804 171.961 333.804 173.433Z" fill="white" stroke="white" stroke-width="1.4967"/>
<path d="M317.195 102.05C317.195 102.296 317.395 102.497 317.641 102.497C317.887 102.497 318.088 102.297 318.088 102.05C318.088 101.804 317.887 101.604 317.641 101.604C317.394 101.604 317.195 101.804 317.195 102.05Z" fill="white" stroke="white" stroke-width="1.4967"/>
<path d="M225.034 209.218C225.034 209.464 225.235 209.665 225.481 209.665C225.727 209.665 225.927 209.464 225.927 209.218C225.927 208.972 225.727 208.772 225.481 208.772C225.235 208.772 225.034 208.972 225.034 209.218Z" fill="white" stroke="white" stroke-width="1.4967"/>
<path d="M405.733 227.307L405.732 227.307C404.833 227.306 404.101 228.037 404.101 228.939C404.101 229.841 404.831 230.571 405.733 230.571C406.635 230.571 407.365 229.841 407.365 228.939C407.365 228.037 406.635 227.307 405.733 227.307Z" fill="white" stroke="white" stroke-width="1.4967"/>
<path d="M648.071 21.1549C648.071 23.3362 649.84 25.1045 652.021 25.1045C654.202 25.1045 655.97 23.3362 655.97 21.1549C655.97 18.9737 654.202 17.2054 652.021 17.2054C649.84 17.2054 648.071 18.9737 648.071 21.1549Z" fill="white" stroke="white" stroke-width="1.4967"/>
<path d="M637.767 111.585C637.767 113.006 638.919 114.159 640.341 114.159C641.763 114.159 642.916 113.006 642.916 111.585C642.916 110.163 641.763 109.01 640.341 109.01C638.919 109.01 637.767 110.163 637.767 111.585Z" fill="white" stroke="white" stroke-width="1.4967"/>
<path d="M594.849 151.299L594.848 151.299C593.427 151.298 592.275 152.45 592.275 153.872C592.275 155.294 593.427 156.447 594.849 156.447C596.27 156.447 597.424 155.294 597.424 153.872C597.424 152.451 596.272 151.299 594.849 151.299Z" fill="white" stroke="white" stroke-width="1.4967"/>
<path d="M552.366 215.893C552.366 217.314 553.518 218.468 554.94 218.468C556.361 218.468 557.513 217.316 557.513 215.893C557.513 214.472 556.361 213.319 554.94 213.319C553.518 213.319 552.366 214.471 552.366 215.893Z" fill="white" stroke="white" stroke-width="1.4967"/>
<path d="M371.463 121.553C371.463 122.437 372.18 123.154 373.064 123.154C373.949 123.154 374.666 122.437 374.666 121.553C374.666 120.668 373.949 119.951 373.064 119.951C372.18 119.951 371.463 120.668 371.463 121.553Z" fill="white" stroke="white" stroke-width="1.4967"/>
<path d="M565.6 164.244C565.6 165.129 566.317 165.845 567.201 165.845C568.086 165.845 568.802 165.129 568.802 164.244C568.802 163.36 568.086 162.643 567.201 162.643C566.317 162.643 565.6 163.36 565.6 164.244Z" fill="white" stroke="white" stroke-width="1.4967"/>
<path d="M598.834 199.287C598.834 200.172 599.551 200.888 600.436 200.888C601.32 200.888 602.037 200.171 602.037 199.287C602.037 198.403 601.32 197.686 600.436 197.686C599.551 197.686 598.834 198.403 598.834 199.287Z" fill="white" stroke="white" stroke-width="1.4967"/>
<path d="M538.166 118.232C538.166 119.117 538.883 119.834 539.768 119.834C540.652 119.834 541.369 119.117 541.369 118.232C541.369 117.348 540.652 116.631 539.768 116.631C538.883 116.632 538.166 117.35 538.166 118.232Z" fill="white" stroke="white" stroke-width="1.4967"/>
<path d="M479.897 222.951C479.897 223.836 480.614 224.552 481.498 224.552C482.382 224.552 483.099 223.836 483.099 222.951C483.099 222.067 482.382 221.35 481.498 221.35C480.614 221.35 479.897 222.067 479.897 222.951Z" fill="white" stroke="white" stroke-width="1.4967"/>
<path d="M438.19 171.084C438.19 171.968 438.907 172.685 439.791 172.685C440.675 172.685 441.392 171.968 441.392 171.084C441.392 170.2 440.675 169.483 439.791 169.483C438.907 169.483 438.19 170.2 438.19 171.084Z" fill="white" stroke="white" stroke-width="1.4967"/>
<path d="M235.58 202.209C235.58 203.093 236.297 203.81 237.182 203.81C238.066 203.81 238.783 203.093 238.783 202.209C238.783 201.325 238.066 200.608 237.182 200.608C236.297 200.608 235.58 201.325 235.58 202.209Z" fill="white" stroke="white" stroke-width="1.4967"/>
<path d="M348.178 113.533C348.178 114.418 348.895 115.135 349.779 115.135C350.664 115.135 351.381 114.418 351.381 113.533C351.381 112.649 350.664 111.932 349.779 111.932C348.895 111.932 348.178 112.649 348.178 113.533Z" fill="white" stroke="white" stroke-width="1.4967"/>
<path d="M207.096 185.561C207.096 186.445 207.813 187.162 208.697 187.162C209.582 187.162 210.299 186.445 210.299 185.561C210.299 184.676 209.582 183.959 208.697 183.959C207.813 183.959 207.096 184.676 207.096 185.561Z" fill="white" stroke="white" stroke-width="1.4967"/>
<path d="M319.451 247.666C319.451 248.55 320.168 249.267 321.053 249.267C321.937 249.267 322.654 248.55 322.654 247.666C322.654 246.782 321.937 246.065 321.053 246.065C320.168 246.065 319.451 246.782 319.451 247.666Z" fill="white" stroke="white" stroke-width="1.4967"/>
<path d="M667.88 213.292C667.88 214.713 669.032 215.866 670.454 215.866C671.876 215.866 673.029 214.714 673.029 213.292C673.029 211.87 671.877 210.717 670.454 210.717C669.033 210.717 667.88 211.869 667.88 213.292Z" fill="white" stroke="white" stroke-width="1.4967"/>
<path d="M613.442 327.487C613.442 328.909 614.595 330.061 616.017 330.061C617.439 330.061 618.591 328.909 618.591 327.487C618.591 326.065 617.439 324.912 616.017 324.912C614.595 324.912 613.442 326.065 613.442 327.487Z" fill="white" stroke="white" stroke-width="1.4967"/>
<path d="M822.407 129.241C822.407 131.422 824.175 133.19 826.357 133.19C828.538 133.19 830.306 131.422 830.306 129.241C830.306 127.06 828.538 125.291 826.357 125.291C824.175 125.291 822.407 127.06 822.407 129.241Z" fill="white" stroke="white" stroke-width="1.4967"/>
<path d="M708.35 209.554C708.35 211.205 709.689 212.544 711.34 212.544C712.991 212.544 714.33 211.205 714.33 209.554C714.33 207.904 712.992 206.565 711.34 206.565C709.688 206.565 708.35 207.904 708.35 209.554Z" fill="white" stroke="white" stroke-width="1.4967"/>
<path d="M766.596 200.676C766.596 202.326 767.936 203.665 769.586 203.665C771.237 203.665 772.576 202.326 772.576 200.676C772.576 199.025 771.237 197.686 769.586 197.686C767.936 197.686 766.596 199.025 766.596 200.676Z" fill="white" stroke="white" stroke-width="1.4967"/>
<path d="M697.934 151.581C697.934 152.627 698.783 153.476 699.829 153.476C700.876 153.476 701.724 152.627 701.724 151.581C701.724 150.534 700.876 149.686 699.829 149.686C698.783 149.686 697.934 150.534 697.934 151.581Z" fill="white" stroke="white" stroke-width="1.4967"/>
<path d="M720.264 222.953C720.264 223.3 720.544 223.58 720.891 223.58C721.237 223.58 721.517 223.3 721.517 222.953C721.517 222.607 721.237 222.326 720.891 222.326C720.544 222.326 720.264 222.607 720.264 222.953Z" fill="white" stroke="white" stroke-width="1.4967"/>
<path d="M626.029 174.32C626.029 174.667 626.31 174.947 626.656 174.947C627.003 174.947 627.283 174.667 627.283 174.32C627.283 173.974 627.003 173.694 626.656 173.694C626.31 173.694 626.029 173.974 626.029 174.32Z" fill="white" stroke="white" stroke-width="1.4967"/>
<path d="M578.006 202.207C578.006 202.553 578.286 202.834 578.633 202.834C578.979 202.834 579.259 202.553 579.259 202.207C579.259 201.861 578.979 201.58 578.633 201.58C578.286 201.58 578.006 201.861 578.006 202.207Z" fill="white" stroke="white" stroke-width="1.4967"/>
<path d="M678.721 213.945C678.721 214.292 679.001 214.572 679.348 214.572C679.694 214.572 679.974 214.292 679.974 213.945C679.974 213.599 679.694 213.319 679.348 213.319C679.001 213.319 678.721 213.599 678.721 213.945Z" fill="white" stroke="white" stroke-width="1.4967"/>
<path d="M632.104 248.5C632.104 248.846 632.384 249.127 632.73 249.127C633.077 249.127 633.357 248.846 633.357 248.5C633.357 248.154 633.077 247.873 632.73 247.873C632.384 247.873 632.104 248.154 632.104 248.5Z" fill="white" stroke="white" stroke-width="1.4967"/>
<path d="M583.346 260.242C583.346 260.589 583.626 260.869 583.973 260.869C584.319 260.869 584.599 260.589 584.599 260.242C584.599 259.896 584.319 259.616 583.973 259.616C583.626 259.616 583.346 259.896 583.346 260.242Z" fill="white" stroke="white" stroke-width="1.4967"/>
<path d="M525.244 192.399C525.244 192.745 525.525 193.025 525.871 193.025C526.217 193.025 526.498 192.745 526.498 192.399C526.498 192.052 526.217 191.772 525.871 191.772C525.525 191.772 525.244 192.052 525.244 192.399Z" fill="white" stroke="white" stroke-width="1.4967"/>
<path d="M586.944 265.912C586.944 265.767 586.827 265.649 586.682 265.649C586.537 265.649 586.42 265.767 586.42 265.912C586.42 266.057 586.537 266.174 586.682 266.174C586.827 266.174 586.944 266.057 586.944 265.912Z" fill="white" stroke="white" stroke-width="1.4967"/>
<path d="M429.687 168.736C429.687 168.591 429.569 168.474 429.424 168.474C429.279 168.474 429.162 168.591 429.162 168.736C429.162 168.881 429.279 168.998 429.424 168.998C429.569 168.998 429.687 168.881 429.687 168.736Z" fill="white" stroke="white" stroke-width="1.4967"/>
<path d="M399.699 136.686L399.702 136.686C399.701 136.686 399.7 136.686 399.7 136.686M399.699 136.686L399.698 136.686C399.698 136.686 399.699 136.686 399.7 136.686M399.699 136.686C399.699 136.686 399.699 136.686 399.7 136.686M399.699 136.686C399.699 136.686 399.698 136.686 399.698 136.686C399.555 136.684 399.439 136.567 399.439 136.423C399.439 136.279 399.556 136.162 399.7 136.161C399.701 136.161 399.701 136.161 399.702 136.161C399.846 136.161 399.964 136.278 399.964 136.423C399.964 136.564 399.85 136.685 399.702 136.686C399.701 136.686 399.7 136.686 399.7 136.686" fill="white" stroke="white" stroke-width="1.4967"/>
<path d="M447.437 190.037C447.437 189.892 447.319 189.774 447.174 189.774C447.029 189.774 446.912 189.892 446.912 190.037C446.912 190.182 447.029 190.299 447.174 190.299C447.319 190.299 447.437 190.182 447.437 190.037Z" fill="white" stroke="white" stroke-width="1.4967"/>
<path d="M498.792 177.939C498.792 177.794 498.675 177.677 498.53 177.677C498.385 177.677 498.267 177.794 498.267 177.939C498.267 178.084 498.385 178.201 498.53 178.201C498.675 178.201 498.792 178.084 498.792 177.939Z" fill="white" stroke="white" stroke-width="1.4967"/>
<path d="M621.953 236.373L621.955 236.373C621.955 236.373 621.954 236.373 621.954 236.373M621.953 236.373L621.952 236.373C621.952 236.373 621.953 236.373 621.954 236.373M621.953 236.373C621.953 236.373 621.953 236.373 621.954 236.373M621.953 236.373C621.952 236.373 621.952 236.373 621.952 236.373C621.808 236.371 621.693 236.255 621.693 236.111C621.693 235.966 621.81 235.849 621.954 235.849C621.955 235.849 621.955 235.849 621.955 235.849C622.1 235.849 622.218 235.966 622.218 236.111C622.218 236.251 622.104 236.372 621.955 236.373C621.955 236.373 621.954 236.373 621.954 236.373" fill="white" stroke="white" stroke-width="1.4967"/>
<path d="M621.245 250.361C621.245 250.216 621.128 250.099 620.983 250.099C620.838 250.099 620.72 250.216 620.72 250.361C620.72 250.506 620.838 250.623 620.983 250.623C621.128 250.623 621.245 250.506 621.245 250.361Z" fill="white" stroke="white" stroke-width="1.4967"/>
<path d="M674.038 224.326C674.038 224.181 673.921 224.063 673.776 224.063C673.631 224.063 673.513 224.181 673.513 224.326C673.513 224.471 673.631 224.588 673.776 224.588C673.921 224.588 674.038 224.471 674.038 224.326Z" fill="white" stroke="white" stroke-width="1.4967"/>
<path d="M589.526 138.285C589.526 138.632 589.806 138.912 590.152 138.912C590.499 138.912 590.779 138.632 590.779 138.285C590.779 137.939 590.499 137.659 590.152 137.659C589.806 137.659 589.526 137.939 589.526 138.285Z" fill="white" stroke="white" stroke-width="1.4967"/>
<path d="M548.162 176.566C548.162 176.913 548.443 177.193 548.789 177.193C549.135 177.193 549.416 176.913 549.416 176.566C549.416 176.22 549.135 175.94 548.789 175.94C548.444 175.94 548.162 176.221 548.162 176.566Z" fill="white" stroke="white" stroke-width="1.4967"/>
<path d="M435.44 177.941C435.44 178.288 435.72 178.568 436.066 178.568C436.413 178.568 436.693 178.288 436.693 177.941C436.693 177.595 436.413 177.315 436.066 177.315C435.72 177.315 435.44 177.595 435.44 177.941Z" fill="white" stroke="white" stroke-width="1.4967"/>
<path d="M402.725 144.93C402.725 145.276 403.005 145.556 403.351 145.556C403.698 145.556 403.978 145.276 403.978 144.93C403.978 144.583 403.698 144.303 403.351 144.303C403.005 144.303 402.725 144.583 402.725 144.93Z" fill="white" stroke="white" stroke-width="1.4967"/>
<path d="M292.154 194.902C292.154 195.249 292.435 195.529 292.781 195.529C293.128 195.529 293.408 195.249 293.408 194.902C293.408 194.556 293.128 194.276 292.781 194.276C292.435 194.276 292.154 194.556 292.154 194.902Z" fill="white" stroke="white" stroke-width="1.4967"/>
<path d="M383.174 149.199C383.174 149.546 383.454 149.826 383.801 149.826C384.147 149.826 384.427 149.546 384.427 149.199C384.427 148.853 384.147 148.573 383.801 148.573C383.454 148.573 383.174 148.853 383.174 149.199Z" fill="white" stroke="white" stroke-width="1.4967"/>
<path d="M453.26 190.035C453.26 190.382 453.54 190.662 453.887 190.662C454.233 190.662 454.513 190.382 454.513 190.035C454.513 189.689 454.233 189.409 453.887 189.409C453.54 189.409 453.26 189.689 453.26 190.035Z" fill="white" stroke="white" stroke-width="1.4967"/>
<path d="M491.838 153.871C491.838 154.218 492.118 154.498 492.465 154.498C492.811 154.498 493.091 154.218 493.091 153.871C493.091 153.525 492.811 153.244 492.465 153.244C492.118 153.244 491.838 153.525 491.838 153.871Z" fill="white" stroke="white" stroke-width="1.4967"/>
<path d="M437.787 202.207C437.787 202.553 438.068 202.834 438.414 202.834C438.76 202.834 439.041 202.553 439.041 202.207C439.041 201.861 438.76 201.58 438.414 201.58C438.068 201.58 437.787 201.861 437.787 202.207Z" fill="white" stroke="white" stroke-width="1.4967"/>
<path d="M705.6 118.231C705.6 118.577 705.88 118.857 706.226 118.857C706.573 118.857 706.853 118.577 706.853 118.231C706.853 117.884 706.573 117.604 706.226 117.604C705.88 117.604 705.6 117.884 705.6 118.231Z" fill="white" stroke="white" stroke-width="1.4967"/>
<path d="M836.721 120.981C836.721 121.327 837.001 121.607 837.348 121.607C837.694 121.607 837.974 121.327 837.974 120.981C837.974 120.634 837.694 120.354 837.348 120.354C837.001 120.354 836.721 120.634 836.721 120.981Z" fill="white" stroke="white" stroke-width="1.4967"/>
<path d="M720.264 166.899C720.264 167.245 720.544 167.525 720.891 167.525C721.237 167.525 721.517 167.245 721.517 166.899C721.517 166.552 721.237 166.272 720.891 166.272C720.544 166.272 720.264 166.552 720.264 166.899Z" fill="white" stroke="white" stroke-width="1.4967"/>
<path d="M66.6708 305.113L150.39 178.773L174.743 394.919L209.753 279.236L270.639 321.856L319.348 259.448L428.942 314.246L462.43 294.458" stroke="white" stroke-width="0.5" stroke-miterlimit="10"/>
<path d="M126.325 215.09L25.5725 235.856L66.6709 305.114L157.238 242.706L177.788 292.895L189.965 273.148L218.124 316.53L264.551 277.715L330.003 291.373L358.162 221.395L383.278 338.602L410.676 286.848L450.253 311.203L462.43 294.459" stroke="white" stroke-width="0.5" stroke-miterlimit="10"/>
<path d="M25.5717 235.855L104.999 247.271L174.742 394.92L270.638 321.857L218.124 316.529L228.78 247.271L264.55 277.715L323.913 325.662L319.347 259.449L385.561 235.855L410.676 286.848" stroke="white" stroke-width="0.5" stroke-miterlimit="10"/>
<path d="M189.966 273.146L228.782 247.27L270.64 321.856L330.004 291.37" stroke="white" stroke-width="0.5" stroke-miterlimit="10"/>
<path d="M66.671 305.111L107.77 311.707L100.777 281.609" stroke="white" stroke-width="0.5" stroke-miterlimit="10"/>
<path d="M177.789 292.895L136.62 314.209L188.512 349.43L218.125 316.53L177.789 292.895Z" stroke="white" stroke-width="0.5" stroke-miterlimit="10"/>
<path d="M15.8059 235.852C15.8059 240.901 19.8993 244.995 24.9487 244.995C29.9981 244.995 34.0915 240.901 34.0915 235.852C34.0915 230.803 29.9981 226.709 24.9487 226.709C19.8993 226.709 15.8059 230.803 15.8059 235.852Z" fill="white" stroke="white" stroke-width="1.4967"/>
<path d="M167.522 333.303H167.521C166.104 333.303 164.955 334.451 164.955 335.87C164.955 337.287 166.103 338.436 167.521 338.436C168.938 338.436 170.088 337.287 170.088 335.87C170.088 334.451 168.938 333.302 167.522 333.303Z" fill="white" stroke="white" stroke-width="1.4967"/>
<path d="M356.615 221.772C356.615 222.688 357.358 223.432 358.275 223.432C359.192 223.432 359.935 222.688 359.935 221.772C359.935 220.855 359.192 220.112 358.275 220.112C357.358 220.112 356.615 220.855 356.615 221.772Z" fill="white" stroke="white" stroke-width="1.4967"/>
<path d="M410.678 288.506C411.594 288.506 412.338 287.762 412.338 286.846C412.338 285.928 411.594 285.186 410.678 285.186C409.761 285.186 409.018 285.93 409.018 286.846C409.018 287.762 409.761 288.506 410.678 288.506Z" fill="white" stroke="white" stroke-width="1.4967"/>
<path d="M372.275 287.881C373.192 287.881 373.935 287.137 373.935 286.221C373.935 285.304 373.192 284.561 372.275 284.561C371.359 284.561 370.615 285.304 370.615 286.221C370.615 287.137 371.359 287.881 372.275 287.881Z" fill="white" stroke="white" stroke-width="1.4967"/>
<path d="M385.466 235.854C385.466 235.906 385.508 235.948 385.56 235.948C385.612 235.948 385.654 235.906 385.654 235.854C385.654 235.802 385.612 235.76 385.56 235.76C385.508 235.76 385.466 235.802 385.466 235.854Z" fill="white" stroke="white" stroke-width="1.4967"/>
<path d="M450.589 311.377V311.377H450.587C450.536 311.377 450.493 311.42 450.493 311.471C450.493 311.523 450.535 311.565 450.587 311.565C450.639 311.565 450.681 311.523 450.681 311.471C450.681 311.417 450.638 311.377 450.589 311.377Z" fill="white" stroke="white" stroke-width="1.4967"/>
<path d="M323.404 324.455H323.403C322.888 324.455 322.471 324.872 322.471 325.386C322.471 325.901 322.888 326.318 323.403 326.318C323.917 326.318 324.334 325.901 324.334 325.386C324.334 324.871 323.916 324.455 323.404 324.455Z" fill="white" stroke="white" stroke-width="1.4967"/>
<path d="M149.623 181.338C151.04 181.338 152.189 180.19 152.189 178.772C152.189 177.355 151.04 176.205 149.623 176.205C148.206 176.205 147.056 177.355 147.056 178.772C147.056 180.189 148.204 181.338 149.623 181.338Z" fill="white" stroke="white" stroke-width="1.4967"/>
<path d="M157.863 244.175C158.744 244.175 159.459 243.46 159.459 242.579C159.459 241.697 158.744 240.983 157.863 240.983C156.981 240.983 156.267 241.697 156.267 242.579C156.267 243.46 156.981 244.175 157.863 244.175Z" fill="white" stroke="white" stroke-width="1.4967"/>
<path d="M189.964 274.014C190.846 274.014 191.56 273.3 191.56 272.419C191.56 271.537 190.846 270.823 189.964 270.823C189.083 270.823 188.368 271.537 188.368 272.419C188.368 273.3 189.083 274.014 189.964 274.014Z" fill="white" stroke="white" stroke-width="1.4967"/>
<path d="M218.124 317.776C219.006 317.776 219.72 317.062 219.72 316.18C219.72 315.299 219.006 314.584 218.124 314.584C217.243 314.584 216.529 315.299 216.529 316.18C216.529 317.062 217.243 317.776 218.124 317.776Z" fill="white" stroke="white" stroke-width="1.4967"/>
<path d="M264.55 279.889C265.432 279.889 266.146 279.175 266.146 278.294C266.146 277.413 265.432 276.698 264.55 276.698C263.669 276.698 262.954 277.412 262.954 278.294C262.954 279.175 263.669 279.889 264.55 279.889Z" fill="white" stroke="white" stroke-width="1.4967"/>
<path d="M328.407 290.774C328.407 291.655 329.122 292.37 330.003 292.37C330.885 292.37 331.599 291.655 331.599 290.774C331.599 289.893 330.885 289.178 330.003 289.178C329.122 289.178 328.407 289.893 328.407 290.774Z" fill="white" stroke="white" stroke-width="1.4967"/>
<path d="M346.455 250.521C346.958 250.521 347.365 250.114 347.365 249.611C347.365 249.109 346.958 248.701 346.455 248.701C345.953 248.701 345.545 249.109 345.545 249.611C345.545 250.114 345.953 250.521 346.455 250.521Z" fill="white" stroke="white" stroke-width="1.4967"/>
<path d="M209.471 280.646C209.973 280.646 210.381 280.239 210.381 279.736C210.381 279.234 209.973 278.826 209.471 278.826C208.968 278.826 208.561 279.234 208.561 279.736C208.561 280.239 208.968 280.646 209.471 280.646Z" fill="white" stroke="white" stroke-width="1.4967"/>
<path d="M185.112 304.463C185.112 304.965 185.519 305.373 186.022 305.373C186.524 305.373 186.931 304.965 186.931 304.463C186.931 303.96 186.524 303.553 186.022 303.553C185.519 303.553 185.112 303.96 185.112 304.463Z" fill="white" stroke="white" stroke-width="1.4967"/>
<path d="M228.83 248.177C229.333 248.177 229.74 247.77 229.74 247.267C229.74 246.767 229.333 246.359 228.83 246.358C228.327 246.358 227.92 246.765 227.92 247.267C227.92 247.77 228.328 248.177 228.83 248.177Z" fill="white" stroke="white" stroke-width="1.4967"/>
<path d="M269.943 322.068C270.446 322.068 270.853 321.661 270.853 321.158C270.853 320.656 270.446 320.248 269.943 320.248C269.441 320.248 269.034 320.656 269.034 321.158C269.034 321.661 269.441 322.068 269.943 322.068Z" fill="white" stroke="white" stroke-width="1.4967"/>
<path d="M299.369 285.474C299.872 285.474 300.279 285.067 300.279 284.564C300.279 284.062 299.872 283.655 299.369 283.655C298.867 283.655 298.46 284.062 298.46 284.564C298.46 285.067 298.867 285.474 299.369 285.474Z" fill="white" stroke="white" stroke-width="1.4967"/>
<path d="M442.33 307.431C442.833 307.431 443.24 307.024 443.24 306.521C443.24 306.019 442.833 305.612 442.33 305.612C441.828 305.612 441.42 306.019 441.42 306.521C441.42 307.024 441.828 307.431 442.33 307.431Z" fill="white" stroke="white" stroke-width="1.4967"/>
<path d="M362.881 244.865C363.383 244.865 363.791 244.457 363.791 243.955C363.791 243.452 363.383 243.045 362.881 243.045C362.378 243.045 361.971 243.452 361.971 243.955C361.971 244.457 362.378 244.865 362.881 244.865Z" fill="white" stroke="white" stroke-width="1.4967"/>
<path d="M462.428 295.685C462.93 295.685 463.338 295.278 463.338 294.775C463.338 294.273 462.93 293.866 462.428 293.866C461.925 293.866 461.518 294.273 461.518 294.775C461.518 295.278 461.925 295.685 462.428 295.685Z" fill="white" stroke="white" stroke-width="1.4967"/>
<path d="M383.15 339.509C383.653 339.509 384.06 339.102 384.06 338.6C384.06 338.097 383.653 337.69 383.15 337.69C382.648 337.69 382.241 338.097 382.241 338.6C382.241 339.102 382.648 339.509 383.15 339.509Z" fill="white" stroke="white" stroke-width="1.4967"/>
<path d="M251.275 289.337C251.778 289.337 252.185 288.93 252.185 288.428C252.185 287.927 251.779 287.519 251.275 287.518C250.773 287.518 250.366 287.925 250.366 288.428C250.366 288.93 250.773 289.337 251.275 289.337Z" fill="white" stroke="white" stroke-width="1.4967"/>
<path d="M136.617 315.94C137.498 315.94 138.213 315.226 138.213 314.344C138.213 313.463 137.497 312.748 136.617 312.748C135.735 312.748 135.021 313.463 135.021 314.344C135.021 315.226 135.735 315.94 136.617 315.94Z" fill="white" stroke="white" stroke-width="1.4967"/>
<path d="M175.027 396.514C175.908 396.514 176.623 395.8 176.623 394.919C176.623 394.037 175.908 393.323 175.027 393.323C174.145 393.323 173.431 394.037 173.431 394.919C173.431 395.8 174.145 396.514 175.027 396.514Z" fill="white" stroke="white" stroke-width="1.4967"/>
<path d="M26.6109 257.604C28.0281 257.604 29.1774 256.456 29.1774 255.037C29.1774 253.62 28.0291 252.471 26.6109 252.471C25.1939 252.471 24.0444 253.62 24.0444 255.037C24.0444 256.455 25.1928 257.604 26.6109 257.604Z" fill="white" stroke="white" stroke-width="1.4967"/>
<path d="M107.768 313.597C108.813 313.597 109.658 312.751 109.658 311.708C109.658 310.665 108.813 309.819 107.768 309.819C106.725 309.819 105.879 310.665 105.879 311.708C105.879 312.751 106.725 313.597 107.768 313.597Z" fill="white" stroke="white" stroke-width="1.4967"/>
<path d="M66.6706 307.331C67.7138 307.331 68.5602 306.485 68.5602 305.441C68.5602 304.399 67.7143 303.553 66.6706 303.553C65.6274 303.553 64.7823 304.398 64.7823 305.441C64.7823 306.485 65.6279 307.331 66.6706 307.331Z" fill="white" stroke="white" stroke-width="1.4967"/>
<path d="M115.889 271.915C116.506 271.915 117.006 271.415 117.006 270.799C117.006 270.181 116.506 269.682 115.889 269.682C115.272 269.682 114.772 270.181 114.772 270.799C114.772 271.416 115.272 271.915 115.889 271.915Z" fill="white" stroke="white" stroke-width="1.4967"/>
<path d="M101.026 321.38C101.148 321.38 101.248 321.281 101.248 321.158C101.248 321.035 101.148 320.936 101.026 320.936C100.903 320.936 100.803 321.035 100.803 321.158C100.803 321.281 100.902 321.38 101.026 321.38Z" fill="white" stroke="white" stroke-width="1.4967"/>
<path d="M167.522 287.068C167.644 287.068 167.744 286.968 167.744 286.846C167.744 286.723 167.644 286.623 167.522 286.623C167.399 286.623 167.299 286.723 167.299 286.846C167.299 286.968 167.399 287.068 167.522 287.068Z" fill="white" stroke="white" stroke-width="1.4967"/>
<path d="M201.404 306.744C201.526 306.744 201.627 306.643 201.627 306.521C201.627 306.399 201.527 306.299 201.404 306.299C201.282 306.299 201.182 306.399 201.182 306.521C201.182 306.644 201.282 306.744 201.404 306.744Z" fill="white" stroke="white" stroke-width="1.4967"/>
<path d="M130.342 315.029C130.465 315.029 130.564 314.929 130.564 314.806C130.564 314.684 130.465 314.584 130.342 314.584C130.219 314.584 130.12 314.684 130.12 314.806C130.12 314.929 130.219 315.029 130.342 315.029Z" fill="white" stroke="white" stroke-width="1.4967"/>
<path d="M163.236 339.408C163.359 339.408 163.459 339.308 163.459 339.185C163.459 339.062 163.36 338.963 163.236 338.963C163.114 338.963 163.014 339.063 163.014 339.185C163.014 339.308 163.114 339.408 163.236 339.408Z" fill="white" stroke="white" stroke-width="1.4967"/>
<path d="M197.639 347.693C197.761 347.693 197.861 347.593 197.861 347.471C197.861 347.347 197.762 347.248 197.639 347.248C197.516 347.248 197.417 347.348 197.417 347.471C197.417 347.593 197.517 347.693 197.639 347.693Z" fill="white" stroke="white" stroke-width="1.4967"/>
<path d="M238.635 299.822C238.758 299.822 238.857 299.722 238.857 299.599C238.857 299.477 238.758 299.377 238.635 299.377C238.512 299.377 238.413 299.477 238.413 299.599C238.413 299.722 238.512 299.822 238.635 299.822Z" fill="white" stroke="white" stroke-width="1.4967"/>
<path d="M195.723 351.815C195.534 351.815 195.38 351.662 195.38 351.472C195.38 351.283 195.534 351.129 195.723 351.129C195.913 351.129 196.066 351.283 196.066 351.472C196.066 351.662 195.913 351.815 195.723 351.815Z" fill="white" stroke="white" stroke-width="1.4967"/>
<path d="M307.027 282.906C307.027 283.095 306.874 283.249 306.684 283.249C306.495 283.249 306.341 283.095 306.341 282.906C306.341 282.716 306.495 282.562 306.684 282.562C306.874 282.562 307.027 282.716 307.027 282.906Z" fill="white" stroke="white" stroke-width="1.4967"/>
<path d="M328 260.105C328 260.293 327.849 260.445 327.662 260.448C327.66 260.448 327.659 260.448 327.657 260.448C327.467 260.448 327.314 260.294 327.314 260.105C327.314 259.915 327.467 259.762 327.657 259.762C327.846 259.76 328 259.915 328 260.105Z" fill="white" stroke="white" stroke-width="1.4967"/>
<path d="M294.504 297.933C294.504 298.123 294.35 298.276 294.161 298.276C293.971 298.276 293.818 298.123 293.818 297.933C293.818 297.743 293.971 297.59 294.161 297.59C294.35 297.59 294.504 297.743 294.504 297.933Z" fill="white" stroke="white" stroke-width="1.4967"/>
<path d="M257.923 289.741C257.733 289.741 257.579 289.587 257.579 289.398C257.579 289.208 257.733 289.055 257.923 289.055C258.112 289.055 258.266 289.208 258.266 289.398C258.266 289.587 258.112 289.741 257.923 289.741Z" fill="white" stroke="white" stroke-width="1.4967"/>
<path d="M171.18 330.445C171.18 330.634 171.026 330.788 170.837 330.788C170.647 330.788 170.494 330.634 170.494 330.445C170.494 330.255 170.647 330.102 170.837 330.102C171.026 330.102 171.18 330.255 171.18 330.445Z" fill="white" stroke="white" stroke-width="1.4967"/>
<path d="M171.524 340.842C171.335 340.842 171.181 340.689 171.181 340.499C171.181 340.31 171.335 340.156 171.524 340.156C171.714 340.156 171.867 340.31 171.867 340.499C171.867 340.689 171.714 340.842 171.524 340.842Z" fill="white" stroke="white" stroke-width="1.4967"/>
<path d="M134.617 322.128C134.617 322.318 134.464 322.471 134.274 322.471C134.085 322.471 133.931 322.318 133.931 322.128C133.931 321.939 134.085 321.785 134.274 321.785C134.464 321.785 134.617 321.939 134.617 322.128Z" fill="white" stroke="white" stroke-width="1.4967"/>
<path d="M193.279 261.642C193.401 261.642 193.502 261.542 193.502 261.42C193.502 261.296 193.403 261.198 193.279 261.198C193.157 261.198 193.057 261.298 193.057 261.42C193.057 261.542 193.157 261.642 193.279 261.642Z" fill="white" stroke="white" stroke-width="1.4967"/>
<path d="M222.463 288.65C222.585 288.65 222.685 288.55 222.685 288.428C222.685 288.306 222.585 288.205 222.463 288.205C222.34 288.205 222.241 288.305 222.241 288.428C222.241 288.55 222.34 288.65 222.463 288.65Z" fill="white" stroke="white" stroke-width="1.4967"/>
<path d="M301.998 289.622C302.121 289.622 302.22 289.523 302.22 289.4C302.22 289.278 302.12 289.178 301.998 289.178C301.875 289.178 301.776 289.278 301.776 289.4C301.776 289.523 301.875 289.622 301.998 289.622Z" fill="white" stroke="white" stroke-width="1.4967"/>
<path d="M325.08 266.329C325.203 266.329 325.302 266.23 325.302 266.107C325.302 265.987 325.205 265.886 325.079 265.885C324.956 265.886 324.858 265.984 324.858 266.107C324.858 266.229 324.958 266.329 325.08 266.329Z" fill="white" stroke="white" stroke-width="1.4967"/>
<path d="M403.1 301.591C403.222 301.591 403.322 301.491 403.322 301.369C403.322 301.247 403.222 301.147 403.1 301.147C402.977 301.147 402.878 301.246 402.878 301.369C402.878 301.492 402.977 301.591 403.1 301.591Z" fill="white" stroke="white" stroke-width="1.4967"/>
<path d="M338.877 269.341C339 269.341 339.099 269.242 339.099 269.119C339.099 268.996 339 268.897 338.877 268.897C338.755 268.897 338.655 268.997 338.655 269.119C338.655 269.242 338.754 269.341 338.877 269.341Z" fill="white" stroke="white" stroke-width="1.4967"/>
<path d="M289.424 298.158C289.546 298.158 289.646 298.057 289.646 297.935C289.646 297.813 289.547 297.713 289.424 297.713C289.302 297.713 289.202 297.813 289.202 297.935C289.202 298.057 289.302 298.158 289.424 298.158Z" fill="white" stroke="white" stroke-width="1.4967"/>
<path d="M262.205 272.642C262.328 272.642 262.427 272.542 262.427 272.42C262.427 272.297 262.328 272.198 262.205 272.198C262.083 272.198 261.983 272.298 261.983 272.42C261.983 272.542 262.083 272.642 262.205 272.642Z" fill="white" stroke="white" stroke-width="1.4967"/>
<path d="M300.342 306.744C300.464 306.744 300.564 306.643 300.564 306.521C300.564 306.398 300.465 306.299 300.342 306.299C300.219 306.299 300.12 306.399 300.12 306.521C300.12 306.644 300.219 306.744 300.342 306.744Z" fill="white" stroke="white" stroke-width="1.4967"/>
<path d="M111.373 247.49C111.495 247.49 111.595 247.389 111.595 247.267C111.595 247.145 111.496 247.045 111.373 247.045C111.25 247.045 111.151 247.145 111.151 247.267C111.151 247.39 111.251 247.49 111.373 247.49Z" fill="white" stroke="white" stroke-width="1.4967"/>
<path d="M18.8537 249.431C18.9771 249.431 19.0759 249.332 19.0759 249.209C19.0759 249.086 18.9764 248.987 18.8537 248.987C18.7316 248.987 18.6315 249.087 18.6315 249.209C18.6315 249.332 18.731 249.431 18.8537 249.431Z" fill="white" stroke="white" stroke-width="1.4967"/>
<path d="M101.026 281.833C101.148 281.833 101.248 281.734 101.248 281.611C101.248 281.489 101.148 281.389 101.026 281.389C100.904 281.389 100.803 281.489 100.803 281.611C100.803 281.734 100.903 281.833 101.026 281.833Z" fill="white" stroke="white" stroke-width="1.4967"/>
<path d="M603.533 185.1C603.533 190.161 607.636 194.264 612.697 194.264C617.758 194.264 621.861 190.161 621.861 185.1C621.861 180.039 617.758 175.936 612.697 175.936C607.636 175.936 603.533 180.039 603.533 185.1Z" fill="white" stroke="white" stroke-width="1.4967"/>
<path opacity="0.5" d="M50.1213 343.092C39.2914 352.263 37.9464 368.477 47.1173 379.307C56.2882 390.137 72.5021 391.482 83.3321 382.311C94.162 373.14 95.5069 356.926 86.336 346.096C77.1651 335.266 60.9513 333.921 50.1213 343.092Z" fill="white" stroke="white" stroke-width="1.4967"/>
<path opacity="0.5" d="M576.83 334.336C576.83 338.938 580.562 342.67 585.164 342.67C589.766 342.67 593.498 338.938 593.498 334.336C593.498 329.734 589.766 326.002 585.164 326.002C580.562 326.002 576.83 329.734 576.83 334.336Z" fill="white" stroke="white" stroke-width="1.4967"/>
<path opacity="0.5" d="M270.961 110.244C264.735 111.708 260.874 117.941 262.337 124.168C263.8 130.394 270.034 134.255 276.26 132.792C282.486 131.328 286.348 125.095 284.884 118.868C283.421 112.642 277.187 108.781 270.961 110.244Z" fill="white" stroke="white" stroke-width="1.4967"/>
<path d="M259.43 103.245C259.43 104.242 260.238 105.051 261.235 105.051C262.232 105.051 263.041 104.242 263.041 103.245C263.041 102.248 262.232 101.44 261.235 101.44C260.238 101.44 259.43 102.248 259.43 103.245Z" fill="white" stroke="white" stroke-width="1.4967"/>
<path d="M250.401 213.004C250.401 216.26 253.04 218.9 256.297 218.9C259.554 218.9 262.193 216.26 262.193 213.004C262.193 209.747 259.554 207.108 256.297 207.108C253.042 207.108 250.401 209.748 250.401 213.004Z" fill="white" stroke="white" stroke-width="1.4967"/>
<path d="M486.569 162.202C486.569 163.623 487.721 164.776 489.143 164.776C490.564 164.776 491.716 163.624 491.716 162.202C491.716 160.779 490.564 159.627 489.144 159.627C487.721 159.628 486.569 160.781 486.569 162.202Z" fill="white" stroke="white" stroke-width="1.4967"/>
<path d="M393.807 179.885C393.807 181.307 394.96 182.46 396.38 182.46C397.803 182.46 398.955 181.308 398.955 179.885C398.955 178.464 397.803 177.311 396.381 177.311C394.959 177.312 393.807 178.465 393.807 179.885Z" fill="white" stroke="white" stroke-width="1.4967"/>
<path d="M506.354 176.564C506.354 177.449 507.071 178.166 507.955 178.166C508.839 178.166 509.556 177.449 509.556 176.564C509.556 175.68 508.839 174.963 507.955 174.963C507.071 174.963 506.354 175.68 506.354 176.564Z" fill="white" stroke="white" stroke-width="1.4967"/>
<path d="M171.127 294.451C171.127 297.901 173.924 300.697 177.373 300.697C180.822 300.697 183.619 297.901 183.619 294.451C183.619 291.002 180.822 288.205 177.373 288.205C173.924 288.205 171.127 291.002 171.127 294.451Z" fill="white" stroke="white" stroke-width="1.4967"/>
<path d="M103.081 251.207C105.257 251.207 107.021 249.442 107.021 247.267C107.021 245.091 105.256 243.326 103.081 243.326C100.904 243.326 99.1407 245.09 99.1407 247.267C99.1407 249.443 100.904 251.207 103.081 251.207Z" fill="white" stroke="white" stroke-width="1.4967"/>
<path d="M428.847 318.082C431.023 318.082 432.787 316.318 432.787 314.142C432.787 311.966 431.022 310.201 428.847 310.201C426.67 310.201 424.906 311.966 424.906 314.142C424.906 316.318 426.67 318.082 428.847 318.082Z" fill="white" stroke="white" stroke-width="1.4967"/>
<path d="M189.054 352.383C191.23 352.383 192.994 350.619 192.994 348.442C192.994 346.266 191.229 344.502 189.054 344.502C186.877 344.502 185.113 346.266 185.113 348.442C185.113 350.619 186.877 352.383 189.054 352.383Z" fill="white" stroke="white" stroke-width="1.4967"/>
<path d="M314.774 260.45C314.774 262.626 316.538 264.391 318.714 264.391C320.89 264.391 322.654 262.626 322.654 260.45C322.654 258.274 320.89 256.51 318.714 256.51C316.538 256.51 314.774 258.274 314.774 260.45Z" fill="white" stroke="white" stroke-width="1.4967"/>
</g>
</svg>
