<svg width="96" height="72" viewBox="0 0 96 72" fill="none" xmlns="http://www.w3.org/2000/svg">
<path d="M95.5506 19.659L76.9319 1.04015C76.3332 0.44128 75.3625 0.44128 74.7635 1.04015L65.4541 10.3495C65.1667 10.6369 65.0052 11.0269 65.0052 11.4336C65.0052 11.8403 65.1667 12.2303 65.4541 12.5177L66.3828 13.4464L64.2487 15.5802C62.8632 16.965 60.7136 17.343 58.8997 16.5197C57.1991 15.7478 55.3085 15.34 53.432 15.34C51.204 15.34 49.0265 15.8993 47.0919 16.9587C46.2851 16.7599 45.4571 16.6581 44.6209 16.6581C43.4115 16.6581 42.2237 16.8668 41.0904 17.2787C39.2809 17.9361 37.3412 17.5287 36.0274 16.2152L32.1955 12.3831L32.6518 11.9267C32.9393 11.6393 33.1007 11.2493 33.1007 10.8426C33.1007 10.4359 32.9393 10.0459 32.6518 9.7585L23.3425 0.449155C22.7434 -0.149718 21.7729 -0.149718 21.1741 0.449155L0.449014 21.1742C-0.149671 21.7731 -0.149671 22.7438 0.449014 23.3424L9.75817 32.6518C10.0458 32.9394 10.4356 33.1008 10.8425 33.1008C11.2494 33.1008 11.639 32.9394 11.9268 32.6518L12.482 32.0966L15.1846 34.7992C15.8665 35.4812 16.3186 36.3326 16.4916 37.2613C17.389 42.0768 19.6953 46.4547 23.161 49.9224L23.6701 50.4314C22.6924 51.461 22.1547 52.8023 22.1547 54.2273C22.1547 55.7013 22.7288 57.0871 23.7709 58.1294C24.8468 59.2053 26.2596 59.743 27.673 59.743C27.765 59.743 27.8567 59.7406 27.9488 59.7359C27.8742 61.2394 28.4097 62.7677 29.5553 63.9137C30.5976 64.9561 31.9834 65.53 33.4573 65.53C33.4984 65.53 33.5393 65.5279 33.5803 65.527C33.5488 66.9799 34.0849 68.443 35.1911 69.5494C36.2335 70.5919 37.6193 71.1657 39.0934 71.1657C40.5673 71.1657 41.9529 70.5915 42.9954 69.5494C43.0832 69.4617 43.1659 69.3709 43.2467 69.279C43.7895 69.4682 44.3636 69.5689 44.9439 69.5689C46.3226 69.5689 47.6179 69.0317 48.5891 68.0573C49.106 67.5405 49.4983 66.9327 49.7537 66.2706L49.9106 66.4275C50.9154 67.4324 52.2352 67.9349 53.555 67.9349C54.8748 67.9349 56.1946 67.4324 57.1994 66.4275C57.7334 65.8935 58.1347 65.263 58.3889 64.5754C59.2884 65.2296 60.3532 65.5572 61.4186 65.5572C62.7384 65.5572 64.0589 65.0549 65.0647 64.0504C66.038 63.0771 66.574 61.7822 66.574 60.4045C66.574 59.9883 66.5242 59.5801 66.4291 59.1854C67.411 58.9859 68.3133 58.5038 69.0372 57.7789C70.0105 56.8056 70.5466 55.5113 70.5466 54.1345C70.5466 53.0498 70.2125 52.0173 69.5954 51.1514L70.8254 49.9214C74.3315 46.4137 76.6476 41.9808 77.5238 37.1019C77.6706 36.285 78.0752 35.5262 78.6944 34.9068L83.269 30.3322L84.0732 31.1364C84.3726 31.4359 84.765 31.5855 85.1575 31.5855C85.5497 31.5855 85.9424 31.4359 86.2418 31.1364L95.5511 21.8271C95.8386 21.5396 96 21.1496 96 20.743C96 20.3363 95.838 19.9466 95.5506 19.659ZM10.8425 29.3996L3.70138 22.2585L22.258 3.70189L29.3993 10.843L10.8425 29.3996ZM29.4066 55.9615C28.4509 56.917 26.8956 56.9174 25.9392 55.9615C25.4761 55.4982 25.2211 54.8826 25.2211 54.2277C25.2211 53.573 25.4762 52.9572 25.9394 52.4941C26.4173 52.0162 27.0449 51.7771 27.6728 51.7771C28.3005 51.7771 28.9287 52.0162 29.4064 52.4941C30.3623 53.45 30.3623 55.0055 29.4066 55.9615ZM35.1906 61.7455C34.7278 62.2088 34.1123 62.4636 33.457 62.4636C32.8022 62.4636 32.1865 62.2084 31.7235 61.7455C30.7675 60.7896 30.7675 59.2341 31.7235 58.2781C32.2015 57.8001 32.829 57.5611 33.4572 57.5611C34.0847 57.5611 34.7128 57.8001 35.1906 58.2781C36.1468 59.2339 36.1468 60.7896 35.1906 61.7455ZM40.8264 67.3812C40.3633 67.8443 39.7478 68.0993 39.093 68.0993C38.4381 68.0993 37.8223 67.8441 37.3594 67.3812C36.4033 66.4253 36.4033 64.8698 37.3594 63.9137C37.8373 63.4358 38.4649 63.1967 39.093 63.1967C39.7206 63.1967 40.3487 63.4358 40.8264 63.9137C41.7825 64.8698 41.7825 66.4253 40.8264 67.3812ZM66.8679 55.6115C66.4737 56.006 65.9497 56.2233 65.3924 56.2233C64.8352 56.2233 64.3111 56.006 63.9162 55.6105L49.0419 40.7396C48.4427 40.1409 47.4722 40.1411 46.8735 40.7399C46.275 41.3386 46.2752 42.3095 46.8739 42.9082L62.8959 58.9285C63.2902 59.3226 63.5071 59.8469 63.5071 60.4045C63.5071 60.9633 63.29 61.4881 62.8964 61.8816C62.0814 62.6959 60.7559 62.6961 59.9422 61.8822L57.2392 59.1792C57.2242 59.1636 57.2096 59.1479 57.194 59.1325C57.1895 59.128 57.1844 59.1241 57.1798 59.1196L44.7547 46.6946C44.1557 46.0959 43.1852 46.0959 42.5863 46.6946C41.9874 47.2932 41.9874 48.2641 42.5863 48.8628L55.0513 61.3276C55.4323 61.7181 55.6421 62.2349 55.6421 62.7831C55.6421 63.3407 55.4248 63.865 55.0306 64.2591C54.2173 65.073 52.893 65.073 52.0788 64.2591L38.5629 50.743C37.9639 50.1442 36.9934 50.1442 36.3945 50.743C35.7956 51.3417 35.7956 52.3126 36.3945 52.9113L46.4134 62.9303C46.4162 62.9331 46.4184 62.9363 46.4214 62.9389C46.8154 63.3321 47.0321 63.8554 47.0321 64.4125C47.0321 64.9699 46.815 65.4942 46.4192 65.89C46.0256 66.2845 45.5017 66.5018 44.9436 66.5018C44.8087 66.5018 44.6769 66.4879 44.5479 66.4635C44.796 64.7924 44.2787 63.0286 42.9951 61.7447C41.9527 60.7026 40.5669 60.1285 39.093 60.1285C39.0519 60.1285 39.0111 60.1306 38.97 60.1315C39.0015 58.6786 38.4656 57.2155 37.3592 56.1091C36.3167 55.067 34.9311 54.4928 33.457 54.4928C33.3647 54.4928 33.273 54.4951 33.1815 54.4996C33.2552 52.997 32.7197 51.47 31.5747 50.3247C30.1808 48.931 28.2214 48.4415 26.4289 48.8534L25.3294 47.7539C22.3032 44.7264 20.2898 40.9036 19.5063 36.699C19.2192 35.159 18.4746 33.752 17.3532 32.6304L14.6504 29.9276L30.0272 14.5508L33.8593 18.3829C35.3323 19.8559 37.3378 20.6441 39.3919 20.6441C40.3118 20.6441 41.2419 20.4859 42.138 20.1602C42.5726 20.0021 43.0221 19.8887 43.4775 19.8167L33.984 29.3104C32.8225 30.4717 32.1827 32.016 32.1827 33.6587C32.1827 35.3012 32.8225 36.8454 33.9838 38.0068C35.1827 39.2056 36.757 39.8049 38.3319 39.8047C39.9066 39.8047 41.4814 39.2051 42.6804 38.0068L47.4485 33.2387L48.7391 34.5302C48.7395 34.5305 48.7397 34.5307 48.74 34.5311L48.8452 34.6363C48.8452 34.6363 48.8458 34.6368 48.8462 34.637L48.8471 34.638C48.8619 34.6526 48.8764 34.6665 48.8908 34.6803L66.8684 52.658C67.2627 53.0521 67.4797 53.5763 67.4797 54.134C67.4797 54.6925 67.2627 55.2168 66.8679 55.6115ZM76.5254 32.7388C75.4615 33.8028 74.7629 35.1243 74.5053 36.5602C73.7403 40.8202 71.7177 44.6909 68.6566 47.7535L67.4783 48.932L57.7788 39.2325C57.9896 39.248 58.2013 39.2583 58.4144 39.2583C59.3966 39.2583 60.4016 39.0862 61.4021 38.6769C62.1858 38.3563 62.5612 37.461 62.2406 36.6774C61.9199 35.8938 61.0254 35.5183 60.2411 35.8389C56.2949 37.4535 51.564 33.0039 51.0373 32.4911C51.0285 32.4825 51.0197 32.474 51.0107 32.4658L50.9563 32.4114L50.9557 32.411L50.9083 32.3638C50.9083 32.3638 50.9077 32.3632 50.9073 32.363L49.6166 31.0714L51.0802 29.6075C51.6793 29.0087 51.6793 28.038 51.0804 27.4391C50.4815 26.8406 49.5108 26.8404 48.9122 27.4391L46.3678 29.9835C46.3669 29.9844 46.3657 29.9854 46.3648 29.9863C46.3639 29.9872 46.3629 29.9884 46.362 29.9893L40.512 35.8393C39.3098 37.0413 37.3541 37.041 36.1523 35.8393C35.5701 35.2571 35.2495 34.4829 35.2495 33.6594C35.2495 32.8359 35.5701 32.0617 36.1525 31.4795L46.2497 21.382C46.8114 20.8204 47.4358 20.3263 48.1069 19.9125C49.7012 18.927 51.5426 18.4062 53.432 18.4062C54.8745 18.4062 56.3268 18.7193 57.6326 19.312C60.6029 20.6597 64.1334 20.0318 66.4171 17.7486L68.5514 15.6147L81.1005 28.1638L76.5254 32.7388ZM85.1569 27.8844L68.7065 11.434L75.8478 4.29289L92.2982 20.7433L85.1569 27.8844Z" fill="url(#paint0_linear_2076_22755)"/>
<path d="M86.7015 23.4488C87.5483 23.4488 88.2347 22.7623 88.2347 21.9156C88.2347 21.0688 87.5483 20.3824 86.7015 20.3824C85.8548 20.3824 85.1684 21.0688 85.1684 21.9156C85.1684 22.7623 85.8548 23.4488 86.7015 23.4488Z" fill="url(#paint1_linear_2076_22755)"/>
<path d="M10.0437 24.9636C10.8905 24.9636 11.5769 24.2771 11.5769 23.4304C11.5769 22.5836 10.8905 21.8972 10.0437 21.8972C9.19698 21.8972 8.51055 22.5836 8.51055 23.4304C8.51055 24.2771 9.19698 24.9636 10.0437 24.9636Z" fill="url(#paint2_linear_2076_22755)"/>
<defs>
<linearGradient id="paint0_linear_2076_22755" x1="0" y1="35.5828" x2="96" y2="35.5828" gradientUnits="userSpaceOnUse">
<stop stop-color="#314160"/>
<stop offset="1" stop-color="#CE5656"/>
</linearGradient>
<linearGradient id="paint1_linear_2076_22755" x1="0" y1="35.5828" x2="96" y2="35.5828" gradientUnits="userSpaceOnUse">
<stop stop-color="#314160"/>
<stop offset="1" stop-color="#CE5656"/>
</linearGradient>
<linearGradient id="paint2_linear_2076_22755" x1="0" y1="35.5828" x2="96" y2="35.5828" gradientUnits="userSpaceOnUse">
<stop stop-color="#314160"/>
<stop offset="1" stop-color="#CE5656"/>
</linearGradient>
</defs>
</svg>
