<svg width="80" height="80" viewBox="0 0 80 80" fill="none" xmlns="http://www.w3.org/2000/svg">
<path d="M79.9226 62.5682L65.1255 8.57549C64.8793 7.67394 63.9538 7.14153 63.0493 7.38006L59.6803 8.27083L58.701 4.69777C57.7807 1.33614 54.236 -0.723291 50.8488 0.236056C46.2754 1.53124 45.5637 5.847 46.316 8.00145L47.2881 11.5471L40.3389 13.3845L39.3593 9.81059C38.439 6.44896 34.8943 4.38969 31.507 5.34887C26.9337 6.64389 26.222 10.9598 26.9743 13.1141L27.9466 16.6609L20.9839 18.5017L20.0006 14.9139C19.0803 11.5523 15.5356 9.49304 12.1484 10.4521C7.5748 11.7469 6.86329 16.0628 7.61562 18.2171L8.59178 21.7779L5.18133 22.6849C4.53741 22.9133 4.07423 23.481 3.97937 24.1572L0.00663723 68.7846C-0.0418526 69.3327 0.177413 69.8708 0.596678 70.2294C0.908678 70.4947 1.30264 70.6372 1.70411 70.6367C1.84109 70.6366 1.98003 70.6198 2.11603 70.5863L15.6631 67.191L18.8303 78.7474C19.0373 79.5048 19.7234 80.0008 20.4729 80C20.6159 79.9998 20.7621 79.9815 20.9067 79.9428L78.7157 64.6609C79.3915 64.5974 80.2667 63.51 79.9226 62.5682ZM51.7183 3.52438C53.3253 3.10871 54.989 4.02904 55.4177 5.59508L56.3895 9.14087L50.5789 10.677L49.5991 7.10202C49.318 6.0034 49.631 4.0643 51.7183 3.52438ZM32.3766 8.6372C33.9836 8.22153 35.6473 9.14185 36.076 10.7079L37.048 14.2543L31.2373 15.7907L30.2574 12.215C29.9763 11.1159 30.2893 9.17696 32.3766 8.6372ZM13.0179 13.7404C14.6249 13.3247 16.2886 14.245 16.7173 15.8111L17.6932 19.3716L11.8826 20.9077L10.8987 17.318C10.6177 16.2191 10.9306 14.2801 13.0179 13.7404ZM3.60909 66.7038L6.5317 33.8728L14.763 63.9082L3.60909 66.7038ZM21.6679 76.2227L7.76974 25.5133L18.5924 22.6522L19.916 27.4816L23.1991 26.584L21.883 21.7823L37.9472 17.5355L39.2746 22.3784L42.5577 21.481L41.2378 16.6654L57.2888 12.4225L58.6163 17.2658L61.8994 16.3683L60.5794 11.5525L62.2876 11.1007L76.1862 61.8114L21.6679 76.2227Z" fill="url(#paint0_linear_2076_22704)"/>
<path d="M33.1712 38.9028L29.1353 39.9708L30.0068 43.2591L34.0426 42.1912L33.1712 38.9028Z" fill="url(#paint1_linear_2076_22704)"/>
<path d="M43.4726 36.1799L39.4368 37.246L40.3064 40.5345L44.3423 39.4684L43.4726 36.1799Z" fill="url(#paint2_linear_2076_22704)"/>
<path d="M53.7732 33.4566L49.7374 34.5229L50.607 37.8112L54.6429 36.7451L53.7732 33.4566Z" fill="url(#paint3_linear_2076_22704)"/>
<path d="M60.9075 35.0885L64.9443 34.0222L64.0746 30.7339L60.038 31.8L60.9075 35.0885Z" fill="url(#paint4_linear_2076_22704)"/>
<path d="M25.5668 51.4627L21.531 52.5291L22.4006 55.8175L26.4365 54.7512L25.5668 51.4627Z" fill="url(#paint5_linear_2076_22704)"/>
<path d="M35.8682 48.7397L31.8316 49.8059L32.7012 53.0944L36.7379 52.0281L35.8682 48.7397Z" fill="url(#paint6_linear_2076_22704)"/>
<path d="M46.1688 46.0166L42.133 47.0829L43.0026 50.3714L47.0385 49.3051L46.1688 46.0166Z" fill="url(#paint7_linear_2076_22704)"/>
<path d="M52.4336 44.36L53.3031 47.6483L57.3391 46.5822L56.4693 43.2937L52.4336 44.36Z" fill="url(#paint8_linear_2076_22704)"/>
<path d="M63.6037 44.9252L67.6396 43.8589L66.7699 40.5706L62.7342 41.6369L63.6037 44.9252Z" fill="url(#paint9_linear_2076_22704)"/>
<path d="M24.2272 62.3659L25.0969 65.6542L29.1328 64.5881L28.2631 61.2996L24.2272 62.3659Z" fill="url(#paint10_linear_2076_22704)"/>
<path d="M34.5279 59.6429L35.3975 62.9314L39.4334 61.8651L38.5637 58.5768L34.5279 59.6429Z" fill="url(#paint11_linear_2076_22704)"/>
<path d="M44.8284 56.9197L45.6981 60.2082L49.734 59.142L48.8643 55.8535L44.8284 56.9197Z" fill="url(#paint12_linear_2076_22704)"/>
<defs>
<linearGradient id="paint0_linear_2076_22704" x1="0" y1="40" x2="80" y2="40" gradientUnits="userSpaceOnUse">
<stop stop-color="#314160"/>
<stop offset="1" stop-color="#CE5656"/>
</linearGradient>
<linearGradient id="paint1_linear_2076_22704" x1="0" y1="40" x2="80" y2="40" gradientUnits="userSpaceOnUse">
<stop stop-color="#314160"/>
<stop offset="1" stop-color="#CE5656"/>
</linearGradient>
<linearGradient id="paint2_linear_2076_22704" x1="0" y1="40" x2="80" y2="40" gradientUnits="userSpaceOnUse">
<stop stop-color="#314160"/>
<stop offset="1" stop-color="#CE5656"/>
</linearGradient>
<linearGradient id="paint3_linear_2076_22704" x1="0" y1="40" x2="80" y2="40" gradientUnits="userSpaceOnUse">
<stop stop-color="#314160"/>
<stop offset="1" stop-color="#CE5656"/>
</linearGradient>
<linearGradient id="paint4_linear_2076_22704" x1="0" y1="40" x2="80" y2="40" gradientUnits="userSpaceOnUse">
<stop stop-color="#314160"/>
<stop offset="1" stop-color="#CE5656"/>
</linearGradient>
<linearGradient id="paint5_linear_2076_22704" x1="0" y1="40" x2="80" y2="40" gradientUnits="userSpaceOnUse">
<stop stop-color="#314160"/>
<stop offset="1" stop-color="#CE5656"/>
</linearGradient>
<linearGradient id="paint6_linear_2076_22704" x1="0" y1="40" x2="80" y2="40" gradientUnits="userSpaceOnUse">
<stop stop-color="#314160"/>
<stop offset="1" stop-color="#CE5656"/>
</linearGradient>
<linearGradient id="paint7_linear_2076_22704" x1="0" y1="40" x2="80" y2="40" gradientUnits="userSpaceOnUse">
<stop stop-color="#314160"/>
<stop offset="1" stop-color="#CE5656"/>
</linearGradient>
<linearGradient id="paint8_linear_2076_22704" x1="0" y1="40" x2="80" y2="40" gradientUnits="userSpaceOnUse">
<stop stop-color="#314160"/>
<stop offset="1" stop-color="#CE5656"/>
</linearGradient>
<linearGradient id="paint9_linear_2076_22704" x1="0" y1="40" x2="80" y2="40" gradientUnits="userSpaceOnUse">
<stop stop-color="#314160"/>
<stop offset="1" stop-color="#CE5656"/>
</linearGradient>
<linearGradient id="paint10_linear_2076_22704" x1="0" y1="40" x2="80" y2="40" gradientUnits="userSpaceOnUse">
<stop stop-color="#314160"/>
<stop offset="1" stop-color="#CE5656"/>
</linearGradient>
<linearGradient id="paint11_linear_2076_22704" x1="0" y1="40" x2="80" y2="40" gradientUnits="userSpaceOnUse">
<stop stop-color="#314160"/>
<stop offset="1" stop-color="#CE5656"/>
</linearGradient>
<linearGradient id="paint12_linear_2076_22704" x1="0" y1="40" x2="80" y2="40" gradientUnits="userSpaceOnUse">
<stop stop-color="#314160"/>
<stop offset="1" stop-color="#CE5656"/>
</linearGradient>
</defs>
</svg>
