<svg width="80" height="80" viewBox="0 0 80 80" fill="none" xmlns="http://www.w3.org/2000/svg">
<g id="Vector">
<path d="M78.6667 56V53.3333C78.6667 51.8607 77.4727 50.6667 76 50.6667H74.6016C73.9349 38.6784 64.0065 29.3073 52 29.3333C51.9954 25.653 49.0137 22.6712 45.3333 22.6667C43.8861 22.6719 42.4805 23.1523 41.3333 24.0345V20H38.6667V29.3333H30.3203C29.2878 25.2305 25.9108 22.1367 21.7331 21.4668C20.9753 21.3405 20.1999 21.5566 19.6159 22.056C19.0111 22.5703 18.6634 23.3255 18.6667 24.1198V31.3483C13.1875 33.8242 8.91667 38.375 6.79232 44H2.66667C1.19401 44 0 45.194 0 46.6667V57.3333C0 58.806 1.19401 60 2.66667 60H6.80013C8.91862 65.625 13.1882 70.1764 18.6667 72.6504V77.3333C18.6667 78.806 19.8607 80 21.3333 80H29.3333C30.806 80 32 78.806 32 77.3333V74.6667H48V77.3333C48 78.806 49.194 80 50.6667 80H58.6667C60.1393 80 61.3333 78.806 61.3333 77.3333V72.6517C69.0208 69.1973 74.1432 61.748 74.6185 53.3333H76V56C76 57.4727 77.194 58.6667 78.6667 58.6667H80V56H78.6667ZM45.3333 25.3333C47.5423 25.3333 49.3333 27.1243 49.3333 29.3333C49.3333 31.5423 47.5423 33.3333 45.3333 33.3333C43.1244 33.3333 41.3333 31.5423 41.3333 29.3333C41.3333 27.1243 43.1244 25.3333 45.3333 25.3333ZM59.4987 70.5332C58.9941 70.7383 58.6647 71.2292 58.6667 71.7734V77.3333H50.6667V73.3333C50.6667 72.597 50.0697 72 49.3333 72H30.6667C29.9303 72 29.3333 72.597 29.3333 73.3333V77.3333H21.3333V71.7734C21.3333 71.2305 21.0046 70.7415 20.5013 70.5371C15.0514 68.3307 10.849 63.8366 9.01302 58.2507C8.83333 57.7031 8.32292 57.3333 7.74675 57.3333H2.66667V46.6667H7.73307C8.30794 46.6667 8.81836 46.2975 8.9987 45.752C10.8431 40.1667 15.0488 35.6738 20.5013 33.4668C21.0059 33.2617 21.3353 32.7708 21.3333 32.2266L21.3053 24.1029C24.735 24.6882 27.3991 27.4128 27.9069 30.8548C28 31.5117 28.5632 32 29.2266 32H39.2266C40.2832 34.429 42.679 36 45.3281 36C47.9766 36 50.373 34.429 51.429 32H52C61.5658 32.0091 69.7858 38.7904 71.6126 48.1797C73.4401 57.569 68.3626 66.9375 59.4987 70.5332Z" fill="url(#paint0_linear_2076_22735)"/>
<path d="M20 42.6667C18.5273 42.6667 17.3333 41.4727 17.3333 40H14.6667C14.6667 42.9453 17.0547 45.3333 20 45.3333C22.9453 45.3333 25.3333 42.9453 25.3333 40H22.6667C22.6667 41.4727 21.4727 42.6667 20 42.6667Z" fill="url(#paint1_linear_2076_22735)"/>
<path d="M62.6667 17.3333C62.6667 19.4909 64.6348 20.4733 66.071 21.1934C67.1999 21.7572 68 22.1947 68 22.6667C68 23.403 67.403 24 66.6667 24C65.9303 24 65.3333 23.403 65.3333 22.6667H62.6667C62.6738 24.3555 63.7409 25.8581 65.3333 26.4212V28H68V26.4212C69.5925 25.8581 70.6595 24.3555 70.6667 22.6667C70.6667 20.5091 68.6986 19.5267 67.2624 18.8066C66.1335 18.2428 65.3333 17.8053 65.3333 17.3333C65.3333 16.597 65.9303 16 66.6667 16C67.403 16 68 16.597 68 17.3333H70.6667C70.6595 15.6445 69.5925 14.1419 68 13.5788V12H65.3333V13.5788C63.7409 14.1419 62.6738 15.6445 62.6667 17.3333Z" fill="url(#paint2_linear_2076_22735)"/>
<path d="M65.3333 4H68V9.33333H65.3333V4Z" fill="url(#paint3_linear_2076_22735)"/>
<path d="M70.6667 5.33333H73.3333V8H70.6667V5.33333Z" fill="url(#paint4_linear_2076_22735)"/>
<path d="M70.6667 0H73.3333V2.66667H70.6667V0Z" fill="url(#paint5_linear_2076_22735)"/>
<path d="M60 6.66667H62.6667V12H60V6.66667Z" fill="url(#paint6_linear_2076_22735)"/>
<path d="M60 1.33333H62.6667V4H60V1.33333Z" fill="url(#paint7_linear_2076_22735)"/>
<path d="M29.3333 21.3333C32.7585 21.3366 35.6289 18.7441 35.9727 15.3366C36.3171 11.929 34.0234 8.8151 30.6667 8.13346V1.33333H28V8.13346C27.0299 8.33919 26.1185 8.76042 25.3333 9.36654V5.33333H22.6667V14.6667C22.6712 18.347 25.653 21.3288 29.3333 21.3333ZM29.3333 10.6667C31.5423 10.6667 33.3333 12.4577 33.3333 14.6667C33.3333 16.8757 31.5423 18.6667 29.3333 18.6667C27.1243 18.6667 25.3333 16.8757 25.3333 14.6667C25.3333 12.4577 27.1243 10.6667 29.3333 10.6667Z" fill="url(#paint8_linear_2076_22735)"/>
<path d="M22.6667 0H25.3333V2.66667H22.6667V0Z" fill="url(#paint9_linear_2076_22735)"/>
<path d="M33.3333 5.33333H36V8H33.3333V5.33333Z" fill="url(#paint10_linear_2076_22735)"/>
<path d="M33.3333 0H36V2.66667H33.3333V0Z" fill="url(#paint11_linear_2076_22735)"/>
<path d="M38.6667 14.6667H41.3333V17.3333H38.6667V14.6667Z" fill="url(#paint12_linear_2076_22735)"/>
<path d="M44 12H46.6667V20H44V12Z" fill="url(#paint13_linear_2076_22735)"/>
<path d="M49.3333 9.33333H52V12H49.3333V9.33333Z" fill="url(#paint14_linear_2076_22735)"/>
<path d="M49.3333 4H52V6.66667H49.3333V4Z" fill="url(#paint15_linear_2076_22735)"/>
<path d="M44 6.66667H46.6667V9.33333H44V6.66667Z" fill="url(#paint16_linear_2076_22735)"/>
<path d="M37.3333 38.6667H53.3333V36H37.3333V38.6667Z" fill="url(#paint17_linear_2076_22735)"/>
<path d="M49.3333 14.6667H52V20H49.3333V14.6667Z" fill="url(#paint18_linear_2076_22735)"/>
</g>
<defs>
<linearGradient id="paint0_linear_2076_22735" x1="0" y1="40" x2="80" y2="40" gradientUnits="userSpaceOnUse">
<stop stop-color="#314160"/>
<stop offset="1" stop-color="#CE5656"/>
</linearGradient>
<linearGradient id="paint1_linear_2076_22735" x1="0" y1="40" x2="80" y2="40" gradientUnits="userSpaceOnUse">
<stop stop-color="#314160"/>
<stop offset="1" stop-color="#CE5656"/>
</linearGradient>
<linearGradient id="paint2_linear_2076_22735" x1="0" y1="40" x2="80" y2="40" gradientUnits="userSpaceOnUse">
<stop stop-color="#314160"/>
<stop offset="1" stop-color="#CE5656"/>
</linearGradient>
<linearGradient id="paint3_linear_2076_22735" x1="0" y1="40" x2="80" y2="40" gradientUnits="userSpaceOnUse">
<stop stop-color="#314160"/>
<stop offset="1" stop-color="#CE5656"/>
</linearGradient>
<linearGradient id="paint4_linear_2076_22735" x1="0" y1="40" x2="80" y2="40" gradientUnits="userSpaceOnUse">
<stop stop-color="#314160"/>
<stop offset="1" stop-color="#CE5656"/>
</linearGradient>
<linearGradient id="paint5_linear_2076_22735" x1="0" y1="40" x2="80" y2="40" gradientUnits="userSpaceOnUse">
<stop stop-color="#314160"/>
<stop offset="1" stop-color="#CE5656"/>
</linearGradient>
<linearGradient id="paint6_linear_2076_22735" x1="0" y1="40" x2="80" y2="40" gradientUnits="userSpaceOnUse">
<stop stop-color="#314160"/>
<stop offset="1" stop-color="#CE5656"/>
</linearGradient>
<linearGradient id="paint7_linear_2076_22735" x1="0" y1="40" x2="80" y2="40" gradientUnits="userSpaceOnUse">
<stop stop-color="#314160"/>
<stop offset="1" stop-color="#CE5656"/>
</linearGradient>
<linearGradient id="paint8_linear_2076_22735" x1="0" y1="40" x2="80" y2="40" gradientUnits="userSpaceOnUse">
<stop stop-color="#314160"/>
<stop offset="1" stop-color="#CE5656"/>
</linearGradient>
<linearGradient id="paint9_linear_2076_22735" x1="0" y1="40" x2="80" y2="40" gradientUnits="userSpaceOnUse">
<stop stop-color="#314160"/>
<stop offset="1" stop-color="#CE5656"/>
</linearGradient>
<linearGradient id="paint10_linear_2076_22735" x1="0" y1="40" x2="80" y2="40" gradientUnits="userSpaceOnUse">
<stop stop-color="#314160"/>
<stop offset="1" stop-color="#CE5656"/>
</linearGradient>
<linearGradient id="paint11_linear_2076_22735" x1="0" y1="40" x2="80" y2="40" gradientUnits="userSpaceOnUse">
<stop stop-color="#314160"/>
<stop offset="1" stop-color="#CE5656"/>
</linearGradient>
<linearGradient id="paint12_linear_2076_22735" x1="0" y1="40" x2="80" y2="40" gradientUnits="userSpaceOnUse">
<stop stop-color="#314160"/>
<stop offset="1" stop-color="#CE5656"/>
</linearGradient>
<linearGradient id="paint13_linear_2076_22735" x1="0" y1="40" x2="80" y2="40" gradientUnits="userSpaceOnUse">
<stop stop-color="#314160"/>
<stop offset="1" stop-color="#CE5656"/>
</linearGradient>
<linearGradient id="paint14_linear_2076_22735" x1="0" y1="40" x2="80" y2="40" gradientUnits="userSpaceOnUse">
<stop stop-color="#314160"/>
<stop offset="1" stop-color="#CE5656"/>
</linearGradient>
<linearGradient id="paint15_linear_2076_22735" x1="0" y1="40" x2="80" y2="40" gradientUnits="userSpaceOnUse">
<stop stop-color="#314160"/>
<stop offset="1" stop-color="#CE5656"/>
</linearGradient>
<linearGradient id="paint16_linear_2076_22735" x1="0" y1="40" x2="80" y2="40" gradientUnits="userSpaceOnUse">
<stop stop-color="#314160"/>
<stop offset="1" stop-color="#CE5656"/>
</linearGradient>
<linearGradient id="paint17_linear_2076_22735" x1="0" y1="40" x2="80" y2="40" gradientUnits="userSpaceOnUse">
<stop stop-color="#314160"/>
<stop offset="1" stop-color="#CE5656"/>
</linearGradient>
<linearGradient id="paint18_linear_2076_22735" x1="0" y1="40" x2="80" y2="40" gradientUnits="userSpaceOnUse">
<stop stop-color="#314160"/>
<stop offset="1" stop-color="#CE5656"/>
</linearGradient>
</defs>
</svg>
