<svg width="80" height="80" viewBox="0 0 80 80" fill="none" xmlns="http://www.w3.org/2000/svg">
<path d="M23.4375 29.5312C22.575 29.5312 21.875 30.2313 21.875 31.0938C21.875 31.9562 22.575 32.6562 23.4375 32.6562C24.3 32.6562 25 31.9562 25 31.0938C25 30.2313 24.3 29.5312 23.4375 29.5312Z" fill="url(#paint0_linear_2076_22724)"/>
<path d="M78.4375 67.5H72.8125V7.8125C72.8125 3.50469 69.3078 0 65 0H7.8125C3.50469 0 0 3.50469 0 7.8125V14.0625C0 14.9253 0.699688 15.625 1.5625 15.625H12.5V72.1875C12.5 76.4953 16.0047 80 20.3125 80H72.1875C76.4953 80 80 76.4953 80 72.1875V69.0625C80 68.1997 79.3003 67.5 78.4375 67.5ZM12.5 12.5H3.125V7.8125C3.125 5.22781 5.22781 3.125 7.8125 3.125C9.06375 3.125 10.2406 3.61281 11.1264 4.49844C12.0122 5.38438 12.5 6.56125 12.5 7.8125V12.5ZM25 69.0625V72.1875C25 74.7722 22.8972 76.875 20.3125 76.875C17.7278 76.875 15.625 74.7722 15.625 72.1875V7.8125C15.625 6.09938 15.0756 4.47047 14.0617 3.125H65C67.5847 3.125 69.6875 5.22781 69.6875 7.8125V67.5H63.4375V61.9822C65.4313 60.2055 66.5625 57.7045 66.5625 55C66.5625 49.8306 62.3569 45.625 57.1875 45.625C54.4173 45.625 51.9252 46.8336 50.2073 48.75H23.4375C22.5747 48.75 21.875 49.4497 21.875 50.3125C21.875 51.1753 22.5747 51.875 23.4375 51.875H48.35C48.0031 52.8531 47.8125 53.9045 47.8125 55C47.8125 56.0856 47.9963 57.1381 48.343 58.125H23.4375C22.5747 58.125 21.875 58.8247 21.875 59.6875C21.875 60.5503 22.5747 61.25 23.4375 61.25H49.375C49.6208 61.25 49.8525 61.1916 50.0594 61.0905C50.3297 61.4047 50.6231 61.702 50.9375 61.9822V67.5H26.5625C25.6997 67.5 25 68.1997 25 69.0625ZM57.1875 61.25C55.8237 61.25 54.5289 60.8184 53.4425 60.0022C53.4408 60.0008 53.4391 59.9995 53.4372 59.9983C51.8486 58.8053 50.9375 56.9837 50.9375 55C50.9375 51.5537 53.7412 48.75 57.1875 48.75C60.6338 48.75 63.4375 51.5537 63.4375 55C63.4375 56.9841 62.5261 58.8059 60.9356 59.9998C59.8486 60.8177 58.5525 61.25 57.1875 61.25ZM60.3125 63.8413V71.0147L58.0542 69.5092C57.5294 69.1592 56.8458 69.1592 56.3208 69.5092L54.0625 71.0147V63.8411C55.0553 64.1923 56.1069 64.375 57.1875 64.375C58.2683 64.375 59.3198 64.1925 60.3125 63.8413ZM76.875 72.1875C76.875 74.7722 74.7722 76.875 72.1875 76.875H26.5583C27.5414 75.5683 28.125 73.945 28.125 72.1875V70.625H50.9375V73.9344C50.9375 74.5106 51.2547 75.04 51.7627 75.3119C52.2709 75.5841 52.8873 75.5539 53.3667 75.2344L57.1875 72.6872L61.0083 75.2344C61.2697 75.4088 61.5719 75.4969 61.8752 75.4969C62.1278 75.4969 62.3812 75.4356 62.6123 75.3119C63.1203 75.04 63.4375 74.5105 63.4375 73.9344V70.625H76.875V72.1875Z" fill="url(#paint1_linear_2076_22724)"/>
<path d="M49.375 9.375H32.8125C31.9497 9.375 31.25 10.0747 31.25 10.9375C31.25 11.8003 31.9497 12.5 32.8125 12.5H49.375C50.2378 12.5 50.9375 11.8003 50.9375 10.9375C50.9375 10.0747 50.2378 9.375 49.375 9.375Z" fill="url(#paint2_linear_2076_22724)"/>
<path d="M61.875 29.5312H29.6875C28.8247 29.5312 28.125 30.2309 28.125 31.0938C28.125 31.9566 28.8247 32.6562 29.6875 32.6562H61.875C62.7378 32.6562 63.4375 31.9566 63.4375 31.0938C63.4375 30.2309 62.7378 29.5312 61.875 29.5312Z" fill="url(#paint3_linear_2076_22724)"/>
<path d="M61.875 39.375H23.4375C22.5747 39.375 21.875 40.0747 21.875 40.9375C21.875 41.8003 22.5747 42.5 23.4375 42.5H61.875C62.7378 42.5 63.4375 41.8003 63.4375 40.9375C63.4375 40.0747 62.7378 39.375 61.875 39.375Z" fill="url(#paint4_linear_2076_22724)"/>
<path d="M61.875 19.2188H23.4375C22.5747 19.2188 21.875 19.9184 21.875 20.7812C21.875 21.6441 22.5747 22.3438 23.4375 22.3438H61.875C62.7378 22.3438 63.4375 21.6441 63.4375 20.7812C63.4375 19.9184 62.7378 19.2188 61.875 19.2188Z" fill="url(#paint5_linear_2076_22724)"/>
<defs>
<linearGradient id="paint0_linear_2076_22724" x1="0" y1="40" x2="80" y2="40" gradientUnits="userSpaceOnUse">
<stop stop-color="#314160"/>
<stop offset="1" stop-color="#CE5656"/>
</linearGradient>
<linearGradient id="paint1_linear_2076_22724" x1="0" y1="40" x2="80" y2="40" gradientUnits="userSpaceOnUse">
<stop stop-color="#314160"/>
<stop offset="1" stop-color="#CE5656"/>
</linearGradient>
<linearGradient id="paint2_linear_2076_22724" x1="0" y1="40" x2="80" y2="40" gradientUnits="userSpaceOnUse">
<stop stop-color="#314160"/>
<stop offset="1" stop-color="#CE5656"/>
</linearGradient>
<linearGradient id="paint3_linear_2076_22724" x1="0" y1="40" x2="80" y2="40" gradientUnits="userSpaceOnUse">
<stop stop-color="#314160"/>
<stop offset="1" stop-color="#CE5656"/>
</linearGradient>
<linearGradient id="paint4_linear_2076_22724" x1="0" y1="40" x2="80" y2="40" gradientUnits="userSpaceOnUse">
<stop stop-color="#314160"/>
<stop offset="1" stop-color="#CE5656"/>
</linearGradient>
<linearGradient id="paint5_linear_2076_22724" x1="0" y1="40" x2="80" y2="40" gradientUnits="userSpaceOnUse">
<stop stop-color="#314160"/>
<stop offset="1" stop-color="#CE5656"/>
</linearGradient>
</defs>
</svg>
