<svg width="80" height="80" viewBox="0 0 80 80" fill="none" xmlns="http://www.w3.org/2000/svg">
<path d="M79.5336 71.3014L62.3126 54.0821C62.3122 54.0817 62.3117 54.081 62.3112 54.0806L56.0464 47.8142C55.7476 47.5156 55.3426 47.3476 54.9203 47.3476H54.9201C54.4978 47.3476 54.0926 47.5154 53.794 47.814L51.9301 49.6779L47.7346 45.482C51.0756 41.7338 53.3012 37.1832 54.2023 32.2282C55.175 26.8786 54.552 21.4232 52.4006 16.4513C52.0512 15.6441 51.1137 15.2728 50.3067 15.6222C49.4996 15.9716 49.1284 16.9091 49.4776 17.7161C53.2253 26.3761 51.6342 36.2154 45.4763 43.2235L43.0379 40.7851C46.2607 37.036 48.0188 32.311 48.0188 27.3154C48.0188 21.7855 45.8651 16.5863 41.9545 12.6756C33.883 4.60454 20.7493 4.60438 12.676 12.6758C4.6047 20.7486 4.60485 33.8829 12.6761 41.954C16.5869 45.8646 21.786 48.0184 27.3158 48.0184C32.3116 48.0184 37.0368 46.2602 40.7857 43.0374L43.2248 45.4765C38.6863 49.457 33.0024 51.4485 27.316 51.4481C21.1338 51.4476 14.9497 49.0943 10.2431 44.3888C0.83047 34.9744 0.830471 19.6568 10.2428 10.2427C19.6566 0.830158 34.9746 0.830002 44.3888 10.2427C45.0106 10.8644 46.019 10.8646 46.6409 10.2425C47.2628 9.62064 47.2626 8.61236 46.6407 7.99048C35.9851 -2.66344 18.6468 -2.6636 7.9908 7.99064C-2.6636 18.6464 -2.6636 35.9848 7.9908 46.6407C13.3186 51.9678 20.3169 54.6312 27.3157 54.6312C33.8176 54.6312 40.3185 52.3307 45.4809 47.7329L49.6779 51.9299L47.814 53.7939C47.5154 54.0924 47.3476 54.4976 47.3476 54.9199C47.3476 55.3423 47.5154 55.7475 47.8142 56.046L71.3014 79.5334C71.6 79.832 72.0051 79.9998 72.4275 79.9998C72.8498 79.9998 73.2548 79.832 73.5536 79.5334L79.5336 73.5536C79.8322 73.255 80 72.8498 80 72.4275C80.0002 72.0051 79.8324 71.6 79.5336 71.3014ZM39.7018 39.702C36.3935 43.011 31.9946 44.8334 27.3155 44.8334C22.6365 44.8334 18.2371 43.0109 14.928 39.7018C8.09861 32.8724 8.09861 21.7586 14.928 14.9278C18.3439 11.5127 22.8291 9.80564 27.3157 9.80564C31.8012 9.80564 36.2877 11.5135 39.7021 14.9277C43.0113 18.2368 44.8337 22.6361 44.8337 27.3154C44.8337 31.9944 43.0113 36.3932 39.7018 39.702ZM51.1924 54.9198L54.92 51.1923L58.9329 55.2064L55.2065 58.9328L51.1924 54.9198ZM72.4278 76.1553L57.4587 61.1848L61.1848 57.4585L76.1555 72.4278L72.4278 76.1553Z" fill="url(#paint0_linear_2076_22745)"/>
<path d="M36.906 25.723H28.9085V17.7255C28.9085 16.846 28.1954 16.133 27.316 16.133C26.4366 16.133 25.7235 16.846 25.7235 17.7255V25.723H17.7258C16.8464 25.723 16.1333 26.436 16.1333 27.3155C16.1333 28.1951 16.8464 28.908 17.7258 28.908H25.7235V36.9055C25.7235 37.7851 26.4366 38.498 27.316 38.498C28.1954 38.498 28.9085 37.7851 28.9085 36.9055V28.908H36.906C37.7854 28.908 38.4985 28.1951 38.4985 27.3155C38.4984 26.436 37.7854 25.723 36.906 25.723Z" fill="url(#paint1_linear_2076_22745)"/>
<path d="M48.6112 11.2405C46.5618 11.2405 46.5585 14.4255 48.6112 14.4255C50.6606 14.4253 50.664 11.2405 48.6112 11.2405Z" fill="url(#paint2_linear_2076_22745)"/>
<defs>
<linearGradient id="paint0_linear_2076_22745" x1="0" y1="39.9999" x2="80" y2="39.9999" gradientUnits="userSpaceOnUse">
<stop stop-color="#314160"/>
<stop offset="1" stop-color="#CE5656"/>
</linearGradient>
<linearGradient id="paint1_linear_2076_22745" x1="0" y1="39.9999" x2="80" y2="39.9999" gradientUnits="userSpaceOnUse">
<stop stop-color="#314160"/>
<stop offset="1" stop-color="#CE5656"/>
</linearGradient>
<linearGradient id="paint2_linear_2076_22745" x1="0" y1="39.9999" x2="80" y2="39.9999" gradientUnits="userSpaceOnUse">
<stop stop-color="#314160"/>
<stop offset="1" stop-color="#CE5656"/>
</linearGradient>
</defs>
</svg>
