<svg width="80" height="80" viewBox="0 0 80 80" fill="none" xmlns="http://www.w3.org/2000/svg">
<path d="M40 51.9984C46.7207 51.9984 52.1758 46.5432 52.1758 39.8225C52.1758 33.1019 46.7207 27.6467 40 27.6467C33.2793 27.6467 27.8241 33.1019 27.8241 39.8225C27.8241 46.5432 33.2793 51.9984 40 51.9984ZM40 31.7509C44.4462 31.7509 48.0716 35.3763 48.0716 39.8225C48.0716 44.2688 44.4462 47.8942 40 47.8942C35.5538 47.8942 31.9284 44.2688 31.9284 39.8225C31.9284 35.3763 35.5538 31.7509 40 31.7509Z" fill="url(#paint0_linear_2076_13987)"/>
<path d="M24.1645 57.7272C24.1645 57.1971 23.9422 56.6498 23.566 56.2736C23.1898 55.8974 22.6597 55.6751 22.1124 55.6751C21.5652 55.6751 21.0351 55.8974 20.6589 56.2736C20.2826 56.6498 20.0603 57.18 20.0603 57.7272C20.0603 58.2744 20.2826 58.8045 20.6589 59.1808C21.0351 59.557 21.5652 59.7793 22.1124 59.7793C22.6597 59.7793 23.1898 59.557 23.566 59.1808C23.9422 58.7874 24.1645 58.2573 24.1645 57.7272Z" fill="url(#paint1_linear_2076_13987)"/>
<path d="M36.0155 16.8731C36.1181 16.8731 36.2378 16.8731 36.3404 16.856C37.4691 16.685 38.2215 15.6247 38.0505 14.5132C37.8795 13.4016 36.8192 12.6321 35.7077 12.8031C34.579 12.9741 33.8266 14.0343 33.9976 15.1459C34.1515 16.1549 35.0236 16.8731 36.0155 16.8731Z" fill="url(#paint2_linear_2076_13987)"/>
<path d="M44.2581 12.786C43.1466 12.615 42.0863 13.3845 41.9153 14.4961C41.7443 15.6247 42.5138 16.6679 43.6254 16.8389C43.728 16.856 43.8477 16.856 43.9503 16.856C44.9422 16.856 45.8143 16.1378 45.9682 15.1288C46.1392 14.0172 45.3697 12.957 44.2581 12.786Z" fill="url(#paint3_linear_2076_13987)"/>
<path d="M67.0365 44.0636C67.2076 42.952 66.438 41.8917 65.3265 41.7207C64.2149 41.5497 63.1546 42.3193 62.9836 43.4308C62.8126 44.5595 63.5822 45.6026 64.6937 45.7737C64.7963 45.7908 64.916 45.7908 65.0186 45.7908C65.9934 45.8079 66.8826 45.0725 67.0365 44.0636Z" fill="url(#paint4_linear_2076_13987)"/>
<path d="M64.6766 33.803C63.5651 33.974 62.7955 35.0343 62.9665 36.1458C63.1204 37.1548 63.9926 37.873 64.9844 37.873C65.087 37.873 65.2067 37.8559 65.3093 37.8559C66.4209 37.6849 67.1905 36.6247 67.0194 35.5131C66.8484 34.3844 65.7882 33.632 64.6766 33.803Z" fill="url(#paint5_linear_2076_13987)"/>
<path d="M22.0953 23.9871C22.6255 23.9871 23.1385 23.7819 23.5489 23.3885C24.3527 22.5848 24.3527 21.2851 23.5489 20.4814C22.7452 19.6776 21.4455 19.6776 20.6418 20.4814C19.838 21.2851 19.838 22.5848 20.6418 23.3885C21.0522 23.7819 21.5652 23.9871 22.0953 23.9871Z" fill="url(#paint6_linear_2076_13987)"/>
<path d="M62.539 30.3486C62.8468 30.3486 63.1717 30.2802 63.4795 30.1263C64.4885 29.6133 64.8818 28.3649 64.3688 27.356C63.8558 26.347 62.6074 25.9537 61.5985 26.4667C60.5895 26.9797 60.1962 28.2281 60.7092 29.22C61.0854 29.9553 61.8037 30.3486 62.539 30.3486Z" fill="url(#paint7_linear_2076_13987)"/>
<path d="M63.4967 49.4503C62.4877 48.9373 61.2564 49.3306 60.7434 50.3567C60.2304 51.3657 60.6237 52.5969 61.6498 53.1099C61.9405 53.2639 62.2654 53.3323 62.5732 53.3323C63.3256 53.3323 64.0439 52.9218 64.403 52.2036C64.916 51.2117 64.5056 49.9634 63.4967 49.4503Z" fill="url(#paint8_linear_2076_13987)"/>
<path d="M57.8705 23.9529C58.4006 23.9529 58.9307 23.7477 59.324 23.3543C60.1278 22.5506 60.1278 21.2509 59.324 20.4472C58.5203 19.6434 57.2206 19.6434 56.4169 20.4472C55.6131 21.2509 55.6131 22.5506 56.4169 23.3543C56.8273 23.7648 57.3574 23.9529 57.8705 23.9529Z" fill="url(#paint9_linear_2076_13987)"/>
<path d="M17.0335 43.465C16.8625 42.3535 15.8022 41.5839 14.6906 41.7549C13.5791 41.9259 12.8095 42.9862 12.9805 44.0978C13.1345 45.1067 14.0066 45.825 14.9985 45.825C15.1011 45.825 15.2208 45.8078 15.3234 45.8078C16.4349 45.6368 17.2045 44.5937 17.0335 43.465Z" fill="url(#paint10_linear_2076_13987)"/>
<path d="M27.5676 15.4537C26.5587 15.9667 26.1654 17.198 26.6784 18.207C27.0375 18.9252 27.7557 19.3185 28.5082 19.3185C28.816 19.3185 29.1409 19.2501 29.4487 19.0962C30.4577 18.5832 30.851 17.3519 30.338 16.343C29.8079 15.334 28.5766 14.9236 27.5676 15.4537Z" fill="url(#paint11_linear_2076_13987)"/>
<path d="M15.6141 27.4073C15.1011 28.4162 15.4944 29.6475 16.5033 30.1605C16.8112 30.3144 17.119 30.3828 17.4268 30.3828C18.1792 30.3828 18.8975 29.9724 19.2566 29.2713C19.7696 28.2623 19.3763 27.031 18.3673 26.518C17.3584 25.9879 16.1271 26.3983 15.6141 27.4073Z" fill="url(#paint12_linear_2076_13987)"/>
<path d="M14.6735 37.8901C14.7761 37.9072 14.8959 37.9072 14.9985 37.9072C15.9903 37.9072 16.8625 37.189 17.0164 36.18C17.1874 35.0514 16.4349 34.0082 15.3063 33.8372C14.1947 33.6662 13.1345 34.4357 12.9634 35.5473C12.7924 36.676 13.562 37.7191 14.6735 37.8901Z" fill="url(#paint13_linear_2076_13987)"/>
<path d="M52.3982 15.4195C51.3892 14.9065 50.1579 15.2998 49.6449 16.3088C49.1319 17.3177 49.5252 18.549 50.5513 19.062C50.842 19.2159 51.1669 19.2843 51.4747 19.2843C52.2272 19.2843 52.9454 18.8739 53.3045 18.1557C53.8175 17.1809 53.4071 15.9325 52.3982 15.4195Z" fill="url(#paint14_linear_2076_13987)"/>
<path d="M19.2737 50.3909C18.7607 49.3819 17.5294 48.9886 16.5204 49.5016C15.5115 50.0147 15.1182 51.2459 15.6312 52.2549C15.9903 52.956 16.7086 53.3665 17.461 53.3665C17.7688 53.3665 18.0937 53.2981 18.3844 53.1441C19.3934 52.6311 19.7867 51.3999 19.2737 50.3909Z" fill="url(#paint15_linear_2076_13987)"/>
<path d="M57.8876 55.658C57.3574 55.658 56.8102 55.8803 56.434 56.2565C56.0578 56.6327 55.8354 57.1629 55.8354 57.7101C55.8354 58.2573 56.0578 58.7874 56.434 59.1637C56.8102 59.5399 57.3403 59.7622 57.8876 59.7622C58.4348 59.7622 58.9649 59.5399 59.3411 59.1637C59.7174 58.7874 59.9397 58.2573 59.9397 57.7101C59.9397 57.1629 59.7174 56.6327 59.3411 56.2565C58.9649 55.8803 58.4348 55.658 57.8876 55.658Z" fill="url(#paint16_linear_2076_13987)"/>
<path d="M13.1516 64.6189C12.6043 64.6189 12.0742 64.8412 11.698 65.2174C11.3218 65.5936 11.0994 66.1237 11.0994 66.671C11.0994 67.2182 11.3218 67.7483 11.698 68.1245C12.0742 68.5008 12.6043 68.7231 13.1516 68.7231C13.6988 68.7231 14.2289 68.5008 14.6051 68.1245C14.9814 67.7483 15.2037 67.2182 15.2037 66.671C15.2037 66.1408 14.9814 65.5936 14.6051 65.2174C14.2289 64.8412 13.6988 64.6189 13.1516 64.6189Z" fill="url(#paint17_linear_2076_13987)"/>
<path d="M77.7759 44.2004C76.6644 44.0123 75.6041 44.7647 75.416 45.8763C75.2279 46.9878 75.9803 48.0481 77.0919 48.2362C77.2116 48.2533 77.3313 48.2704 77.4339 48.2704C78.4087 48.2704 79.2808 47.5692 79.4518 46.5603C79.6399 45.4487 78.8875 44.3885 77.7759 44.2004Z" fill="url(#paint18_linear_2076_13987)"/>
<path d="M15.0327 13.2648C15.5115 13.2648 15.9903 13.0938 16.3836 12.7518C17.2387 11.9993 17.3242 10.7168 16.5717 9.86172C15.8193 9.00668 14.5367 8.92117 13.6817 9.67361C12.8266 10.4261 12.7411 11.7086 13.4936 12.5637C13.904 13.0254 14.4683 13.2648 15.0327 13.2648Z" fill="url(#paint19_linear_2076_13987)"/>
<path d="M70.2344 18.9081C70.6619 18.9081 71.1066 18.7713 71.4828 18.4977C72.3891 17.8137 72.5601 16.5311 71.8761 15.6247C71.1921 14.7184 69.9095 14.5474 69.0032 15.2314C68.0968 15.9154 67.9258 17.198 68.6098 18.1044C69.0032 18.6174 69.6188 18.9081 70.2344 18.9081Z" fill="url(#paint20_linear_2076_13987)"/>
<path d="M22.3861 8.52785C23.3779 7.96352 23.7199 6.71515 23.1727 5.7233C22.6084 4.73145 21.36 4.38943 20.3681 4.95376C19.3763 5.51809 19.0343 6.76646 19.5986 7.74121C19.9748 8.40814 20.676 8.78437 21.3942 8.78437C21.7191 8.78437 22.0611 8.69886 22.3861 8.52785Z" fill="url(#paint21_linear_2076_13987)"/>
<path d="M75.8948 38.5571C75.929 39.6686 76.8354 40.5408 77.9469 40.5408C77.964 40.5408 77.9982 40.5408 78.0153 40.5408C79.144 40.5066 80.0332 39.5489 79.999 38.4203C79.9648 37.2916 79.0072 36.4023 77.8785 36.4366C76.7328 36.4707 75.8435 37.4113 75.8948 38.5571Z" fill="url(#paint22_linear_2076_13987)"/>
<path d="M72.4233 24.3633C72.7825 25.0986 73.5178 25.5262 74.2702 25.5262C74.561 25.5262 74.8688 25.4578 75.1595 25.321C76.1855 24.825 76.6131 23.6109 76.1342 22.5848C75.6383 21.5588 74.4241 21.1312 73.3981 21.6101C72.372 22.106 71.9274 23.3372 72.4233 24.3633Z" fill="url(#paint23_linear_2076_13987)"/>
<path d="M74.8859 31.2721C75.1082 32.2126 75.9461 32.8454 76.8867 32.8454C77.0406 32.8454 77.2116 32.8283 77.3655 32.7941C78.46 32.5204 79.144 31.4089 78.8704 30.3144C78.5968 29.22 77.4852 28.5359 76.3907 28.8095C75.2963 29.0661 74.6294 30.1776 74.8859 31.2721Z" fill="url(#paint24_linear_2076_13987)"/>
<path d="M59.5805 4.91956C58.5887 4.35523 57.3403 4.71435 56.7931 5.7062C56.2288 6.69805 56.5879 7.94642 57.5797 8.49365C57.9047 8.66466 58.2467 8.75016 58.5887 8.75016C59.3069 8.75016 60.0081 8.37394 60.3843 7.70701C60.9315 6.73226 60.5724 5.46679 59.5805 4.91956Z" fill="url(#paint25_linear_2076_13987)"/>
<path d="M2.61739 32.8283C2.7884 32.8625 2.94231 32.8796 3.09622 32.8796C4.01967 32.8796 4.85761 32.2468 5.09703 31.3063C5.37064 30.2118 4.68661 29.1003 3.59215 28.8266C2.49769 28.553 1.38613 29.2371 1.11251 30.3315C0.838899 31.4602 1.52294 32.5717 2.61739 32.8283Z" fill="url(#paint26_linear_2076_13987)"/>
<path d="M4.6011 45.9276C4.41299 44.816 3.35273 44.0636 2.24117 44.2517C1.12961 44.4398 0.377175 45.5 0.565285 46.6287C0.736294 47.6205 1.60844 48.3388 2.58319 48.3388C2.7029 48.3388 2.82261 48.3217 2.92521 48.3046C4.05387 48.1165 4.78921 47.0562 4.6011 45.9276Z" fill="url(#paint27_linear_2076_13987)"/>
<path d="M7.13204 58.9414C6.19149 59.557 5.91787 60.8396 6.55061 61.7801C6.94393 62.3786 7.59376 62.7036 8.2607 62.7036C8.65402 62.7036 9.03024 62.601 9.38936 62.3615C10.3299 61.7459 10.6035 60.4633 9.97079 59.5228C9.33805 58.5651 8.07259 58.3086 7.13204 58.9414Z" fill="url(#paint28_linear_2076_13987)"/>
<path d="M4.82341 25.3723C5.11413 25.5091 5.40484 25.5775 5.69556 25.5775C6.4651 25.5775 7.20044 25.1499 7.54246 24.3975C8.03839 23.3715 7.59376 22.1573 6.56771 21.6614C5.54165 21.1825 4.32749 21.6101 3.83156 22.6361C3.36983 23.6622 3.79736 24.8934 4.82341 25.3723Z" fill="url(#paint29_linear_2076_13987)"/>
<path d="M6.58481 53.0073C6.17439 51.9471 4.97732 51.4341 3.91706 51.8445C2.85681 52.2549 2.34378 53.452 2.7542 54.5122C3.07912 55.316 3.84866 55.8119 4.6695 55.8119C4.92602 55.8119 5.18253 55.7606 5.42194 55.6751C6.4822 55.2476 6.99523 54.0505 6.58481 53.0073Z" fill="url(#paint30_linear_2076_13987)"/>
<path d="M1.98466 40.5921C2.00176 40.5921 2.03596 40.5921 2.05306 40.5921C3.14752 40.5921 4.07097 39.7199 4.10517 38.6084C4.13938 37.4797 3.25013 36.5221 2.12147 36.4879C0.992808 36.4537 0.0351563 37.3429 0.00095444 38.4716C-0.0332474 39.6002 0.856 40.5408 1.98466 40.5921Z" fill="url(#paint31_linear_2076_13987)"/>
<path d="M50.842 5.56939C51.0472 5.6378 51.2524 5.672 51.4576 5.672C52.3298 5.672 53.1335 5.10767 53.4071 4.23552C53.7491 3.15816 53.1506 1.9953 52.0732 1.65328C50.9959 1.31126 49.833 1.9098 49.491 2.98715C49.1661 4.08161 49.7646 5.22738 50.842 5.56939Z" fill="url(#paint32_linear_2076_13987)"/>
<path d="M43.6425 4.09871C43.7109 4.09871 43.7793 4.11582 43.8477 4.11582C44.8909 4.11582 45.7801 3.32917 45.8827 2.26892C46.0024 1.14026 45.1816 0.131301 44.0529 0.028696C42.9243 -0.0910105 41.9153 0.729834 41.8127 1.85849C41.693 2.97005 42.5138 3.97901 43.6425 4.09871Z" fill="url(#paint33_linear_2076_13987)"/>
<path d="M36.0839 4.11581C36.1523 4.11581 36.2207 4.11581 36.2891 4.09871C37.4178 3.97901 38.2386 2.97005 38.1189 1.84139C37.9992 0.712733 36.9902 -0.108111 35.8616 0.011595C34.7329 0.131301 33.9121 1.14026 34.0318 2.26892C34.1515 3.32917 35.0407 4.11581 36.0839 4.11581Z" fill="url(#paint34_linear_2076_13987)"/>
<path d="M28.4911 5.6891C28.6963 5.6891 28.9015 5.6549 29.1067 5.58649C30.1841 5.24448 30.7826 4.08161 30.4406 3.00426C30.0986 1.9269 28.9357 1.32837 27.8584 1.67038C26.781 2.0124 26.1825 3.17526 26.5245 4.25262C26.8152 5.12477 27.6189 5.6891 28.4911 5.6891Z" fill="url(#paint35_linear_2076_13987)"/>
<path d="M8.50011 18.5319C8.87633 18.8055 9.30385 18.9423 9.73138 18.9423C10.347 18.9423 10.9626 18.6687 11.3731 18.1386C12.0571 17.2322 11.8861 15.9496 10.9797 15.2656C10.0734 14.5816 8.79082 14.7526 8.10679 15.6589C7.42275 16.5482 7.59376 17.8479 8.50011 18.5319Z" fill="url(#paint36_linear_2076_13987)"/>
<path d="M72.9022 58.89C71.9616 58.2744 70.679 58.5309 70.0634 59.4886C69.4478 60.4291 69.7043 61.7117 70.6619 62.3273C71.004 62.5496 71.3973 62.6694 71.7906 62.6694C72.4575 62.6694 73.1245 62.3444 73.5007 61.7459C74.1163 60.7883 73.8427 59.5057 72.9022 58.89Z" fill="url(#paint37_linear_2076_13987)"/>
<path d="M63.5822 12.7347C63.9755 13.0767 64.4543 13.2477 64.9331 13.2477C65.4975 13.2477 66.0789 13.0083 66.4893 12.5466C67.2247 11.6915 67.1392 10.3919 66.2841 9.65651C65.4291 8.92117 64.1294 9.00668 63.3941 9.86172C62.6245 10.6826 62.7271 11.9822 63.5822 12.7347Z" fill="url(#paint38_linear_2076_13987)"/>
<path d="M76.1 51.7932C75.0398 51.3827 73.8598 51.8958 73.4323 52.956C73.0219 54.0163 73.5349 55.1963 74.5952 55.6238C74.8346 55.7264 75.0911 55.7606 75.3476 55.7606C76.1684 55.7606 76.938 55.2647 77.2629 54.4609C77.6733 53.4007 77.1432 52.2036 76.1 51.7932Z" fill="url(#paint39_linear_2076_13987)"/>
<path d="M66.8484 64.6189C66.3012 64.6189 65.7711 64.8412 65.3949 65.2174C65.0186 65.5936 64.7963 66.1237 64.7963 66.671C64.7963 67.2182 65.0186 67.7483 65.3949 68.1245C65.7711 68.5008 66.3012 68.7231 66.8484 68.7231C67.3957 68.7231 67.9258 68.5008 68.302 68.1245C68.6782 67.7483 68.9006 67.2182 68.9006 66.671C68.9006 66.1237 68.6782 65.5936 68.302 65.2174C67.9087 64.8412 67.3786 64.6189 66.8484 64.6189Z" fill="url(#paint40_linear_2076_13987)"/>
<path d="M40 55.487C35.2801 55.487 30.8852 57.8811 27.6189 62.2418C24.4895 66.4145 22.7623 71.938 22.7623 77.7866C22.7623 78.9152 23.6857 79.8387 24.8144 79.8387H55.1856C56.3143 79.8387 57.2377 78.9152 57.2377 77.7866C57.2377 71.938 55.5105 66.4145 52.3811 62.2418C49.1148 57.8811 44.7199 55.487 40 55.487ZM26.952 75.7345C27.6873 66.671 33.2622 59.5912 40 59.5912C46.7378 59.5912 52.3127 66.671 53.048 75.7345H26.952Z" fill="url(#paint41_linear_2076_13987)"/>
<defs>
<linearGradient id="paint0_linear_2076_13987" x1="0" y1="39.9193" x2="80" y2="39.9193" gradientUnits="userSpaceOnUse">
<stop stop-color="#314160"/>
<stop offset="1" stop-color="#CE5656"/>
</linearGradient>
<linearGradient id="paint1_linear_2076_13987" x1="0" y1="39.9193" x2="80" y2="39.9193" gradientUnits="userSpaceOnUse">
<stop stop-color="#314160"/>
<stop offset="1" stop-color="#CE5656"/>
</linearGradient>
<linearGradient id="paint2_linear_2076_13987" x1="0" y1="39.9193" x2="80" y2="39.9193" gradientUnits="userSpaceOnUse">
<stop stop-color="#314160"/>
<stop offset="1" stop-color="#CE5656"/>
</linearGradient>
<linearGradient id="paint3_linear_2076_13987" x1="0" y1="39.9193" x2="80" y2="39.9193" gradientUnits="userSpaceOnUse">
<stop stop-color="#314160"/>
<stop offset="1" stop-color="#CE5656"/>
</linearGradient>
<linearGradient id="paint4_linear_2076_13987" x1="0" y1="39.9193" x2="80" y2="39.9193" gradientUnits="userSpaceOnUse">
<stop stop-color="#314160"/>
<stop offset="1" stop-color="#CE5656"/>
</linearGradient>
<linearGradient id="paint5_linear_2076_13987" x1="0" y1="39.9193" x2="80" y2="39.9193" gradientUnits="userSpaceOnUse">
<stop stop-color="#314160"/>
<stop offset="1" stop-color="#CE5656"/>
</linearGradient>
<linearGradient id="paint6_linear_2076_13987" x1="0" y1="39.9193" x2="80" y2="39.9193" gradientUnits="userSpaceOnUse">
<stop stop-color="#314160"/>
<stop offset="1" stop-color="#CE5656"/>
</linearGradient>
<linearGradient id="paint7_linear_2076_13987" x1="0" y1="39.9193" x2="80" y2="39.9193" gradientUnits="userSpaceOnUse">
<stop stop-color="#314160"/>
<stop offset="1" stop-color="#CE5656"/>
</linearGradient>
<linearGradient id="paint8_linear_2076_13987" x1="0" y1="39.9193" x2="80" y2="39.9193" gradientUnits="userSpaceOnUse">
<stop stop-color="#314160"/>
<stop offset="1" stop-color="#CE5656"/>
</linearGradient>
<linearGradient id="paint9_linear_2076_13987" x1="0" y1="39.9193" x2="80" y2="39.9193" gradientUnits="userSpaceOnUse">
<stop stop-color="#314160"/>
<stop offset="1" stop-color="#CE5656"/>
</linearGradient>
<linearGradient id="paint10_linear_2076_13987" x1="0" y1="39.9193" x2="80" y2="39.9193" gradientUnits="userSpaceOnUse">
<stop stop-color="#314160"/>
<stop offset="1" stop-color="#CE5656"/>
</linearGradient>
<linearGradient id="paint11_linear_2076_13987" x1="0" y1="39.9193" x2="80" y2="39.9193" gradientUnits="userSpaceOnUse">
<stop stop-color="#314160"/>
<stop offset="1" stop-color="#CE5656"/>
</linearGradient>
<linearGradient id="paint12_linear_2076_13987" x1="0" y1="39.9193" x2="80" y2="39.9193" gradientUnits="userSpaceOnUse">
<stop stop-color="#314160"/>
<stop offset="1" stop-color="#CE5656"/>
</linearGradient>
<linearGradient id="paint13_linear_2076_13987" x1="0" y1="39.9193" x2="80" y2="39.9193" gradientUnits="userSpaceOnUse">
<stop stop-color="#314160"/>
<stop offset="1" stop-color="#CE5656"/>
</linearGradient>
<linearGradient id="paint14_linear_2076_13987" x1="0" y1="39.9193" x2="80" y2="39.9193" gradientUnits="userSpaceOnUse">
<stop stop-color="#314160"/>
<stop offset="1" stop-color="#CE5656"/>
</linearGradient>
<linearGradient id="paint15_linear_2076_13987" x1="0" y1="39.9193" x2="80" y2="39.9193" gradientUnits="userSpaceOnUse">
<stop stop-color="#314160"/>
<stop offset="1" stop-color="#CE5656"/>
</linearGradient>
<linearGradient id="paint16_linear_2076_13987" x1="0" y1="39.9193" x2="80" y2="39.9193" gradientUnits="userSpaceOnUse">
<stop stop-color="#314160"/>
<stop offset="1" stop-color="#CE5656"/>
</linearGradient>
<linearGradient id="paint17_linear_2076_13987" x1="0" y1="39.9193" x2="80" y2="39.9193" gradientUnits="userSpaceOnUse">
<stop stop-color="#314160"/>
<stop offset="1" stop-color="#CE5656"/>
</linearGradient>
<linearGradient id="paint18_linear_2076_13987" x1="0" y1="39.9193" x2="80" y2="39.9193" gradientUnits="userSpaceOnUse">
<stop stop-color="#314160"/>
<stop offset="1" stop-color="#CE5656"/>
</linearGradient>
<linearGradient id="paint19_linear_2076_13987" x1="0" y1="39.9193" x2="80" y2="39.9193" gradientUnits="userSpaceOnUse">
<stop stop-color="#314160"/>
<stop offset="1" stop-color="#CE5656"/>
</linearGradient>
<linearGradient id="paint20_linear_2076_13987" x1="0" y1="39.9193" x2="80" y2="39.9193" gradientUnits="userSpaceOnUse">
<stop stop-color="#314160"/>
<stop offset="1" stop-color="#CE5656"/>
</linearGradient>
<linearGradient id="paint21_linear_2076_13987" x1="0" y1="39.9193" x2="80" y2="39.9193" gradientUnits="userSpaceOnUse">
<stop stop-color="#314160"/>
<stop offset="1" stop-color="#CE5656"/>
</linearGradient>
<linearGradient id="paint22_linear_2076_13987" x1="0" y1="39.9193" x2="80" y2="39.9193" gradientUnits="userSpaceOnUse">
<stop stop-color="#314160"/>
<stop offset="1" stop-color="#CE5656"/>
</linearGradient>
<linearGradient id="paint23_linear_2076_13987" x1="0" y1="39.9193" x2="80" y2="39.9193" gradientUnits="userSpaceOnUse">
<stop stop-color="#314160"/>
<stop offset="1" stop-color="#CE5656"/>
</linearGradient>
<linearGradient id="paint24_linear_2076_13987" x1="0" y1="39.9193" x2="80" y2="39.9193" gradientUnits="userSpaceOnUse">
<stop stop-color="#314160"/>
<stop offset="1" stop-color="#CE5656"/>
</linearGradient>
<linearGradient id="paint25_linear_2076_13987" x1="0" y1="39.9193" x2="80" y2="39.9193" gradientUnits="userSpaceOnUse">
<stop stop-color="#314160"/>
<stop offset="1" stop-color="#CE5656"/>
</linearGradient>
<linearGradient id="paint26_linear_2076_13987" x1="0" y1="39.9193" x2="80" y2="39.9193" gradientUnits="userSpaceOnUse">
<stop stop-color="#314160"/>
<stop offset="1" stop-color="#CE5656"/>
</linearGradient>
<linearGradient id="paint27_linear_2076_13987" x1="0" y1="39.9193" x2="80" y2="39.9193" gradientUnits="userSpaceOnUse">
<stop stop-color="#314160"/>
<stop offset="1" stop-color="#CE5656"/>
</linearGradient>
<linearGradient id="paint28_linear_2076_13987" x1="0" y1="39.9193" x2="80" y2="39.9193" gradientUnits="userSpaceOnUse">
<stop stop-color="#314160"/>
<stop offset="1" stop-color="#CE5656"/>
</linearGradient>
<linearGradient id="paint29_linear_2076_13987" x1="0" y1="39.9193" x2="80" y2="39.9193" gradientUnits="userSpaceOnUse">
<stop stop-color="#314160"/>
<stop offset="1" stop-color="#CE5656"/>
</linearGradient>
<linearGradient id="paint30_linear_2076_13987" x1="0" y1="39.9193" x2="80" y2="39.9193" gradientUnits="userSpaceOnUse">
<stop stop-color="#314160"/>
<stop offset="1" stop-color="#CE5656"/>
</linearGradient>
<linearGradient id="paint31_linear_2076_13987" x1="0" y1="39.9193" x2="80" y2="39.9193" gradientUnits="userSpaceOnUse">
<stop stop-color="#314160"/>
<stop offset="1" stop-color="#CE5656"/>
</linearGradient>
<linearGradient id="paint32_linear_2076_13987" x1="0" y1="39.9193" x2="80" y2="39.9193" gradientUnits="userSpaceOnUse">
<stop stop-color="#314160"/>
<stop offset="1" stop-color="#CE5656"/>
</linearGradient>
<linearGradient id="paint33_linear_2076_13987" x1="0" y1="39.9193" x2="80" y2="39.9193" gradientUnits="userSpaceOnUse">
<stop stop-color="#314160"/>
<stop offset="1" stop-color="#CE5656"/>
</linearGradient>
<linearGradient id="paint34_linear_2076_13987" x1="0" y1="39.9193" x2="80" y2="39.9193" gradientUnits="userSpaceOnUse">
<stop stop-color="#314160"/>
<stop offset="1" stop-color="#CE5656"/>
</linearGradient>
<linearGradient id="paint35_linear_2076_13987" x1="0" y1="39.9193" x2="80" y2="39.9193" gradientUnits="userSpaceOnUse">
<stop stop-color="#314160"/>
<stop offset="1" stop-color="#CE5656"/>
</linearGradient>
<linearGradient id="paint36_linear_2076_13987" x1="0" y1="39.9193" x2="80" y2="39.9193" gradientUnits="userSpaceOnUse">
<stop stop-color="#314160"/>
<stop offset="1" stop-color="#CE5656"/>
</linearGradient>
<linearGradient id="paint37_linear_2076_13987" x1="0" y1="39.9193" x2="80" y2="39.9193" gradientUnits="userSpaceOnUse">
<stop stop-color="#314160"/>
<stop offset="1" stop-color="#CE5656"/>
</linearGradient>
<linearGradient id="paint38_linear_2076_13987" x1="0" y1="39.9193" x2="80" y2="39.9193" gradientUnits="userSpaceOnUse">
<stop stop-color="#314160"/>
<stop offset="1" stop-color="#CE5656"/>
</linearGradient>
<linearGradient id="paint39_linear_2076_13987" x1="0" y1="39.9193" x2="80" y2="39.9193" gradientUnits="userSpaceOnUse">
<stop stop-color="#314160"/>
<stop offset="1" stop-color="#CE5656"/>
</linearGradient>
<linearGradient id="paint40_linear_2076_13987" x1="0" y1="39.9193" x2="80" y2="39.9193" gradientUnits="userSpaceOnUse">
<stop stop-color="#314160"/>
<stop offset="1" stop-color="#CE5656"/>
</linearGradient>
<linearGradient id="paint41_linear_2076_13987" x1="0" y1="39.9193" x2="80" y2="39.9193" gradientUnits="userSpaceOnUse">
<stop stop-color="#314160"/>
<stop offset="1" stop-color="#CE5656"/>
</linearGradient>
</defs>
</svg>
