<svg width="80" height="72" viewBox="0 0 80 72" fill="none" xmlns="http://www.w3.org/2000/svg">
<path d="M78.4375 58.75H76.875V10.1308C76.875 6.67391 74.0498 3.90625 70.5931 3.90625H31.4062V1.50187C31.4062 0.639062 30.6652 0 29.8022 0H1.5625C0.699531 0 0 0.639062 0 1.50187V17.1906C0 18.0536 0.699531 18.75 1.5625 18.75H3.125V58.75H1.5625C0.699531 58.75 0 59.4719 0 60.3348V65.0416C0 68.4983 2.81234 71.25 6.26906 71.25H73.7309C77.1877 71.25 80 68.4983 80 65.0416V60.3348C80 59.4719 79.3003 58.75 78.4375 58.75ZM44.6875 46.2213C43.8247 46.2213 43.125 46.9209 43.125 47.7838V50.9375H35.3125V47.7838C35.3125 46.9209 34.613 46.2213 33.75 46.2213C32.887 46.2213 32.1875 46.9209 32.1875 47.7838V50.9375H29.0625V38.3514C29.0625 36.6283 30.4133 35.1562 32.1366 35.1562H32.9111L37.9356 42.3692C38.5645 43.268 39.8433 43.2928 40.4958 42.3605L45.5202 35.1562H46.2947C48.0178 35.1562 49.375 36.6283 49.375 38.3514V50.9375H46.25V47.7838C46.25 46.9209 45.5503 46.2213 44.6875 46.2213ZM34.5025 27.3884C34.5025 24.7895 36.6167 22.6753 39.2155 22.6753C41.8142 22.6753 43.9284 24.7895 43.9284 27.3884C43.9284 29.9872 41.8142 32.1014 39.2155 32.1014C36.6167 32.1014 34.5025 29.9872 34.5025 27.3884ZM41.7055 35.1562L39.2155 38.7134L36.7256 35.1562H41.7055ZM46.2947 32.0312H45.4736C46.4647 30.7812 47.0534 29.1213 47.0534 27.3533C47.0534 23.0314 43.5373 19.5327 39.2155 19.5327C34.8936 19.5327 31.3775 23.0225 31.3775 27.3445C31.3775 29.1123 31.9664 30.7812 32.9573 32.0312H32.1364C28.6903 32.0312 25.9375 34.9053 25.9375 38.3514V50.9375H14.0625V18.75H16.7305L22.5892 23.1456C22.865 23.3523 23.1948 23.4589 23.5269 23.4589C24.4752 23.4589 25.1562 22.6953 25.1562 21.8972V18.75H29.8022C30.665 18.75 31.4062 18.0536 31.4062 17.1906V14.8438H65.9375V50.9375H52.5V38.3514C52.5 34.9053 49.7409 32.0312 46.2947 32.0312ZM3.125 3.125H28.2812V15.625H23.5267C22.6639 15.625 22.0312 16.3278 22.0312 17.1906V18.7722L18.2223 15.9391C17.9519 15.7362 17.5895 15.625 17.2514 15.625H3.125V3.125ZM6.25 18.75H10.9375V52.4905C10.9375 53.3533 11.6819 54.0625 12.5447 54.0625H67.4553C68.3181 54.0625 69.0625 53.3533 69.0625 52.4905V13.2684C69.0625 12.4056 68.3181 11.7188 67.4553 11.7188H31.4062V7.03125H70.5931C72.3269 7.03125 73.75 8.39703 73.75 10.1308V58.75H51.7666C51.3522 58.75 50.9547 58.9083 50.6617 59.2012L47.9816 61.875H32.0184L29.3384 59.2012C29.0455 58.9083 28.648 58.75 28.2336 58.75H6.25V18.75ZM76.875 65.0416C76.875 66.7753 75.4647 68.125 73.7309 68.125H6.26906C4.53531 68.125 3.125 66.7752 3.125 65.0416V61.875H27.5863L30.2662 64.5488C30.5592 64.8417 30.9567 65 31.3711 65H48.6287C49.0431 65 49.4406 64.8417 49.7336 64.5488L52.4137 61.875H76.875V65.0416Z" fill="url(#paint0_linear_2076_13975)"/>
<path d="M22.7422 10.9092C23.6051 10.9092 24.3047 10.2097 24.3047 9.34672C24.3047 8.48377 23.6051 7.78422 22.7422 7.78422C21.8792 7.78422 21.1797 8.48377 21.1797 9.34672C21.1797 10.2097 21.8792 10.9092 22.7422 10.9092Z" fill="url(#paint1_linear_2076_13975)"/>
<path d="M15.6828 10.9092C16.5458 10.9092 17.2453 10.2097 17.2453 9.34672C17.2453 8.48377 16.5458 7.78422 15.6828 7.78422C14.8199 7.78422 14.1203 8.48377 14.1203 9.34672C14.1203 10.2097 14.8199 10.9092 15.6828 10.9092Z" fill="url(#paint2_linear_2076_13975)"/>
<path d="M8.62328 10.9092C9.48266 10.9092 10.1858 10.2066 10.1858 9.34672C10.1858 8.49312 9.49234 7.78422 8.62328 7.78422C7.75203 7.78422 7.05922 8.49 7.05922 9.34672C7.05938 10.203 7.75547 10.9092 8.62328 10.9092Z" fill="url(#paint3_linear_2076_13975)"/>
<defs>
<linearGradient id="paint0_linear_2076_13975" x1="0" y1="35.625" x2="80" y2="35.625" gradientUnits="userSpaceOnUse">
<stop stop-color="#314160"/>
<stop offset="1" stop-color="#CE5656"/>
</linearGradient>
<linearGradient id="paint1_linear_2076_13975" x1="0" y1="35.625" x2="80" y2="35.625" gradientUnits="userSpaceOnUse">
<stop stop-color="#314160"/>
<stop offset="1" stop-color="#CE5656"/>
</linearGradient>
<linearGradient id="paint2_linear_2076_13975" x1="0" y1="35.625" x2="80" y2="35.625" gradientUnits="userSpaceOnUse">
<stop stop-color="#314160"/>
<stop offset="1" stop-color="#CE5656"/>
</linearGradient>
<linearGradient id="paint3_linear_2076_13975" x1="0" y1="35.625" x2="80" y2="35.625" gradientUnits="userSpaceOnUse">
<stop stop-color="#314160"/>
<stop offset="1" stop-color="#CE5656"/>
</linearGradient>
</defs>
</svg>
