<svg width="80" height="80" viewBox="0 0 80 80" fill="none" xmlns="http://www.w3.org/2000/svg">
<path d="M68.8436 25.1875H2.61719C1.87078 25.1875 1.26562 24.5823 1.26562 23.8359V7.61719C1.26562 6.87078 1.87078 6.26562 2.61719 6.26562H68.8434C69.5898 6.26562 70.195 6.87078 70.195 7.61719V23.8359C70.195 24.5825 69.5898 25.1875 68.8436 25.1875Z" fill="white"/>
<path d="M18.8359 25.1875H2.61719C1.87078 25.1875 1.26562 24.5823 1.26562 23.8359V7.61719C1.26562 6.87078 1.87078 6.26562 2.61719 6.26562H18.8359V25.1875Z" fill="#CE5656"/>
<path d="M68.8436 49.5156H2.61719C1.87078 49.5156 1.26562 48.9105 1.26562 48.1641V31.9453C1.26562 31.1989 1.87078 30.5938 2.61719 30.5938H68.8434C69.5898 30.5938 70.195 31.1989 70.195 31.9453V48.1641C70.195 48.9105 69.5898 49.5156 68.8436 49.5156Z" fill="white"/>
<path d="M18.8359 49.5156H2.61719C1.87078 49.5156 1.26562 48.9105 1.26562 48.1641V31.9453C1.26562 31.1989 1.87078 30.5938 2.61719 30.5938H18.8359V49.5156Z" fill="#CE5656"/>
<path d="M68.8436 73.8436H2.61719C1.87078 73.8436 1.26562 73.2384 1.26562 72.492V56.2734C1.26562 55.527 1.87078 54.9219 2.61719 54.9219H68.8434C69.5898 54.9219 70.195 55.527 70.195 56.2734V72.4922C70.195 73.2384 69.5898 73.8436 68.8436 73.8436Z" fill="white"/>
<path d="M18.8359 73.8436H2.61719C1.87078 73.8436 1.26562 73.2384 1.26562 72.492V56.2734C1.26562 55.527 1.87078 54.9219 2.61719 54.9219H18.8359V73.8436Z" fill="#CE5656"/>
<path d="M64.7891 42.7578V62.4417L69.1069 59.6117L73.8148 70.9778L78.3611 69.0945L73.6531 57.7287L78.7317 56.7006L64.7891 42.7578Z" fill="#CE5656"/>
<path d="M2.61859 26.4559H68.8448C70.2887 26.4559 71.4634 25.2812 71.4634 23.8373V7.61859C71.4634 6.17469 70.2887 5 68.8448 5H2.61859C1.17469 5 0 6.17469 0 7.61859V23.8373C0 25.2812 1.17469 26.4559 2.61859 26.4559ZM68.9293 7.61859V23.8373C68.9293 23.8839 68.8915 23.9219 68.8448 23.9219H20.1044V7.53406H68.8448C68.8914 7.53406 68.9293 7.57203 68.9293 7.61859ZM2.53422 7.61859C2.53422 7.57203 2.57203 7.53406 2.61875 7.53406H17.5703V23.9217H2.61875C2.57219 23.9217 2.53422 23.8839 2.53422 23.8372V7.61859Z" fill="#314160"/>
<path d="M24.2436 14.2919H47.22C47.9198 14.2919 48.487 13.7245 48.487 13.0248C48.487 12.3252 47.9197 11.7578 47.22 11.7578H24.2436C23.5437 11.7578 22.9766 12.3252 22.9766 13.0248C22.9766 13.7245 23.5437 14.2919 24.2436 14.2919Z" fill="#314160"/>
<path d="M35.1406 18.4311C35.1406 19.1309 35.708 19.6981 36.4077 19.6981H63.4389C64.1387 19.6981 64.7059 19.1308 64.7059 18.4311C64.7059 17.7314 64.1386 17.1641 63.4389 17.1641H36.4077C35.7078 17.1639 35.1406 17.7312 35.1406 18.4311Z" fill="#314160"/>
<path d="M31.0017 17.1641H24.2436C23.5437 17.1641 22.9766 17.7314 22.9766 18.4311C22.9766 19.1308 23.5439 19.6981 24.2436 19.6981H31.0017C31.7016 19.6981 32.2687 19.1308 32.2687 18.4311C32.2687 17.7314 31.7014 17.1641 31.0017 17.1641Z" fill="#314160"/>
<path d="M6.67328 14.9677C7.37312 14.9677 7.94031 14.4003 7.94031 13.7006C7.94031 12.5361 8.88765 11.5887 10.0522 11.5887C11.2167 11.5887 12.1641 12.5362 12.1641 13.7006C12.1641 14.865 11.2167 15.8125 10.0522 15.8125C9.35234 15.8125 8.78515 16.3798 8.78515 17.0795C8.78515 17.7792 9.3525 18.3466 10.0522 18.3466C12.6141 18.3466 14.6981 16.2625 14.6981 13.7006C14.6981 11.1387 12.6141 9.05469 10.0522 9.05469C7.49031 9.05469 5.40625 11.1389 5.40625 13.7006C5.40625 14.4003 5.97359 14.9677 6.67328 14.9677Z" fill="white"/>
<path d="M10.0667 19.8672H10.0533C9.35344 19.8672 8.79297 20.4345 8.79297 21.1342C8.79297 21.8341 9.36703 22.4012 10.0669 22.4012C10.7667 22.4012 11.3339 21.8339 11.3339 21.1342C11.3337 20.4345 10.7664 19.8672 10.0667 19.8672Z" fill="white"/>
<path d="M24.2436 38.62H47.22C47.9198 38.62 48.487 38.0527 48.487 37.353C48.487 36.6531 47.9197 36.0859 47.22 36.0859H24.2436C23.5437 36.0859 22.9766 36.6533 22.9766 37.353C22.9764 38.0527 23.5437 38.62 24.2436 38.62Z" fill="#314160"/>
<path d="M59.3842 41.4922H36.4077C35.7078 41.4922 35.1406 42.0595 35.1406 42.7592C35.1406 43.4589 35.708 44.0262 36.4077 44.0262H59.3842C60.0841 44.0262 60.6512 43.4589 60.6512 42.7592C60.6512 42.0595 60.0839 41.4922 59.3842 41.4922Z" fill="#314160"/>
<path d="M31.0017 41.4922H24.2436C23.5437 41.4922 22.9766 42.0595 22.9766 42.7592C22.9766 43.4589 23.5439 44.0262 24.2436 44.0262H31.0017C31.7016 44.0262 32.2687 43.4589 32.2687 42.7592C32.2687 42.0595 31.7014 41.4922 31.0017 41.4922Z" fill="#314160"/>
<path d="M10.0522 33.3828C7.49031 33.3828 5.40625 35.4669 5.40625 38.0287C5.40625 38.7286 5.97359 39.2958 6.67328 39.2958C7.37297 39.2958 7.94031 38.7284 7.94031 38.0287C7.94031 36.8642 8.88765 35.9169 10.0522 35.9169C11.2167 35.9169 12.1641 36.8642 12.1641 38.0287C12.1641 39.1933 11.2167 40.1406 10.0522 40.1406C9.35234 40.1406 8.78515 40.708 8.78515 41.4077C8.78515 42.1073 9.3525 42.6747 10.0522 42.6747C12.6141 42.6747 14.6981 40.5906 14.6981 38.0287C14.6981 35.4669 12.6141 33.3828 10.0522 33.3828Z" fill="white"/>
<path d="M10.0667 44.1953H10.0533C9.35344 44.1953 8.79297 44.7627 8.79297 45.4623C8.79297 46.162 9.36703 46.7294 10.0669 46.7294C10.7667 46.7294 11.3339 46.162 11.3339 45.4623C11.3339 44.7627 10.7664 44.1953 10.0667 44.1953Z" fill="white"/>
<path d="M24.2436 62.9481H47.22C47.9198 62.9481 48.487 62.3808 48.487 61.6811C48.487 60.9814 47.9197 60.4141 47.22 60.4141H24.2436C23.5437 60.4141 22.9766 60.9814 22.9766 61.6811C22.9766 62.3808 23.5437 62.9481 24.2436 62.9481Z" fill="#314160"/>
<path d="M60.7358 65.8203H36.4077C35.7078 65.8203 35.1406 66.3877 35.1406 67.0873C35.1406 67.787 35.708 68.3544 36.4077 68.3544H60.7358C61.4356 68.3544 62.0028 67.787 62.0028 67.0873C62.0028 66.3877 61.4355 65.8203 60.7358 65.8203Z" fill="#314160"/>
<path d="M31.0017 65.8203H24.2436C23.5437 65.8203 22.9766 66.3877 22.9766 67.0873C22.9766 67.787 23.5439 68.3544 24.2436 68.3544H31.0017C31.7016 68.3544 32.2687 67.787 32.2687 67.0873C32.2687 66.3877 31.7014 65.8203 31.0017 65.8203Z" fill="#314160"/>
<path d="M10.0522 57.7109C7.49031 57.7109 5.40625 59.795 5.40625 62.3569C5.40625 63.0567 5.97359 63.6239 6.67328 63.6239C7.37297 63.6239 7.94031 63.0566 7.94031 62.3569C7.94031 61.1923 8.88765 60.245 10.0522 60.245C11.2167 60.245 12.1641 61.1923 12.1641 62.3569C12.1641 63.5214 11.2167 64.4687 10.0522 64.4687C9.35234 64.4687 8.78515 65.0361 8.78515 65.7358C8.78515 66.4355 9.3525 67.0028 10.0522 67.0028C12.6141 67.0028 14.6981 64.9187 14.6981 62.3569C14.6981 59.7952 12.6141 57.7109 10.0522 57.7109Z" fill="white"/>
<path d="M10.0667 68.5234H10.0533C9.35344 68.5234 8.79297 69.0908 8.79297 69.7905C8.79297 70.4902 9.36703 71.0575 10.0669 71.0575C10.7667 71.0575 11.3339 70.4902 11.3339 69.7905C11.3339 69.0908 10.7664 68.5234 10.0667 68.5234Z" fill="white"/>
<path d="M79.9461 57.0678C80.0807 56.6209 79.9589 56.1361 79.6289 55.8061L71.4634 47.6406V31.9467C71.4634 30.5028 70.2887 29.3281 68.8448 29.3281H2.61859C1.17469 29.3281 0 30.5028 0 31.9467V48.1655C0 49.6094 1.17469 50.784 2.61859 50.784H63.5231V53.6561H2.61859C1.17469 53.6561 0 54.8308 0 56.2748V72.4936C0 73.9375 1.17469 75.1122 2.61859 75.1122H68.8448C70.2887 75.1122 71.4634 73.9375 71.4634 72.4936V68.6106L72.6453 71.464C72.7739 71.7745 73.0204 72.0212 73.3311 72.1498C73.4864 72.214 73.6512 72.2462 73.8159 72.2462C73.9806 72.2462 74.1454 72.2142 74.3007 72.1498L78.8472 70.2665C79.4937 69.9987 79.8007 69.2575 79.5329 68.6111L75.4137 58.6667L78.984 57.944C79.4418 57.8514 79.8114 57.5147 79.9461 57.0678ZM2.53422 48.1655V31.9467C2.53422 31.9002 2.57203 31.8622 2.61875 31.8622H17.5703V48.2498H2.61875C2.57203 48.25 2.53422 48.212 2.53422 48.1655ZM20.1044 48.25V31.8623H68.8448C68.8914 31.8623 68.9293 31.9002 68.9293 31.9469V45.1067L65.6861 41.8634C65.3237 41.5009 64.7786 41.3926 64.3053 41.5887C63.8317 41.7848 63.5231 42.247 63.5231 42.7594V48.25H20.1044ZM2.53422 72.4934V56.2748C2.53422 56.2283 2.57203 56.1903 2.61875 56.1903H17.5703V72.5779H2.61875C2.57203 72.5779 2.53422 72.5401 2.53422 72.4934ZM68.9293 72.4934C68.9293 72.54 68.8915 72.5779 68.8448 72.5779H20.1044V56.1903H63.5231V62.4431C63.5231 62.9086 63.7784 63.3367 64.1879 63.5579C64.5975 63.7792 65.0954 63.7581 65.4848 63.5029L68.5231 61.5115L68.9293 62.4925V72.4934ZM73.4031 56.488C73.032 56.5631 72.7139 56.8003 72.5359 57.1345C72.3579 57.4689 72.3389 57.865 72.4837 58.215L76.7068 68.4103L74.5018 69.3237L70.2787 59.1284C70.1343 58.7797 69.842 58.5136 69.4814 58.4025C69.359 58.3648 69.2334 58.3462 69.1084 58.3462C68.8643 58.3462 68.6225 58.4167 68.4137 58.5536L66.0576 60.098V45.8184L76.1679 55.9287L73.4031 56.488Z" fill="#314160"/>
</svg>
