<svg width="80" height="80" viewBox="0 0 80 80" fill="none" xmlns="http://www.w3.org/2000/svg">
<path fill-rule="evenodd" clip-rule="evenodd" d="M9.85938 74.1406H66.1094V37.6356C64.4716 38.3036 62.6795 38.6717 60.8016 38.6717C53.035 38.6717 46.7391 32.3758 46.7391 24.6092C46.7391 16.8427 53.035 10.5467 60.8016 10.5467C62.6795 10.5467 64.4716 10.9148 66.1094 11.5828V1.17188H9.85938V74.1406ZM16.8906 28.2812H21.5781V32.9688H16.8906V28.2812ZM16.8906 54.0623H21.5781V58.7498H16.8906V54.0623ZM16.8906 41.1719H21.5781V45.8594H16.8906V41.1719Z" fill="white"/>
<path fill-rule="evenodd" clip-rule="evenodd" d="M16.8906 28.2812H21.5781V32.9688H16.8906V28.2812Z" fill="#CE5656"/>
<path fill-rule="evenodd" clip-rule="evenodd" d="M16.8906 41.1719H21.5781V45.8594H16.8906V41.1719Z" fill="#CE5656"/>
<path fill-rule="evenodd" clip-rule="evenodd" d="M16.8906 54.0625H21.5781V58.75H16.8906V54.0625Z" fill="#CE5656"/>
<path fill-rule="evenodd" clip-rule="evenodd" d="M61.4219 74.1406H9.85938V5.85938H5.17188V78.8281H61.4219V74.1406Z" fill="#CE5656"/>
<path fill-rule="evenodd" clip-rule="evenodd" d="M54.1719 21.7092C55.0833 20.7978 56.575 20.7978 57.4864 21.7092L59.9723 24.1952L64.1155 20.0519C65.0269 19.1405 66.5184 19.1405 67.43 20.0519C68.3416 20.9634 68.3416 22.4548 67.43 23.3664L61.6295 29.1669C60.718 30.0784 59.2266 30.0784 58.315 29.1669L54.1719 25.0236C53.2602 24.1122 53.2602 22.6208 54.1719 21.7092ZM46.7383 24.6094C46.7383 32.3759 53.0342 38.6719 60.8008 38.6719C68.5212 38.6719 74.8633 32.4219 74.8633 24.6094C74.8633 16.7969 68.5212 10.5469 60.8008 10.5469C53.0344 10.5469 46.7383 16.843 46.7383 24.6094Z" fill="#CE5656"/>
<path fill-rule="evenodd" clip-rule="evenodd" d="M57.4865 21.7079C56.5751 20.7965 55.0835 20.7965 54.172 21.7079C53.2604 22.6195 53.2604 24.1109 54.172 25.0225L58.3151 29.1657C59.2266 30.0773 60.718 30.0773 61.6296 29.1657L67.4301 23.3653C68.3416 22.4537 68.3416 20.9623 67.4301 20.0507C66.5185 19.1393 65.027 19.1393 64.1155 20.0507L59.9724 24.194L57.4865 21.7079Z" fill="white"/>
<path d="M39.7422 40H52.0469V42.3438H39.7422V40Z" fill="#314160"/>
<path d="M25.0938 44.6875H59.078V47.0312H25.0938V44.6875Z" fill="#314160"/>
<path d="M25.0938 52.8906H59.078V55.2344H25.0938V52.8906Z" fill="#314160"/>
<path d="M25.0938 57.5781H59.078V59.9219H25.0938V57.5781Z" fill="#314160"/>
<path d="M25.0938 31.7969H45.0156V34.1406H25.0938V31.7969Z" fill="#314160"/>
<path d="M25.0938 40H37.3984V42.3438H25.0938V40Z" fill="#314160"/>
<path d="M25.0938 27.1094H42.672V29.4531H25.0938V27.1094Z" fill="#314160"/>
<path d="M15.7188 20.0781H30.9531V22.4219H15.7188V20.0781Z" fill="#314160"/>
<path d="M15.7188 15.3906H30.9531V17.7344H15.7188V15.3906Z" fill="#314160"/>
<path d="M76.0359 24.6092C76.0359 18.5248 72.4502 13.263 67.2812 10.8236V0H8.6875V4.6875H4V80H53.2188V77.6562H6.34375V7.03125H8.6875V11.7188H11.0312V2.34375H64.9375V9.94563C63.6219 9.57406 62.2345 9.37484 60.8016 9.37484C52.4013 9.37484 45.5672 16.2089 45.5672 24.6092C45.5672 33.0095 52.4013 39.8436 60.8016 39.8436C62.2345 39.8436 63.6217 39.6444 64.9375 39.2728V72.9688H11.0312V14.0625H8.6875V75.3125H60.25V77.6562H55.5625V80H62.5938V75.3125H67.2811V38.3948C72.4502 35.9555 76.0359 30.6936 76.0359 24.6092ZM60.8016 37.4998C53.6938 37.4998 47.9109 31.717 47.9109 24.6092C47.9109 17.5014 53.6938 11.7186 60.8016 11.7186C67.9094 11.7186 73.6922 17.5014 73.6922 24.6092C73.6922 31.717 67.9094 37.4998 60.8016 37.4998Z" fill="#314160"/>
<path d="M60.25 4.6875H62.5938V7.03125H60.25V4.6875Z" fill="#314160"/>
<path d="M55.5625 4.6875H57.9062V7.03125H55.5625V4.6875Z" fill="#314160"/>
<path d="M63.288 19.2231L59.9734 22.5378L58.3161 20.8805C56.9456 19.51 54.7152 19.51 53.3444 20.8805C51.9738 22.2513 51.9738 24.4817 53.3444 25.8525L57.4878 29.9958C58.1731 30.6811 59.0733 31.0236 59.9736 31.0236C60.8739 31.0236 61.7741 30.6811 62.4595 29.9958L68.26 24.1953C68.922 23.5331 69.2869 22.6502 69.2869 21.7094C69.2869 20.7685 68.922 19.8855 68.2598 19.2233C66.8889 17.8527 64.6587 17.8527 63.288 19.2231ZM66.6025 22.5378L60.8022 28.3383C60.345 28.7952 59.6014 28.7952 59.145 28.3383L55.0017 24.195C54.7822 23.9756 54.6612 23.6813 54.6612 23.3664C54.6612 23.0514 54.782 22.7572 55.0016 22.5377C55.2302 22.3092 55.5302 22.195 55.8303 22.195C56.1305 22.195 56.4305 22.3092 56.6589 22.5377L59.9736 25.8522L64.9455 20.8805C65.4022 20.4238 66.1456 20.4235 66.6025 20.8805C67.0595 21.3375 67.0595 22.081 66.6025 22.5378Z" fill="#314160"/>
<path d="M15.7188 34.1406H22.75V27.1094H15.7188V34.1406ZM18.0625 29.4531H20.4062V31.7969H18.0625V29.4531Z" fill="#314160"/>
<path d="M15.7188 47.0312H22.75V40H15.7188V47.0312ZM18.0625 42.3438H20.4062V44.6875H18.0625V42.3438Z" fill="#314160"/>
<path d="M15.7188 59.9219H22.75V52.8906H15.7188V59.9219ZM18.0625 55.2344H20.4062V57.5781H18.0625V55.2344Z" fill="#314160"/>
</svg>
