<svg width="90" height="60" viewBox="0 0 90 60" fill="none" xmlns="http://www.w3.org/2000/svg">
<path d="M0.181249 30.7249C0.401701 31.1658 0.769122 31.4964 1.2284 31.6434L12.7287 35.5932C12.9308 35.6667 13.1145 35.685 13.3166 35.685C14.0698 35.685 14.7862 35.2074 15.0434 34.4542L24.0636 8.12846L24.5229 8.2938C26.856 9.12049 29.4647 8.97353 31.6876 7.88964L32.8082 7.3385C34.1493 6.69552 35.7109 6.58529 37.1071 7.08131L58.0868 14.3195C57.8664 15.1278 57.4438 16.0648 56.709 16.5791C55.8639 17.167 54.5596 17.167 52.8511 16.5791L43.4451 13.3642C42.9674 13.1989 42.4347 13.254 41.9938 13.4928C41.5529 13.7316 41.2222 14.1542 41.0936 14.6318C41.0752 14.6869 39.7525 19.5369 35.6741 21.723C33.1022 23.1009 29.8872 23.1376 26.1212 21.8516C25.1659 21.521 24.1371 22.0353 23.8064 22.9906C23.4757 23.9459 23.9901 24.9747 24.9454 25.3054C27.15 26.0586 29.2443 26.4444 31.1916 26.4444C33.4512 26.4444 35.5272 25.93 37.4194 24.9196C41.0936 22.9355 43.0409 19.5185 43.9411 17.4058L51.6569 20.0513C54.5228 21.0249 56.9111 20.878 58.7665 19.592C61.6875 17.5712 61.8896 13.6214 61.908 13.1805C61.9264 12.3905 61.4303 11.6741 60.6771 11.3985L38.2644 3.66429C35.9497 2.87434 33.3777 3.02131 31.1732 4.1052L30.0526 4.65633C28.6931 5.31769 27.1132 5.40954 25.6986 4.91353L23.8432 4.25217C23.7329 4.17868 23.6227 4.12357 23.4941 4.08683L12.0489 0.100309C11.0937 -0.23037 10.0649 0.28402 9.7342 1.23931L0.0893935 29.347C-0.0575749 29.7879 -0.0208328 30.2839 0.181249 30.7249ZM12.6001 4.12357L20.6466 6.87923L12.1959 31.5515L4.1494 28.7959L12.6001 4.12357Z" fill="url(#paint0_linear_2076_13963)"/>
<path d="M19.1218 47.3874C20.022 49.2245 21.8223 50.29 23.7329 50.3635C23.7329 51.1535 23.9166 51.9618 24.2657 52.6966C24.8903 53.9826 25.9742 54.9379 27.3337 55.3972C27.9032 55.5993 28.491 55.6911 29.0605 55.6911C29.8689 55.6911 30.6588 55.5074 31.3937 55.14L32.349 54.6623C32.4224 55.2135 32.5878 55.783 32.845 56.3157C33.4696 57.6017 34.5535 58.557 35.9129 59.0163C36.4824 59.2183 37.0703 59.3102 37.6398 59.3102C38.4481 59.3102 39.2381 59.1265 39.9729 58.7591L60.8608 48.5264C65.5271 46.2484 69.8259 43.309 73.6471 39.8002L78.3133 35.5197L88.9869 30.3023C89.8871 29.8614 90.2545 28.7775 89.8136 27.8773L76.8069 1.1842C76.5865 0.743295 76.219 0.412616 75.7598 0.265648C75.3005 0.100308 74.8045 0.13705 74.3636 0.357503L63.4511 5.70348C62.551 6.14438 62.1835 7.22828 62.6245 8.12846L75.08 33.5907L71.2221 37.1364C67.6581 40.4064 63.6349 43.1437 59.2993 45.2747L38.4114 55.5074C38.0072 55.7095 37.548 55.7279 37.1071 55.5809C36.6845 55.4339 36.3355 55.1216 36.1334 54.7174C35.9313 54.3133 35.9129 53.854 36.0599 53.4131C36.2069 52.9906 36.5192 52.6415 36.9234 52.4394L48.6073 46.726C49.5075 46.2851 49.8749 45.2012 49.434 44.3011C48.9931 43.4009 47.9092 43.0335 47.0091 43.4744L29.8138 51.8883C29.4096 52.0904 28.9503 52.1088 28.5094 51.9618C28.0869 51.8148 27.7378 51.5025 27.5357 51.0984C27.3337 50.6942 27.3153 50.2349 27.4623 49.794C27.6092 49.3715 27.9215 49.0224 28.3257 48.8203L45.0801 40.6269C45.9803 40.1859 46.3477 39.1021 45.9068 38.2019C45.4659 37.3017 44.382 36.9343 43.4818 37.3752L24.6515 46.5791C23.8064 46.9832 22.796 46.6342 22.3735 45.8075C22.1714 45.4033 22.153 44.944 22.3 44.5031C22.447 44.0806 22.7593 43.7316 23.1634 43.5295L40.2301 35.1706C41.1303 34.7297 41.4977 33.6458 41.0568 32.7457C40.6159 31.8455 39.532 31.4781 38.6319 31.919L23.6227 39.2674C22.7776 39.6716 21.7672 39.3225 21.3447 38.4958C20.9405 37.6507 21.2896 36.6403 22.1163 36.2178L30.0893 32.3231C30.9895 31.8822 31.3569 30.7983 30.916 29.8982C30.4751 28.998 29.3912 28.6306 28.491 29.0715L20.518 32.9661C17.8726 34.2521 16.7703 37.467 18.0747 40.1125C18.4421 40.8657 18.9565 41.4719 19.5811 41.9679C18.4788 43.456 18.2216 45.5687 19.1218 47.3874ZM66.6845 8.1652L74.3268 4.41751L85.7904 27.8406L78.148 31.5883L66.6845 8.1652Z" fill="url(#paint1_linear_2076_13963)"/>
<defs>
<linearGradient id="paint0_linear_2076_13963" x1="0" y1="29.6551" x2="90" y2="29.6551" gradientUnits="userSpaceOnUse">
<stop stop-color="#314160"/>
<stop offset="1" stop-color="#CE5656"/>
</linearGradient>
<linearGradient id="paint1_linear_2076_13963" x1="0" y1="29.6551" x2="90" y2="29.6551" gradientUnits="userSpaceOnUse">
<stop stop-color="#314160"/>
<stop offset="1" stop-color="#CE5656"/>
</linearGradient>
</defs>
</svg>
