<svg width="80" height="80" viewBox="0 0 80 80" fill="none" xmlns="http://www.w3.org/2000/svg">
<g clip-path="url(#clip0_2076_12792)">
<path d="M45.0718 20.1155L23.9477 41.2396L17.5138 39.7626L11.8816 38.4691C10.1997 38.0829 9.60036 35.9968 10.8205 34.7766L19.7252 25.8719C24.3849 21.2122 30.6368 18.7171 37.0172 18.7305C39.6191 18.7355 42.2427 19.1561 44.7896 20.019L45.0718 20.1155Z" fill="white"/>
<path d="M61.4483 43.1597C61.46 49.5402 58.9648 55.792 54.3052 60.4517L45.4005 69.3564C44.1803 70.5766 42.0942 69.9772 41.708 68.2953L40.4145 62.6631L38.9375 56.2294L60.0631 35.1055L60.1583 35.3892C61.0209 37.9358 61.4433 40.5577 61.4483 43.1597Z" fill="white"/>
<path d="M36.5764 57.1736L34.0979 61.7748L33.0173 63.7817C32.3206 65.0756 30.5737 65.332 29.5345 64.293L15.885 50.6434C14.8459 49.6044 15.1023 47.8573 16.3962 47.1606L18.4031 46.08L23.0043 43.6016L36.5764 57.1736Z" fill="white"/>
<path d="M76.345 1.36715L70.8393 2.0959C60.6398 3.4459 51.1697 8.11997 43.8946 15.3951L21.3918 37.8979C19.1923 40.0975 19.1923 43.6639 21.3918 45.8634L27.8528 52.3243L34.3137 58.7853C36.5132 60.985 40.0796 60.985 42.2792 58.7853L64.782 36.2825C72.057 29.0075 76.7312 19.5373 78.0812 9.33778L78.81 3.83215C78.9993 2.3995 77.7775 1.17747 76.345 1.36715Z" fill="url(#paint0_linear_2076_12792)"/>
<path d="M60.4617 26.1617C64.024 26.1617 66.9117 23.274 66.9117 19.7117C66.9117 16.1495 64.024 13.2617 60.4617 13.2617C56.8995 13.2617 54.0117 16.1495 54.0117 19.7117C54.0117 23.274 56.8995 26.1617 60.4617 26.1617Z" fill="white"/>
<path d="M79.0149 1.16294C78.2678 0.415906 77.2388 0.0673121 76.1916 0.205437L70.6858 0.934187C60.2902 2.31028 50.4813 7.15153 43.0663 14.5664L39.9035 17.7292C32.2042 16.8429 24.3911 19.5511 18.8978 25.0432L9.9947 33.9479C9.11548 34.8273 8.79564 36.0654 9.13923 37.2601C9.48251 38.4543 10.4109 39.3331 11.622 39.6108L18.6145 41.2165C18.5084 42.2859 18.6513 43.3793 19.0539 44.3972L15.8428 46.1259C14.8964 46.6357 14.2641 47.5382 14.108 48.6021C13.952 49.6659 14.2986 50.712 15.0588 51.4723L18.9135 55.327C19.1424 55.5557 19.4424 55.6701 19.7422 55.6701C20.042 55.6701 20.342 55.5557 20.571 55.327C21.0286 54.8692 21.0286 54.1273 20.571 53.6697L16.7163 49.815C16.485 49.5839 16.3797 49.2657 16.427 48.9423C16.4744 48.6189 16.6666 48.3445 16.9541 48.1897L20.2849 46.3964C20.3747 46.4973 33.6806 59.8017 33.7817 59.8915L31.9864 63.2253C31.8317 63.5125 31.558 63.7043 31.2352 63.7517C30.9111 63.7989 30.5947 63.6939 30.3642 63.4631L24.0599 57.1587C23.602 56.7012 22.8602 56.7012 22.4025 57.1587C21.9449 57.6165 21.9449 58.3584 22.4025 58.8161L28.7069 65.1204C29.3472 65.7606 30.19 66.1072 31.0755 66.1072C31.2411 66.1072 31.4081 66.095 31.5755 66.0704C32.6386 65.9145 33.5405 65.2825 34.05 64.3362L35.7825 61.1192C36.5849 61.4361 37.4328 61.5957 38.2799 61.5957C38.507 61.5957 38.7339 61.5842 38.96 61.5618L40.5658 68.5557C40.8436 69.767 41.723 70.695 42.918 71.0386C43.2339 71.1293 43.553 71.1737 43.8677 71.1737C44.7428 71.1737 45.5838 70.8298 46.2303 70.1831L55.1334 61.2787C60.6266 55.7853 63.3355 47.9731 62.4475 40.2753L65.2177 37.5053C65.6755 37.0476 65.6755 36.3056 65.2178 35.8481C64.7602 35.3906 64.0181 35.3903 63.5606 35.8479L41.4513 57.9557C39.9875 59.4193 37.66 59.6793 35.913 58.572C35.638 58.399 35.3788 58.1915 35.1427 57.9557C35.1427 57.9557 21.7761 44.5392 21.6025 44.2615C20.4969 42.5175 20.7569 40.19 22.2211 38.7272L30.0444 30.9037C30.502 30.4459 30.502 29.704 30.0444 29.2464C29.5866 28.7889 28.8447 28.7889 28.387 29.2464L20.5639 37.0695C20.0058 37.627 19.5625 38.2672 19.2377 38.955L12.1463 37.3264C11.6155 37.2048 11.4417 36.7865 11.3916 36.6125C11.3416 36.4381 11.2664 35.9907 11.652 35.6051L20.555 26.7006C25.0877 22.169 31.3591 19.7262 37.7125 19.9201L31.2061 26.4265C30.7485 26.8843 30.7485 27.6262 31.2061 28.0839C31.6639 28.5414 32.4058 28.5414 32.8634 28.0839L44.7236 16.2237C51.7761 9.17106 61.1056 4.56637 70.9933 3.25778L76.4988 2.52903C76.8172 2.48669 77.13 2.59278 77.3572 2.81997C77.5842 3.04716 77.6903 3.35981 77.648 3.67809L76.9194 9.18372C75.7966 17.6675 72.3211 25.6414 66.8686 32.2437C66.4564 32.7426 66.5269 33.4814 67.0261 33.8936C67.2444 34.0739 67.5088 34.1618 67.7716 34.1618C68.1091 34.1618 68.4441 34.0167 68.6758 33.7361C74.4083 26.7947 78.0624 18.4111 79.243 9.49137L79.9716 3.98575C80.1105 2.93872 79.7616 1.90981 79.0149 1.16294ZM43.1081 59.6132L60.2584 42.4642C60.4538 48.8168 58.0091 55.0882 53.4759 59.6217L44.5728 68.5262C44.1874 68.9115 43.7395 68.8361 43.5653 68.7861C43.3908 68.7361 42.9717 68.562 42.85 68.0315L41.2213 60.9378C41.9094 60.6131 42.5503 60.1711 43.1081 59.6132Z" fill="#314160"/>
<path d="M65.8512 14.3263C64.4116 12.8866 62.4976 12.0938 60.4618 12.0938C58.426 12.0938 56.512 12.8866 55.0724 14.3261C52.1009 17.2978 52.1009 22.1331 55.0724 25.1048C56.5584 26.5906 58.5101 27.3336 60.4618 27.3336C62.4135 27.3336 64.3652 26.5906 65.8512 25.1048C68.8227 22.1333 68.8227 17.2978 65.8512 14.3263ZM64.1938 23.4475C62.136 25.5053 58.7876 25.5055 56.7298 23.4477C54.672 21.3897 54.672 18.0413 56.7298 15.9834C57.7266 14.9866 59.052 14.4375 60.4618 14.4375C61.8716 14.4375 63.197 14.9866 64.1938 15.9836C66.2516 18.0414 66.2516 21.3897 64.1938 23.4475Z" fill="#314160"/>
<path d="M27.2261 43.4486C26.7684 43.9064 26.7684 44.6483 27.2261 45.1059L35.0734 52.9533C35.3023 53.182 35.6023 53.2964 35.9022 53.2964C36.202 53.2964 36.502 53.182 36.7309 52.9533C37.1886 52.4955 37.1886 51.7536 36.7309 51.2959L28.8836 43.4486C28.4256 42.9911 27.6837 42.9911 27.2261 43.4486Z" fill="white"/>
<path d="M32.6343 45.2436C32.9342 45.2436 33.2342 45.1292 33.4631 44.9005C33.9207 44.4427 33.9207 43.7008 33.4631 43.2431L31.274 41.0541C30.8162 40.5966 30.0743 40.5966 29.6167 41.0541C29.159 41.5119 29.159 42.2538 29.6167 42.7114L31.8057 44.9005C32.0347 45.1292 32.3346 45.2436 32.6343 45.2436Z" fill="white"/>
<path d="M21.0681 59.1244C20.6103 58.6669 19.8684 58.6669 19.4107 59.1244L4.18699 74.3481C3.72934 74.8059 3.72934 75.5478 4.18699 76.0055C4.4159 76.2342 4.7159 76.3486 5.01574 76.3486C5.31559 76.3486 5.61559 76.2342 5.84449 76.0055L21.0682 60.7817C21.5257 60.3241 21.5257 59.5822 21.0681 59.1244Z" fill="#314160"/>
<path d="M17.0973 55.4095C16.6395 54.952 15.8976 54.952 15.44 55.4095L0.343242 70.5064C-0.114414 70.9642 -0.114414 71.7061 0.343242 72.1637C0.572149 72.3925 0.872148 72.5069 1.17199 72.5069C1.47184 72.5069 1.77184 72.3925 2.00074 72.1637L17.0975 57.067C17.555 56.6092 17.555 55.8673 17.0973 55.4095Z" fill="#314160"/>
<path d="M23.2401 62.9525L8.36668 77.8259C7.90902 78.2838 7.90902 79.0256 8.36668 79.4833C8.59559 79.712 8.89559 79.8264 9.19543 79.8264C9.49527 79.8264 9.79527 79.712 10.0242 79.4833L24.8976 64.6098C25.3553 64.152 25.3553 63.4102 24.8976 62.9525C24.4398 62.495 23.6979 62.495 23.2401 62.9525Z" fill="#314160"/>
</g>
<defs>
<linearGradient id="paint0_linear_2076_12792" x1="49.2858" y1="1.34766" x2="49.2858" y2="60.435" gradientUnits="userSpaceOnUse">
<stop stop-color="#D86060"/>
<stop offset="1" stop-color="#BA4242"/>
</linearGradient>
<clipPath id="clip0_2076_12792">
<rect width="80" height="80" fill="white"/>
</clipPath>
</defs>
</svg>
