<svg width="60" height="60" viewBox="0 0 60 60" fill="none" xmlns="http://www.w3.org/2000/svg">
<g id="icon">
<g id="Vector">
<path d="M49.8051 35.7141C49.1451 35.7141 48.6099 36.2493 48.6099 36.9094V52.6099H2.39052V6.39052H49.8051C50.4652 6.39052 51.0004 5.85541 51.0004 5.19526C51.0004 4.53512 50.4652 4 49.8051 4H1.19526C0.535239 4 0 4.53512 0 5.19526V53.8051C0 54.4653 0.535239 55.0004 1.19526 55.0004H49.8051C50.4652 55.0004 51.0004 54.4653 51.0004 53.8051V36.9094C51.0004 36.2493 50.4652 35.7141 49.8051 35.7141Z" fill="url(#paint0_linear_2076_8348)"/>
<path d="M49.8051 26.9892C49.1451 26.9892 48.6099 27.5243 48.6099 28.1845V31.3698C48.6099 32.03 49.1451 32.5651 49.8051 32.5651C50.4652 32.5651 51.0004 32.03 51.0004 31.3698V28.1845C51.0004 27.5243 50.4652 26.9892 49.8051 26.9892Z" fill="url(#paint1_linear_2076_8348)"/>
<path d="M58.638 7.57981C56.8221 5.76421 53.8674 5.76421 52.0514 7.57981L25.0154 34.6158L16.5371 26.1375C14.7213 24.3217 11.7664 24.3216 9.95044 26.1375C8.1346 27.9534 8.1346 30.9082 9.95044 32.7241L21.7221 44.4957C22.6017 45.3753 23.7714 45.8599 25.0154 45.8599C26.2594 45.8599 27.429 45.3754 28.3088 44.4957L58.6381 14.1664C60.454 12.3507 60.454 9.39589 58.638 7.57981ZM56.9477 12.4763L26.6185 42.8055C26.1902 43.2336 25.6209 43.4695 25.0154 43.4695C24.4099 43.4695 23.8406 43.2336 23.4124 42.8055L11.6409 31.0338C10.757 30.1499 10.757 28.7117 11.6408 27.8278C12.0828 27.3858 12.6633 27.1649 13.2439 27.1649C13.8243 27.1649 14.4049 27.3859 14.8468 27.8277L24.1702 37.1512C24.3945 37.3753 24.6984 37.5013 25.0154 37.5013C25.3324 37.5013 25.6363 37.3753 25.8606 37.1512L53.7416 9.27039C54.6256 8.38661 56.0638 8.38649 56.9477 9.27039C57.8316 10.1542 57.8316 11.5924 56.9477 12.4763Z" fill="url(#paint2_linear_2076_8348)"/>
</g>
</g>
<defs>
<linearGradient id="paint0_linear_2076_8348" x1="0" y1="29.5002" x2="60" y2="29.5002" gradientUnits="userSpaceOnUse">
<stop stop-color="#314160"/>
<stop offset="1" stop-color="#CE5656"/>
</linearGradient>
<linearGradient id="paint1_linear_2076_8348" x1="0" y1="29.5002" x2="60" y2="29.5002" gradientUnits="userSpaceOnUse">
<stop stop-color="#314160"/>
<stop offset="1" stop-color="#CE5656"/>
</linearGradient>
<linearGradient id="paint2_linear_2076_8348" x1="0" y1="29.5002" x2="60" y2="29.5002" gradientUnits="userSpaceOnUse">
<stop stop-color="#314160"/>
<stop offset="1" stop-color="#CE5656"/>
</linearGradient>
</defs>
</svg>
