<svg width="80" height="80" viewBox="0 0 80 80" fill="none" xmlns="http://www.w3.org/2000/svg">
<g id="icon">
<g id="Group 26">
<g id="Group">
<path id="Vector" d="M65.8018 26.314C67.2121 27.7243 67.6452 29.8398 66.9025 31.6905C66.1591 33.5412 64.3841 34.7706 62.3906 34.8148V24.8574C63.6736 24.8829 64.8962 25.4051 65.8018 26.314Z" fill="white"/>
<path id="Vector_2" d="M16.9837 24.8574V34.8148C14.277 34.7552 12.1133 32.5438 12.1133 29.8358C12.1133 27.1284 14.277 24.9164 16.9837 24.8574Z" fill="white"/>
<path id="Vector_3" d="M28.4062 34.9141H50.9648V39.0974H28.4062V34.9141Z" fill="white"/>
<path id="Vector_4" d="M28.4062 39.0977H50.9648V43.3702H28.4062V39.0977Z" fill="white"/>
<path id="Vector_5" d="M50.0777 55.8519V56.0168H29.2969V49.1562H50.0777V55.8519Z" fill="white"/>
</g>
<path id="Vector_6" d="M67.9405 68.7568V78.6613H54.0155V66.2499H25.3585V78.6613H11.4336V68.7568C11.4336 61.7199 17.1379 56.0156 24.1748 56.0156H55.1993C62.2361 56.0156 67.9405 61.7199 67.9405 68.7568Z" fill="#CE5656"/>
<path id="Vector_7" d="M16.9844 34.8142V14.9121H62.3896V49.1547H16.9844V34.8142ZM52.0025 28.5012V22.0904H45.5917V28.5012H52.0025ZM50.9663 43.37V34.9141H28.4077V43.37H50.9663ZM33.7823 28.5012V22.0904H27.3715V28.5012H33.7823Z" fill="#CE5656"/>
<path id="Vector_8" d="M25.3594 66.25H54.0163V78.6614H25.3594V66.25Z" fill="white"/>
<path id="Vector_9" d="M45.5898 22.0898H52.0007V28.5007H45.5898V22.0898Z" fill="white"/>
<path id="Vector_10" d="M39.6867 1.37305C41.9235 1.37305 43.7367 3.18623 43.7367 5.42304C43.7367 7.65918 41.9235 9.47236 39.6867 9.47236C37.4499 9.47236 35.6367 7.65918 35.6367 5.42304C35.6374 3.18623 37.4506 1.37372 39.6867 1.37305Z" fill="white"/>
<path id="Vector_11" d="M27.3711 22.0918H33.7819V28.5026H27.3711V22.0918Z" fill="white"/>
<path id="Vector_12" d="M55.1988 54.6034H51.5269V50.485H62.3892C62.7431 50.4931 63.0849 50.355 63.335 50.1036C63.585 49.8523 63.7204 49.5098 63.7103 49.1552V36.0111C65.9552 35.4869 67.7382 33.7857 68.3663 31.5683C68.9944 29.3503 68.369 26.9667 66.7328 25.3432C65.911 24.4993 64.8606 23.9127 63.7103 23.6574V14.9125C63.7197 14.5593 63.5837 14.2181 63.3336 13.9681C63.0843 13.718 62.7424 13.582 62.3892 13.5914H40.8877V10.7084C43.5468 10.1038 45.3426 7.61892 45.0825 4.90485C44.8224 2.19078 42.587 0.0920465 39.8622 0.00289578C37.1367 -0.0855847 34.7698 1.863 34.3335 4.55495C33.8978 7.24623 35.5286 9.843 38.1422 10.6192V13.5914H16.9839C16.6307 13.582 16.2895 13.718 16.0395 13.9681C15.7894 14.2181 15.6534 14.5593 15.6628 14.9125V23.6574C14.5092 23.9127 13.4541 24.4986 12.6276 25.3432C11.0068 26.9747 10.3935 29.3536 11.0229 31.565C11.6516 33.777 13.4259 35.4769 15.6628 36.0104V49.1552C15.6527 49.5091 15.7888 49.8523 16.0381 50.1036C16.2881 50.355 16.63 50.4924 16.9839 50.485H27.8462V54.6034H24.1743C16.3914 54.6034 10 60.9747 10 68.7569V78.6614C10 79.4202 10.675 80 11.4331 80H67.94C68.6981 80 69.3731 79.4202 69.3731 78.6614V68.7569C69.3731 60.9747 62.9817 54.6034 55.1988 54.6034ZM63.7103 26.5477C64.132 26.6959 64.5087 26.9492 64.8043 27.2844C65.4793 27.9614 65.8553 28.8804 65.848 29.8369C65.848 31.2841 65.0831 32.5476 63.7103 33.1194V26.5477ZM15.6628 33.1194C14.3342 32.5771 13.4789 31.2714 13.5124 29.8369C13.5144 28.8777 13.8992 27.9594 14.5815 27.2851C14.8725 26.9499 15.2445 26.6965 15.6628 26.5484V33.1194ZM37.0093 5.42367C37.0087 3.94497 38.2065 2.74512 39.6852 2.74445C41.1639 2.74378 42.3631 3.94229 42.3638 5.42099C42.3638 6.89968 41.1652 8.09886 39.6866 8.09886C38.2092 8.09685 37.012 6.90035 37.0093 5.42367ZM18.4083 47.7395V16.3369H60.9648V47.7395H18.4083ZM48.7813 50.485V54.6034H30.5918V50.485H48.7813ZM52.5564 77.2544H26.6451V67.6449H52.5564V77.2544ZM66.6275 77.2544H55.302V66.25C55.302 65.4919 54.7731 64.8993 54.015 64.8993H25.3581C24.6 64.8993 23.8995 65.4919 23.8995 66.25V77.2544H12.7456V68.7569C12.7456 62.4882 17.9056 57.349 24.1743 57.349H55.1988C61.4675 57.349 66.6275 62.4882 66.6275 68.7569V77.2544Z" fill="#314160"/>
<path id="Vector_13" d="M50.8405 33.4961H28.3611C27.603 33.4961 26.9883 34.1108 26.9883 34.8689V43.2772C26.9883 44.0353 27.603 44.65 28.3611 44.65H50.8405C51.5986 44.65 52.2133 44.0353 52.2133 43.2772V34.8689C52.2133 34.1108 51.5986 33.4961 50.8405 33.4961ZM49.6393 42.076H29.7339V40.5316H49.6393V42.076ZM49.6393 37.7861H29.7339V36.2417H49.6393V37.7861Z" fill="#314160"/>
<path id="Vector_14" d="M33.6829 29.8936C34.441 29.8936 35.0557 29.2789 35.0557 28.5208V22.1716C35.0557 21.4135 34.441 20.7988 33.6829 20.7988H27.3337C26.5756 20.7988 25.9609 21.4135 25.9609 22.1716V28.5208C25.9609 29.2789 26.5756 29.8936 27.3337 29.8936H33.6829ZM28.7065 23.5444H32.4817V27.148H28.7065V23.5444Z" fill="#314160"/>
<path id="Vector_15" d="M51.8704 20.7988H45.5212C44.7631 20.7988 44.1484 21.4135 44.1484 22.1716V28.5208C44.1484 29.2789 44.7631 29.8936 45.5212 29.8936H51.8704C52.6285 29.8936 53.2432 29.2789 53.2432 28.5208V22.1716C53.2432 21.4135 52.6285 20.7988 51.8704 20.7988ZM50.6692 27.148H46.894V23.5444H50.6692V27.148Z" fill="#314160"/>
</g>
</g>
</svg>
