<svg width="80" height="80" viewBox="0 0 80 80" fill="none" xmlns="http://www.w3.org/2000/svg">
<g id="icon" clip-path="url(#clip0_2076_7611)">
<g id="Group 25">
<path id="Vector" d="M35.4376 70.8805C15.8977 70.8805 4.60694e-09 54.9805 4.60694e-09 35.4376C-0.000312495 15.8977 15.8977 0 35.4376 0C54.9772 0 70.8748 15.8977 70.8748 35.4376H67.7769C67.7769 17.6048 53.2692 3.09812 35.4376 3.09812C17.6056 3.09812 3.09766 17.6053 3.09766 35.4376C3.09766 53.2725 17.6053 67.7825 35.4372 67.7825V70.8805H35.4376Z" fill="#314160"/>
<g id="Group">
<path id="Vector_2" d="M35.433 11.1523C22.0406 11.1523 11.1406 22.0455 11.1406 35.4375C11.1406 48.837 22.0406 59.7287 35.433 59.7287V51.8187C26.4053 51.8187 19.0573 44.4703 19.0573 35.4375C19.0573 26.4106 26.4053 19.0623 35.433 19.0623C44.4745 19.0623 51.8125 26.4103 51.8125 35.4375H59.734C59.7342 22.0455 48.827 11.1523 35.433 11.1523Z" fill="#CE5656"/>
<path id="Vector_3" d="M43.9072 35.4383C43.9072 40.1187 40.1203 43.9131 35.4356 43.9131C30.7561 43.9131 26.9648 40.1187 26.9648 35.4383C26.9648 30.7598 30.7564 26.9688 35.4356 26.9688C40.1205 26.9686 43.9072 30.7598 43.9072 35.4383Z" fill="#CE5656"/>
</g>
<g id="Group_2">
<path id="Vector_4" d="M53.4131 80.0009L35.4375 35.4414L79.9955 53.4255L61.5011 61.5031L53.4131 80.0009ZM41.0383 41.0425L53.5283 72.0041L59.1483 59.1497L71.9975 53.5377L41.0383 41.0425Z" fill="#314160"/>
<path id="Vector_5" d="M59.2288 61.4221L70.2422 72.4355L72.4324 70.2453L61.419 59.2319L59.2288 61.4221Z" fill="#314160"/>
</g>
</g>
</g>
<defs>
<clipPath id="clip0_2076_7611">
<rect width="80" height="80" fill="white"/>
</clipPath>
</defs>
</svg>
