<svg width="80" height="80" viewBox="0 0 80 80" fill="none" xmlns="http://www.w3.org/2000/svg">
<g id="icon" clip-path="url(#clip0_2076_7629)">
<g id="Group">
<g id="Group_2">
<g id="Group_3">
<path id="Vector" d="M10.6692 73.334H18.6692C19.4056 73.334 20.0025 73.931 20.0025 74.6673V77.334C20.0025 78.0704 19.4055 78.6673 18.6692 78.6673H10.6692C9.93281 78.6673 9.33594 78.0702 9.33594 77.334V74.6673C9.33578 73.931 9.93281 73.334 10.6692 73.334Z" fill="white"/>
<path id="Vector_2" d="M61.3333 73.334H69.3333C70.0697 73.334 70.6666 73.931 70.6666 74.6673V77.334C70.6666 78.0704 70.0695 78.6673 69.3333 78.6673H61.3333C60.5969 78.6673 60 78.0702 60 77.334V74.6673C60 73.931 60.597 73.334 61.3333 73.334Z" fill="white"/>
<path id="Vector_3" d="M36.0052 73.334H44.0052C44.7416 73.334 45.3384 73.931 45.3384 74.6673V77.334C45.3384 78.0704 44.7414 78.6673 44.0052 78.6673H36.0052C35.2687 78.6673 34.6719 78.0702 34.6719 77.334V74.6673C34.6719 73.931 35.2687 73.334 36.0052 73.334Z" fill="white"/>
</g>
<path id="Vector_4" d="M26.6694 8V56H4.00266C2.53172 55.9956 1.34031 54.8042 1.33594 53.3333V10.6667C1.34031 9.19562 2.53172 8.00438 4.00266 8H26.6694Z" fill="#CE5656"/>
<path id="Vector_5" d="M26.6694 8V21.3333H1.33594V10.6667C1.34031 9.19562 2.53172 8.00438 4.00266 8H26.6694Z" fill="white"/>
<path id="Vector_6" d="M20.0027 8V56H4.00266C2.53172 55.9956 1.34031 54.8042 1.33594 53.3333V10.6667C1.34031 9.19562 2.53172 8.00438 4.00266 8H20.0027Z" fill="#CE5656"/>
<path id="Vector_7" d="M20.0027 8V21.3333H1.33594V10.6667C1.34031 9.19562 2.53172 8.00438 4.00266 8H20.0027Z" fill="white"/>
<path id="Vector_8" d="M14.6719 48C16.881 48 18.6719 46.2091 18.6719 44C18.6719 41.7909 16.881 40 14.6719 40C12.4627 40 10.6719 41.7909 10.6719 44C10.6719 46.2091 12.4627 48 14.6719 48Z" fill="white"/>
<path id="Vector_9" d="M78.6694 10.6667V53.3334C78.665 54.8044 77.4736 55.9958 76.0027 56.0002H53.3359V8H76.0027C77.4736 8.00438 78.665 9.19562 78.6694 10.6667Z" fill="#CE5656"/>
<path id="Vector_10" d="M78.6694 10.6667V21.3334H53.3359V8H76.0027C77.4736 8.00438 78.665 9.19562 78.6694 10.6667Z" fill="white"/>
<path id="Vector_11" d="M74.6694 10.6667V53.3334C74.665 54.8044 73.4736 55.9958 72.0027 56.0002H53.3359V8H72.0027C73.4736 8.00438 74.665 9.19562 74.6694 10.6667Z" fill="#CE5656"/>
<path id="Vector_12" d="M74.6694 10.6667V21.3334H53.3359V8H72.0027C73.4736 8.00438 74.665 9.19562 74.6694 10.6667Z" fill="white"/>
<path id="Vector_13" d="M65.3359 48C67.5451 48 69.3359 46.2091 69.3359 44C69.3359 41.7909 67.5451 40 65.3359 40C63.1268 40 61.3359 41.7909 61.3359 44C61.3359 46.2091 63.1268 48 65.3359 48Z" fill="white"/>
<path id="Vector_14" d="M56 4.00059V60.0006C55.9956 61.4715 54.8042 62.6629 53.3333 62.6673H26.6667C25.1958 62.6629 24.0044 61.4717 24 60.0006V4.00059C24.0053 2.93184 24.6444 1.96809 25.6267 1.54731L25.6534 1.53403C25.9744 1.40012 26.3191 1.332 26.6667 1.33403H53.3334C54.8044 1.33825 55.9956 2.52965 56 4.00059Z" fill="#CE5656"/>
<path id="Vector_15" d="M52 4.00055V60.0005C51.9956 61.4715 50.8044 62.6629 49.3333 62.6673H26.6667C25.1958 62.6629 24.0044 61.4716 24 60.0005V4.00055C24.0053 2.9318 24.6444 1.96805 25.6267 1.54727L25.6534 1.53398L26.6667 1.33398H49.3334C50.8044 1.3382 51.9958 2.52961 52 4.00055Z" fill="#CE5656"/>
<path id="Vector_16" d="M56 4.0007V17.334H24V4.0007C24.0044 2.52977 25.1956 1.33836 26.6667 1.33398H53.3334C54.8044 1.33836 55.9956 2.52977 56 4.0007Z" fill="white"/>
<path id="Vector_17" d="M52 4.0007V17.334H24V4.0007C24.0044 2.52977 25.1956 1.33836 26.6667 1.33398H49.3334C50.8044 1.33836 51.9958 2.52977 52 4.0007Z" fill="white"/>
<path id="Vector_18" d="M40 54.668C42.2091 54.668 44 52.8771 44 50.668C44 48.4588 42.2091 46.668 40 46.668C37.7909 46.668 36 48.4588 36 50.668C36 52.8771 37.7909 54.668 40 54.668Z" fill="white"/>
</g>
<g id="Group_4">
<path id="Vector_19" d="M10.6692 28.0005H18.6692C19.4056 28.0005 20.0025 27.4035 20.0025 26.6673C20.0025 25.9309 19.4055 25.334 18.6692 25.334H10.6692C9.93281 25.334 9.33594 25.931 9.33594 26.6673C9.33578 27.4037 9.93281 28.0005 10.6692 28.0005Z" fill="white"/>
<path id="Vector_20" d="M10.6692 33.3326H18.6692C19.4056 33.3326 20.0025 32.7355 20.0025 31.9993C20.0025 31.2629 19.4055 30.666 18.6692 30.666H10.6692C9.93281 30.666 9.33594 31.263 9.33594 31.9993C9.33578 32.7357 9.93281 33.3326 10.6692 33.3326Z" fill="white"/>
<path id="Vector_21" d="M19.9987 43.9993C19.9987 41.0538 17.6109 38.666 14.6655 38.666C11.72 38.666 9.33203 41.0538 9.33203 43.9993C9.33203 46.9448 11.7198 49.3326 14.6653 49.3326C17.6095 49.3293 19.9953 46.9434 19.9987 43.9993ZM11.9988 43.9993C11.9988 42.5265 13.1927 41.3326 14.6655 41.3326C16.1383 41.3326 17.3322 42.5265 17.3322 43.9993C17.3322 45.4721 16.1383 46.666 14.6655 46.666C13.1933 46.6645 12.0002 45.4715 11.9988 43.9993Z" fill="#314160"/>
<path id="Vector_22" d="M6.66531 16.0005H15.9986C16.735 16.0005 17.3319 15.4035 17.3319 14.6673C17.3319 13.9309 16.7348 13.334 15.9986 13.334H6.66531C5.92891 13.334 5.33203 13.931 5.33203 14.6673C5.33188 15.4035 5.92891 16.0005 6.66531 16.0005Z" fill="#314160"/>
<path id="Vector_23" d="M76 6.66672H57.3333V4C57.3309 1.79188 55.5414 0.00234375 53.3333 0H26.6667C24.4586 0.00234375 22.6691 1.79188 22.6667 4V6.66672H4C1.79188 6.66906 0.00234375 8.45859 0 10.6667V53.3334C0.00234375 55.5416 1.79188 57.3311 4 57.3334H13.3333V72H10.6667C9.19453 72.0014 8.00156 73.1945 8 74.6667H1.33328C0.596875 74.6667 0 75.2636 0 76C0 76.7364 0.597031 77.3333 1.33328 77.3333H8C8.00141 78.8055 9.19453 79.9984 10.6667 80H18.6667C20.1389 79.9986 21.3319 78.8055 21.3334 77.3333H33.3334C33.3348 78.8055 34.528 79.9984 36.0002 80H44.0002C45.4723 79.9986 46.6653 78.8055 46.6669 77.3333H58.6669C58.6683 78.8055 59.8614 79.9984 61.3336 80H69.3336C70.8058 79.9986 71.9987 78.8055 72.0003 77.3333H78.667C79.4034 77.3333 80.0003 76.7364 80.0003 76C80.0003 75.2636 79.4034 74.6667 78.667 74.6667H72C71.9986 73.1945 70.8055 72.0016 69.3333 72H66.6666V57.3333H76C78.2081 57.3309 79.9977 55.5414 80 53.3333V10.6667C79.9977 8.45859 78.2081 6.66906 76 6.66672ZM76 9.33328C76.7359 9.33422 77.3323 9.93062 77.3333 10.6666V20H57.3333V16H66.6666C67.403 16 67.9998 15.403 67.9998 14.6667C67.9998 13.9303 67.403 13.3334 66.6666 13.3334H57.3333V9.33344L76 9.33328ZM26.6667 61.3333C25.9308 61.3323 25.3344 60.7359 25.3334 60V18.6667H54.6667V60C54.6658 60.7359 54.0694 61.3323 53.3334 61.3333H26.6667ZM25.3333 4C25.3342 3.26406 25.9306 2.66766 26.6666 2.66672H53.3333C54.0692 2.66766 54.6656 3.26406 54.6666 4V16H25.3333V4ZM4 9.33328H22.6667V13.3333H21.3334C20.597 13.3333 20.0002 13.9303 20.0002 14.6666C20.0002 15.403 20.5972 15.9998 21.3334 15.9998H22.6667V20H2.66672V10.6667C2.66766 9.93062 3.26406 9.33422 4 9.33328ZM2.66672 53.3333V22.6667H22.6667V54.6667H4C3.26406 54.6658 2.66766 54.0694 2.66672 53.3333ZM10.6667 77.3333V74.6666H18.6667L18.6677 75.9952L18.6667 76L18.6677 76.0048L18.6686 77.3333H10.6667ZM21.3333 74.6667C21.3319 73.1945 20.1388 72.0016 18.6666 72H16V57.3333H22.6667V60C22.6691 62.2081 24.4586 63.9977 26.6667 64H38.6667V72H36C34.5278 72.0014 33.3348 73.1945 33.3333 74.6667H21.3333ZM36 77.3333V74.6666H44L44.0009 75.9952L44 76L44.0009 76.0048L44.0019 77.3333H36ZM69.3344 75.9952L69.3334 76L69.3344 76.0048L69.3353 77.3333H61.3334V74.6666H69.3334L69.3344 75.9952ZM64 72H61.3333C59.8611 72.0014 58.6681 73.1945 58.6666 74.6667H46.6666C46.6652 73.1945 45.472 72.0016 43.9998 72H41.3331V64H53.3331C55.5412 63.9977 57.3308 62.2081 57.3331 60V57.3333H64V72ZM76 54.6667H57.3333V22.6667H77.3333V53.3334C77.3323 54.0694 76.7359 54.6658 76 54.6667Z" fill="#314160"/>
<path id="Vector_24" d="M69.3333 25.334H61.3333C60.5969 25.334 60 25.931 60 26.6673C60 27.4037 60.5969 28.0005 61.3333 28.0005H69.3333C70.0697 28.0005 70.6666 27.4035 70.6666 26.6673C70.6667 25.931 70.0697 25.334 69.3333 25.334Z" fill="white"/>
<path id="Vector_25" d="M69.3333 30.666H61.3333C60.5969 30.666 60 31.263 60 31.9993C60 32.7357 60.5969 33.3326 61.3333 33.3326H69.3333C70.0697 33.3326 70.6666 32.7355 70.6666 31.9993C70.6667 31.2629 70.0697 30.666 69.3333 30.666Z" fill="white"/>
<path id="Vector_26" d="M65.3333 38.666C62.3878 38.666 60 41.0538 60 43.9993C60 46.9448 62.3878 49.3326 65.3333 49.3326C68.2787 49.3326 70.6666 46.9448 70.6666 43.9993C70.6633 41.0552 68.2775 38.6693 65.3333 38.666ZM65.3333 46.666C63.8605 46.666 62.6666 45.4721 62.6666 43.9993C62.6666 42.5265 63.8605 41.3326 65.3333 41.3326C66.8061 41.3326 68 42.5265 68 43.9993C67.9986 45.4715 66.8055 46.6645 65.3333 46.666Z" fill="#314160"/>
<path id="Vector_27" d="M40.0012 45.334C37.0558 45.334 34.668 47.7218 34.668 50.6673C34.668 53.6127 37.0558 56.0005 40.0012 56.0005C42.9467 56.0005 45.3345 53.6127 45.3345 50.6673C45.3312 47.7232 42.9453 45.3374 40.0012 45.334ZM40.0012 53.334C38.5284 53.334 37.3345 52.1401 37.3345 50.6673C37.3345 49.1945 38.5284 48.0005 40.0012 48.0005C41.4741 48.0005 42.668 49.1945 42.668 50.6673C42.6664 52.1395 41.4734 53.3326 40.0012 53.334Z" fill="#314160"/>
<path id="Vector_28" d="M72.0012 16.0005H73.3345C74.0709 16.0005 74.6678 15.4035 74.6678 14.6673C74.6678 13.9309 74.0708 13.334 73.3345 13.334H72.0012C71.2648 13.334 70.668 13.931 70.668 14.6673C70.668 15.4035 71.2648 16.0005 72.0012 16.0005Z" fill="#314160"/>
<path id="Vector_29" d="M29.3333 10.6667H44C44.7364 10.6667 45.3333 10.0697 45.3333 9.33344C45.3333 8.59719 44.7364 8 44 8H29.3333C28.5969 8 28 8.59703 28 9.33328C28 10.0695 28.597 10.6667 29.3333 10.6667Z" fill="#314160"/>
<path id="Vector_30" d="M49.3333 10.6666H50.6666C51.403 10.6666 51.9998 10.0695 51.9998 9.33328C51.9998 8.59703 51.403 8 50.6666 8H49.3333C48.5969 8 48 8.59703 48 9.33328C48 10.0695 48.597 10.6666 49.3333 10.6666Z" fill="#314160"/>
<path id="Vector_31" d="M46.6666 21.334H33.3333C32.5969 21.334 32 21.931 32 22.6673C32 23.4037 32.5969 24.0005 33.3333 24.0005H46.6666C47.403 24.0005 47.9998 23.4035 47.9998 22.6673C47.9998 21.931 47.403 21.334 46.6666 21.334Z" fill="white"/>
<path id="Vector_32" d="M46.6666 26.666H33.3333C32.5969 26.666 32 27.263 32 27.9993C32 28.7355 32.5969 29.3326 33.3333 29.3326H46.6666C47.403 29.3326 47.9998 28.7357 47.9998 27.9993C47.9998 27.2629 47.403 26.666 46.6666 26.666Z" fill="white"/>
<path id="Vector_33" d="M46.6666 32H33.3333C32.5969 32 32 32.5969 32 33.3333C32 34.0697 32.5969 34.6666 33.3333 34.6666H46.6666C47.403 34.6666 47.9998 34.0695 47.9998 33.3333C47.9998 32.597 47.403 32 46.6666 32Z" fill="white"/>
</g>
</g>
</g>
<defs>
<clipPath id="clip0_2076_7629">
<rect width="80" height="80" fill="white"/>
</clipPath>
</defs>
</svg>
