<svg width="80" height="80" viewBox="0 0 80 80" fill="none" xmlns="http://www.w3.org/2000/svg">
<g id="icon" clip-path="url(#clip0_2076_7581)">
<g id="Group 27">
<g id="Group">
<path id="Vector" d="M65.9375 1.5625H53.4375V53.4375H65.9375V1.5625Z" fill="white"/>
<path id="Vector_2" d="M78.4375 53.4375H1.5625V65.9375H78.4375V53.4375Z" fill="#CE5656"/>
<path id="Vector_3" d="M53.4375 14.0625H1.5625V26.5625H53.4375V14.0625Z" fill="#CE5656"/>
<path id="Vector_4" d="M26.5625 26.5625H14.0625V78.4375H26.5625V26.5625Z" fill="white"/>
<path id="Vector_5" d="M26.5625 1.5625H14.0625V14.0625H26.5625V1.5625Z" fill="white"/>
<path id="Vector_6" d="M65.9375 65.9375H53.4375V78.4375H65.9375V65.9375Z" fill="white"/>
<path id="Vector_7" d="M78.4375 14.0625H65.9375V26.5625H78.4375V14.0625Z" fill="#CE5656"/>
</g>
<path id="Vector_8" d="M78.4375 28.125C79.3005 28.125 80 27.4253 80 26.5625V14.0625C80 13.1997 79.3005 12.5 78.4375 12.5H67.5V1.5625C67.5 0.699688 66.8005 0 65.9375 0H53.4375C52.5745 0 51.875 0.699688 51.875 1.5625V12.5H28.125V1.5625C28.125 0.699688 27.4255 0 26.5625 0H14.0625C13.1995 0 12.5 0.699688 12.5 1.5625V12.5H1.5625C0.699531 12.5 0 13.1997 0 14.0625V26.5625C0 27.4253 0.699531 28.125 1.5625 28.125H12.5V51.875H1.5625C0.699531 51.875 0 52.5747 0 53.4375V65.9375C0 66.8003 0.699531 67.5 1.5625 67.5H12.5V78.4375C12.5 79.3003 13.1995 80 14.0625 80H26.5625C27.4255 80 28.125 79.3003 28.125 78.4375V67.5H51.875V78.4375C51.875 79.3003 52.5745 80 53.4375 80H65.9375C66.8005 80 67.5 79.3003 67.5 78.4375V67.5H78.4375C79.3005 67.5 80 66.8003 80 65.9375V53.4375C80 52.5747 79.3005 51.875 78.4375 51.875H67.5V28.125H78.4375ZM67.5 15.625H76.875V25H67.5V15.625ZM12.5 64.375H3.125V55H12.5V64.375ZM55 3.125H64.375V51.875H55V3.125ZM15.625 3.125H25V12.5H15.625V3.125ZM25 76.875H15.625V28.125H25V76.875ZM3.125 25V15.625H51.875V25H3.125ZM51.875 28.125V51.875H28.125V28.125H51.875ZM64.375 76.875H55V67.5H64.375V76.875ZM76.875 55V64.375H28.125V55H76.875Z" fill="#314160"/>
<path id="Vector_9" d="M59.375 61.25C60.2359 61.25 60.9375 60.5484 60.9375 59.6875C60.9375 58.8266 60.2359 58.125 59.375 58.125C58.5141 58.125 57.8125 58.8266 57.8125 59.6875C57.8125 60.5484 58.5141 61.25 59.375 61.25Z" fill="white"/>
<path id="Vector_10" d="M32.8125 61.25H53.125C53.9859 61.25 54.6875 60.5484 54.6875 59.6875C54.6875 58.8266 53.9859 58.125 53.125 58.125H32.8125C31.9516 58.125 31.25 58.8266 31.25 59.6875C31.25 60.5484 31.9516 61.25 32.8125 61.25Z" fill="white"/>
</g>
</g>
<defs>
<clipPath id="clip0_2076_7581">
<rect width="80" height="80" fill="white"/>
</clipPath>
</defs>
</svg>
