<svg width="60" height="60" viewBox="0 0 60 60" fill="none" xmlns="http://www.w3.org/2000/svg">
<g id="icon">
<g id="Vector">
<path d="M0.120833 30.4832C0.267801 30.7772 0.512748 30.9976 0.818932 31.0956L8.48579 33.7288C8.62051 33.7778 8.74298 33.79 8.8777 33.79C9.37984 33.79 9.85749 33.4716 10.029 32.9695L16.0424 15.419L16.3486 15.5292C17.904 16.0803 19.6431 15.9824 21.1251 15.2598L21.8722 14.8923C22.7662 14.4637 23.8072 14.3902 24.738 14.7209L38.7245 19.5463C38.5776 20.0852 38.2959 20.7098 37.806 21.0528C37.2426 21.4447 36.373 21.4447 35.234 21.0528L28.9634 18.9095C28.645 18.7992 28.2898 18.836 27.9958 18.9952C27.7019 19.1544 27.4815 19.4361 27.3957 19.7545C27.3835 19.7913 26.5017 23.0246 23.7827 24.482C22.0681 25.4006 19.9248 25.4251 17.4141 24.5678C16.7773 24.3473 16.0914 24.6902 15.8709 25.3271C15.6505 25.964 15.9934 26.6498 16.6303 26.8703C18.1 27.3724 19.4962 27.6296 20.7944 27.6296C22.3008 27.6296 23.6848 27.2867 24.9462 26.6131C27.3957 25.2903 28.6939 23.0123 29.2941 21.6039L34.438 23.3675C36.3485 24.0166 37.9407 23.9186 39.1777 23.0613C41.125 21.7141 41.2597 19.0809 41.272 18.787C41.2842 18.2604 40.9536 17.7827 40.4514 17.599L25.5096 12.4429C23.9665 11.9162 22.2518 12.0142 20.7821 12.7368L20.0351 13.1042C19.1287 13.5451 18.0755 13.6064 17.1324 13.2757L15.8954 12.8348C15.822 12.7858 15.7485 12.749 15.6627 12.7246L8.03263 10.0669C7.39577 9.84642 6.70992 10.1893 6.48946 10.8262L0.0595957 29.5647C-0.0383832 29.8586 -0.0138885 30.1893 0.120833 30.4832ZM8.40005 12.749L13.7644 14.5862L8.13061 31.0344L2.76626 29.1973L8.40005 12.749Z" fill="url(#paint0_linear_2076_8339)"/>
<path d="M12.7479 41.5916C13.348 42.8163 14.5482 43.5267 15.822 43.5757C15.822 44.1023 15.9444 44.6412 16.1771 45.1311C16.5935 45.9884 17.3161 46.6253 18.2224 46.9314C18.6021 47.0662 18.994 47.1274 19.3737 47.1274C19.9126 47.1274 20.4392 47.0049 20.9291 46.76L21.566 46.4416C21.615 46.809 21.7252 47.1886 21.8967 47.5438C22.3131 48.4011 23.0357 49.038 23.942 49.3442C24.3216 49.4789 24.7135 49.5401 25.0932 49.5401C25.6321 49.5401 26.1587 49.4177 26.6486 49.1727L40.5739 42.3509C43.6847 40.8323 46.5506 38.8727 49.0981 36.5334L52.2089 33.6798L59.3246 30.2015C59.9247 29.9076 60.1697 29.185 59.8757 28.5849L51.2046 10.7895C51.0576 10.4955 50.8127 10.2751 50.5065 10.1771C50.2003 10.0669 49.8696 10.0914 49.5757 10.2383L42.3008 13.8023C41.7006 14.0963 41.4557 14.8189 41.7496 15.419L50.0534 32.3938L47.4814 34.7576C45.1054 36.9376 42.4232 38.7625 39.5329 40.1831L25.6076 47.0049C25.3382 47.1397 25.032 47.1519 24.738 47.0539C24.4564 46.9559 24.2237 46.7477 24.0889 46.4783C23.9542 46.2089 23.942 45.9027 24.0399 45.6087C24.1379 45.327 24.3461 45.0943 24.6156 44.9596L32.4049 41.1507C33.005 40.8568 33.25 40.1342 32.956 39.534C32.6621 38.9339 31.9395 38.689 31.3394 38.9829L19.8758 44.5922C19.6064 44.7269 19.3002 44.7392 19.0063 44.6412C18.7246 44.5432 18.4919 44.335 18.3572 44.0656C18.2224 43.7961 18.2102 43.4899 18.3082 43.196C18.4062 42.9143 18.6144 42.6816 18.8838 42.5469L30.0534 37.0846C30.6535 36.7906 30.8985 36.068 30.6045 35.4679C30.3106 34.8678 29.588 34.6228 28.9879 34.9168L16.4343 41.0527C15.8709 41.3222 15.1973 41.0895 14.9157 40.5383C14.7809 40.2689 14.7687 39.9627 14.8667 39.6688C14.9646 39.3871 15.1728 39.1544 15.4423 39.0196L26.8201 33.4471C27.4202 33.1532 27.6652 32.4306 27.3712 31.8304C27.0773 31.2303 26.3547 30.9854 25.7546 31.2793L15.7485 36.1783C15.1851 36.4477 14.5115 36.215 14.2298 35.6639C13.9604 35.1005 14.1931 34.4269 14.7442 34.1452L20.0595 31.5488C20.6597 31.2548 20.9046 30.5322 20.6107 29.9321C20.3167 29.332 19.5941 29.087 18.994 29.381L13.6787 31.9774C11.915 32.8347 11.1802 34.978 12.0498 36.7416C12.2947 37.2438 12.6376 37.6479 13.0541 37.9786C12.3192 38.9707 12.1477 40.3791 12.7479 41.5916ZM44.4563 15.4435L49.5512 12.945L57.1936 28.5604L52.0987 31.0589L44.4563 15.4435Z" fill="url(#paint1_linear_2076_8339)"/>
</g>
</g>
<defs>
<linearGradient id="paint0_linear_2076_8339" x1="0" y1="29.7701" x2="60" y2="29.7701" gradientUnits="userSpaceOnUse">
<stop stop-color="#314160"/>
<stop offset="1" stop-color="#CE5656"/>
</linearGradient>
<linearGradient id="paint1_linear_2076_8339" x1="0" y1="29.7701" x2="60" y2="29.7701" gradientUnits="userSpaceOnUse">
<stop stop-color="#314160"/>
<stop offset="1" stop-color="#CE5656"/>
</linearGradient>
</defs>
</svg>
