<svg width="60" height="60" viewBox="0 0 60 60" fill="none" xmlns="http://www.w3.org/2000/svg">
<g id="icon" clip-path="url(#clip0_2076_8330)">
<g id="Vector">
<path d="M59.9419 46.9261L48.8441 6.43162C48.6595 5.75545 47.9653 5.35615 47.287 5.53504L44.7602 6.20313L44.0258 3.52333C43.3355 1.0021 40.677 -0.542468 38.1366 0.177042C34.7065 1.14843 34.1728 4.38525 34.737 6.00108L35.4661 8.66031L30.2542 10.0384L29.5195 7.35794C28.8292 4.83672 26.1707 3.29227 23.6303 4.01166C20.2002 4.98292 19.6665 8.21986 20.2307 9.83558L20.9599 12.4957L15.738 13.8763L15.0005 11.1855C14.3102 8.66423 11.6517 7.11978 9.11127 7.83904C5.6811 8.81019 5.14747 12.0471 5.71171 13.6628L6.44384 16.3335L3.886 17.0137C3.40306 17.185 3.05567 17.6107 2.98453 18.1179L0.00497792 51.5885C-0.0313894 51.9995 0.13306 52.4031 0.447509 52.672C0.681509 52.871 0.976978 52.9779 1.27808 52.9775C1.38082 52.9774 1.48502 52.9648 1.58702 52.9397L11.7473 50.3933L14.1227 59.0606C14.278 59.6286 14.7925 60.0006 15.3547 60C15.462 59.9999 15.5716 59.9862 15.68 59.9571L59.0368 48.4957C59.5436 48.448 60.2001 47.6325 59.9419 46.9261ZM38.7887 2.64329C39.994 2.33153 41.2418 3.02178 41.5633 4.19631L42.2921 6.85566L37.9342 8.00778L37.1994 5.32651C36.9885 4.50255 37.2232 3.04823 38.7887 2.64329ZM24.2825 6.4779C25.4877 6.16615 26.7355 6.85639 27.057 8.03092L27.786 10.6908L23.428 11.843L22.6931 9.16125C22.4822 8.33692 22.7169 6.88272 24.2825 6.4779ZM9.76343 10.3053C10.9687 9.99354 12.2165 10.6838 12.538 11.8583L13.2699 14.5287L8.91192 15.6808L8.17404 12.9885C7.96331 12.1643 8.19792 10.7101 9.76343 10.3053ZM2.70682 50.0279L4.89878 25.4046L11.0723 47.9312L2.70682 50.0279ZM16.2509 57.167L5.82731 19.135L13.9443 16.9892L14.937 20.6112L17.3994 19.938L16.4123 16.3368L28.4604 13.1516L29.4559 16.7838L31.9183 16.1107L30.9284 12.4991L42.9666 9.31688L43.9622 12.9493L46.4245 12.2762L45.4345 8.66435L46.7157 8.32553L57.1397 46.3586L16.2509 57.167Z" fill="url(#paint0_linear_2076_8330)"/>
<path d="M24.8784 29.1771L21.8515 29.9781L22.5051 32.4443L25.5319 31.6434L24.8784 29.1771Z" fill="url(#paint1_linear_2076_8330)"/>
<path d="M32.6045 27.1349L29.5776 27.9345L30.2298 30.4009L33.2567 29.6013L32.6045 27.1349Z" fill="url(#paint2_linear_2076_8330)"/>
<path d="M40.3299 25.0925L37.3031 25.8922L37.9552 28.3584L40.9822 27.5588L40.3299 25.0925Z" fill="url(#paint3_linear_2076_8330)"/>
<path d="M45.6807 26.3164L48.7082 25.5166L48.0559 23.0504L45.0285 23.85L45.6807 26.3164Z" fill="url(#paint4_linear_2076_8330)"/>
<path d="M19.1751 38.597L16.1483 39.3969L16.8005 41.8631L19.8274 41.0634L19.1751 38.597Z" fill="url(#paint5_linear_2076_8330)"/>
<path d="M26.9011 36.5548L23.8737 37.3544L24.5259 39.8208L27.5534 39.0211L26.9011 36.5548Z" fill="url(#paint6_linear_2076_8330)"/>
<path d="M34.6266 34.5125L31.5998 35.3122L32.2519 37.7786L35.2789 36.9788L34.6266 34.5125Z" fill="url(#paint7_linear_2076_8330)"/>
<path d="M39.3252 33.27L39.9774 35.7362L43.0043 34.9366L42.352 32.4703L39.3252 33.27Z" fill="url(#paint8_linear_2076_8330)"/>
<path d="M47.7028 33.6939L50.7297 32.8942L50.0774 30.4279L47.0506 31.2277L47.7028 33.6939Z" fill="url(#paint9_linear_2076_8330)"/>
<path d="M18.1704 46.7744L18.8227 49.2407L21.8496 48.4411L21.1974 45.9747L18.1704 46.7744Z" fill="url(#paint10_linear_2076_8330)"/>
<path d="M25.896 44.7322L26.5481 47.1986L29.5751 46.3989L28.9228 43.9326L25.896 44.7322Z" fill="url(#paint11_linear_2076_8330)"/>
<path d="M33.6213 42.6898L34.2736 45.1561L37.3005 44.3565L36.6482 41.8902L33.6213 42.6898Z" fill="url(#paint12_linear_2076_8330)"/>
</g>
</g>
<defs>
<linearGradient id="paint0_linear_2076_8330" x1="0" y1="30" x2="60" y2="30" gradientUnits="userSpaceOnUse">
<stop stop-color="#314160"/>
<stop offset="1" stop-color="#CE5656"/>
</linearGradient>
<linearGradient id="paint1_linear_2076_8330" x1="0" y1="30" x2="60" y2="30" gradientUnits="userSpaceOnUse">
<stop stop-color="#314160"/>
<stop offset="1" stop-color="#CE5656"/>
</linearGradient>
<linearGradient id="paint2_linear_2076_8330" x1="0" y1="30" x2="60" y2="30" gradientUnits="userSpaceOnUse">
<stop stop-color="#314160"/>
<stop offset="1" stop-color="#CE5656"/>
</linearGradient>
<linearGradient id="paint3_linear_2076_8330" x1="0" y1="30" x2="60" y2="30" gradientUnits="userSpaceOnUse">
<stop stop-color="#314160"/>
<stop offset="1" stop-color="#CE5656"/>
</linearGradient>
<linearGradient id="paint4_linear_2076_8330" x1="0" y1="30" x2="60" y2="30" gradientUnits="userSpaceOnUse">
<stop stop-color="#314160"/>
<stop offset="1" stop-color="#CE5656"/>
</linearGradient>
<linearGradient id="paint5_linear_2076_8330" x1="0" y1="30" x2="60" y2="30" gradientUnits="userSpaceOnUse">
<stop stop-color="#314160"/>
<stop offset="1" stop-color="#CE5656"/>
</linearGradient>
<linearGradient id="paint6_linear_2076_8330" x1="0" y1="30" x2="60" y2="30" gradientUnits="userSpaceOnUse">
<stop stop-color="#314160"/>
<stop offset="1" stop-color="#CE5656"/>
</linearGradient>
<linearGradient id="paint7_linear_2076_8330" x1="0" y1="30" x2="60" y2="30" gradientUnits="userSpaceOnUse">
<stop stop-color="#314160"/>
<stop offset="1" stop-color="#CE5656"/>
</linearGradient>
<linearGradient id="paint8_linear_2076_8330" x1="0" y1="30" x2="60" y2="30" gradientUnits="userSpaceOnUse">
<stop stop-color="#314160"/>
<stop offset="1" stop-color="#CE5656"/>
</linearGradient>
<linearGradient id="paint9_linear_2076_8330" x1="0" y1="30" x2="60" y2="30" gradientUnits="userSpaceOnUse">
<stop stop-color="#314160"/>
<stop offset="1" stop-color="#CE5656"/>
</linearGradient>
<linearGradient id="paint10_linear_2076_8330" x1="0" y1="30" x2="60" y2="30" gradientUnits="userSpaceOnUse">
<stop stop-color="#314160"/>
<stop offset="1" stop-color="#CE5656"/>
</linearGradient>
<linearGradient id="paint11_linear_2076_8330" x1="0" y1="30" x2="60" y2="30" gradientUnits="userSpaceOnUse">
<stop stop-color="#314160"/>
<stop offset="1" stop-color="#CE5656"/>
</linearGradient>
<linearGradient id="paint12_linear_2076_8330" x1="0" y1="30" x2="60" y2="30" gradientUnits="userSpaceOnUse">
<stop stop-color="#314160"/>
<stop offset="1" stop-color="#CE5656"/>
</linearGradient>
<clipPath id="clip0_2076_8330">
<rect width="60" height="60" fill="white"/>
</clipPath>
</defs>
</svg>
