<svg width="80" height="80" viewBox="0 0 80 80" fill="none" xmlns="http://www.w3.org/2000/svg">
<g id="icon">
<g id="Group">
<path id="Vector" d="M68.5703 74.7054L69.9989 76.134L71.4275 74.7054V51.4297H68.5703V74.7054Z" fill="url(#paint0_linear_2076_22212)"/>
<path id="Vector_2" d="M71.4275 25.7148H68.5703V48.572H71.4275V25.7148Z" fill="url(#paint1_linear_2076_22212)"/>
<path id="Vector_3" d="M54.2874 12.4383V70.7469C55.9459 70.1555 57.1445 68.584 57.1445 66.724V6.72404C57.1445 4.35975 55.2217 2.85547 52.8588 2.85547H12.8588C10.9988 2.85547 9.42737 2.85547 8.83594 5.71261H47.1445C51.0831 5.71261 54.2874 8.49975 54.2874 12.4383Z" fill="white"/>
<path id="Vector_4" d="M27.1412 22.4386C29.5081 22.4386 31.4269 20.5198 31.4269 18.1529C31.4269 15.786 29.5081 13.8672 27.1412 13.8672C24.7742 13.8672 22.8555 15.786 22.8555 18.1529C22.8555 20.5198 24.7742 22.4386 27.1412 22.4386Z" fill="#CE5656"/>
<path id="Vector_5" d="M51.4269 12.856C51.4269 10.4889 49.5083 8.57031 47.1412 8.57031H7.14118C4.77404 8.57031 2.85547 10.4889 2.85547 12.856V72.856C2.85547 75.2232 4.77404 77.1417 7.14118 77.1417H47.1412C49.5083 77.1417 51.4269 75.2232 51.4269 72.856V12.856ZM45.7126 68.5703H34.284V65.7132H45.7126V68.5703ZM45.7126 59.9989H14.284V57.1417H45.7126V59.9989ZM45.7126 54.2846H14.284V51.4275H45.7126V54.2846ZM45.7126 48.5703H14.284V45.7132H45.7126V48.5703ZM45.7126 42.856H14.284V39.9989H45.7126V42.856ZM27.1412 11.0103C31.0798 11.0103 34.284 14.2146 34.284 18.1532C34.284 22.0917 31.0798 25.296 27.1412 25.296C23.2026 25.296 19.9983 22.0917 19.9983 18.1532C19.9983 14.2146 23.2026 11.0103 27.1412 11.0103ZM8.56975 28.5703H45.7126V31.4275H8.56975V28.5703ZM8.56975 34.2846H45.7126V37.1417H8.56975V34.2846ZM8.56975 39.5817H11.4269V42.4389H8.56975V39.5817ZM8.56975 45.296H11.4269V48.1532H8.56975V45.296ZM8.56975 51.0103H11.4269V53.8675H8.56975V51.0103ZM8.56975 56.7246H11.4269V59.5817H8.56975V56.7246ZM8.56975 65.7132H19.9983V68.5703H8.56975V65.7132Z" fill="url(#paint2_linear_2076_22212)"/>
<g id="Group_2">
<path id="Vector_6" d="M52.8571 0H12.8571C9.36286 0 6.45857 2.31714 5.84571 5.63714C2.52571 6.25 0 8.94571 0 12.44V72.44C0 76.3771 3.20429 80 7.14286 80H47.1429C50.6371 80 53.5414 77.2657 54.1543 73.9457C57.4743 73.3329 60 70.2186 60 66.7257V6.72571C60 2.78714 56.7957 0 52.8571 0ZM51.4286 72.8571C51.4286 75.2243 49.51 77.1429 47.1429 77.1429H7.14286C4.77571 77.1429 2.85714 75.2243 2.85714 72.8571V12.8571C2.85714 10.49 4.77571 8.57143 7.14286 8.57143H47.1429C49.51 8.57143 51.4286 10.49 51.4286 12.8571V72.8571ZM57.1429 66.7257C57.1429 68.5857 55.9443 70.1571 54.2857 70.7486V12.44C54.2857 8.50143 51.0814 5.71429 47.1429 5.71429H8.83429C9.42571 2.85714 10.9971 2.85714 12.8571 2.85714H52.8571C55.22 2.85714 57.1429 4.36143 57.1429 6.72571V66.7257Z" fill="#314160"/>
<path id="Vector_7" d="M27.1429 25.2974C31.0814 25.2974 34.2857 22.0931 34.2857 18.1546C34.2857 14.216 31.0814 11.0117 27.1429 11.0117C23.2043 11.0117 20 14.216 20 18.1546C20 22.0931 23.2043 25.2974 27.1429 25.2974ZM27.1429 13.8689C29.5057 13.8689 31.4286 15.7917 31.4286 18.1546C31.4286 20.5174 29.5057 22.4403 27.1429 22.4403C24.78 22.4403 22.8571 20.5174 22.8571 18.1546C22.8571 15.7903 24.78 13.8689 27.1429 13.8689Z" fill="white"/>
<path id="Vector_8" d="M45.7132 28.5703H8.57031V31.4275H45.7132V28.5703Z" fill="white"/>
<path id="Vector_9" d="M45.7132 34.2852H8.57031V37.1423H45.7132V34.2852Z" fill="white"/>
<path id="Vector_10" d="M45.7137 40H14.2852V42.8571H45.7137V40Z" fill="white"/>
<path id="Vector_11" d="M45.7137 45.7148H14.2852V48.572H45.7137V45.7148Z" fill="white"/>
<path id="Vector_12" d="M45.7137 51.4297H14.2852V54.2868H45.7137V51.4297Z" fill="white"/>
<path id="Vector_13" d="M45.7137 57.1445H14.2852V60.0017H45.7137V57.1445Z" fill="white"/>
<path id="Vector_14" d="M19.9989 65.7148H8.57031V68.572H19.9989V65.7148Z" fill="white"/>
<path id="Vector_15" d="M45.7137 65.7148H34.2852V68.572H45.7137V65.7148Z" fill="white"/>
<path id="Vector_16" d="M11.4275 39.582H8.57031V42.4392H11.4275V39.582Z" fill="white"/>
<path id="Vector_17" d="M11.4275 45.2969H8.57031V48.154H11.4275V45.2969Z" fill="white"/>
<path id="Vector_18" d="M11.4275 51.0117H8.57031V53.8689H11.4275V51.0117Z" fill="white"/>
<path id="Vector_19" d="M11.4275 56.7266H8.57031V59.5837H11.4275V56.7266Z" fill="white"/>
<path id="Vector_20" d="M80.0006 41.0098V29.5812C80.0006 27.2169 78.0777 25.7126 75.7148 25.7126H74.2863V23.8669C74.2863 23.0769 73.6463 22.8555 72.8577 22.8555H67.1434C66.3548 22.8555 65.7148 23.0769 65.7148 23.8669V75.2955C65.7148 75.6755 65.8648 76.0383 66.1334 76.3055L68.9906 79.1626C69.2691 79.4412 69.6348 79.5812 70.0006 79.5812C70.3663 79.5812 70.732 79.4412 71.0106 79.1626L73.8677 76.3055C74.1348 76.0369 74.2863 75.674 74.2863 75.2955V28.5698H75.7148C76.502 28.5698 77.1434 28.7926 77.1434 29.5812V40.6726L75.8648 43.2283C75.6634 43.6312 75.6634 44.104 75.8648 44.5069L77.1434 47.0612V51.4269H80.0006V46.724C80.0006 46.5026 79.9491 46.2826 79.8491 46.0855L78.7406 43.8683L79.8491 41.6498C79.9491 41.4498 80.0006 41.2312 80.0006 41.0098ZM71.4291 25.7126V48.5698H68.572V25.7126H71.4291ZM70.0006 76.1312L68.572 74.7026V51.4269H71.4291V74.7026L70.0006 76.1312Z" fill="#314160"/>
</g>
</g>
</g>
<defs>
<linearGradient id="paint0_linear_2076_22212" x1="69.9989" y1="51.4297" x2="69.9989" y2="76.134" gradientUnits="userSpaceOnUse">
<stop stop-color="#D86060"/>
<stop offset="1" stop-color="#BA4242"/>
</linearGradient>
<linearGradient id="paint1_linear_2076_22212" x1="69.9989" y1="25.7148" x2="69.9989" y2="48.572" gradientUnits="userSpaceOnUse">
<stop stop-color="#D86060"/>
<stop offset="1" stop-color="#BA4242"/>
</linearGradient>
<linearGradient id="paint2_linear_2076_22212" x1="27.1412" y1="8.57031" x2="27.1412" y2="77.1417" gradientUnits="userSpaceOnUse">
<stop stop-color="#D86060"/>
<stop offset="1" stop-color="#BA4242"/>
</linearGradient>
</defs>
</svg>
