<svg width="80" height="80" viewBox="0 0 80 80" fill="none" xmlns="http://www.w3.org/2000/svg">
<g id="icon">
<g id="Group 16">
<path id="Vector" d="M66.7188 59.4544C70.602 59.4544 73.75 56.3192 73.75 52.4518C73.75 48.5844 70.602 45.4492 66.7188 45.4492C62.8355 45.4492 59.6875 48.5844 59.6875 52.4518C59.6875 56.3192 62.8355 59.4544 66.7188 59.4544Z" fill="url(#paint0_linear_2076_22243)"/>
<path id="Vector_2" d="M78.4375 75.796V78.1302H55V75.796C55 69.3527 60.2467 64.125 66.7188 64.125C73.1906 64.125 78.4375 69.3505 78.4375 75.796Z" fill="url(#paint1_linear_2076_22243)"/>
<path id="Vector_3" d="M25 75.796V78.1302H1.5625V75.796C1.5625 69.3527 6.80922 64.125 13.2812 64.125C19.7531 64.125 25 69.3505 25 75.796Z" fill="url(#paint2_linear_2076_22243)"/>
<path id="Vector_4" d="M13.2812 59.4544C17.1645 59.4544 20.3125 56.3192 20.3125 52.4518C20.3125 48.5844 17.1645 45.4492 13.2812 45.4492C9.398 45.4492 6.25 48.5844 6.25 52.4518C6.25 56.3192 9.398 59.4544 13.2812 59.4544Z" fill="url(#paint3_linear_2076_22243)"/>
<path id="Vector_5" d="M72.8125 4.67866V26.4645C72.8125 28.184 71.4141 29.5767 69.6875 29.5767H58.75V38.9135L49.375 29.5767H30.625L21.25 38.9135V29.5767H10.3125C8.58594 29.5767 7.1875 28.184 7.1875 26.4645V4.67866C7.1875 2.95914 8.58594 1.56641 10.3125 1.56641H69.6875C71.4141 1.56641 72.8125 2.95914 72.8125 4.67866Z" fill="url(#paint4_linear_2076_22243)"/>
<path id="Vector_6" d="M13.2812 61.012C18.0198 61.012 21.875 57.1725 21.875 52.4532C21.875 47.734 18.0198 43.8945 13.2812 43.8945C8.54266 43.8945 4.6875 47.734 4.6875 52.4532C4.6875 57.1725 8.54266 61.012 13.2812 61.012ZM13.2812 47.0068C16.2967 47.0068 18.75 49.4501 18.75 52.4532C18.75 55.4564 16.2967 57.8997 13.2812 57.8997C10.2658 57.8997 7.8125 55.4564 7.8125 52.4532C7.8125 49.4501 10.2658 47.0068 13.2812 47.0068Z" fill="#314160"/>
<path id="Vector_7" d="M1.5625 79.6838H25C25.863 79.6838 26.5625 78.987 26.5625 78.1277V75.7935C26.5625 68.5001 20.6045 62.5664 13.2812 62.5664C5.9425 62.5664 0 68.4834 0 75.7935V78.1277C0 78.987 0.699531 79.6838 1.5625 79.6838ZM3.125 75.7935C3.125 70.2045 7.66875 65.6787 13.2812 65.6787C18.8814 65.6787 23.4375 70.2162 23.4375 75.7935V76.5716H3.125V75.7935Z" fill="#314160"/>
<path id="Vector_8" d="M66.7188 43.8945C61.9802 43.8945 58.125 47.734 58.125 52.4532C58.125 57.1725 61.9802 61.012 66.7188 61.012C71.4573 61.012 75.3125 57.1725 75.3125 52.4532C75.3125 47.734 71.4573 43.8945 66.7188 43.8945ZM66.7188 57.8997C63.7033 57.8997 61.25 55.4564 61.25 52.4532C61.25 49.4501 63.7033 47.0068 66.7188 47.0068C69.7342 47.0068 72.1875 49.4501 72.1875 52.4532C72.1875 55.4564 69.7342 57.8997 66.7188 57.8997Z" fill="#314160"/>
<path id="Vector_9" d="M66.7188 62.5664C59.38 62.5664 53.4375 68.4834 53.4375 75.7935V78.1277C53.4375 78.987 54.137 79.6838 55 79.6838H78.4375C79.3005 79.6838 80 78.987 80 78.1277V75.7935C80 68.5001 74.042 62.5664 66.7188 62.5664ZM76.875 76.5716H56.5625V75.7935C56.5625 70.2045 61.1063 65.6787 66.7188 65.6787C72.3189 65.6787 76.875 70.2162 76.875 75.7935V76.5716Z" fill="#314160"/>
<path id="Vector_10" d="M15 10.9038C15 11.7632 15.6995 12.4599 16.5625 12.4599H63.4375C64.3005 12.4599 65 11.7632 65 10.9038C65 10.0443 64.3005 9.34766 63.4375 9.34766H16.5625C15.6995 9.34766 15 10.0443 15 10.9038Z" fill="#F8F9FA"/>
<path id="Vector_11" d="M63.4375 18.6836H16.5625C15.6995 18.6836 15 19.3803 15 20.2397C15 21.0992 15.6995 21.7959 16.5625 21.7959H63.4375C64.3005 21.7959 65 21.0992 65 20.2397C65 19.3803 64.3005 18.6836 63.4375 18.6836Z" fill="#F8F9FA"/>
<path id="Vector_12" d="M40.3516 3.07031C41.1913 2.87264 41.711 2.0345 41.5126 1.19828C41.3141 0.362061 40.4725 -0.155589 39.6329 0.0420788C38.7932 0.239747 38.2735 1.07788 38.4719 1.9141C38.6704 2.75032 39.512 3.26797 40.3516 3.07031Z" fill="#314160"/>
<path id="Vector_13" d="M32.9688 0.0117188H10.3125C7.72781 0.0117188 5.625 2.10596 5.625 4.68011V26.4659C5.625 29.0401 7.72781 31.1343 10.3125 31.1343H19.6875V38.915C19.6875 39.5443 20.0683 40.1118 20.652 40.3527C21.2359 40.5937 21.9078 40.4605 22.3548 40.0154L31.2722 31.1343H48.7278L57.6452 40.0153C58.0922 40.4604 58.7639 40.5934 59.348 40.3525C59.9319 40.1116 60.3125 39.5443 60.3125 38.9148V31.1342H69.6875C72.2722 31.1342 74.375 29.0399 74.375 26.4658V4.68011C74.375 2.10596 72.2722 0.0117188 69.6875 0.0117188H47.0312C46.1683 0.0117188 45.4688 0.708398 45.4688 1.56785C45.4688 2.4273 46.1683 3.12398 47.0312 3.12398H69.6875C70.5491 3.12398 71.25 3.82206 71.25 4.68011V26.4659C71.25 27.324 70.5491 28.022 69.6875 28.022H58.75C57.887 28.022 57.1875 28.7187 57.1875 29.5782V35.1581L50.4798 28.4778C50.1869 28.1861 49.7894 28.022 49.375 28.022H30.625C30.2106 28.022 29.8131 28.1861 29.5202 28.4778L22.8125 35.1581V29.5782C22.8125 28.7187 22.113 28.022 21.25 28.022H10.3125C9.45094 28.022 8.75 27.324 8.75 26.4659V4.68011C8.75 3.82206 9.45094 3.12398 10.3125 3.12398H32.9688C33.8317 3.12398 34.5312 2.4273 34.5312 1.56785C34.5312 0.708398 33.8317 0.0117188 32.9688 0.0117188Z" fill="#314160"/>
</g>
</g>
<defs>
<linearGradient id="paint0_linear_2076_22243" x1="66.7188" y1="45.4492" x2="66.7188" y2="59.4544" gradientUnits="userSpaceOnUse">
<stop stop-color="#D86060"/>
<stop offset="1" stop-color="#BA4242"/>
</linearGradient>
<linearGradient id="paint1_linear_2076_22243" x1="66.7188" y1="64.125" x2="66.7188" y2="78.1302" gradientUnits="userSpaceOnUse">
<stop stop-color="#D86060"/>
<stop offset="1" stop-color="#BA4242"/>
</linearGradient>
<linearGradient id="paint2_linear_2076_22243" x1="13.2812" y1="64.125" x2="13.2812" y2="78.1302" gradientUnits="userSpaceOnUse">
<stop stop-color="#D86060"/>
<stop offset="1" stop-color="#BA4242"/>
</linearGradient>
<linearGradient id="paint3_linear_2076_22243" x1="13.2812" y1="45.4492" x2="13.2812" y2="59.4544" gradientUnits="userSpaceOnUse">
<stop stop-color="#D86060"/>
<stop offset="1" stop-color="#BA4242"/>
</linearGradient>
<linearGradient id="paint4_linear_2076_22243" x1="40" y1="1.56641" x2="40" y2="38.9135" gradientUnits="userSpaceOnUse">
<stop stop-color="#D86060"/>
<stop offset="1" stop-color="#BA4242"/>
</linearGradient>
</defs>
</svg>
