<svg width="80" height="80" viewBox="0 0 80 80" fill="none" xmlns="http://www.w3.org/2000/svg">
<g id="icon ">
<g id="Group">
<g id="Group_2">
<path id="Vector" d="M68.0498 36.8287L60.0241 34.775C59.595 34.6651 59.2561 34.3399 59.122 33.9177C58.7754 32.8276 58.3382 31.7779 57.8191 30.7775C57.6162 30.3862 57.6287 29.9186 57.8533 29.5394L62.0775 22.4098C62.3749 21.9077 62.2943 21.2678 61.8817 20.855L59.1479 18.1212C58.7353 17.7086 58.0954 17.628 57.5931 17.9254L50.4636 22.1497C50.0843 22.3744 49.6167 22.3867 49.2254 22.1838C48.2249 21.6648 47.1753 21.2274 46.0852 20.8809C45.663 20.7466 45.3378 20.4079 45.2281 19.9789L43.1743 11.9531C43.0297 11.3876 42.5202 10.9922 41.9365 10.9922H38.0705C37.4867 10.9922 36.9773 11.3876 36.8327 11.9531L34.7789 19.9789C34.669 20.4079 34.3438 20.7468 33.9216 20.8809C32.8315 21.2275 31.7818 21.6648 30.7812 22.1838C30.39 22.3867 29.9223 22.3742 29.5431 22.1497L22.4136 17.9254C21.9114 17.628 21.2716 17.7086 20.8589 18.1212L18.1251 20.855C17.7125 21.2677 17.6319 21.9075 17.9293 22.4098L22.1536 29.5394C22.3783 29.9186 22.3906 30.3862 22.1877 30.7775C21.6687 31.778 21.2313 32.8276 20.8848 33.9177C20.7507 34.3399 20.4118 34.6651 19.9828 34.775L11.957 36.8287C11.3915 36.9734 10.9961 37.4828 10.9961 38.0665V41.9326C10.9961 42.5163 11.3917 43.0258 11.957 43.1704L19.9828 45.2242C20.4118 45.334 20.7507 45.6592 20.8848 46.0814C21.2314 47.1716 21.6687 48.2213 22.1877 49.2217C22.3906 49.6129 22.3783 50.0806 22.1536 50.4598L17.9293 57.5893C17.6319 58.0915 17.7123 58.7313 18.1251 59.1442L20.8589 61.8779C21.2716 62.2906 21.9114 62.3712 22.4136 62.0737L29.5431 57.8495C29.9223 57.6248 30.39 57.6124 30.7812 57.8154C31.7818 58.3344 32.8315 58.7718 33.9216 59.1183C34.3438 59.2525 34.669 59.5913 34.7789 60.0203L36.8327 68.0461C36.9773 68.6115 37.4867 69.007 38.0705 69.007H41.9365C42.5202 69.007 43.0297 68.6114 43.1743 68.0461L45.2281 60.0203C45.3379 59.5913 45.6632 59.2524 46.0852 59.1183C47.1753 58.7716 48.225 58.3344 49.2254 57.8154C49.6167 57.6124 50.0843 57.6248 50.4636 57.8495L57.5931 62.0737C58.0952 62.3712 58.7353 62.2906 59.1479 61.8779L61.8817 59.1442C62.2943 58.7315 62.3749 58.0915 62.0775 57.5893L57.8533 50.4598C57.6285 50.0806 57.6162 49.6129 57.8191 49.2217C58.3382 48.2211 58.7756 47.1716 59.122 46.0814C59.2561 45.6592 59.595 45.334 60.0241 45.2242L68.0498 43.1704C68.6153 43.0258 69.0107 42.5163 69.0107 41.9326V38.0665C69.0107 37.483 68.6153 36.9734 68.0498 36.8287ZM40.0033 52.1417C33.2975 52.1417 27.8614 46.7056 27.8614 39.9998C27.8614 33.2939 33.2975 27.8578 40.0033 27.8578C46.7092 27.8578 52.1453 33.2939 52.1453 39.9998C52.1453 46.7056 46.7092 52.1417 40.0033 52.1417Z" fill="url(#paint0_linear_2076_22148)"/>
<path id="Vector_2" d="M11.355 18.8312C13.7279 18.8312 15.6515 16.9076 15.6515 14.5347C15.6515 12.1619 13.7279 10.2383 11.355 10.2383C8.98218 10.2383 7.05859 12.1619 7.05859 14.5347C7.05859 16.9076 8.98218 18.8312 11.355 18.8312Z" fill="url(#paint1_linear_2076_22148)"/>
<path id="Vector_3" d="M68.648 69.7648C71.0209 69.7648 72.9445 67.8412 72.9445 65.4683C72.9445 63.0955 71.0209 61.1719 68.648 61.1719C66.2752 61.1719 64.3516 63.0955 64.3516 65.4683C64.3516 67.8412 66.2752 69.7648 68.648 69.7648Z" fill="url(#paint2_linear_2076_22148)"/>
</g>
<g id="Group_3">
<path id="Vector_4" d="M12.2642 38.0444L13.9949 37.6015C14.6659 37.4298 15.0707 36.7468 14.8988 36.0758C14.7271 35.405 14.0446 35 13.3731 35.1719L11.6424 35.6148C10.5213 35.9016 9.73828 36.9101 9.73828 38.0675V41.9337C9.73828 43.091 10.5213 44.0995 11.6424 44.3864L19.6683 46.4402C19.6753 46.442 19.6825 46.4509 19.686 46.4624C20.0504 47.6081 20.5164 48.7312 21.071 49.8001C21.0747 49.8075 21.0747 49.8154 21.0711 49.8216L16.8471 56.9508C16.2569 57.9463 16.4162 59.2132 17.2345 60.0318L19.9686 62.7656C20.7871 63.5839 22.0536 63.7432 23.0493 63.1535L30.1789 58.9293C30.1852 58.9254 30.1929 58.9258 30.2003 58.9294C31.27 59.4844 32.393 59.9502 33.5381 60.3142C33.5495 60.3179 33.5584 60.3249 33.5604 60.3321L35.6141 68.3577C35.9009 69.4788 36.9095 70.2618 38.0668 70.2618H41.9329C43.0903 70.2618 44.0989 69.4788 44.3856 68.3577L46.4392 60.3321C46.441 60.3249 46.4501 60.3176 46.4616 60.3139C47.6073 59.9497 48.73 59.4837 49.7995 58.9291C49.8063 58.9253 49.8144 58.9251 49.8209 58.9289L56.9504 63.1532C57.9459 63.7432 59.213 63.5835 60.031 62.7652L62.7649 60.0315C63.5834 59.2132 63.7429 57.9464 63.1528 56.9506L58.9286 49.821C58.9249 49.8149 58.9249 49.807 58.9288 49.7996C59.4835 48.7302 59.9494 47.6073 60.3135 46.4618C60.3171 46.4502 60.3244 46.4412 60.3314 46.4394L68.3572 44.3856C69.4783 44.0987 70.2613 43.0901 70.2613 41.9329V38.0667C70.2613 36.9095 69.4783 35.9007 68.3572 35.614L60.3314 33.5602C60.3244 33.5584 60.3171 33.5495 60.3135 33.5381C59.9494 32.3926 59.4835 31.2695 58.9288 30.2003C58.9249 30.1929 58.9249 30.185 58.9286 30.1789L63.1528 23.0493C63.7427 22.0536 63.5832 20.7867 62.7651 19.9686L60.0311 17.235C59.213 16.4164 57.9459 16.257 56.9504 16.8469L49.821 21.071C49.8145 21.0747 49.8067 21.0748 49.7995 21.071C48.73 20.5162 47.6069 20.0502 46.4616 19.686C46.4501 19.6824 46.441 19.6752 46.4392 19.6681L44.3856 11.6424C44.0989 10.5213 43.0903 9.73828 41.9329 9.73828H38.0668C36.9095 9.73828 35.9009 10.5213 35.6141 11.6424L33.5602 19.6683C33.5585 19.6753 33.5497 19.6824 33.5381 19.686C32.393 20.05 31.27 20.516 30.2001 21.071C30.1931 21.0747 30.185 21.0748 30.1789 21.0711L23.0493 16.8469C22.0536 16.257 20.7867 16.4165 19.9686 17.2348L17.2345 19.9688C16.416 20.7872 16.2567 22.0541 16.8469 23.0493L21.0711 30.1789C21.0747 30.1852 21.0747 30.1929 21.071 30.2003C20.5164 31.2694 20.0504 32.3923 19.686 33.5381C19.6825 33.5497 19.6753 33.5585 19.6681 33.5604L18.1999 33.9361C17.5289 34.1078 17.1241 34.791 17.296 35.462C17.4677 36.1331 18.1528 36.5374 18.8218 36.3659L20.2898 35.9902C21.1409 35.7725 21.8087 35.1399 22.0764 34.2981C22.3976 33.2882 22.8084 32.298 23.2975 31.3553C23.7028 30.5743 23.6772 29.6567 23.2291 28.9004L19.0047 21.7707C18.9993 21.7615 19.0008 21.7497 19.0082 21.7421L21.7421 19.0084C21.7498 19.0005 21.7619 18.9993 21.7711 19.0047L28.9006 23.2287C29.6565 23.6767 30.5743 23.7026 31.3553 23.2973C32.2987 22.808 33.2887 22.3972 34.2984 22.0764C35.1403 21.8087 35.7728 21.1409 35.9903 20.2901L38.0441 12.2644C38.0469 12.254 38.0563 12.2467 38.0672 12.2467H41.9332C41.9439 12.2467 41.9535 12.254 41.9563 12.2644L44.0099 20.2905C44.2279 21.1414 44.8605 21.809 45.702 22.0765C46.7117 22.3976 47.7018 22.8082 48.6448 23.2974C49.4259 23.7026 50.3432 23.677 51.0998 23.2291L58.2294 19.0048C58.2389 18.9993 58.2503 19.0008 58.2579 19.0085L60.9921 21.7425C60.9997 21.75 61.0011 21.7619 60.9957 21.7712L56.7715 28.9008C56.3234 29.6569 56.2978 30.5745 56.7031 31.3556C57.1924 32.2985 57.603 33.2885 57.924 34.2984C58.1917 35.1401 58.8595 35.7726 59.7104 35.9905L67.7362 38.0443C67.7466 38.0469 67.7539 38.0563 67.7539 38.0672V41.9334C67.7539 41.9443 67.7466 41.9536 67.7362 41.9563L59.7104 44.0101C58.8595 44.2278 58.1917 44.8605 57.924 45.7023C57.603 46.7121 57.1924 47.7021 56.7031 48.6451C56.2978 49.4261 56.3234 50.3437 56.7715 51.0998L60.9957 58.2294C61.0011 58.2387 60.9997 58.2504 60.9921 58.2581L58.2579 60.9921C58.2501 60.9997 58.2386 61.0009 58.2294 60.9956L51.0996 56.7714C50.3436 56.3234 49.4259 56.298 48.6448 56.703C47.7019 57.1922 46.7119 57.6028 45.702 57.924C44.8603 58.1917 44.2278 58.8594 44.0099 59.7104L41.9563 67.7362C41.9535 67.7466 41.9441 67.7539 41.9332 67.7539H38.0672C38.0565 67.7539 38.0469 67.7466 38.0441 67.736L35.9905 59.7104C35.7728 58.8594 35.1403 58.1916 34.2982 57.9239C33.2888 57.603 32.2987 57.1922 31.3555 56.703C30.5746 56.2978 29.657 56.3234 28.9006 56.7714L21.7711 60.9956C21.762 61.0009 21.7502 60.9997 21.7423 60.9919L19.0084 58.2583C19.0007 58.2506 18.9992 58.2389 19.0048 58.2294L23.2291 51.0998C23.6772 50.3437 23.7028 49.4261 23.2975 48.6449C22.8084 47.7022 22.3976 46.7122 22.0764 45.7022C21.8087 44.8603 21.1409 44.2278 20.29 44.0101L12.2642 41.9563C12.2539 41.9536 12.2465 41.9443 12.2465 41.9334V38.0672C12.2463 38.0566 12.2537 38.0471 12.2642 38.0444Z" fill="#314160"/>
<path id="Vector_5" d="M40.0014 29.1135C46.005 29.1135 50.8894 33.9979 50.8894 40.0014C50.8894 40.694 51.4507 41.2555 52.1434 41.2555C52.8361 41.2555 53.3974 40.694 53.3974 40.0014C53.3974 32.6149 47.3881 26.6055 40.0014 26.6055C32.6147 26.6055 26.6055 32.6149 26.6055 40.0014C26.6055 47.388 32.6149 53.3974 40.0014 53.3974C45.536 53.3974 50.4274 50.0724 52.4628 44.9266C52.7174 44.2825 52.4019 43.554 51.7578 43.2992C51.1141 43.0444 50.3853 43.3601 50.1304 44.004C48.476 48.1865 44.5 50.8892 40.0014 50.8892C33.9979 50.8892 29.1135 46.0049 29.1135 40.0013C29.1133 33.9979 33.9977 29.1135 40.0014 29.1135Z" fill="#314160"/>
<path id="Vector_6" d="M68.2858 11.7158C60.7307 4.16068 50.6858 0 40.0016 0C30.4305 0 21.2119 3.4178 13.967 9.63424C13.0747 9.15638 12.0658 8.93132 11.0298 8.99218C7.97463 9.17159 5.63479 11.8032 5.81437 14.8585C5.90132 16.3386 6.55943 17.6961 7.66748 18.6813C8.6921 19.5922 9.98809 20.0838 11.3478 20.0838C11.4585 20.0838 11.5695 20.0804 11.6807 20.0739C14.7358 19.8943 17.0757 17.2629 16.8961 14.2076C16.8337 13.1463 16.4762 12.149 15.8713 11.3058C22.6196 5.62588 31.15 2.50805 40.0016 2.50805C50.016 2.50805 59.4311 6.40789 66.5124 13.4891C73.5937 20.5703 77.4935 29.9854 77.4935 39.9998C77.4935 40.6924 78.0548 41.2539 78.7475 41.2539C79.4403 41.2539 80.0016 40.6924 80.0016 39.9998C80.0014 29.3156 75.8407 19.2707 68.2858 11.7158ZM11.5336 17.57C10.7241 17.6179 9.94128 17.3467 9.33383 16.8068C8.72655 16.2669 8.36589 15.5226 8.31824 14.7114C8.21959 13.0367 9.50203 11.5942 11.1767 11.4957C11.2378 11.4922 11.2986 11.4904 11.3593 11.4904C12.1046 11.4904 12.815 11.7597 13.3766 12.2592C13.9839 12.7991 14.3446 13.5431 14.3922 14.3544C14.4907 16.0291 13.2083 17.4717 11.5336 17.57Z" fill="#314160"/>
<path id="Vector_7" d="M74.1872 65.1414C74.0074 62.0863 71.3797 59.7456 68.3207 59.9262C65.2656 60.1056 62.9257 62.7372 63.1053 65.7927C63.169 66.876 63.5419 67.8687 64.1316 68.6917C57.3866 74.3692 48.8385 77.4921 39.9998 77.4921C29.9854 77.4921 20.5703 73.5922 13.4891 66.511C6.40789 59.4295 2.50805 50.0144 2.50805 40.0001C2.50805 39.3076 1.94675 38.7461 1.25402 38.7461C0.561301 38.7461 0 39.3076 0 40.0001C0 50.6844 4.16068 60.7293 11.7156 68.2844C19.2707 75.8393 29.3156 80.0001 39.9998 80.0001C49.5572 80.0001 58.7973 76.5783 66.038 70.3637C66.8185 70.781 67.7066 71.0176 68.6427 71.0176C68.7517 71.0176 68.8616 71.0145 68.9718 71.0079C72.0269 70.8284 74.3668 68.1967 74.1872 65.1414ZM68.8248 68.5042C67.1518 68.6029 65.7076 67.3203 65.6092 65.6456C65.5107 63.9709 66.7931 62.5284 68.468 62.4299C68.5284 62.4264 68.5886 62.4246 68.6482 62.4246C70.2449 62.4246 71.5887 63.6744 71.6835 65.2886C71.782 66.9633 70.4995 68.4058 68.8248 68.5042Z" fill="#314160"/>
</g>
</g>
</g>
<defs>
<linearGradient id="paint0_linear_2076_22148" x1="40.0034" y1="10.9922" x2="40.0034" y2="69.007" gradientUnits="userSpaceOnUse">
<stop stop-color="#D86060"/>
<stop offset="1" stop-color="#BA4242"/>
</linearGradient>
<linearGradient id="paint1_linear_2076_22148" x1="11.355" y1="10.2383" x2="11.355" y2="18.8312" gradientUnits="userSpaceOnUse">
<stop stop-color="#D86060"/>
<stop offset="1" stop-color="#BA4242"/>
</linearGradient>
<linearGradient id="paint2_linear_2076_22148" x1="68.648" y1="61.1719" x2="68.648" y2="69.7648" gradientUnits="userSpaceOnUse">
<stop stop-color="#D86060"/>
<stop offset="1" stop-color="#BA4242"/>
</linearGradient>
</defs>
</svg>
