<svg width="80" height="74" viewBox="0 0 80 74" fill="none" xmlns="http://www.w3.org/2000/svg">
<g id="icon">
<g id="Group 14">
<path id="Vector" d="M49.3222 5.32812H1.47266V65.9636H49.3222V5.32812Z" fill="url(#paint0_linear_2076_22176)"/>
<path id="Vector_2" d="M49.3209 67.4326H1.47228C0.659229 67.4326 0 66.7734 0 65.9603V5.32365C0 4.5106 0.659424 3.85156 1.47228 3.85156H49.3209C50.1339 3.85156 50.7932 4.51079 50.7932 5.32365V65.9603C50.7932 66.7736 50.1337 67.4326 49.3209 67.4326ZM2.94456 64.4882H47.8484V6.79612H2.94456V64.4882Z" fill="#314160"/>
<path id="Vector_3" d="M37.674 1.67188H13.1172V8.04793H37.674V1.67188Z" fill="url(#paint1_linear_2076_22176)"/>
<path id="Vector_4" d="M37.674 9.51983H13.1168C12.3038 9.51983 11.6445 8.8604 11.6445 8.04755V1.6715C11.6445 0.858448 12.304 0.199219 13.1168 0.199219H37.674C38.4872 0.199219 39.1463 0.858643 39.1463 1.6715V8.04755C39.1463 8.8604 38.487 9.51983 37.674 9.51983ZM14.5891 6.57508H36.2019V3.14378H14.5891V6.57508Z" fill="#314160"/>
<path id="Vector_5" d="M16.419 14.2188H9.51593C8.83842 14.2188 8.28906 14.7679 8.28906 15.4458V22.3489C8.28906 23.0264 8.83823 23.5757 9.51593 23.5757H16.419C17.0965 23.5757 17.6458 23.0266 17.6458 22.3489V15.4458C17.6458 14.7679 17.0967 14.2188 16.419 14.2188Z" fill="white"/>
<g id="Group">
<path id="Vector_6" d="M40.213 17.7922H26.4254C25.6122 17.7922 24.9531 17.133 24.9531 16.3199C24.9531 15.5069 25.6124 14.8477 26.4254 14.8477H40.213C41.0263 14.8477 41.6853 15.5071 41.6853 16.3199C41.6853 17.133 41.0261 17.7922 40.213 17.7922Z" fill="white"/>
<path id="Vector_7" d="M40.213 22.9483H26.4254C25.6122 22.9483 24.9531 22.289 24.9531 21.476C24.9531 20.6629 25.6124 20.0039 26.4254 20.0039H40.213C41.0263 20.0039 41.6853 20.6631 41.6853 21.476C41.6853 22.289 41.0261 22.9483 40.213 22.9483Z" fill="#D4CCF2"/>
</g>
<path id="Vector_8" d="M16.419 31.3906H9.51593C8.83842 31.3906 8.28906 31.9398 8.28906 32.6175V39.5207C8.28906 40.1984 8.83823 40.7478 9.51593 40.7478H16.419C17.0965 40.7478 17.6458 40.1986 17.6458 39.5207V32.6175C17.6458 31.9398 17.0967 31.3906 16.419 31.3906Z" fill="white"/>
<g id="Group_2">
<path id="Vector_9" d="M40.213 34.9639H26.4254C25.6122 34.9639 24.9531 34.3047 24.9531 33.4918C24.9531 32.6786 25.6124 32.0195 26.4254 32.0195H40.213C41.0263 32.0195 41.6853 32.6788 41.6853 33.4918C41.6853 34.3047 41.0261 34.9639 40.213 34.9639Z" fill="#D4CCF2"/>
<path id="Vector_10" d="M40.213 40.1201H26.4254C25.6122 40.1201 24.9531 39.4609 24.9531 38.6481C24.9531 37.8348 25.6124 37.1758 26.4254 37.1758H40.213C41.0263 37.1758 41.6853 37.835 41.6853 38.6481C41.6853 39.4611 41.0261 40.1201 40.213 40.1201Z" fill="#D4CCF2"/>
</g>
<path id="Vector_11" d="M16.419 48.5625H9.51593C8.83842 48.5625 8.28906 49.1117 8.28906 49.7896V56.6926C8.28906 57.3701 8.83823 57.9195 9.51593 57.9195H16.419C17.0965 57.9195 17.6458 57.3703 17.6458 56.6926V49.7896C17.6458 49.1119 17.0967 48.5625 16.419 48.5625Z" fill="white"/>
<g id="Group_3">
<path id="Vector_12" d="M40.213 57.292H26.4254C25.6122 57.292 24.9531 56.6328 24.9531 55.8197C24.9531 55.0067 25.6124 54.3477 26.4254 54.3477H40.213C41.0263 54.3477 41.6853 55.0069 41.6853 55.8197C41.6853 56.633 41.0261 57.292 40.213 57.292Z" fill="white"/>
</g>
<path id="Vector_13" d="M41.4999 56.4763C35.8718 56.4763 30.5809 54.2845 26.6014 50.305C22.6215 46.3251 20.4297 41.0342 20.4297 35.406C20.4297 29.7781 22.6215 24.4869 26.601 20.507C30.5809 16.5275 35.8718 14.3359 41.4999 14.3359C47.1277 14.3359 52.419 16.5277 56.3989 20.5072C64.6138 28.7225 64.6138 42.0897 56.3989 50.305C52.419 54.2843 47.1277 56.4763 41.4999 56.4763Z" fill="url(#paint2_linear_2076_22176)"/>
<path id="Vector_14" d="M41.4996 15.808C46.7344 15.808 51.656 17.8464 55.3574 21.5482C62.9987 29.1894 62.9987 41.6224 55.3574 49.2636C51.656 52.9653 46.7344 55.004 41.4996 55.004C36.2649 55.004 31.3432 52.9654 27.6418 49.2636C20.0006 41.6224 20.0006 29.1894 27.6418 21.5482C31.3432 17.8464 36.2649 15.808 41.4996 15.808ZM41.4996 12.8633C35.7305 12.8633 29.9614 15.064 25.5597 19.4659C16.7561 28.2692 16.7561 42.5424 25.5597 51.3458C29.9614 55.7474 35.7305 57.9482 41.4996 57.9482C47.2687 57.9482 53.0379 55.7474 57.4396 51.3458C66.2431 42.5422 66.2431 28.269 57.4396 19.4659C53.0379 15.0642 47.2687 12.8633 41.4996 12.8633Z" fill="#314160"/>
<path id="Vector_15" d="M41.5009 50.0798C37.5807 50.0798 33.8953 48.5531 31.1232 45.7812C28.3508 43.0087 26.8242 39.3234 26.8242 35.4031C26.8242 31.4827 28.3509 27.7972 31.1228 25.0252C33.8953 22.2529 37.5807 20.7266 41.5009 20.7266C45.4213 20.7266 49.1068 22.2531 51.879 25.025C57.6015 30.7476 57.6015 40.0587 51.879 45.7812C49.1068 48.5531 45.4213 50.0798 41.5009 50.0798Z" fill="white"/>
<path id="Vector_16" d="M41.5008 22.1987C45.028 22.1987 48.3436 23.5722 50.8379 26.0663C55.9863 31.2147 55.9863 39.5918 50.8379 44.7402C48.3438 47.2342 45.028 48.6077 41.5008 48.6077C37.9736 48.6077 34.6578 47.2342 32.1636 44.7402C27.0152 39.5916 27.0152 31.2145 32.1636 26.0663C34.6576 23.5722 37.9736 22.1987 41.5008 22.1987ZM41.5008 19.2539C37.3679 19.2539 33.2349 20.8306 30.0815 23.9838C23.7749 30.2907 23.7749 40.5157 30.0815 46.8221C33.2349 49.9756 37.3679 51.5521 41.5008 51.5521C45.6337 51.5521 49.7666 49.9756 52.92 46.8221C59.2267 40.5155 59.2267 30.2905 52.92 23.9838C49.7666 20.8308 45.6337 19.2539 41.5008 19.2539Z" fill="#314160"/>
<path id="Vector_17" d="M40.7574 27.6719C36.156 27.6719 32.4258 31.4021 32.4258 36.0033C32.4258 40.6046 36.156 44.3348 40.7574 44.3348C45.3587 44.3348 49.0887 40.6046 49.0887 36.0033H40.7574V27.6719Z" fill="url(#paint3_linear_2076_22176)"/>
<path id="Vector_18" d="M42.8125 25.9844V34.2039H51.0649C51.0649 29.6644 47.3849 25.9844 42.8454 25.9844H42.8125Z" fill="#314160"/>
<path id="Vector_19" d="M57.9161 48.6972L54.793 51.8203L70.7406 67.768L73.8638 64.6448L57.9161 48.6972Z" fill="white"/>
<path id="Vector_20" d="M57.9163 50.7814L71.7821 64.6474L70.741 65.6886L56.8752 51.8226L57.9163 50.7814ZM57.9163 46.6172L52.7109 51.8226L70.741 69.8528L75.9465 64.6474L57.9163 46.6172Z" fill="#314160"/>
<path id="Vector_21" d="M73.7545 72.4296C72.9658 72.4296 72.2245 72.1225 71.6668 71.5648L62.4023 62.3002L68.3974 56.3047L77.6634 65.5708C78.2207 66.1282 78.5278 66.8691 78.5278 67.6572C78.5278 68.4452 78.2207 69.1857 77.6638 69.7431L75.8419 71.5652C75.2845 72.1225 74.5431 72.4296 73.7545 72.4296Z" fill="url(#paint4_linear_2076_22176)"/>
<g id="Group_4">
<path id="Vector_22" d="M68.3979 58.3874L76.6231 66.6126C77.1991 67.1888 77.1991 68.1263 76.6231 68.7025L74.8012 70.5242C74.4241 70.9013 73.9837 70.9577 73.7548 70.9577C73.5257 70.9577 73.0855 70.9015 72.7084 70.5242L64.4847 62.3006L68.3979 58.3874ZM68.3979 54.5156C68.2171 54.5156 68.0364 54.5845 67.8985 54.7223L60.8201 61.8008C60.5443 62.0767 60.5443 62.524 60.8201 62.7997L70.6265 72.6061C71.4903 73.4699 72.6226 73.902 73.755 73.902C74.8872 73.902 76.0197 73.4699 76.8835 72.6061L78.7054 70.7844C80.4325 69.0572 80.4325 66.2573 78.7054 64.5301L68.8975 54.7223C68.7594 54.5847 68.5788 54.5156 68.3979 54.5156Z" fill="#314160"/>
</g>
</g>
</g>
<defs>
<linearGradient id="paint0_linear_2076_22176" x1="25.3974" y1="5.32812" x2="25.3974" y2="65.9636" gradientUnits="userSpaceOnUse">
<stop stop-color="#D86060"/>
<stop offset="1" stop-color="#BA4242"/>
</linearGradient>
<linearGradient id="paint1_linear_2076_22176" x1="25.3956" y1="1.67187" x2="25.3956" y2="8.04793" gradientUnits="userSpaceOnUse">
<stop stop-color="#D86060"/>
<stop offset="1" stop-color="#BA4242"/>
</linearGradient>
<linearGradient id="paint2_linear_2076_22176" x1="41.4949" y1="14.3359" x2="41.4949" y2="56.4763" gradientUnits="userSpaceOnUse">
<stop stop-color="#D86060"/>
<stop offset="1" stop-color="#BA4242"/>
</linearGradient>
<linearGradient id="paint3_linear_2076_22176" x1="40.7573" y1="27.6719" x2="40.7573" y2="44.3348" gradientUnits="userSpaceOnUse">
<stop stop-color="#D86060"/>
<stop offset="1" stop-color="#BA4242"/>
</linearGradient>
<linearGradient id="paint4_linear_2076_22176" x1="70.4651" y1="56.3047" x2="70.4651" y2="72.4296" gradientUnits="userSpaceOnUse">
<stop stop-color="#D86060"/>
<stop offset="1" stop-color="#BA4242"/>
</linearGradient>
</defs>
</svg>
