<svg width="80" height="78" viewBox="0 0 80 78" fill="none" xmlns="http://www.w3.org/2000/svg">
<path d="M41.3333 64H38.6667V66.6667H41.3333V64Z" fill="url(#paint0_linear_2076_24223)"/>
<path d="M78.6667 66.6667H77.3333V18.6667C77.3333 15.7212 74.9455 13.3333 72 13.3333H66.6667V5.33333C66.6667 2.38783 64.2788 0 61.3333 0H29.3333C26.3878 0 24 2.38783 24 5.33333V6.66667H21.3333C18.3878 6.66667 16 9.0545 16 12V13.3333H8C5.0545 13.3333 2.66667 15.7212 2.66667 18.6667V66.6667H1.33333C0.597 66.6667 0 67.2637 0 68V72C0 74.9455 2.38783 77.3333 5.33333 77.3333H74.6667C77.6122 77.3333 80 74.9455 80 72V68C80 67.2637 79.403 66.6667 78.6667 66.6667ZM26.6667 5.33333C26.6667 3.8605 27.8605 2.66667 29.3333 2.66667H61.3333C62.8062 2.66667 64 3.8605 64 5.33333V26.6667C64 28.1395 62.8062 29.3333 61.3333 29.3333H58.6667C58.247 29.3333 57.8518 29.531 57.6 29.8667L54.6667 33.7773L51.7333 29.8667C51.4815 29.531 51.0863 29.3333 50.6667 29.3333H29.3333C27.8605 29.3333 26.6667 28.1395 26.6667 26.6667V5.33333ZM18.6667 12C18.6667 10.5272 19.8605 9.33333 21.3333 9.33333H24V26.6667C24 29.6122 26.3878 32 29.3333 32H46.6667V33.3333C46.6667 34.8062 45.4728 36 44 36H34.6667C34.247 36 33.8518 36.1977 33.6 36.5333L30.6667 40.444L27.7333 36.5333C27.4815 36.1977 27.0863 36 26.6667 36H21.3333C19.8605 36 18.6667 34.8062 18.6667 33.3333V12ZM21.3333 38.6667H26L29.6 43.4667C30.0418 44.0558 30.8775 44.1752 31.4667 43.7333C31.5677 43.6575 31.6575 43.5677 31.7333 43.4667L35.3333 38.6667H44C46.9455 38.6667 49.3333 36.2788 49.3333 33.3333V32H50L53.6 36.8C54.0418 37.3892 54.8775 37.5085 55.4667 37.0667C55.5677 36.9908 55.6575 36.901 55.7333 36.8L59.3333 32H61.3333C64.2788 32 66.6667 29.6122 66.6667 26.6667V21.3333H69.3333V58.6667H64V57.3333C63.9993 55.1167 62.897 53.0453 61.0587 51.8067C63.1665 49.7492 63.2073 46.3727 61.15 44.2647C59.0925 42.1568 55.716 42.116 53.608 44.1735C51.5002 46.231 51.4593 49.6075 53.5167 51.7155C53.5467 51.7463 53.5772 51.7767 53.608 51.8067C51.7697 53.0453 50.6673 55.1167 50.6667 57.3333V58.6667H29.3333V57.3333C29.3327 55.1167 28.2303 53.0453 26.392 51.8067C28.4998 49.7492 28.5407 46.3727 26.4833 44.2647C24.4258 42.1568 21.0493 42.116 18.9413 44.1735C16.8335 46.231 16.7927 49.6075 18.85 51.7155C18.88 51.7463 18.9105 51.7767 18.9413 51.8067C17.103 53.0453 16.0007 55.1167 16 57.3333V58.6667H10.6667V21.3333H16V33.3333C16 36.2788 18.3878 38.6667 21.3333 38.6667ZM57.3333 53.3333C59.5425 53.3333 61.3333 55.1242 61.3333 57.3333V58.6667H53.3333V57.3333C53.3333 55.1242 55.1242 53.3333 57.3333 53.3333ZM54.6667 48C54.6667 46.5272 55.8605 45.3333 57.3333 45.3333C58.8062 45.3333 60 46.5272 60 48C60 49.4728 58.8062 50.6667 57.3333 50.6667C55.8605 50.6667 54.6667 49.4728 54.6667 48ZM22.6667 53.3333C24.8758 53.3333 26.6667 55.1242 26.6667 57.3333V58.6667H18.6667V57.3333C18.6667 55.1242 20.4575 53.3333 22.6667 53.3333ZM20 48C20 46.5272 21.1938 45.3333 22.6667 45.3333C24.1395 45.3333 25.3333 46.5272 25.3333 48C25.3333 49.4728 24.1395 50.6667 22.6667 50.6667C21.1938 50.6667 20 49.4728 20 48ZM5.33333 18.6667C5.33333 17.1938 6.52717 16 8 16H16V18.6667H9.33333C8.597 18.6667 8 19.2637 8 20V60C8 60.7363 8.597 61.3333 9.33333 61.3333H70.6667C71.403 61.3333 72 60.7363 72 60V20C72 19.2637 71.403 18.6667 70.6667 18.6667H66.6667V16H72C73.4728 16 74.6667 17.1938 74.6667 18.6667V66.6667H52C51.6463 66.6667 51.3073 66.8073 51.0573 67.0573L48.7813 69.3333H31.2187L28.9427 67.0573C28.6927 66.8073 28.3537 66.6667 28 66.6667H5.33333V18.6667ZM77.3333 72C77.3333 73.4728 76.1395 74.6667 74.6667 74.6667H5.33333C3.8605 74.6667 2.66667 73.4728 2.66667 72V69.3333H27.448L29.724 71.6093C29.974 71.8593 30.313 72 30.6667 72H49.3333C49.687 72 50.026 71.8593 50.276 71.6093L52.552 69.3333H77.3333V72Z" fill="url(#paint1_linear_2076_24223)"/>
<path d="M60 6.66667H38.6667V9.33333H60V6.66667Z" fill="url(#paint2_linear_2076_24223)"/>
<path d="M60 12H30.6667V14.6667H60V12Z" fill="url(#paint3_linear_2076_24223)"/>
<path d="M60 17.3333H30.6667V20H60V17.3333Z" fill="url(#paint4_linear_2076_24223)"/>
<path d="M54.6667 22.6667H30.6667V25.3333H54.6667V22.6667Z" fill="url(#paint5_linear_2076_24223)"/>
<path d="M36 6.66667H33.3333V9.33333H36V6.66667Z" fill="url(#paint6_linear_2076_24223)"/>
<defs>
<linearGradient id="paint0_linear_2076_24223" x1="0" y1="38.6667" x2="80" y2="38.6667" gradientUnits="userSpaceOnUse">
<stop stop-color="#314160"/>
<stop offset="1" stop-color="#CE5656"/>
</linearGradient>
<linearGradient id="paint1_linear_2076_24223" x1="0" y1="38.6667" x2="80" y2="38.6667" gradientUnits="userSpaceOnUse">
<stop stop-color="#314160"/>
<stop offset="1" stop-color="#CE5656"/>
</linearGradient>
<linearGradient id="paint2_linear_2076_24223" x1="0" y1="38.6667" x2="80" y2="38.6667" gradientUnits="userSpaceOnUse">
<stop stop-color="#314160"/>
<stop offset="1" stop-color="#CE5656"/>
</linearGradient>
<linearGradient id="paint3_linear_2076_24223" x1="0" y1="38.6667" x2="80" y2="38.6667" gradientUnits="userSpaceOnUse">
<stop stop-color="#314160"/>
<stop offset="1" stop-color="#CE5656"/>
</linearGradient>
<linearGradient id="paint4_linear_2076_24223" x1="0" y1="38.6667" x2="80" y2="38.6667" gradientUnits="userSpaceOnUse">
<stop stop-color="#314160"/>
<stop offset="1" stop-color="#CE5656"/>
</linearGradient>
<linearGradient id="paint5_linear_2076_24223" x1="0" y1="38.6667" x2="80" y2="38.6667" gradientUnits="userSpaceOnUse">
<stop stop-color="#314160"/>
<stop offset="1" stop-color="#CE5656"/>
</linearGradient>
<linearGradient id="paint6_linear_2076_24223" x1="0" y1="38.6667" x2="80" y2="38.6667" gradientUnits="userSpaceOnUse">
<stop stop-color="#314160"/>
<stop offset="1" stop-color="#CE5656"/>
</linearGradient>
</defs>
</svg>
