<svg width="80" height="76" viewBox="0 0 80 76" fill="none" xmlns="http://www.w3.org/2000/svg">
<g id="icon">
<g id="Group">
<g id="Group_2">
<path id="Vector" d="M31.2882 8.62109C30.6038 10.6556 30.6038 12.8582 31.2882 14.8927H4.63583C3.80416 14.8927 3.00655 14.5624 2.41846 13.9743C1.83038 13.3862 1.5 12.5886 1.5 11.7569C1.5 10.9252 1.83038 10.1276 2.41846 9.53956C3.00655 8.95147 3.80416 8.62109 4.63583 8.62109H31.2882Z" fill="white"/>
<path id="Vector_2" d="M78.502 11.7612C78.5026 12.1726 78.422 12.5801 78.2649 12.9604C78.1078 13.3406 77.8773 13.6862 77.5865 13.9772C76.9943 14.5632 76.195 14.8922 75.3619 14.8928H49.9844C50.6688 12.8582 50.6688 10.6556 49.9844 8.6211H75.3619C75.7744 8.62065 76.1829 8.70156 76.5641 8.8592C76.9453 9.01685 77.2916 9.24813 77.5833 9.53981C77.875 9.83148 78.1063 10.1778 78.2639 10.559C78.4216 10.9402 78.5025 11.3487 78.502 11.7612Z" fill="white"/>
<path id="Vector_3" d="M50.4992 11.7593C50.5007 12.8242 50.3272 13.8821 49.9859 14.8908C49.3289 16.8498 48.0731 18.5529 46.3958 19.7595C44.7185 20.9661 42.7045 21.6152 40.6383 21.6152C38.5721 21.6152 36.5581 20.9661 34.8808 19.7595C33.2035 18.5529 31.9477 16.8498 31.2907 14.8908C30.6062 12.8563 30.6062 10.6537 31.2907 8.61919C32.0357 6.40149 33.5449 4.52091 35.5487 3.31342C37.5525 2.10594 39.9203 1.6502 42.2292 2.02764C44.538 2.40507 46.6375 3.59109 48.1524 5.37381C49.6674 7.15653 50.4992 9.4198 50.4992 11.7593Z" fill="url(#paint0_linear_2076_22123)"/>
<path id="Vector_4" d="M13.8255 34.6914C13.141 36.7289 13.141 38.9342 13.8255 40.9716H4.6362C3.80339 40.9716 3.00469 40.6408 2.41581 40.0519C1.82693 39.463 1.49609 38.6643 1.49609 37.8315C1.49609 36.9987 1.82693 36.2 2.41581 35.6111C3.00469 35.0222 3.80339 34.6914 4.6362 34.6914H13.8255Z" fill="white"/>
<path id="Vector_5" d="M78.5003 37.8315C78.5022 38.2444 78.4223 38.6536 78.2652 39.0355C78.1081 39.4173 77.8768 39.7642 77.5849 40.0562C77.2929 40.3482 76.946 40.5794 76.5641 40.7365C76.1823 40.8936 75.7731 40.9735 75.3602 40.9716H32.5195C33.204 38.9342 33.204 36.7289 32.5195 34.6914H75.3602C75.7727 34.691 76.1812 34.7719 76.5624 34.9295C76.9436 35.0872 77.2899 35.3184 77.5816 35.6101C77.8732 35.9018 78.1045 36.2481 78.2622 36.6293C78.4198 37.0105 78.5007 37.419 78.5003 37.8315Z" fill="white"/>
<path id="Vector_6" d="M33.033 37.83C33.0332 40.3085 32.1006 42.6963 30.4206 44.5185C28.7406 46.3408 26.4363 47.4639 23.9659 47.6646C21.4956 47.8654 19.0402 47.129 17.088 45.6019C15.1358 44.0748 13.83 41.8688 13.4301 39.4228C13.0302 36.9768 13.5656 34.4698 14.9298 32.4006C16.2939 30.3313 18.387 28.8512 20.7927 28.2548C23.1983 27.6584 25.7404 27.9892 27.9132 29.1815C30.0861 30.3739 31.7305 32.3404 32.5196 34.6899C32.861 35.7016 33.0344 36.7623 33.033 37.83Z" fill="url(#paint1_linear_2076_22123)"/>
<path id="Vector_7" d="M42.7193 60.7695C42.0348 62.8041 42.0348 65.0067 42.7193 67.0412H4.63583C4.22403 67.0412 3.81626 66.9601 3.4358 66.8025C3.05534 66.6449 2.70965 66.4139 2.41846 66.1227C2.12727 65.8315 1.89629 65.4858 1.7387 65.1054C1.58111 64.7249 1.5 64.3172 1.5 63.9054C1.5 63.4936 1.58111 63.0858 1.7387 62.7053C1.89629 62.3249 2.12727 61.9792 2.41846 61.688C2.70965 61.3968 3.05534 61.1658 3.4358 61.0082C3.81626 60.8506 4.22403 60.7695 4.63583 60.7695H42.7193Z" fill="white"/>
<path id="Vector_8" d="M78.4999 63.9011C78.5019 64.314 78.422 64.7232 78.2648 65.105C78.1077 65.4869 77.8765 65.8338 77.5845 66.1258C77.2926 66.4177 76.9456 66.649 76.5638 66.8061C76.1819 66.9632 75.7727 67.0431 75.3598 67.0412H61.4219C62.1063 65.0067 62.1063 62.8041 61.4219 60.7695H75.3598C75.7717 60.7689 76.1796 60.8493 76.5603 61.0064C76.9411 61.1634 77.2871 61.3939 77.5787 61.6847C77.8703 61.9755 78.1018 62.321 78.2598 62.7012C78.4179 63.0815 78.4995 63.4893 78.4999 63.9011Z" fill="white"/>
<path id="Vector_9" d="M61.9353 63.8995C61.9377 66.3784 61.0069 68.7674 59.328 70.5911C57.6492 72.4149 55.3453 73.5399 52.8747 73.7422C50.4041 73.9446 47.9478 73.2095 45.9946 71.6833C44.0413 70.157 42.7341 67.9514 42.3331 65.5052C41.9321 63.059 42.4666 60.5514 43.8303 58.4814C45.194 56.4113 47.287 54.9305 49.6929 54.3334C52.0988 53.7364 54.6413 54.0669 56.8146 55.2591C58.9879 56.4514 60.6328 58.4181 61.422 60.768C61.7624 61.7769 61.9358 62.8347 61.9353 63.8995Z" fill="url(#paint2_linear_2076_22123)"/>
</g>
<g id="Group_3">
<path id="Vector_10" d="M4.63706 16.3897H30.2713C31.165 18.392 32.6195 20.0927 34.459 21.286C36.2986 22.4794 38.4443 23.1145 40.6371 23.1145C42.8298 23.1145 44.9756 22.4794 46.8151 21.286C48.6546 20.0927 50.1091 18.392 51.0028 16.3897H75.3622C75.9706 16.3897 76.5731 16.2699 77.1352 16.037C77.6973 15.8042 78.2081 15.4629 78.6383 15.0327C79.0686 14.6025 79.4098 14.0917 79.6427 13.5296C79.8755 12.9675 79.9954 12.365 79.9954 11.7566C79.9954 11.1481 79.8755 10.5456 79.6427 9.98353C79.4098 9.42141 79.0686 8.91065 78.6383 8.48042C78.2081 8.0502 77.6973 7.70892 77.1352 7.47608C76.5731 7.24324 75.9706 7.1234 75.3622 7.1234H51.0003C50.1071 5.12112 48.653 3.42045 46.8138 2.227C44.9746 1.03355 42.8291 0.398437 40.6366 0.398438C38.4442 0.398437 36.2986 1.03355 34.4595 2.227C32.6203 3.42045 31.1662 5.12112 30.273 7.1234H4.63706C4.02863 7.1234 3.42615 7.24324 2.86403 7.47608C2.30191 7.70892 1.79115 8.0502 1.36093 8.48042C0.930698 8.91065 0.589423 9.42141 0.356585 9.98353C0.123747 10.5456 0.00390625 11.1481 0.00390625 11.7566C0.00390625 12.365 0.123747 12.9675 0.356585 13.5296C0.589423 14.0917 0.930698 14.6025 1.36093 15.0327C1.79115 15.4629 2.30191 15.8042 2.86403 16.037C3.42615 16.2699 4.02863 16.3897 4.63706 16.3897ZM77.005 11.7608C77.0062 11.974 76.9654 12.1853 76.8848 12.3827C76.8042 12.58 76.6854 12.7595 76.5352 12.9108C76.2236 13.2209 75.8018 13.395 75.3622 13.3951H51.8704C52.0359 12.309 52.0359 11.2041 51.8704 10.1181H75.3622C75.7978 10.1185 76.2153 10.2917 76.5233 10.5997C76.8313 10.9077 77.0045 11.3253 77.005 11.7608ZM40.6328 3.39292C42.3871 3.39112 44.0976 3.94153 45.5216 4.96615C46.9457 5.99076 48.0111 7.4376 48.5669 9.10159C49.1281 10.779 49.143 12.5911 48.6094 14.2775C48.0758 15.9639 47.0211 17.4376 45.5971 18.4868C44.1731 19.536 42.4531 20.1067 40.6843 20.1166C38.9155 20.1266 37.1891 19.5755 35.7534 18.5424C34.3176 17.5094 33.2464 16.0476 32.6938 14.3674C32.1411 12.6871 32.1355 10.8749 32.6778 9.19129C33.2201 7.50767 34.2823 6.03937 35.7117 4.99749C37.141 3.95561 38.864 3.39383 40.6328 3.39292ZM3.46487 10.6032C3.77648 10.2924 4.19867 10.1179 4.63877 10.1181H29.4028C29.322 10.6619 29.2805 11.211 29.2788 11.7608C29.2805 12.3079 29.3219 12.854 29.4028 13.3951H4.63706C4.31381 13.3947 3.99784 13.299 3.72873 13.1199C3.45963 12.9408 3.24934 12.6863 3.1242 12.3882C2.99906 12.0902 2.96463 11.7618 3.02523 11.4443C3.08583 11.1268 3.23876 10.8342 3.46487 10.6032Z" fill="#314160"/>
<path id="Vector_11" d="M75.3626 33.1937H33.5375C32.6444 31.1914 31.1903 29.4908 29.3511 28.2973C27.5119 27.1039 25.3664 26.4688 23.1739 26.4688C20.9814 26.4688 18.8359 27.1039 16.9967 28.2973C15.1575 29.4908 13.7035 31.1914 12.8103 33.1937H4.63743C3.40751 33.1937 2.22796 33.6823 1.35827 34.552C0.488585 35.4217 0 36.6012 0 37.8311C0 39.0611 0.488585 40.2406 1.35827 41.1103C2.22796 41.98 3.40751 42.4686 4.63743 42.4686H12.812C13.7017 44.4723 15.1542 46.1744 16.993 47.3683C18.8318 48.5621 20.9777 49.1963 23.1701 49.1937C23.5672 49.1937 23.948 49.036 24.2288 48.7552C24.5096 48.4744 24.6674 48.0935 24.6674 47.6964C24.6674 47.2993 24.5096 46.9184 24.2288 46.6376C23.948 46.3568 23.5672 46.1991 23.1701 46.1991C21.6299 46.1996 20.1196 45.7751 18.8053 44.9723C17.4909 44.1695 16.4237 43.0195 15.721 41.649C15.0183 40.2786 14.7075 38.7408 14.8227 37.205C14.938 35.6692 15.4748 34.195 16.3742 32.9447C17.2735 31.6945 18.5005 30.7167 19.9199 30.119C21.3393 29.5214 22.8961 29.327 24.4189 29.5574C25.9417 29.7878 27.3713 30.4339 28.5504 31.4247C29.7295 32.4155 30.6123 33.7124 31.1016 35.1728C31.5726 36.5794 31.6616 38.0859 31.3592 39.5381C31.0569 40.9904 30.3742 42.3362 29.381 43.438C29.115 43.733 28.9771 44.1216 28.9977 44.5182C29.0182 44.9149 29.1955 45.2871 29.4905 45.5531C29.7855 45.819 30.174 45.9569 30.5707 45.9364C30.9674 45.9158 31.3396 45.7386 31.6056 45.4436C32.403 44.5599 33.0558 43.5559 33.5401 42.4686H75.3626C76.5925 42.4686 77.772 41.98 78.6417 41.1103C79.5114 40.2406 80 39.0611 80 37.8311C80 36.6012 79.5114 35.4217 78.6417 34.552C77.772 33.6823 76.5925 33.1937 75.3626 33.1937ZM2.99465 37.8311C2.9916 37.3984 3.16021 36.9821 3.46353 36.6735C3.7753 36.3629 4.19738 36.1885 4.63743 36.1884H11.941C11.775 37.2773 11.775 38.385 11.941 39.4739H4.63743C4.20188 39.4735 3.7843 39.3003 3.47631 38.9923C3.16833 38.6843 2.99511 38.2667 2.99465 37.8311ZM76.5348 38.9888C76.2234 39.2995 75.8015 39.4739 75.3617 39.4739H34.4077C34.5742 38.3851 34.5742 37.2772 34.4077 36.1884H75.3626C75.6866 36.1893 76.0031 36.2857 76.2726 36.4656C76.5421 36.6455 76.7525 36.9008 76.8777 37.1996C77.0029 37.4984 77.0372 37.8275 76.9764 38.1458C76.9155 38.464 76.7614 38.7572 76.5348 38.9888Z" fill="#314160"/>
<path id="Vector_12" d="M21.013 65.543H19.5208C19.1236 65.543 18.7428 65.7007 18.462 65.9815C18.1812 66.2623 18.0234 66.6432 18.0234 67.0403C18.0234 67.4374 18.1812 67.8183 18.462 68.0991C18.7428 68.3799 19.1236 68.5376 19.5208 68.5376H21.013C21.4101 68.5376 21.7909 68.3799 22.0717 68.0991C22.3525 67.8183 22.5103 67.4374 22.5103 67.0403C22.5103 66.6432 22.3525 66.2623 22.0717 65.9815C21.7909 65.7007 21.4101 65.543 21.013 65.543Z" fill="#314160"/>
<path id="Vector_13" d="M75.3625 59.2716H62.4428C61.5481 57.2691 60.0929 55.5685 58.2528 54.3752C56.4126 53.1819 54.2663 52.5469 52.0731 52.5469C49.8799 52.5469 47.7336 53.1819 45.8935 54.3752C44.0534 55.5685 42.5981 57.2691 41.7035 59.2716H4.63741C3.40667 59.2706 2.22577 59.7577 1.35356 60.626C0.70634 61.2751 0.265992 62.1014 0.0881365 63.0006C-0.0897195 63.8998 0.0028942 64.8316 0.354279 65.6782C0.705664 66.5248 1.30006 67.2483 2.06239 67.7573C2.82472 68.2662 3.72078 68.5379 4.63741 68.5379H11.3369C11.734 68.5379 12.1148 68.3801 12.3956 68.0993C12.6764 67.8185 12.8342 67.4377 12.8342 67.0406C12.8342 66.6434 12.6764 66.2626 12.3956 65.9818C12.1148 65.701 11.734 65.5432 11.3369 65.5432H4.63741C4.20186 65.5428 3.78427 65.3696 3.47629 65.0616C3.16831 64.7536 2.99508 64.336 2.99463 63.9005C2.99331 63.6875 3.03405 63.4764 3.11451 63.2792C3.19497 63.082 3.31357 62.9026 3.46351 62.7514C3.77528 62.4408 4.19736 62.2664 4.63741 62.2662H40.8299C40.6645 63.3523 40.6645 64.4572 40.8299 65.5432H29.7412C29.344 65.5432 28.9632 65.701 28.6824 65.9818C28.4016 66.2626 28.2438 66.6434 28.2438 67.0406C28.2438 67.4377 28.4016 67.8185 28.6824 68.0993C28.9632 68.3801 29.344 68.5379 29.7412 68.5379H41.7052C42.5995 70.5402 44.0544 72.2408 45.8943 73.4341C47.7341 74.6275 49.8802 75.2625 52.0731 75.2625C54.2661 75.2625 56.4121 74.6275 58.252 73.4341C60.0919 72.2408 61.5468 70.5402 62.441 68.5379H75.3608C76.5896 68.5379 77.7681 68.0498 78.637 67.1809C79.5059 66.312 79.994 65.1335 79.994 63.9047C79.994 62.6759 79.5059 61.4975 78.637 60.6286C77.7681 59.7597 76.5896 59.2716 75.3608 59.2716H75.3625ZM52.0727 72.2684C49.8534 72.2684 47.725 71.3868 46.1557 69.8175C44.5864 68.2482 43.7048 66.1198 43.7048 63.9005C43.7048 62.6874 43.9685 61.4888 44.4778 60.3878C44.987 59.2867 45.7295 58.3096 46.6539 57.524C47.5783 56.7385 48.6624 56.1633 49.8312 55.8384C50.9999 55.5134 52.2254 55.4465 53.4226 55.6421C54.6198 55.8378 55.7601 56.2915 56.7646 56.9717C57.769 57.6518 58.6136 58.5423 59.2397 59.5813C59.8659 60.6203 60.2587 61.783 60.3908 62.9888C60.523 64.1947 60.3914 65.4149 60.0051 66.5648C59.4487 68.2277 58.3833 69.6734 56.9596 70.6971C55.5359 71.7207 53.8262 72.2704 52.0727 72.2684ZM76.5347 65.059C76.2231 65.3692 75.8014 65.5433 75.3617 65.5432H63.3103C63.4763 64.4572 63.4763 63.3523 63.3103 62.2662H75.3625C75.686 62.2663 76.0023 62.3618 76.2718 62.5409C76.5412 62.7199 76.7517 62.9746 76.877 63.2728C77.0023 63.5711 77.0367 63.8997 76.976 64.2174C76.9152 64.5352 76.7612 64.8279 76.5347 65.059Z" fill="#314160"/>
</g>
</g>
</g>
<defs>
<linearGradient id="paint0_linear_2076_22123" x1="40.6383" y1="1.89844" x2="40.6383" y2="21.6152" gradientUnits="userSpaceOnUse">
<stop stop-color="#D86060"/>
<stop offset="1" stop-color="#BA4242"/>
</linearGradient>
<linearGradient id="paint1_linear_2076_22123" x1="23.1669" y1="27.9648" x2="23.1669" y2="47.6971" gradientUnits="userSpaceOnUse">
<stop stop-color="#D86060"/>
<stop offset="1" stop-color="#BA4242"/>
</linearGradient>
<linearGradient id="paint2_linear_2076_22123" x1="52.0692" y1="54.043" x2="52.0692" y2="73.7752" gradientUnits="userSpaceOnUse">
<stop stop-color="#D86060"/>
<stop offset="1" stop-color="#BA4242"/>
</linearGradient>
</defs>
</svg>
