<svg width="60" height="60" viewBox="0 0 60 60" fill="none" xmlns="http://www.w3.org/2000/svg">
<g id="icon">
<g id="Vector">
<path d="M46 27C45.4 27 45 27.4 45 28C45 33.6 40.4 37.9999 34.5 37.9999H25.5C19.6 37.9999 15 33.5999 15 28C15 27.4 14.6 27 14 27C13.4 27 13.0001 27.4 13.0001 28C13.0001 34.6999 18.5 40 25.5001 40H34.5001C41.5001 40 47.0002 34.6999 47.0002 28C47 27.4 46.6 27 46 27Z" fill="url(#paint0_linear_2076_23582)"/>
<path d="M54.1 8.00004H51V2.90004C51 1.29996 49.7 0 48.2 0H11.9C10.3 0 9 1.29996 9 2.90004V8.00004H5.90004C2.7 8.00004 0 10.8 0 14V23C0 27.2 2.19996 31.2 5.79996 33.4001L11.5 36.8L12.1314 37.1609C14.8555 40.9206 19.1244 43.4899 24 43.9313V48H23.9C22.3001 48 21 49.3 21 50.9V52.0001H19C15.1 52.0001 12 55.1 12 59C12 59.6 12.4 60 13 60H46.9999C47.5999 60 47.9999 59.6 47.9999 59C47.9999 55.1 44.8999 52.0001 40.9999 52.0001H38.8999V50.9C38.8999 49.3001 37.6 48 35.9999 48H35.7998V43.9489C40.8519 43.5537 45.2705 40.8756 48.0226 36.9677L54.1999 33.3C57.8 31.1 60 27.2 60 23V14C60 10.7 57.3 8.00004 54.1 8.00004ZM11 2.90004C11 2.4 11.4 2.00004 11.9 2.00004H48.1001C48.6001 2.00004 49.0001 2.4 49.0001 2.90004V6H11V2.90004ZM9.01477 28.1701L8.90004 28.1C7.10004 27.1001 6 25.1 6 23V14H9V27.5C9 27.7246 9.00574 27.9477 9.01477 28.1701ZM6.9 31.6C3.9 29.8 2.00004 26.5 2.00004 22.9999V13.9999C2.00004 11.8 3.80004 9.99996 5.90004 9.99996H9V12H5.79996C4.8 12 3.99996 13.1 3.99996 14V23C3.99996 25.8 5.49996 28.5 7.89996 29.9L9.32262 30.7536C9.51809 31.7275 9.7991 32.6707 10.1583 33.5748L6.9 31.6ZM45.9 58H14.1C14.6 55.6999 16.6 54 19 54H40.9999C43.4 54 45.4 55.7 45.9 58ZM36.1 50C36.6 50 37 50.4 37 50.9V52.0001H23V50.9C23 50.4 23.4 50 23.9 50H36.1ZM26 48V44H34.0001V48H26ZM35.2025 42.0827C35.0861 42.028 34.9568 42 34.8 42H34.6C34.5 42 34.5 42 34.3999 42H25.3999C25.3 42 25.3 42 25.1999 42H24.9998C24.9002 42 24.7757 42.0248 24.6511 42.0745C20.1186 41.812 16.1404 39.4624 13.6654 35.9732C13.6414 35.8452 13.5885 35.7182 13.4998 35.5999C12.2998 33.8999 11.5998 31.9999 11.1997 29.8999C11.1906 29.8724 11.1797 29.845 11.1689 29.8175C11.0576 29.0944 10.9998 28.3539 10.9998 27.5999V8.00004H48.9998V27.6C49 35.3644 42.877 41.7154 35.2025 42.0827ZM51 27.6V14.2H54V23.2C54 25.3 52.9 27.1999 51.1 28.3L50.981 28.3726C50.9932 28.1164 51 27.859 51 27.6ZM58.1 23C58.1 26.5001 56.2001 29.8001 53.2001 31.6001L49.9001 33.6001C50.2001 32.7001 50.5001 31.8001 50.7001 30.8002L52.0001 29.8002C54.4001 28.4002 55.9001 25.8002 55.9001 23.0002V14.0002C55.9001 13.0002 55.2001 12.0001 54.1001 12.0001H51V9.99996H54.2C56.3 9.99996 58.1 11.8 58.1 13.9999V23Z" fill="url(#paint1_linear_2076_23582)"/>
<path d="M24.9 22.2L24 27.8C23.9 28.2 24.1 28.6001 24.4 28.8C24.7 29 25.2 29 25.5 28.8L30 26.2L34.5 28.9C34.7 28.9999 34.8 28.9999 35 28.9999C35.2001 28.9999 35.4 28.9 35.6 28.7999C35.9 28.5998 36.1001 28.1999 36 27.7999L35.1 22.1999L38.8 17.4998C39 17.1998 39.1 16.6998 38.8999 16.3998C38.6999 15.9998 38.3999 15.7998 37.9999 15.7998H33.1999L30.8999 11.2998C30.4999 10.5998 29.3999 10.5998 29.0999 11.2998L26.7998 15.7998H21.9998C21.5999 15.7998 21.2999 16.0998 21.0998 16.3998C20.8998 16.7998 20.9999 17.1998 21.1998 17.4998L24.9 22.2ZM27.4 18C27.7999 18 28.0999 17.8 28.3 17.5L30 14.2L31.7 17.5C31.9001 17.8 32.2001 18 32.6 18H35.9L33.2 21.4C33 21.6 33 21.9 33 22.2L33.7 26L30.4999 24.2C30.2999 24.1001 30.1999 24.1001 29.9999 24.1001C29.7998 24.1001 29.6999 24.1001 29.5999 24.3001L26.3999 26.1001L26.9999 22.2001C27.0998 21.9001 26.9999 21.6001 26.7998 21.4001L24.0998 18.0001L27.4 18Z" fill="url(#paint2_linear_2076_23582)"/>
</g>
</g>
<defs>
<linearGradient id="paint0_linear_2076_23582" x1="0" y1="30" x2="60" y2="30" gradientUnits="userSpaceOnUse">
<stop stop-color="#314160"/>
<stop offset="1" stop-color="#CE5656"/>
</linearGradient>
<linearGradient id="paint1_linear_2076_23582" x1="0" y1="30" x2="60" y2="30" gradientUnits="userSpaceOnUse">
<stop stop-color="#314160"/>
<stop offset="1" stop-color="#CE5656"/>
</linearGradient>
<linearGradient id="paint2_linear_2076_23582" x1="0" y1="30" x2="60" y2="30" gradientUnits="userSpaceOnUse">
<stop stop-color="#314160"/>
<stop offset="1" stop-color="#CE5656"/>
</linearGradient>
</defs>
</svg>
