<svg width="51" height="80" viewBox="0 0 51 80" fill="none" xmlns="http://www.w3.org/2000/svg">
<g id="icon">
<path id="Vector" d="M50.1495 21.2521C50.0288 19.3199 49.6585 17.4122 49.0467 15.5769C47.4288 10.7228 44.2328 6.53671 39.9666 3.70316C36.2716 1.26416 31.9407 -0.0238726 27.5135 0.000335055H22.6833C18.2561 -0.0238726 13.9252 1.26416 10.2302 3.70316C5.96398 6.53671 2.76794 10.7228 1.15012 15.5769C0.530151 17.4041 0.159806 19.3121 0.0472562 21.244C-0.234433 25.5749 0.747392 29.8977 2.88081 33.6729L11.937 49.9819C12.1703 50.4088 12.6211 50.6663 13.104 50.6663H15.7687V63.9969H14.4323C13.6997 63.9969 13.0961 64.5926 13.0961 65.333V73.3347C13.104 77.0137 16.0825 80 19.7614 80H30.4275C34.1062 79.9918 37.0928 77.0137 37.0928 73.3347V65.333C37.0928 64.6005 36.4971 63.9969 35.7564 63.9969H34.4202V50.6663H37.1007C37.5839 50.6663 38.0347 50.4007 38.268 49.9819L47.316 33.681C49.4494 29.8977 50.4312 25.5828 50.1495 21.2521ZM45.8267 14.6673H38.3406C37.6883 12.5019 36.7787 10.4169 35.6278 8.46075C35.37 8.02596 35.1043 7.62354 34.8468 7.22899C36.2474 7.00389 37.6241 6.68165 38.9845 6.27923C41.9872 8.40448 44.3538 11.3025 45.8267 14.6673ZM35.5552 14.6673H26.4345V7.96182C28.2941 7.92158 30.1135 7.81689 31.8684 7.62354C32.3673 8.29979 32.8584 9.02413 33.3334 9.82927C34.2429 11.3588 34.9836 12.9848 35.5552 14.6673ZM22.6833 2.66475H27.5135C30.3068 2.65689 33.0759 3.2363 35.6356 4.37154C34.6054 4.58061 33.5025 4.75792 32.3352 4.90285C27.5214 5.47441 22.6594 5.47441 17.8534 4.90285C16.6864 4.75792 15.5835 4.58061 14.553 4.37154C17.113 3.24447 19.8821 2.65689 22.6833 2.66475ZM23.7623 7.96182V14.6673H14.6416C15.2132 12.9848 15.9539 11.3588 16.8552 9.82927C17.3384 9.01627 17.8295 8.29979 18.3284 7.62354C20.0915 7.81689 21.9105 7.92158 23.7623 7.96182ZM11.2123 6.27923C12.5648 6.68165 13.9494 7.00389 15.3421 7.22899C15.0764 7.63172 14.8186 8.02596 14.553 8.46892C13.4099 10.4169 12.5004 12.5019 11.8483 14.6673H4.36188C5.84326 11.3025 8.20963 8.40448 11.2123 6.27923ZM3.41212 17.3318H46.7847C47.0343 18.2092 47.2195 19.0945 47.3484 19.9962H2.84843C2.97732 19.1027 3.1625 18.2092 3.41212 17.3318ZM36.8674 22.6688C36.8592 26.9755 35.7564 31.2097 33.6553 34.9691L26.4345 47.9617V22.6688H36.8674ZM31.7637 50.6663V63.9969H26.4267V50.6663H31.7637ZM23.7623 22.6688V47.9617L16.5415 34.9691C14.4404 31.2097 13.3294 26.9755 13.3294 22.6688H23.7623ZM13.8849 48.0019L5.21512 32.377C3.54888 29.4145 2.67143 26.066 2.67143 22.6688H10.6732C10.681 27.4342 11.8967 32.1113 14.2229 36.265L20.7435 48.0019H13.8849ZM23.7623 50.6663V63.9969H18.4249V50.6663H23.7623ZM30.4354 77.3356H19.7693C17.5638 77.3356 15.7687 75.5483 15.7687 73.3347V66.6694H34.4363V73.3347C34.4281 75.5405 32.6411 77.3356 30.4354 77.3356ZM44.9895 32.377L36.3119 48.0019H29.4533L35.9818 36.265C38.3082 32.1113 39.5236 27.4263 39.5318 22.6688H47.5335C47.5335 26.066 46.6561 29.4145 44.9895 32.377Z" fill="url(#paint0_linear_2076_23567)"/>
</g>
<defs>
<linearGradient id="paint0_linear_2076_23567" x1="0" y1="40" x2="50.1968" y2="40" gradientUnits="userSpaceOnUse">
<stop stop-color="#314160"/>
<stop offset="1" stop-color="#CE5656"/>
</linearGradient>
</defs>
</svg>
