<svg width="80" height="80" viewBox="0 0 80 80" fill="none" xmlns="http://www.w3.org/2000/svg">
<g id="icon">
<g id="Vector">
<path d="M79.0996 0.904574C76.8413 0.301577 74.5169 0 72.1926 0C65.366 0 58.5442 2.60262 53.3364 7.81052L29.9584 31.186L14.8404 34.0536C14.8404 34.0536 0.520649 46.4823 0.488929 46.5116C-0.162976 47.1635 -0.162976 48.2207 0.488929 48.8701C0.813632 49.1948 1.28725 49.3559 1.71461 49.3559L17.2039 47.7908L15.8098 54.7641L19.3451 58.2995L15.8098 61.8348C15.1579 62.4842 15.1579 63.5414 15.8098 64.1933C16.4617 64.8427 17.5164 64.8427 18.166 64.1933L21.7013 60.658L25.2392 64.1933L32.2121 62.7967L30.6447 78.286C30.6325 78.7304 30.7936 79.1748 31.1305 79.5117C31.4577 79.8389 31.8824 80 32.3098 80C32.7372 80 33.1619 79.8389 33.4891 79.5117C33.5208 79.4823 45.9484 65.1601 45.9484 65.1601L48.8149 50.0467L72.1928 26.6689C79.1729 19.6887 81.4754 9.80171 79.0996 0.904574ZM16.647 44.4949L6.74172 45.4959C9.65452 42.9664 13.5486 39.5886 16.3444 37.1605L25.7492 35.377L16.647 44.4949ZM21.7012 55.9411L19.4281 53.668L20.2142 49.7392L24.0597 53.585L21.7012 55.9411ZM26.3328 60.575L24.0597 58.2996L26.4159 55.9411L30.2638 59.7889L26.3328 60.575ZM42.8401 63.6563C40.4133 66.4542 37.0341 70.346 34.5046 73.2613L35.5056 63.3536L44.6249 54.2516L42.8401 63.6563ZM69.8366 24.3118L34.6657 59.4787L28.7743 53.585L39.3804 42.9762C40.0323 42.3268 40.0323 41.2721 39.3804 40.6202C38.7285 39.9694 37.6738 39.9694 37.0242 40.6202L26.4156 51.2287L20.5241 45.3348L55.6925 10.1678C57.2502 8.61134 58.986 7.30144 60.876 6.25264L73.7478 19.1245C72.6979 21.0169 71.3844 22.7651 69.8366 24.3118ZM75.9281 13.6727C75.7328 14.4258 75.5009 15.1668 75.2323 15.8945L64.1086 4.77194C66.6966 3.81737 69.4117 3.33266 72.1926 3.33266C73.5745 3.33266 74.9515 3.45469 76.3091 3.69642C76.895 7.00111 76.768 10.4133 75.9281 13.6727Z" fill="url(#paint0_linear_2076_23538)"/>
<path d="M52.3451 20.9888C50.6385 20.9888 48.9318 21.6395 47.6304 22.942C45.0277 25.5459 45.0277 29.7661 47.6304 32.3701C48.9318 33.6727 50.6385 34.3233 52.3451 34.3233C54.0518 34.3233 55.7584 33.6714 57.0597 32.3701C59.6625 29.7661 59.6625 25.5459 57.0597 22.942C55.7584 21.6396 54.0518 20.9888 52.3451 20.9888ZM54.7012 30.0128C54.0736 30.6427 53.2362 30.9894 52.3451 30.9894C51.454 30.9894 50.6189 30.6427 49.9891 30.0128C48.6878 28.714 48.6878 26.5983 49.9891 25.2993C50.6166 24.6694 51.454 24.3227 52.3451 24.3227C53.2362 24.3227 54.0736 24.6694 54.7012 25.2993C55.331 25.9279 55.6778 26.7655 55.6778 27.6554C55.6778 28.5466 55.3312 29.3842 54.7012 30.0128Z" fill="url(#paint1_linear_2076_23538)"/>
</g>
</g>
<defs>
<linearGradient id="paint0_linear_2076_23538" x1="0" y1="40" x2="80.0045" y2="40" gradientUnits="userSpaceOnUse">
<stop stop-color="#314160"/>
<stop offset="1" stop-color="#CE5656"/>
</linearGradient>
<linearGradient id="paint1_linear_2076_23538" x1="0" y1="40" x2="80.0045" y2="40" gradientUnits="userSpaceOnUse">
<stop stop-color="#314160"/>
<stop offset="1" stop-color="#CE5656"/>
</linearGradient>
</defs>
</svg>
