<svg width="80" height="62" viewBox="0 0 80 62" fill="none" xmlns="http://www.w3.org/2000/svg">
<g id="icon">
<g id="Vector">
<path d="M78.4064 23.4155C77.5264 23.4155 76.8128 24.1289 76.8128 25.0091V27.8865H73.8215V26.2239C73.8215 22.8131 71.0467 20.0382 67.6359 20.0382H51.8026L48.8867 9.14024C48.8853 9.13498 48.8838 9.12988 48.8826 9.12462C48.014 6.00526 46.9732 3.8843 45.6067 2.44956C44.0367 0.801275 42.003 0 39.3888 0H32.8194C32.3439 0 31.8931 0.212431 31.5904 0.579124C31.2878 0.945977 31.1646 1.42869 31.2547 1.89562L34.7559 20.0381H11.7034V12.4476C11.7034 11.5675 10.9898 10.854 10.1098 10.854H1.59363C0.713626 10.854 0 11.5675 0 12.4476V21.6317C0 22.2324 0.352829 22.7971 0.891474 23.0623L32.869 38.7589C33.0875 38.8661 33.3278 38.9219 33.5712 38.9219H35.5554L31.2586 59.8851C31.1624 60.3541 31.2822 60.8414 31.5849 61.2124C31.8875 61.5834 32.341 61.7987 32.8198 61.7987H39.6253C44.0473 61.7987 47.4214 58.5567 48.8849 52.9026L52.9053 38.9219H67.636C71.0469 38.9219 73.8217 36.1469 73.8217 32.7363V31.0736H76.8128V39.3696C76.8128 40.2497 77.5264 40.9632 78.4064 40.9632C79.2864 40.9632 80 40.2497 80 39.3696V25.0089C80 24.1289 79.2864 23.4155 78.4064 23.4155ZM34.7503 3.18757H39.389C42.327 3.18757 44.2206 4.26885 45.81 9.97211L48.5033 20.0384H38.0022L34.7503 3.18757ZM45.4888 23.2258C44.8252 25.1582 42.9895 26.5509 40.8349 26.5509C38.6803 26.5509 36.8446 25.1582 36.181 23.2258H45.4888ZM3.18725 14.0414H8.51618V20.0382H3.18725V14.0414ZM59.4465 35.735H50.5053L45.8158 52.0427C45.8118 52.0569 45.8078 52.0711 45.8041 52.0854C45.1761 54.5227 43.538 58.6116 39.6253 58.6116H34.7732L39.4622 35.7348H33.9414L8.45673 23.2258H32.887C33.6295 26.9348 36.9106 29.7382 40.8349 29.7382C44.7592 29.7382 48.0402 26.9348 48.7828 23.2258H59.4465V35.735ZM70.6343 32.7364C70.6343 34.3898 69.2892 35.7348 67.6359 35.7348H62.6336V23.2255H67.6359C69.2892 23.2255 70.6343 24.5705 70.6343 26.2239V32.7364Z" fill="url(#paint0_linear_2076_23509)"/>
<path d="M78.4064 16.7163C77.5264 16.7163 76.8128 17.4298 76.8128 18.31V20.2223C76.8128 21.1025 77.5264 21.8159 78.4064 21.8159C79.2864 21.8159 80 21.1025 80 20.2223V18.31C80 17.4298 79.2864 16.7163 78.4064 16.7163Z" fill="url(#paint1_linear_2076_23509)"/>
<path d="M44.1307 32.0448C43.2666 31.8755 42.4298 32.439 42.2609 33.3028L40.8266 40.6335C40.6575 41.4972 41.2209 42.3343 42.0846 42.5034C42.1879 42.5237 42.2908 42.5334 42.3923 42.5334C43.1391 42.5334 43.8057 42.0059 43.9546 41.2454L45.3888 33.9147C45.5576 33.051 44.9944 32.214 44.1307 32.0448Z" fill="url(#paint2_linear_2076_23509)"/>
<path d="M41.4598 44.1567C40.5946 43.9876 39.7587 44.5509 39.5898 45.4147L39.1844 47.4862C39.0151 48.35 39.5785 49.1871 40.4422 49.3562C40.5457 49.3764 40.6486 49.3861 40.7501 49.3861C41.4969 49.3861 42.1635 48.8587 42.3124 48.0982L42.7178 46.0266C42.8867 45.1627 42.3235 44.3256 41.4598 44.1567Z" fill="url(#paint3_linear_2076_23509)"/>
</g>
</g>
<defs>
<linearGradient id="paint0_linear_2076_23509" x1="0" y1="30.8994" x2="80" y2="30.8994" gradientUnits="userSpaceOnUse">
<stop stop-color="#314160"/>
<stop offset="1" stop-color="#CE5656"/>
</linearGradient>
<linearGradient id="paint1_linear_2076_23509" x1="0" y1="30.8994" x2="80" y2="30.8994" gradientUnits="userSpaceOnUse">
<stop stop-color="#314160"/>
<stop offset="1" stop-color="#CE5656"/>
</linearGradient>
<linearGradient id="paint2_linear_2076_23509" x1="0" y1="30.8994" x2="80" y2="30.8994" gradientUnits="userSpaceOnUse">
<stop stop-color="#314160"/>
<stop offset="1" stop-color="#CE5656"/>
</linearGradient>
<linearGradient id="paint3_linear_2076_23509" x1="0" y1="30.8994" x2="80" y2="30.8994" gradientUnits="userSpaceOnUse">
<stop stop-color="#314160"/>
<stop offset="1" stop-color="#CE5656"/>
</linearGradient>
</defs>
</svg>
