<svg width="20" height="20" viewBox="0 0 20 20" fill="none" xmlns="http://www.w3.org/2000/svg">
<g id="Frame 13" clip-path="url(#clip0_2076_13404)">
<g id="Group 33">
<circle id="Ellipse 20" cx="10" cy="10" r="10" fill="#CE5656"/>
<path id="?" d="M8.36287 16V13.1308H11.6878V16H8.36287ZM9.05485 12.1519L8.63291 9.33333L8.76793 9.18143C9.71308 9.10267 10.3882 8.95077 10.7932 8.72574C11.2096 8.5007 11.4177 8.19691 11.4177 7.81435C11.4177 7.5218 11.3052 7.29676 11.0802 7.13924C10.8664 6.97046 10.557 6.88608 10.1519 6.88608C9.34177 6.88608 8.52039 7.25738 7.68776 8L6 5.77215C7.18143 4.59072 8.63854 4 10.3713 4C11.6315 4 12.6498 4.32067 13.4262 4.96202C14.2025 5.60338 14.5907 6.47539 14.5907 7.57806C14.5907 8.56821 14.2982 9.33896 13.7131 9.8903C13.1392 10.4304 12.3347 10.8242 11.2996 11.0717L11.097 12.1519H9.05485Z" fill="white"/>
</g>
</g>
<defs>
<clipPath id="clip0_2076_13404">
<rect width="20" height="20" fill="white"/>
</clipPath>
</defs>
</svg>
