<svg width="26" height="23" viewBox="0 0 26 23" fill="none" xmlns="http://www.w3.org/2000/svg">
<g id="icon">
<path id="&#232;&#183;&#175;&#229;&#190;&#132;" fill-rule="evenodd" clip-rule="evenodd" d="M23.3056 0.887676C24.7128 0.295163 26.2214 1.48509 25.9729 2.99161L23.0381 20.7859C22.7551 22.5016 20.8707 23.4861 19.2967 22.6311C17.9795 21.9156 16.0253 20.8145 14.2641 19.6636C13.3846 19.0889 10.6917 17.2462 11.0227 15.9345C11.3057 14.8129 15.8328 10.5988 18.4198 8.09266C19.436 7.10822 18.9732 6.53951 17.7731 7.44591C14.796 9.6944 10.0163 13.113 8.43566 14.0751C7.0411 14.9239 6.31297 15.0688 5.44445 14.9239C3.85845 14.6596 2.38804 14.2504 1.18757 13.7527C-0.434951 13.0801 -0.355918 10.8504 1.18647 10.2011L23.3056 0.887676Z" fill="#0088CC"/>
</g>
</svg>
