<svg width="60" height="53" viewBox="0 0 60 53" fill="none" xmlns="http://www.w3.org/2000/svg">
<g id="icon">
<g id="Vector">
<path d="M58.2127 18.5702H55.0004V7.14223H45.0009V1.78734C45.0009 0.626484 44.08 1.11837e-08 43.2136 1.11837e-08H1.78734C0.626484 -0.000117176 0 0.920742 0 1.78734V52.1433H55.0004V35.7157H60V20.3576C60 19.4912 59.3737 18.5702 58.2127 18.5702ZM2.14641 2.14617H42.8545V7.14223H2.14641V2.14617ZM52.854 49.9969H2.14641V9.28863H52.854V23.5698H50.0006V12.1419H22.5005V14.2883H47.8542V23.5698H36.4263V35.7156H47.8542V44.9971H11.7868V47.1435H50.0006V35.7156H52.854V49.9969ZM57.8536 33.5693H38.5726V25.7163H57.8536V33.5693ZM57.8536 23.5699H55.0003V20.7166H57.8536V23.5699Z" fill="url(#paint0_linear_2076_23575)"/>
<path d="M44.6413 28.5704H41.07V30.7168H44.6413V28.5704Z" fill="url(#paint1_linear_2076_23575)"/>
<path d="M55.3559 28.5704H46.7851V30.7168H55.3559V28.5704Z" fill="url(#paint2_linear_2076_23575)"/>
<path d="M19.6436 12.1421H6.07277V14.2886H19.6436V12.1421Z" fill="url(#paint3_linear_2076_23575)"/>
<path d="M8.92969 44.9973H6.07277V47.1437H8.92969V44.9973Z" fill="url(#paint4_linear_2076_23575)"/>
</g>
</g>
<defs>
<linearGradient id="paint0_linear_2076_23575" x1="0" y1="26.0716" x2="60" y2="26.0716" gradientUnits="userSpaceOnUse">
<stop stop-color="#314160"/>
<stop offset="1" stop-color="#CE5656"/>
</linearGradient>
<linearGradient id="paint1_linear_2076_23575" x1="0" y1="26.0716" x2="60" y2="26.0716" gradientUnits="userSpaceOnUse">
<stop stop-color="#314160"/>
<stop offset="1" stop-color="#CE5656"/>
</linearGradient>
<linearGradient id="paint2_linear_2076_23575" x1="0" y1="26.0716" x2="60" y2="26.0716" gradientUnits="userSpaceOnUse">
<stop stop-color="#314160"/>
<stop offset="1" stop-color="#CE5656"/>
</linearGradient>
<linearGradient id="paint3_linear_2076_23575" x1="0" y1="26.0716" x2="60" y2="26.0716" gradientUnits="userSpaceOnUse">
<stop stop-color="#314160"/>
<stop offset="1" stop-color="#CE5656"/>
</linearGradient>
<linearGradient id="paint4_linear_2076_23575" x1="0" y1="26.0716" x2="60" y2="26.0716" gradientUnits="userSpaceOnUse">
<stop stop-color="#314160"/>
<stop offset="1" stop-color="#CE5656"/>
</linearGradient>
</defs>
</svg>
