<svg width="57" height="40" viewBox="0 0 57 40" fill="none" xmlns="http://www.w3.org/2000/svg">
<path fill-rule="evenodd" clip-rule="evenodd" d="M55.9059 8.62843C55.9059 8.62843 55.3535 4.70966 53.6612 2.98397C51.5135 0.718012 49.1065 0.707327 48.0035 0.575813C40.1012 -8.34465e-06 28.2476 0 28.2476 0H28.2229C28.2229 0 16.3694 -8.34465e-06 8.46707 0.575813C7.36236 0.707327 4.95707 0.718012 2.80765 2.98397C1.1153 4.70966 0.564701 8.62843 0.564701 8.62843C0.564701 8.62843 0 13.2314 0 17.8327V22.1478C0 26.7508 0.564701 31.352 0.564701 31.352C0.564701 31.352 1.1153 35.2708 2.80765 36.9965C4.95707 39.2625 7.77882 39.1914 9.03529 39.4277C13.5529 39.8649 28.2353 40 28.2353 40C28.2353 40 40.1012 39.9822 48.0035 39.4064C49.1065 39.2731 51.5135 39.2625 53.6612 36.9965C55.3535 35.2708 55.9059 31.352 55.9059 31.352C55.9059 31.352 56.4706 26.7508 56.4706 22.1478V17.8327C56.4706 13.2314 55.9059 8.62843 55.9059 8.62843Z" fill="white"/>
<path fill-rule="evenodd" clip-rule="evenodd" d="M22.4047 27.3764L22.4029 11.3973L37.6606 19.4144L22.4047 27.3764ZM55.9059 8.62843C55.9059 8.62843 55.3535 4.70966 53.6612 2.98397C51.5135 0.718012 49.1065 0.707327 48.0035 0.575813C40.1012 -8.34746e-06 28.2476 0 28.2476 0H28.2229C28.2229 0 16.3694 -8.34746e-06 8.46707 0.575813C7.36236 0.707327 4.95707 0.718012 2.80765 2.98397C1.1153 4.70966 0.564701 8.62843 0.564701 8.62843C0.564701 8.62843 0 13.2314 0 17.8327V22.1478C0 26.7508 0.564701 31.352 0.564701 31.352C0.564701 31.352 1.1153 35.2708 2.80765 36.9965C4.95707 39.2625 7.77881 39.1914 9.03528 39.4277C13.5529 39.8649 28.2353 40 28.2353 40C28.2353 40 40.1012 39.9822 48.0035 39.4064C49.1065 39.2731 51.5135 39.2625 53.6612 36.9965C55.3535 35.2708 55.9059 31.352 55.9059 31.352C55.9059 31.352 56.4706 26.7508 56.4706 22.1478V17.8327C56.4706 13.2314 55.9059 8.62843 55.9059 8.62843Z" fill="url(#paint0_linear_2076_24116)"/>

<defs>
<linearGradient id="paint0_linear_2076_24116" x1="28.2353" y1="0" x2="28.2353" y2="40" gradientUnits="userSpaceOnUse">
<stop stop-color="#D86060"/>
<stop offset="1" stop-color="#BA4242"/>
</linearGradient>
</defs>
</svg>
