<svg width="80" height="80" viewBox="0 0 80 80" fill="none" xmlns="http://www.w3.org/2000/svg">
<g clip-path="url(#clip0_2076_15779)">
<path d="M76.687 1.26367H3.25548C2.13922 1.26367 1.23438 2.16868 1.23438 3.28477V76.7166C1.23438 77.8327 2.13907 78.7377 3.25548 78.7377H76.687C77.8031 78.7377 78.7081 77.8327 78.7081 76.7166C78.7081 74.6743 78.7081 5.17103 78.7081 3.28477C78.708 2.16868 77.8031 1.26367 76.687 1.26367Z" fill="#CE5656"/>
<path d="M71.2474 22H8.69876C7.67422 22 6.84375 22.8306 6.84375 23.855V71.5111C6.84375 72.5355 7.67422 73.3661 8.69876 73.3661C9.88501 73.3661 17.0646 73.3661 18.1382 73.3661H71.2474C72.2718 73.3661 73.1024 72.5355 73.1024 71.5111V23.855C73.1024 22.8306 72.2718 22 71.2474 22Z" fill="white"/>
<path d="M76.687 1.26367H3.25548C2.13922 1.26367 1.23438 2.16868 1.23438 3.28477V16.6217H78.708V3.28477C78.708 2.16868 77.8031 1.26367 76.687 1.26367Z" fill="white"/>
<path d="M9.95204 11.4275C11.1962 11.4275 12.2049 10.4189 12.2049 9.1747C12.2049 7.9305 11.1962 6.92188 9.95204 6.92188C8.70784 6.92188 7.69922 7.9305 7.69922 9.1747C7.69922 10.4189 8.70784 11.4275 9.95204 11.4275Z" fill="#CE5656"/>
<path d="M18.1395 11.4275C19.3837 11.4275 20.3924 10.4189 20.3924 9.1747C20.3924 7.9305 19.3837 6.92188 18.1395 6.92188C16.8953 6.92188 15.8867 7.9305 15.8867 9.1747C15.8867 10.4189 16.8953 11.4275 18.1395 11.4275Z" fill="#CE5656"/>
<path d="M26.3272 11.4278C27.5715 11.4278 28.5802 10.4191 28.5802 9.17485C28.5802 7.93057 27.5715 6.92188 26.3272 6.92188C25.0829 6.92188 24.0742 7.93057 24.0742 9.17485C24.0742 10.4191 25.0829 11.4278 26.3272 11.4278Z" fill="#CE5656"/>
<path d="M35.6377 28.8117C25.3484 33.3477 28.8041 48.5557 39.7829 48.5557C45.4752 48.5557 50.0899 43.9413 50.0899 38.2488C50.0901 30.9324 42.5305 25.7981 35.6377 28.8117ZM37.703 42.2707V34.2272L43.8698 38.249L37.703 42.2707Z" fill="#CE5656"/>
<path d="M65.125 53.9121C55.5209 53.9121 60.5094 53.9121 58.5742 53.9121V57.7296C59.6594 57.7296 55.5151 57.7296 65.125 57.7296C66.1794 57.7296 67.0339 56.8751 67.0339 55.821C67.0339 54.7666 66.1794 53.9121 65.125 53.9121Z" fill="white"/>
<path d="M58.5739 53.9121H20.8861H14.823C13.7686 53.9121 12.9141 54.7666 12.9141 55.821C12.9141 56.8749 13.7686 57.7296 14.823 57.7296C16.3813 57.7296 56.968 57.7296 58.5741 57.7296V53.9121H58.5739Z" fill="#CE5656"/>
<path d="M76.7158 0H3.28423C1.47344 0 0 1.47329 0 3.28423V16.6212V76.7161C0 78.527 1.47344 80.0003 3.28423 80.0003H76.7158C78.5267 80.0003 80 78.527 80 76.7161V26.1551C80 25.4573 79.4347 24.892 78.7369 24.892C78.0392 24.892 77.4737 25.4573 77.4737 26.1551V76.7161C77.4737 77.1339 77.1339 77.4741 76.7158 77.4741H3.28423C2.86642 77.4741 2.52626 77.134 2.52626 76.7161V17.8843H77.4736V21.9445C77.4736 22.6423 78.0392 23.2076 78.7367 23.2076C79.4345 23.2076 79.9998 22.6423 79.9998 21.9445C79.9998 20.0771 79.9998 5.15736 79.9998 3.28423C80 1.47329 78.5266 0 76.7158 0ZM2.52642 15.358V3.28423C2.52642 2.86642 2.86642 2.52626 3.28439 2.52626H76.7159C77.1339 2.52626 77.4739 2.86626 77.4739 3.28423V15.358H2.52642Z" fill="#314160"/>
<path d="M18.1666 74.6286H71.2759C72.9953 74.6286 74.394 73.2297 74.394 71.5104V23.8545C74.394 22.1352 72.9953 20.7363 71.2759 20.7363H8.72751C7.00813 20.7363 5.60938 22.1352 5.60938 23.8545V71.5106C5.60938 73.2298 7.00813 74.6287 8.72751 74.6287H13.6196C14.3174 74.6287 14.8827 74.0631 14.8827 73.3656C14.8827 72.6678 14.3174 72.1025 13.6196 72.1025H8.72751C8.4011 72.1025 8.13563 71.837 8.13563 71.5106V23.8545C8.13563 23.5281 8.4011 23.2626 8.72751 23.2626H71.276C71.6023 23.2626 71.8679 23.5281 71.8679 23.8545V71.5106C71.8679 71.837 71.6024 72.1025 71.276 72.1025H18.1666C17.4688 72.1025 16.9035 72.6678 16.9035 73.3656C16.9035 74.0631 17.4691 74.6286 18.1666 74.6286Z" fill="#314160"/>
<path d="M9.97689 5.6582C8.03813 5.6582 6.46094 7.2354 6.46094 9.17431C6.46094 11.1131 8.03813 12.6901 9.97689 12.6901C11.9158 12.6901 13.493 11.1131 13.493 9.17431C13.493 7.23555 11.9158 5.6582 9.97689 5.6582ZM9.97689 10.1638C9.43126 10.1638 8.9872 9.71994 8.9872 9.17431C8.9872 8.62868 9.43111 8.18446 9.97689 8.18446C10.5225 8.18446 10.9667 8.62853 10.9667 9.17431C10.9667 9.71994 10.5227 10.1638 9.97689 10.1638Z" fill="#314160"/>
<path d="M18.1644 5.6582C16.2256 5.6582 14.6484 7.2354 14.6484 9.17431C14.6484 11.1131 16.2256 12.6901 18.1644 12.6901C20.1031 12.6901 21.6803 11.1131 21.6803 9.17431C21.6803 7.23555 20.1031 5.6582 18.1644 5.6582ZM18.1644 10.1638C17.6188 10.1638 17.1747 9.71994 17.1747 9.17431C17.1747 8.62868 17.6186 8.18446 18.1644 8.18446C18.7102 8.18446 19.1541 8.62853 19.1541 9.17431C19.1541 9.71994 18.7103 10.1638 18.1644 10.1638Z" fill="#314160"/>
<path d="M26.352 5.6582C24.4131 5.6582 22.8359 7.2354 22.8359 9.17431C22.8359 11.1131 24.4131 12.6901 26.352 12.6901C28.2908 12.6901 29.868 11.1131 29.868 9.17431C29.868 7.23555 28.2908 5.6582 26.352 5.6582ZM26.352 10.1638C25.8064 10.1638 25.3622 9.71994 25.3622 9.17431C25.3622 8.62868 25.8063 8.18446 26.352 8.18446C26.8978 8.18446 27.3417 8.62853 27.3417 9.17431C27.3417 9.71994 26.8978 10.1638 26.352 10.1638Z" fill="#314160"/>
<path d="M71.3867 7.67969H34.1655C33.4677 7.67969 32.9023 8.245 32.9023 8.94282C32.9023 9.64063 33.4677 10.2059 34.1655 10.2059H71.3867C72.0845 10.2059 72.6498 9.64063 72.6498 8.94282C72.6498 8.245 72.0845 7.67969 71.3867 7.67969Z" fill="#314160"/>
<path d="M48.0007 31.871C48.4951 31.3788 48.4968 30.5789 48.0048 30.0845C40.7744 22.8204 28.2344 27.9247 28.2344 38.2471C28.2344 44.6269 33.4249 49.8171 39.8046 49.8171C47.847 49.8171 53.4643 41.7629 50.6498 34.2071C50.4062 33.5533 49.6781 33.2208 49.0252 33.4642C48.3715 33.7078 48.0388 34.4353 48.2824 35.0888C50.4856 41.001 46.0816 47.2905 39.8047 47.2905C34.818 47.2905 30.7608 43.2335 30.7608 38.2468C30.7608 30.1825 40.5582 26.1847 46.2143 31.8664C46.7066 32.3614 47.5065 32.363 48.0007 31.871Z" fill="#314160"/>
<path d="M38.418 33.1676C37.5791 32.6204 36.4648 33.2241 36.4648 34.2255V42.269C36.4648 42.966 37.0306 43.5321 37.728 43.5321C38.2333 43.5321 37.877 43.6798 44.5847 39.3053C45.3478 38.8076 45.3483 37.6873 44.5847 37.1892L38.418 33.1676ZM38.9911 39.9374V36.5576L41.5824 38.2476L38.9911 39.9374Z" fill="#314160"/>
<path d="M11.6758 55.8197C11.6758 57.5686 13.0988 58.9914 14.8478 58.9914H57.4064C57.7985 60.1208 59.3991 60.121 59.7913 58.9914H65.1494C66.8985 58.9914 68.3215 57.5686 68.3215 55.8197C68.3215 54.0706 66.8985 52.6476 65.1494 52.6476H59.6874C59.1982 51.8153 57.9991 51.8154 57.51 52.6476H14.8478C13.0988 52.6476 11.6758 54.0706 11.6758 55.8197ZM14.8478 55.1739H57.3358V56.465H14.8478C13.995 56.465 13.9941 55.1739 14.8478 55.1739ZM65.1496 56.465H59.8621V55.1739H65.1496C66.0027 55.1739 66.0033 56.465 65.1496 56.465Z" fill="#314160"/>
<path d="M66.1855 62.1133H13.81C13.1122 62.1133 12.5469 62.6786 12.5469 63.3764C12.5469 64.0742 13.1122 64.6395 13.81 64.6395H66.1857C66.8833 64.6395 67.4488 64.0742 67.4488 63.3764C67.4487 62.6787 66.8832 62.1133 66.1855 62.1133Z" fill="#314160"/>
<path d="M13.81 69.1317H66.1857C66.8833 69.1317 67.4488 68.5664 67.4488 67.8686C67.4488 67.1708 66.8832 66.6055 66.1857 66.6055H13.81C13.1122 66.6055 12.5469 67.1708 12.5469 67.8686C12.5469 68.5661 13.1123 69.1317 13.81 69.1317Z" fill="#314160"/>
</g>
<defs>
<clipPath id="clip0_2076_15779">
<rect width="80" height="80" fill="white"/>
</clipPath>
</defs>
</svg>
