<svg width="80" height="80" viewBox="0 0 80 80" fill="none" xmlns="http://www.w3.org/2000/svg">
<path fill-rule="evenodd" clip-rule="evenodd" d="M56.6723 31.1144L50.4817 20.1925C46.9947 13.7173 40.6758 14.0097 34.1355 13.2302C26.9094 12.3666 26.3563 11.4719 19.7097 7.9375L12.8906 20.7727C15.4439 22.1323 16.9262 23.3105 18.2184 25.4098C21.2983 30.4058 24.1216 30.4944 27.4227 32.5537L37.6711 38.9447C37.9498 39.1173 38.2153 39.2725 38.4764 39.4097C39.9189 40.1581 41.1181 40.26 41.9634 38.67C42.8484 37.0003 42.2112 33.7184 40.5606 31.4684C40.3616 31.1983 40.1491 30.9414 39.9191 30.7067L34.2461 24.8162C32.9406 23.2794 33.8258 22.3183 35.9895 21.9552C41.7864 20.9852 43.1272 23.5009 45.7027 27.9255C48.2516 27.1416 51.1012 27.332 53.6456 28.6828C54.8316 29.3162 55.8494 30.1489 56.6723 31.1144Z" fill="white"/>
<path fill-rule="evenodd" clip-rule="evenodd" d="M12.8918 20.7721L19.7109 7.93697L19.8215 7.72431C20.4322 6.57728 19.9942 5.13337 18.8436 4.52666L13.799 1.83837C12.6486 1.22712 11.2103 1.66572 10.5997 2.81712L2.83809 17.4284C2.22747 18.5754 2.66559 20.0149 3.81606 20.626L8.86059 23.3145C10.0111 23.9257 11.4493 23.4827 12.06 22.3357L12.8918 20.7721Z" fill="#CE5656"/>
<path fill-rule="evenodd" clip-rule="evenodd" d="M57.9423 42.759C60.0044 38.8748 59.3628 34.2687 56.6723 31.1153C55.8492 30.1498 54.8316 29.3172 53.6456 28.6837C51.1012 27.333 48.2514 27.1425 45.7027 27.9264C43.7069 28.542 41.897 29.7511 40.5608 31.4695C42.2114 33.7194 42.8486 37.0012 41.9636 38.6711C41.1184 40.2611 39.9192 40.1592 38.4766 39.4108C38.8439 41.86 40.0784 44.1542 42.0344 45.8106H55.4911C56.4644 44.9825 57.3052 43.9594 57.9423 42.759Z" fill="#CE5656"/>
<path fill-rule="evenodd" clip-rule="evenodd" d="M76.7827 55.0715V45.8105H55.4936H42.0369H22.3984V55.0715H76.7827Z" fill="white"/>
<path fill-rule="evenodd" clip-rule="evenodd" d="M76.7827 75.0761V55.0703H22.3984V75.0759C22.3984 76.9228 23.9119 78.4375 25.757 78.4375H73.4241C75.2692 78.4377 76.7827 76.923 76.7827 75.0761ZM34.6736 62.768H64.5075V70.7356H34.6736V62.768Z" fill="#CE5656"/>
<path fill-rule="evenodd" clip-rule="evenodd" d="M34.6719 62.7695H64.5058V70.7372H34.6719V62.7695Z" fill="white"/>
<path d="M76.7812 44.2475H58.8829C59.0376 44.0009 59.1865 43.75 59.3238 43.4911C61.6593 39.0923 60.9644 33.8748 57.9782 30.2473L51.8507 19.4372C48.4202 13.0836 42.5223 12.5034 36.818 11.9423C36.0002 11.8619 35.1544 11.7787 34.3227 11.6795C28.5541 10.99 27.4283 10.3722 23.2393 8.07375C22.7444 7.80219 22.2083 7.50812 21.6207 7.18984C21.7048 6.61875 21.6612 6.03062 21.486 5.46078C21.1771 4.45578 20.4979 3.63375 19.5794 3.14922L14.5332 0.460155C13.6083 -0.0312515 12.5457 -0.133126 11.5415 0.174061C10.5358 0.481405 9.71163 1.16062 9.221 2.08562L1.46038 16.6953C0.968815 17.6189 0.86694 18.6808 1.17381 19.6856C1.48085 20.6911 2.15944 21.5156 3.0846 22.007L8.12913 24.6953C8.71444 25.0062 9.3435 25.1536 9.96444 25.1536C11.3713 25.1534 12.7349 24.3964 13.4413 23.0697L13.5163 22.9284C15.1087 23.9162 16.0413 24.85 16.8908 26.2303C19.3885 30.2819 21.8302 31.462 24.1916 32.6031C25.0129 33 25.7887 33.375 26.5982 33.88L36.8479 40.2717C36.9235 40.3188 37.0004 40.3656 37.0777 40.4122C37.3749 41.7806 37.9049 43.0772 38.6401 44.2473H22.398C21.5351 44.2473 20.8355 44.9469 20.8355 45.8098V75.0759C20.8355 77.7911 23.043 80 25.7566 80H73.4227C76.1362 80 78.3437 77.7911 78.3437 75.0759V45.81C78.3437 44.947 77.6441 44.2475 76.7812 44.2475ZM56.564 42.0258C56.1232 42.8559 55.5598 43.6003 54.8882 44.2475H42.6388C41.8098 43.4509 41.1473 42.5033 40.6852 41.4583C40.811 41.4398 40.9369 41.4155 41.063 41.3816C42.016 41.1252 42.7838 40.4597 43.3451 39.4037C44.3988 37.4209 43.976 34.203 42.5166 31.6169C45.2302 28.8914 49.4369 28.2142 52.9123 30.062C57.2112 32.3545 58.8493 37.7212 56.564 42.0258ZM40.5818 29.1412L35.4108 23.7719C35.3962 23.7541 35.3824 23.7369 35.3696 23.7206C35.5513 23.6503 35.8313 23.5672 36.2494 23.4969C40.3493 22.8112 41.5282 23.9648 43.4373 27.1486C42.4073 27.6616 41.4443 28.3291 40.5818 29.1412ZM10.6821 21.6025C10.4773 21.9873 9.97944 22.1402 9.59678 21.9367L4.55225 19.2484C4.55163 19.2481 4.551 19.2478 4.55038 19.2475C4.29772 19.1133 4.19882 18.8927 4.16241 18.7731C4.12585 18.6536 4.0846 18.4156 4.21944 18.1627L11.9813 3.55078C12.1154 3.29797 12.3355 3.19906 12.4548 3.16265C12.5119 3.14531 12.5962 3.12672 12.696 3.12672C12.8054 3.12672 12.9335 3.1489 13.0654 3.2189L18.1158 5.91031C18.3644 6.04141 18.4627 6.26016 18.4991 6.37875C18.5362 6.49906 18.578 6.73875 18.4427 6.99297L10.6821 21.6025ZM38.4999 37.6194L28.2518 31.2286C27.2999 30.6347 26.4108 30.2052 25.5513 29.7897C23.3268 28.7145 21.5698 27.8655 19.5515 24.5916C18.2899 22.5417 16.8268 21.277 14.986 20.1619L20.3535 10.0575C20.8491 10.3267 21.3087 10.5787 21.7365 10.8134C25.9905 13.1477 27.5824 14.0211 33.9527 14.7825C34.8169 14.8855 35.679 14.9703 36.5126 15.0523C42.0744 15.5994 46.4679 16.0316 49.1079 20.9341C49.1133 20.9441 49.1187 20.9539 49.1243 20.9637L52.2118 26.4108C50.3174 25.8373 48.3443 25.7531 46.4613 26.1222C44.1821 22.2477 42.0735 19.3544 35.7332 20.415C33.8324 20.7341 32.6538 21.4837 32.2302 22.6434C31.9727 23.3487 31.9071 24.4739 33.0576 25.8284C33.0787 25.8533 33.1004 25.8773 33.123 25.9008L38.7968 31.7923C40.596 33.657 41.1665 36.8447 40.5858 37.9372C40.4154 38.258 40.2838 38.3552 40.2513 38.3639C40.1863 38.3812 39.7983 38.4272 38.4999 37.6194ZM73.4226 76.875H25.7566C24.7663 76.875 23.9605 76.068 23.9605 75.0759V56.6331H32.4118C33.2748 56.6331 33.9743 55.9336 33.9743 55.0706C33.9743 54.2077 33.2748 53.5081 32.4118 53.5081H23.9605V47.3723H75.2187V53.5081H46.4301C45.5671 53.5081 44.8676 54.2077 44.8676 55.0706C44.8676 55.9336 45.5671 56.6331 46.4301 56.6331H75.2187V75.0759C75.2187 76.068 74.413 76.875 73.4226 76.875Z" fill="#314160"/>
<path d="M64.5058 61.207H34.6719C33.8089 61.207 33.1094 61.9066 33.1094 62.7695V70.7373C33.1094 71.6003 33.8089 72.2998 34.6719 72.2998H64.5058C65.3687 72.2998 66.0683 71.6003 66.0683 70.7373V62.7695C66.0683 61.9066 65.3687 61.207 64.5058 61.207ZM62.9433 69.1748H36.2344V64.332H62.9433V69.1748Z" fill="#314160"/>
<path d="M39.4217 56.6328H39.4306C40.2936 56.6328 40.9887 55.9333 40.9887 55.0703C40.9887 54.2073 40.2848 53.5078 39.4219 53.5078C38.5589 53.5078 37.8594 54.2073 37.8594 55.0703C37.8594 55.9333 38.5587 56.6328 39.4217 56.6328Z" fill="#314160"/>
</svg>
