<svg width="80" height="80" viewBox="0 0 80 80" fill="none" xmlns="http://www.w3.org/2000/svg">
<g clip-path="url(#clip0_2076_15832)">
<path d="M56.625 31H54.125V33.5H56.625V31Z" fill="#314160"/>
<path d="M64.25 31H61.75V33.5H64.25V31Z" fill="#314160"/>
<path d="M71.75 31H69.25V33.5H71.75V31Z" fill="#314160"/>
<path d="M10.75 46.5H8.25V49H10.75V46.5Z" fill="#314160"/>
<path d="M18.25 46.5H15.75V49H18.25V46.5Z" fill="#314160"/>
<path d="M25.875 46.5H23.375V49H25.875V46.5Z" fill="#314160"/>
<path d="M23.25 10.3749L21.5 8.62499L23.7501 6.25002L21.5 3.87489L23.25 2.125L27.3751 6.25002L23.25 10.3749Z" fill="#314160"/>
<path d="M25.5 5H17.75V7.50002H25.5V5Z" fill="#314160"/>
<path d="M48.2499 68.625H31.75V78.75H48.2499V68.625Z" fill="white"/>
<path d="M48.2499 80H31.75C31 80 30.5 79.5 30.5 78.75V68.625C30.5 67.875 31 67.375 31.75 67.375H48.2499C48.9999 67.375 49.4999 67.875 49.4999 68.625V78.75C49.4999 79.5 48.9999 80 48.2499 80ZM33 77.5H47.0001V69.875H33V77.5Z" fill="#314160"/>
<path d="M48.2499 51.75H31.75V61.875H48.2499V51.75Z" fill="#CE5656"/>
<path d="M48.2499 63.125H31.75C31 63.125 30.5 62.625 30.5 61.875V51.75C30.5 51 31 50.5 31.75 50.5H48.2499C48.9999 50.5 49.4999 51 49.4999 51.75V61.875C49.4999 62.625 48.9999 63.125 48.2499 63.125ZM33 60.625H47.0001V53H33V60.625Z" fill="#314160"/>
<path d="M48.2499 35H31.75V45.125H48.2499V35Z" fill="white"/>
<path d="M48.2499 46.25H31.75C31 46.25 30.5 45.75 30.5 45V34.875C30.5 34.125 31 33.625 31.75 33.625H48.2499C48.9999 33.625 49.4999 34.125 49.4999 34.875V45C49.4999 45.75 48.9999 46.25 48.2499 46.25ZM33 43.75H47.0001V36.125H33V43.75Z" fill="#183651"/>
<path d="M48.2499 18.125H31.75V28.25H48.2499V18.125Z" fill="#CE5656"/>
<path d="M48.2499 29.5H31.75C31 29.5 30.5 29 30.5 28.25V18.125C30.5 17.375 31 16.875 31.75 16.875H48.2499C48.9999 16.875 49.4999 17.375 49.4999 18.125V28.25C49.4999 28.8751 48.9999 29.5 48.2499 29.5ZM33 27.0001H47.0001V19.3752H33V27.0001Z" fill="#314160"/>
<path d="M48.2499 1.25H31.75V11.375H48.2499V1.25Z" fill="white"/>
<path d="M48.2499 12.625H31.75C31 12.625 30.5 12.125 30.5 11.375V1.25001C30.5 0.500036 31 0 31.75 0H48.2499C48.9999 0 49.4999 0.500036 49.4999 1.25001V11.375C49.4999 11.9999 48.9999 12.625 48.2499 12.625ZM33 10.125H47.0001V2.50002H33V10.125Z" fill="#314160"/>
<path d="M53.75 77.375L52 75.6249L54.2499 73.3749L52 70.9999L53.75 69.25L57.75 73.3749L53.75 77.375Z" fill="#314160"/>
<path d="M56 72.125H48.25V74.625H56V72.125Z" fill="#314160"/>
<path d="M24.2499 76.875L22.375 75.125L24.75 72.75L22.375 70.375L24.2499 68.625L28.2499 72.75L24.2499 76.875Z" fill="#314160"/>
<path d="M26.3749 74H10.1249C5.00002 74 0.875 69.875 0.875 64.7501C0.875 59.6251 5.12507 55.625 10.25 55.625H31.7499V58.125H10.25C6.49997 58.125 3.50007 61.1251 3.50007 64.8749C3.50007 68.6248 6.50012 71.6249 10.25 71.6249H26.5V73.9998H26.3749V74Z" fill="#314160"/>
<path d="M24.2499 43.125L22.375 41.3749L24.75 39.125L22.375 36.75L24.2499 35L28.2499 39.125L24.2499 43.125Z" fill="#314160"/>
<path d="M26.3749 40.3749H10.1249C5.00002 40.3749 0.875 36.2499 0.875 31.1249C0.875 26 5.12507 21.875 10.25 21.875H31.7499V24.3749H10.25C6.49997 24.3749 3.50007 27.3749 3.50007 31.1248C3.50007 34.8747 6.50012 37.8747 10.25 37.8747H26.5V40.3747H26.3749V40.3749Z" fill="#314160"/>
<path d="M55.75 60.625L51.75 56.5L55.75 52.5L57.6249 54.2499L55.2499 56.5L57.6249 58.8749L55.75 60.625Z" fill="#314160"/>
<path d="M69.7499 57.7498H53.5V55.2498H69.7499C73.5 55.2498 76.4999 52.2497 76.4999 48.4999V47.8749C76.4999 44.1249 73.4998 41.125 69.7499 41.125H48.25V38.625H69.7499C74.8749 38.625 78.9999 42.75 78.9999 47.8749V48.4999C79.0001 53.6248 74.875 57.7498 69.7499 57.7498Z" fill="#314160"/>
<path d="M55.75 27L51.75 22.875L55.75 18.75L57.6249 20.5L55.2499 22.875L57.6249 25.25L55.75 27Z" fill="#314160"/>
<path d="M69.7499 24.125H53.5V21.625H69.7499C73.5 21.625 76.4999 18.6249 76.4999 14.875V14.2501C76.4999 10.5001 73.4998 7.50018 69.7499 7.50018H48.25V5H69.7499C74.8749 5 78.9999 9.12502 78.9999 14.2499V14.8749C79.0001 20 74.875 24.125 69.7499 24.125Z" fill="#314160"/>
<path d="M78.7499 68.625H62.25V78.75H78.7499V68.625Z" fill="#CE5656"/>
<path d="M78.7499 80H62.25C61.5 80 61 79.5 61 78.75V68.625C61 67.875 61.5 67.375 62.25 67.375H78.7499C79.4999 67.375 79.9999 67.875 79.9999 68.625V78.75C79.9999 79.5 79.4999 80 78.7499 80ZM63.5 77.5H77.5001V69.875H63.5V77.5Z" fill="#314160"/>
<path d="M17.7499 1.25H1.25V11.375H17.7499V1.25Z" fill="#CE5656"/>
<path d="M17.7499 12.625H1.25001C0.500036 12.625 0 12.125 0 11.375V1.25001C0 0.500036 0.500036 0 1.25001 0H17.7499C18.4999 0 18.9999 0.500036 18.9999 1.25001V11.375C18.9999 11.9999 18.4999 12.625 17.7499 12.625ZM2.50002 10.125H16.5001V2.50002H2.50002V10.125Z" fill="#314160"/>
</g>
<defs>
<clipPath id="clip0_2076_15832">
<rect width="80" height="80" fill="white"/>
</clipPath>
</defs>
</svg>
