<svg width="80" height="80" viewBox="0 0 80 80" fill="none" xmlns="http://www.w3.org/2000/svg">
<g clip-path="url(#clip0_2076_15674)">
<path d="M21.3736 35.4413C21.3736 35.1133 21.2488 34.8003 21.0222 34.5605L20.9659 34.5008L20.8855 34.4855C20.8475 34.4783 20.81 34.4695 20.7734 34.458L20.4453 34.3555V36.7722L20.8477 36.4764C21.1769 36.2341 21.3736 35.847 21.3736 35.4413Z" fill="white"/>
<path d="M6.32625 36.5113L6.71844 36.7714V34.3594L6.38484 34.4725C6.33328 34.49 6.27719 34.5036 6.21828 34.513L6.12781 34.5273L6.0675 34.5964C5.86281 34.8312 5.75 35.1308 5.75 35.4402C5.75 35.8714 5.96531 36.2719 6.32625 36.5113Z" fill="white"/>
<path d="M39.5137 65.2338C39.2716 65.2338 39.0272 65.2188 38.7669 65.188L38.4844 65.1545V66.4009L40.05 67.9257L41.6883 66.2249V65.1543L41.4058 65.1877C41.1455 65.2187 40.9011 65.2335 40.6591 65.2335H39.5137V65.2338Z" fill="white"/>
<path d="M13.0075 41.2269H14.1528C16.5067 41.2269 18.4217 39.3119 18.4217 36.958V33.1933L18.2767 33.125C17.3486 32.6883 16.5708 31.9419 15.965 30.9059L15.8142 30.6484L15.5852 30.8394C13.3805 32.6767 10.4902 33.2297 8.96359 33.3958L8.73828 33.4203V36.958C8.73828 39.3119 10.6534 41.2269 13.0075 41.2269Z" fill="white"/>
<path d="M39.5137 21.261C39.2716 21.261 39.0272 21.246 38.7669 21.2151L38.4844 21.1816V22.428L40.05 23.9529L41.6883 22.2524V21.1816L41.4058 21.2151C41.1455 21.246 40.9011 21.261 40.6591 21.261H39.5137Z" fill="white"/>
<path d="M13.0098 43.2472C12.7677 43.2472 12.5233 43.2322 12.263 43.2014L11.9805 43.168V44.4144L13.5461 45.9392L15.1842 44.2384V43.168L14.9017 43.2014C14.6414 43.2323 14.397 43.2472 14.1548 43.2472H13.0098Z" fill="white"/>
<path d="M47.8775 57.4256C47.8775 57.0977 47.7527 56.7847 47.5261 56.5448L47.4698 56.4852L47.3894 56.4698C47.3512 56.4627 47.3139 56.4539 47.2773 56.4423L46.9492 56.3398V58.7566L47.3516 58.4608C47.6809 58.2188 47.8775 57.8317 47.8775 57.4256Z" fill="white"/>
<path d="M39.5153 19.2402H40.6606C43.0144 19.2402 44.9295 17.3254 44.9295 14.9715V11.207L44.7845 11.1387C43.8564 10.702 43.0786 9.95555 42.4728 8.91961L42.322 8.66211L42.093 8.85305C39.89 10.6891 36.9987 11.2418 35.4714 11.4077L35.2461 11.4323V14.9716C35.2462 17.3254 37.1614 19.2402 39.5153 19.2402Z" fill="white"/>
<path d="M47.8775 13.4549C47.8775 13.127 47.7528 12.8141 47.5262 12.5741L47.47 12.5143L47.3894 12.4991C47.3511 12.492 47.3138 12.483 47.2773 12.4716L46.9492 12.3691V14.7859L47.3516 14.4901C47.6809 14.2477 47.8775 13.8609 47.8775 13.4549Z" fill="white"/>
<path d="M66.0191 41.2269H67.1644C69.5183 41.2269 71.4333 39.3119 71.4333 36.958V33.1933L71.2883 33.125C70.3602 32.6883 69.5823 31.9419 68.9766 30.9059L68.8259 30.6484L68.5969 30.8394C66.392 32.6767 63.5019 33.2295 61.9753 33.3958L61.75 33.4203V36.958C61.7498 39.3119 63.665 41.2269 66.0191 41.2269Z" fill="white"/>
<path d="M66.0216 43.2472C65.7794 43.2472 65.535 43.2322 65.2747 43.2014L64.9922 43.168V44.4144L66.5578 45.9392L68.1961 44.2384V43.168L67.9136 43.2014C67.6533 43.2323 67.4089 43.2472 67.1669 43.2472H66.0216Z" fill="white"/>
<path d="M59.338 36.5113L59.7302 36.7714V34.3594L59.3966 34.4725C59.345 34.49 59.2889 34.5036 59.23 34.513L59.1395 34.5273L59.0792 34.5964C58.8745 34.8312 58.7617 35.1308 58.7617 35.4402C58.7617 35.8714 58.9772 36.2719 59.338 36.5113Z" fill="white"/>
<path d="M74.3814 35.4413C74.3814 35.1133 74.2566 34.8003 74.03 34.5605L73.9738 34.5008L73.8933 34.4855C73.8552 34.4783 73.8178 34.4695 73.7812 34.458L73.4531 34.3555V36.7722L73.8555 36.4764C74.1847 36.2341 74.3814 35.847 74.3814 35.4413Z" fill="white"/>
<path d="M32.8303 14.5249L33.2225 14.7851V12.373L32.8888 12.4862C32.8372 12.5037 32.7811 12.5173 32.7222 12.5266L32.6317 12.541L32.5716 12.6101C32.3667 12.8446 32.2539 13.1443 32.2539 13.4538C32.2539 13.8851 32.4694 14.2855 32.8303 14.5249Z" fill="white"/>
<path d="M39.5153 63.2132H40.6606C43.0144 63.2132 44.9295 61.2982 44.9295 58.9443V55.1796L44.7845 55.1113C43.8564 54.6746 43.0786 53.9282 42.4728 52.8923L42.322 52.6348L42.093 52.8257C39.89 54.6616 36.9987 55.2145 35.4714 55.3804L35.2461 55.4049V58.9443C35.2462 61.2982 37.1614 63.2132 39.5153 63.2132Z" fill="white"/>
<path d="M32.8303 58.4976L33.2225 58.7577V56.3457L32.8888 56.4588C32.8372 56.4763 32.7811 56.4899 32.7222 56.4993L32.6317 56.5137L32.5714 56.5827C32.3667 56.8173 32.2539 57.1171 32.2539 57.4265C32.2539 57.8579 32.4694 58.2584 32.8303 58.4976Z" fill="white"/>
<path d="M21.627 47.6997C21.6041 47.692 21.5919 47.6873 21.5694 47.6783L16.8484 45.7852L14.4753 48.2484C14.242 48.4906 13.9219 48.6297 13.5858 48.635C13.5791 48.6352 13.5725 48.6352 13.5658 48.6352C13.2369 48.6352 12.9206 48.5069 12.6847 48.2769L10.1712 45.8292L5.43969 47.682C5.42047 47.6897 5.40109 47.6967 5.38141 47.7033C5.27531 47.7413 2.54297 48.7544 2.54297 52.2494V56.8342H3.30469H4.33656H6.86281H9.62734H17.3912H20.1559H22.6822H23.2197H24.4758V52.2494C24.4758 48.7544 21.7434 47.7411 21.627 47.6997Z" fill="#CE5656"/>
<path d="M74.6388 47.6997C74.6158 47.692 74.6036 47.6873 74.5811 47.6783L69.8602 45.7852L67.487 48.2484C67.2537 48.4906 66.9336 48.6297 66.5975 48.635C66.5908 48.6352 66.5842 48.6352 66.5775 48.6352C66.2486 48.6352 65.9323 48.5069 65.6964 48.2769L63.183 45.8292L58.4512 47.682C58.432 47.6897 58.4127 47.6967 58.393 47.7033C58.2869 47.7413 55.5547 48.7544 55.5547 52.2494V55.172V57.0027H57.3483H59.8745H62.6391H70.403H73.1677H75.6939H77.0286H77.4877V52.2494C77.4875 48.7544 74.755 47.7411 74.6388 47.6997Z" fill="#CE5656"/>
<path d="M48.0606 69.686C48.0377 69.6784 48.0255 69.6737 48.003 69.6646L43.282 67.7715L40.9089 70.2348C40.6756 70.477 40.3555 70.616 40.0194 70.6213C40.0127 70.6215 40.0061 70.6215 39.9994 70.6215C39.6705 70.6215 39.3542 70.4932 39.1183 70.2632L36.6048 67.8155L31.8733 69.6687C31.8541 69.6763 31.8347 69.6834 31.815 69.6899C31.7089 69.7279 28.9766 70.741 28.9766 74.236V78.8209H29.9156H30.7702H33.2964H36.0609H43.8248H46.5895H49.1158H49.6623H50.9094V74.236C50.9094 70.7407 48.177 69.7274 48.0606 69.686Z" fill="#CE5656"/>
<path d="M13.8667 24.2617H13.2661C9.84984 24.2617 7.07031 27.0412 7.07031 30.4578V31.6123L7.40063 31.5059L7.4275 31.4959C7.43641 31.4931 7.44531 31.4913 7.45422 31.4891L7.49984 31.4775C7.5075 31.4753 7.51484 31.4731 7.52422 31.4713C7.54453 31.4672 7.56531 31.4645 7.59328 31.4608L7.625 31.4559C7.65875 31.4523 7.69281 31.4508 7.73156 31.4508C7.78391 31.4508 12.9933 31.4133 15.3402 28.1695C15.5692 27.8528 15.9764 27.6934 16.3611 27.772C16.7495 27.8516 17.0566 28.1525 17.1448 28.5427C17.1695 28.6445 17.7741 31.0478 19.6597 31.477L19.708 31.49C19.7167 31.4922 19.7253 31.4939 19.7336 31.4966L20.062 31.5998V30.458C20.0625 27.0409 17.283 24.2617 13.8667 24.2617Z" fill="#CE5656"/>
<path d="M40.3745 2.27539H39.7739C36.3577 2.27539 33.5781 5.05492 33.5781 8.47133V9.62602L33.9084 9.51961L33.9353 9.50961C33.9442 9.5068 33.9531 9.50492 33.962 9.50273L34.0078 9.49117C34.0153 9.48898 34.0228 9.4868 34.032 9.48492C34.0523 9.48086 34.0731 9.4782 34.1011 9.47461L34.1328 9.46977C34.1666 9.46617 34.2006 9.46461 34.2394 9.46461C34.2916 9.46461 39.5011 9.42711 41.8478 6.18336C42.077 5.86617 42.483 5.70555 42.8689 5.7857C43.2573 5.86523 43.5644 6.16617 43.6527 6.55633C43.6777 6.65836 44.2819 9.0618 46.1677 9.49086L46.2159 9.50383C46.2247 9.50602 46.2333 9.50773 46.2416 9.51039L46.57 9.61367V8.47164C46.5703 5.05492 43.7908 2.27539 40.3745 2.27539Z" fill="#CE5656"/>
<path d="M66.8784 24.2617H66.2778C62.8616 24.2617 60.082 27.0412 60.082 30.4578V31.6123L60.4123 31.5059L60.4392 31.4959C60.4481 31.4931 60.4572 31.4913 60.4659 31.4891L60.5116 31.4775C60.5192 31.4753 60.5266 31.4731 60.5359 31.4713C60.5558 31.4672 60.5764 31.4647 60.605 31.4608L60.6369 31.4559C60.6706 31.4523 60.7047 31.4508 60.7434 31.4508C60.7956 31.4508 66.0052 31.4133 68.352 28.1695C68.5809 27.8528 68.9889 27.6938 69.3731 27.772C69.7616 27.8516 70.0688 28.1525 70.1569 28.5427C70.1816 28.6445 70.7861 31.0478 72.6719 31.477L72.7202 31.49C72.7289 31.4922 72.7375 31.4939 72.7458 31.4966L73.0742 31.5998V30.458C73.0742 27.0409 70.2947 24.2617 66.8784 24.2617Z" fill="#CE5656"/>
<path d="M40.3745 46.2461H39.7739C36.3577 46.2461 33.5781 49.0256 33.5781 52.4422V53.5967L33.9084 53.4903L33.9353 53.4803C33.9442 53.4775 33.9531 53.4756 33.962 53.4734L34.0078 53.4619C34.0153 53.4597 34.0228 53.4575 34.032 53.4556C34.0523 53.4516 34.0731 53.4489 34.1011 53.4452L34.1328 53.4403C34.1666 53.4367 34.2006 53.4352 34.2394 53.4352C34.2916 53.4352 39.5011 53.3977 41.848 50.1539C42.077 49.8372 42.4828 49.6763 42.8691 49.7564C43.2575 49.8359 43.5647 50.1369 43.6528 50.527C43.6778 50.6289 44.282 53.0322 46.1677 53.4614L46.2159 53.4744C46.2247 53.4766 46.2333 53.4783 46.2416 53.4809L46.57 53.5842V52.4423C46.5703 49.0256 43.7908 46.2461 40.3745 46.2461Z" fill="#CE5656"/>
<path d="M48.0745 25.717C48.0517 25.7091 48.0291 25.701 48.007 25.692L43.2858 23.7988L40.9128 26.2621C40.6795 26.5043 40.3594 26.6435 40.0233 26.6488C40.0166 26.649 40.01 26.649 40.0033 26.649C39.6744 26.649 39.3581 26.5205 39.122 26.2907L36.6087 23.8427L31.877 25.6959C31.858 25.7035 31.8384 25.7105 31.8189 25.7171C31.7128 25.7551 28.9805 26.7684 28.9805 30.2632V34.8482H29.8161H30.7741H33.3003H36.0648H43.8288H46.5934H49.1197H49.8014H50.9133V30.2632C50.9131 26.7121 48.1031 25.7266 48.0745 25.717Z" fill="#CE5656"/>
<path d="M33.2202 16.9983C33.7206 18.5281 34.7706 19.8108 36.1362 20.6131V21.3106L30.9692 23.3337C30.4928 23.5059 26.4492 25.1195 26.4492 30.2606V34.7605C26.4492 35.458 27.0145 36.0245 27.7123 36.0245H30.9216C31.6194 36.0245 32.1847 35.4591 32.1847 34.7614C32.1847 34.0639 31.6194 33.4983 30.9216 33.4983H28.9753V30.2605C28.9753 26.7656 31.7077 25.7522 31.8136 25.7142C31.8331 25.7077 31.8527 25.7006 31.8717 25.693L36.6034 23.8398L39.1166 26.2875C39.3527 26.5173 39.6689 26.6459 39.9978 26.6459C40.0045 26.6459 40.0111 26.6459 40.0178 26.6458C40.3539 26.6403 40.6742 26.5013 40.9073 26.2592L43.2803 23.7959L48.0016 25.6891C48.0237 25.698 48.0466 25.7063 48.0691 25.7141C48.0975 25.7236 50.9075 26.7092 50.9075 30.2602V33.498H43.823H36.0591H34.9345C34.2367 33.498 33.6714 34.0634 33.6714 34.7611C33.6714 35.4586 34.2367 36.0242 34.9345 36.0242H36.0591H43.823H52.1706C52.8684 36.0242 53.4337 35.45 53.4337 34.7523V30.2605C53.4337 25.1394 49.4212 23.5181 48.9191 23.3356L43.8866 21.3177V20.6127C45.2527 19.8102 46.303 18.5267 46.8031 16.9958C48.6316 16.8489 50.0755 15.317 50.0755 13.4516C50.0755 12.3423 49.565 11.3505 48.7672 10.6973V8.46922C48.7673 3.79938 44.9678 0 40.298 0H39.6973C35.0273 0 31.228 3.79938 31.228 8.46953V10.6878C30.4228 11.3409 29.9064 12.3367 29.9064 13.452C29.9069 15.3314 31.3723 16.8714 33.2202 16.9983ZM47.1267 12.71C47.1725 12.7244 47.2195 12.7355 47.2673 12.7445C47.4419 12.9297 47.5498 13.1781 47.5498 13.452C47.5498 13.7933 47.3828 14.0953 47.1267 14.2834V12.71ZM41.3609 22.1481L39.9695 23.5925L38.6623 22.3192V21.4637C38.9173 21.4941 39.1759 21.5114 39.4389 21.5114H40.5842C40.8472 21.5114 41.1059 21.4941 41.3608 21.4637V22.1481H41.3609ZM44.6006 14.9691C44.6006 17.1836 42.7989 18.9852 40.5844 18.9852H39.4391C37.2244 18.9852 35.4225 17.1834 35.4225 14.9691V11.6564C37.0583 11.4787 39.9478 10.9038 42.1784 9.04484C42.6786 9.90031 43.4508 10.8239 44.6006 11.3648V14.9691ZM33.7545 8.46953C33.7545 5.19234 36.4206 2.52625 39.6977 2.52625H40.2983C43.5753 2.52625 46.2414 5.19234 46.2414 8.46953V9.26734C46.22 9.26062 46.1978 9.25594 46.1759 9.25031C46.1652 9.24766 46.1548 9.24375 46.1439 9.24141C44.3981 8.84422 43.8266 6.51203 43.8223 6.49453C43.7128 6.01047 43.3298 5.63547 42.8436 5.53609C42.3572 5.43625 41.8578 5.63094 41.567 6.03328C39.2948 9.17453 34.2267 9.21 34.1634 9.21C34.162 9.21 34.1608 9.21 34.1594 9.21C34.1159 9.21 34.073 9.21219 34.0305 9.21656C34.0183 9.21781 34.0069 9.22047 33.995 9.22188C33.9648 9.22578 33.9347 9.22969 33.9055 9.23547C33.8895 9.23859 33.8744 9.24375 33.8584 9.2475C33.8337 9.25359 33.8087 9.25891 33.7847 9.26656C33.7744 9.26969 33.7648 9.27391 33.7547 9.2775V8.46953H33.7545ZM32.6881 12.7744C32.7597 12.7631 32.8292 12.7464 32.8962 12.7238V14.3127C32.6173 14.1275 32.433 13.8111 32.433 13.452C32.433 13.1927 32.5298 12.9559 32.6881 12.7744Z" fill="#314160"/>
<path d="M51.6202 4.38374C59.7853 7.05984 66.8477 12.5336 71.5061 19.7967C71.7475 20.1728 72.1547 20.3781 72.5705 20.3781C72.8041 20.3781 73.0402 20.3134 73.2513 20.1781C73.8384 19.8016 74.0091 19.0203 73.6327 18.433C68.6611 10.6819 61.123 4.83984 52.4069 1.98327C51.7427 1.76546 51.0305 2.12749 50.8131 2.79015C50.5959 3.45312 50.9572 4.1664 51.6202 4.38374Z" fill="#314160"/>
<path d="M6.6323 20.177C6.84339 20.3125 7.07949 20.377 7.31308 20.377C7.72886 20.377 8.13636 20.1717 8.37745 19.7956C13.0898 12.4483 20.244 6.94481 28.5217 4.29872C29.1862 4.08638 29.5528 3.37544 29.3401 2.71091C29.1276 2.04622 28.4164 1.67981 27.7525 1.89247C18.916 4.717 11.2798 10.5909 6.25058 18.4317C5.87433 19.019 6.04495 19.8004 6.6323 20.177Z" fill="#314160"/>
<path d="M24.3105 74.0638C17.778 71.061 12.2684 66.2671 8.37733 60.2005C8.00061 59.6134 7.21874 59.4426 6.63218 59.8191C6.04499 60.1957 5.87421 60.9771 6.25077 61.5643C10.4031 68.0385 16.2833 73.1541 23.2553 76.3593C23.4264 76.4379 23.6056 76.4752 23.7822 76.4752C24.2605 76.4752 24.718 76.2023 24.9306 75.7394C25.222 75.1054 24.9444 74.3554 24.3105 74.0638Z" fill="#314160"/>
<path d="M73.2522 59.8191C72.6655 59.4427 71.8838 59.613 71.507 60.2005C67.6717 66.1804 62.2516 70.9324 55.8325 73.9429C55.2009 74.2391 54.9291 74.9913 55.2253 75.6229C55.44 76.0812 55.8952 76.3499 56.3697 76.3499C56.5492 76.3499 56.7317 76.3113 56.9053 76.2301C63.7564 73.0171 69.5409 67.9459 73.6339 61.5645C74.0103 60.9771 73.8397 60.1959 73.2522 59.8191Z" fill="#314160"/>
<path d="M26.9852 56.7393V52.2474C26.9852 47.1265 22.9733 45.5055 22.4705 45.3226L17.438 43.3045V42.5996C18.8041 41.797 19.8544 40.5135 20.3545 38.9826C22.183 38.8357 23.6269 37.3038 23.6269 35.4384C23.6269 34.3291 23.1164 33.3374 22.3186 32.6843V30.456C22.3186 25.7859 18.5192 21.9863 13.8492 21.9863H13.2486C8.57844 21.9863 4.77922 25.7859 4.77922 30.456V32.6743C3.97406 33.3273 3.45766 34.3232 3.45766 35.4384C3.45766 37.3177 4.92312 38.8577 6.77078 38.9846C7.27125 40.5146 8.32125 41.7973 9.68687 42.5995V43.2966L4.52 45.3207C4.0425 45.493 0 47.107 0 52.2476V56.7471C0 57.4449 0.565312 58.0113 1.26312 58.0113H4.47234C5.17016 58.0113 5.73547 57.446 5.73547 56.7482C5.73547 56.0504 5.17016 55.4851 4.47234 55.4851H2.52609V52.2474C2.52609 48.7523 5.25844 47.7391 5.36437 47.7013C5.38391 47.6948 5.40344 47.6877 5.42266 47.6801L10.1542 45.827L12.6675 48.2746C12.9034 48.5045 13.2197 48.6329 13.5486 48.6329C13.5553 48.6329 13.5619 48.6329 13.5686 48.6327C13.9047 48.6274 14.2248 48.4882 14.4581 48.2462L16.8312 45.7829L21.5522 47.676C21.5745 47.6851 21.5869 47.6898 21.6098 47.6974C21.7261 47.7388 24.4586 48.7523 24.4586 52.2473V55.4849H17.3741H9.61031H8.48578C7.78797 55.4849 7.22266 56.0502 7.22266 56.748C7.22266 57.4459 7.78797 58.0112 8.48578 58.0112H9.61031H17.3742H25.7219C26.4195 58.0112 26.9852 57.4368 26.9852 56.7393ZM20.6775 34.6965C20.7231 34.7109 20.7703 34.722 20.818 34.731C20.9927 34.9162 21.1005 35.1646 21.1005 35.4385C21.1005 35.7798 20.9334 36.0818 20.6773 36.2699V34.6965H20.6775ZM6.44703 36.2991C6.16812 36.114 5.98375 35.7976 5.98375 35.4385C5.98375 35.1791 6.08062 34.9424 6.23906 34.7609C6.31047 34.7496 6.38 34.7329 6.44703 34.7102V36.2991ZM7.71422 31.1962C7.71281 31.1962 7.71156 31.1962 7.71016 31.1962C7.66672 31.1962 7.62375 31.1984 7.58125 31.2027C7.57078 31.2037 7.56094 31.2062 7.55062 31.2074C7.51875 31.2115 7.48719 31.2155 7.45609 31.222C7.44078 31.2251 7.42609 31.2299 7.41094 31.2335C7.38547 31.2398 7.36 31.2452 7.33531 31.253C7.325 31.2562 7.31547 31.2604 7.30531 31.264V30.4565C7.30531 27.1793 9.97141 24.513 13.2484 24.513H13.8491C17.1261 24.513 19.7922 27.1793 19.7922 30.4565V31.2541C19.7708 31.2474 19.7486 31.2427 19.7267 31.2371C19.7159 31.2345 19.7056 31.2305 19.6947 31.228C17.9489 30.8309 17.3773 28.4988 17.3731 28.4813C17.2636 27.9971 16.8806 27.6223 16.3945 27.5229C15.9081 27.4232 15.4086 27.6177 15.1181 28.0201C12.8456 31.1607 7.7775 31.1962 7.71422 31.1962ZM14.9117 44.1345L13.5203 45.5788L12.2131 44.3059V43.4504C12.468 43.4807 12.7267 43.498 12.9897 43.498H14.135C14.398 43.498 14.6567 43.4807 14.9116 43.4504V44.1346L14.9117 44.1345ZM14.1352 40.9716H12.9898C10.7752 40.9716 8.97328 39.1699 8.97328 36.9554V33.6427C10.6091 33.4651 13.4986 32.8901 15.7292 31.0312C16.2294 31.8866 17.0016 32.8102 18.1514 33.3512V36.9554C18.1514 39.1701 16.3497 40.9716 14.1352 40.9716Z" fill="#314160"/>
<path d="M75.4823 45.3226L70.4498 43.3045V42.5996C71.8159 41.7971 72.8662 40.5135 73.3664 38.9826C75.1948 38.8357 76.6387 37.3038 76.6387 35.4384C76.6387 34.3291 76.1283 33.3374 75.3303 32.6843V30.456C75.3303 25.7859 71.5309 21.9863 66.8609 21.9863H66.2602C61.5902 21.9863 57.7908 25.7859 57.7908 30.456V32.6743C56.9856 33.3274 56.4692 34.3232 56.4692 35.4384C56.4692 37.3177 57.9347 38.8577 59.7823 38.9846C60.2828 40.5146 61.3328 41.7973 62.6984 42.5995V43.2966L57.5317 45.3207C57.0542 45.493 53.0117 47.107 53.0117 52.2476V56.7471C53.0117 57.4449 53.577 58.0113 54.2748 58.0113H57.4841C58.1819 58.0113 58.7472 57.446 58.7472 56.7482C58.7472 56.0504 58.1819 55.4851 57.4841 55.4851H55.5378V52.2474C55.5378 48.7523 58.2702 47.7391 58.3763 47.7013C58.3958 47.6948 58.4152 47.6877 58.4345 47.6801L63.1661 45.827L65.6794 48.2746C65.9153 48.5045 66.2316 48.6329 66.5605 48.6329C66.5672 48.6329 66.5737 48.6329 66.5805 48.6327C66.9166 48.6274 67.2367 48.4882 67.47 48.2462L69.8431 45.7829L74.5641 47.676C74.5864 47.6851 74.5987 47.6898 74.6217 47.6974C74.738 47.7388 77.4705 48.7523 77.4705 52.2473V55.4849H70.3859H62.622H61.4975C60.7997 55.4849 60.2344 56.0502 60.2344 56.748C60.2344 57.4459 60.7997 58.0112 61.4975 58.0112H62.622H70.3859H78.7336C79.4314 58.0112 79.9967 57.437 79.9967 56.7393V52.2474C79.9969 47.1263 75.9848 45.5054 75.4823 45.3226ZM73.6894 34.6965C73.735 34.7109 73.782 34.722 73.8298 34.731C74.0045 34.9162 74.1125 35.1646 74.1125 35.4385C74.1125 35.7798 73.9455 36.0818 73.6894 36.2699V34.6965ZM59.4589 36.2991C59.18 36.114 58.9956 35.7976 58.9956 35.4385C58.9956 35.1791 59.0925 34.9424 59.2509 34.7609C59.3223 34.7496 59.3919 34.7329 59.4589 34.7102V36.2991ZM60.7259 31.1962C60.7245 31.1962 60.7233 31.1962 60.7219 31.1962C60.6784 31.1962 60.6355 31.1984 60.593 31.2027C60.5817 31.204 60.5708 31.2065 60.5595 31.2077C60.5287 31.2116 60.4978 31.2157 60.468 31.2216C60.452 31.2248 60.4369 31.2299 60.4209 31.2337C60.3963 31.2398 60.3712 31.2451 60.3472 31.2527C60.3369 31.2559 60.3273 31.2601 60.3172 31.2637V30.4562C60.3172 27.179 62.9833 24.5127 66.2603 24.5127H66.8611C70.1381 24.5127 72.8042 27.179 72.8042 30.4562V31.2538C72.7828 31.2471 72.7606 31.2424 72.7387 31.2368C72.728 31.2341 72.7177 31.2302 72.7067 31.2279C70.9609 30.8307 70.3894 28.4987 70.3852 28.4812C70.2756 27.997 69.8927 27.6221 69.4064 27.5227C68.9202 27.423 68.4208 27.6176 68.13 28.0199C65.8573 31.1607 60.7892 31.1962 60.7259 31.1962ZM67.9236 44.1345L66.5322 45.5788L65.225 44.3059V43.4501C65.4798 43.4804 65.7386 43.4977 66.0016 43.4977H67.1469C67.4098 43.4977 67.6686 43.4804 67.9234 43.4501V44.1345H67.9236ZM67.1469 40.9716H66.0016C63.7869 40.9716 61.985 39.1699 61.985 36.9554V33.6432C63.6212 33.4651 66.5122 32.8885 68.7409 31.0312C69.2411 31.8866 70.0133 32.8102 71.1631 33.3512V36.9554C71.1631 39.1701 69.3616 40.9716 67.1469 40.9716Z" fill="#314160"/>
<path d="M48.9198 67.3109L43.8873 65.2927V64.5879C45.2534 63.7854 46.3038 62.5018 46.8039 60.9709C48.6323 60.824 50.0763 59.2921 50.0763 57.4266C50.0763 56.3174 49.5658 55.3257 48.768 54.6726V52.4443C48.768 47.774 44.9686 43.9746 40.2986 43.9746H39.698C35.028 43.9746 31.2286 47.774 31.2286 52.4443V54.6626C30.4234 55.3155 29.907 56.3115 29.907 57.4266C29.907 59.306 31.3725 60.846 33.2202 60.9729C33.7206 62.5029 34.7706 63.7855 36.1363 64.5877V65.2849L30.9692 67.3087C30.4917 67.481 26.4492 69.0949 26.4492 74.2355V78.7351C26.4492 79.4329 27.0145 79.9993 27.7123 79.9993H30.9216C31.6194 79.9993 32.1847 79.434 32.1847 78.7362C32.1847 78.0387 31.6194 77.473 30.9216 77.473H28.9753V74.2354C28.9753 70.7402 31.7077 69.727 31.8136 69.6893C31.8331 69.6827 31.8527 69.6757 31.8719 69.668L36.6034 67.8149L39.1167 70.2626C39.3527 70.4924 39.6689 70.6209 39.9978 70.6209C40.0045 70.6209 40.0111 70.6209 40.0178 70.6207C40.3539 70.6154 40.6742 70.4763 40.9073 70.2341L43.2805 67.7709L48.0014 69.664C48.0237 69.673 48.0361 69.6777 48.0591 69.6854C48.1753 69.7268 50.9078 70.7402 50.9078 74.2352V77.4729H43.8233H36.0594H34.9348C34.237 77.4729 33.6717 78.0384 33.6717 78.736C33.6717 79.4338 34.237 79.9991 34.9348 79.9991H36.0594H43.8233H52.1709C52.8687 79.9991 53.4341 79.4249 53.4341 78.7273V74.2354C53.4344 69.1148 49.4223 67.4937 48.9198 67.3109ZM47.1269 58.258V56.6845C47.1725 56.6988 47.2195 56.7099 47.2673 56.719C47.442 56.9041 47.55 57.1526 47.55 57.4265C47.55 57.7679 47.383 58.0699 47.1269 58.258ZM39.6978 46.5009H40.2984C43.5755 46.5009 46.2416 49.167 46.2416 52.4443V53.242C46.2208 53.2354 46.1992 53.2309 46.1781 53.2254C46.1667 53.2224 46.1558 53.2185 46.1439 53.2159C44.3981 52.8187 43.8266 50.487 43.8223 50.4691C43.7128 49.9851 43.3298 49.6101 42.8436 49.5107C42.3572 49.411 41.8578 49.6055 41.5672 50.0077C39.2948 53.1488 34.2267 53.1843 34.1634 53.1843C34.162 53.1843 34.1608 53.1843 34.1594 53.1843C34.1159 53.1843 34.073 53.1865 34.0305 53.1909C34.0163 53.1923 34.0028 53.1952 33.9889 53.1973C33.9609 53.2012 33.9328 53.2045 33.9053 53.2101C33.8855 53.2141 33.8663 53.2202 33.8467 53.2251C33.8259 53.2302 33.8048 53.2346 33.7845 53.241C33.7742 53.2443 33.7647 53.2484 33.7544 53.252V52.4445C33.7547 49.167 36.4209 46.5009 39.6978 46.5009ZM32.4331 57.4266C32.4331 57.1673 32.53 56.9305 32.6884 56.749C32.76 56.7377 32.8294 56.721 32.8964 56.6984V58.2873C32.6175 58.1023 32.4331 57.7857 32.4331 57.4266ZM35.4227 55.631C37.0584 55.4534 39.948 54.8784 42.1786 53.0195C42.6787 53.8749 43.4509 54.7985 44.6008 55.3398V58.944C44.6008 61.1585 42.7991 62.9602 40.5845 62.9602H39.4392C37.2245 62.9602 35.4227 61.1585 35.4227 58.944V55.6312V55.631ZM39.9697 67.5671L38.6625 66.2941V65.4387C38.9175 65.469 39.1761 65.4863 39.4391 65.4863H40.5844C40.8473 65.4863 41.1061 65.469 41.3609 65.4387V66.1229L39.9697 67.5671Z" fill="#314160"/>
</g>
<defs>
<clipPath id="clip0_2076_15674">
<rect width="80" height="80" fill="white"/>
</clipPath>
</defs>
</svg>
