<svg width="80" height="80" viewBox="0 0 80 80" fill="none" xmlns="http://www.w3.org/2000/svg">
<g clip-path="url(#clip0_2076_15809)">
<path d="M78.3161 59.4055L40.2538 40L2.19141 59.4055L40.2538 78.8109L78.3161 59.4055Z" fill="#CE5656"/>
<path d="M78.3161 40.0012L40.2538 20.5957L2.19141 40.0012L40.2538 59.4066L78.3161 40.0012Z" fill="white"/>
<path d="M78.3158 20.5944L59.2851 30.2971L40.2544 40.001L21.2221 30.2971L2.19141 20.5944L40.2544 1.18945L78.3158 20.5944Z" fill="#CE5656"/>
<path d="M59.2857 30.2964L40.2549 40.0003L21.2227 30.2964L40.2549 20.5938L59.2857 30.2964Z" fill="#CE5656"/>
<path d="M59.2857 49.7025L40.2549 59.4066L21.2227 49.7025L40.2549 40L59.2857 49.7025Z" fill="white"/>
<path d="M1.64911 21.6544L39.7115 41.0598C39.8812 41.1463 40.0664 41.1896 40.2518 41.1896C40.437 41.1896 40.6224 41.1463 40.7919 41.0598L78.8543 21.6544C79.2528 21.4512 79.5036 21.0419 79.5036 20.5947C79.5036 20.1475 79.2528 19.7382 78.8543 19.535L65.0068 12.4752C64.4219 12.1768 63.7054 12.4094 63.4069 12.9946C63.1085 13.5798 63.3411 14.2962 63.9263 14.5945L75.6954 20.5947L40.2518 38.6651L4.80804 20.5947L40.2518 2.5244L59.5037 12.3396C60.0886 12.6381 60.8051 12.4055 61.1036 11.8203C61.402 11.2351 61.1694 10.5187 60.5842 10.2204L40.7919 0.129706C40.4527 -0.0433147 40.0512 -0.0431561 39.7115 0.129706L1.64911 19.5352C1.25073 19.7383 1 20.1476 1 20.5949C1 21.0421 1.25073 21.4512 1.64911 21.6544Z" fill="#314160"/>
<path d="M40.7943 19.534C40.4547 19.361 40.0532 19.3611 39.7136 19.534L25.9814 26.5357C25.3962 26.834 25.1637 27.5504 25.462 28.1356C25.6722 28.5477 26.0897 28.785 26.5227 28.785C26.7044 28.785 26.889 28.7431 27.062 28.6549L40.254 21.9287L53.4462 28.6549C54.0311 28.9531 54.7476 28.7209 55.0461 28.1356C55.3445 27.5504 55.1119 26.834 54.5268 26.5357L40.7943 19.534Z" fill="#314160"/>
<path d="M78.8541 38.9412L63.8565 31.2941C63.2712 30.9959 62.555 31.2281 62.2565 31.8134C61.9581 32.3986 62.1907 33.115 62.7757 33.4133L75.6952 40.0008L40.2524 58.0707L4.80804 40.0009L17.7289 33.4133C18.3141 33.115 18.5466 32.3986 18.2483 31.8134C17.9499 31.2282 17.2337 30.9958 16.6485 31.2941L1.64911 38.9412C1.25073 39.1444 1 39.5537 1 40.0009C1 40.4481 1.25089 40.8575 1.64926 41.0606L39.7123 60.4656C39.882 60.552 40.0672 60.5953 40.2524 60.5953C40.4377 60.5953 40.623 60.552 40.7926 60.4656L78.854 41.0606C79.2525 40.8575 79.5033 40.4481 79.5033 40.0009C79.5033 39.5537 79.2525 39.1444 78.8541 38.9412Z" fill="#314160"/>
<path d="M44.9645 41.0655C44.3791 40.7674 43.6629 40.9995 43.3644 41.5847C43.066 42.1699 43.2986 42.8863 43.8837 43.1847L53.8669 48.2755C54.04 48.3636 54.2245 48.4055 54.4062 48.4055C54.839 48.4055 55.2566 48.1682 55.4669 47.7562C55.7653 47.171 55.5327 46.4547 54.9476 46.1562L44.9645 41.0655Z" fill="#314160"/>
<path d="M35.5443 41.0656L25.5595 46.1563C24.9743 46.4546 24.7418 47.171 25.0402 47.7562C25.2503 48.1684 25.6678 48.4056 26.1008 48.4056C26.2825 48.4056 26.4671 48.3637 26.6402 48.2756L36.6249 43.1848C37.2101 42.8865 37.4426 42.1702 37.1443 41.585C36.8457 40.9998 36.1295 40.7671 35.5443 41.0656Z" fill="#314160"/>
<path d="M11.9734 63.0592L4.80836 59.4063L17.3073 53.0345C17.8924 52.7362 18.1251 52.02 17.8266 51.4346C17.5282 50.8493 16.8118 50.6168 16.2268 50.9153L1.64926 58.3467C1.25089 58.5497 1 58.9592 1 59.4064C1 59.8537 1.25089 60.263 1.64926 60.4661L10.893 65.1786C11.066 65.2669 11.2504 65.3087 11.4322 65.3087C11.8651 65.3087 12.2827 65.0714 12.4928 64.6592C12.7911 64.0739 12.5586 63.3575 11.9734 63.0592Z" fill="#314160"/>
<path d="M78.8548 58.3467L64.279 50.9152C63.6942 50.6168 62.9776 50.8494 62.6792 51.4346C62.3807 52.0198 62.6134 52.7361 63.1986 53.0345L75.696 59.4062L40.2532 77.4762L15.765 64.9919C15.1801 64.6935 14.4635 64.9259 14.1652 65.5113C13.8668 66.0965 14.0993 66.8128 14.6845 67.1111L39.7128 79.8709C39.8825 79.9574 40.0677 80.0006 40.2529 80.0006C40.4382 80.0006 40.6235 79.9574 40.7931 79.8709L78.8545 60.4659C79.253 60.2628 79.5038 59.8535 79.5038 59.4062C79.5041 58.9592 79.2533 58.5499 78.8548 58.3467Z" fill="#314160"/>
</g>
<defs>
<clipPath id="clip0_2076_15809">
<rect width="80" height="80" fill="white"/>
</clipPath>
</defs>
</svg>
