<svg width="37" height="26" viewBox="0 0 37 26" fill="none" xmlns="http://www.w3.org/2000/svg">
<path id="Youtube" fill-rule="evenodd" clip-rule="evenodd" d="M14.5631 17.7947L14.5619 7.40828L24.4794 12.6194L14.5631 17.7947ZM36.3388 5.60848C36.3388 5.60848 35.9798 3.06128 34.8798 1.93958C33.4838 0.466708 31.9192 0.459763 31.2023 0.374278C26.0658 -5.42585e-06 18.361 0 18.361 0H18.3449C18.3449 0 10.6401 -5.42585e-06 5.50359 0.374278C4.78553 0.459763 3.22209 0.466708 1.82497 1.93958C0.724945 3.06128 0.367056 5.60848 0.367056 5.60848C0.367056 5.60848 0 8.60044 0 11.5912V14.3961C0 17.388 0.367056 20.3788 0.367056 20.3788C0.367056 20.3788 0.724945 22.926 1.82497 24.0477C3.22209 25.5206 5.05623 25.4744 5.87294 25.628C8.80941 25.9122 18.3529 26 18.3529 26C18.3529 26 26.0658 25.9885 31.2023 25.6142C31.9192 25.5275 33.4838 25.5206 34.8798 24.0477C35.9798 22.926 36.3388 20.3788 36.3388 20.3788C36.3388 20.3788 36.7059 17.388 36.7059 14.3961V11.5912C36.7059 8.60044 36.3388 5.60848 36.3388 5.60848Z" fill="#FF0000"/>
</svg>
