<svg width="246" height="50" viewBox="0 0 246 50" fill="none" xmlns="http://www.w3.org/2000/svg">
<g id="logo">
<g id="Group 3">
<g id="YAROSHOK.RU">
<path d="M192.785 22.9071V17.7596H197.997V22.9071H192.785Z" fill="#314160"/>
<path d="M202.698 22.9071V0.386719H212.993C215.846 0.386719 218.034 1.14812 219.557 2.67093C220.843 3.95781 221.487 5.69509 221.487 7.88279C221.487 11.3359 219.878 13.663 216.661 14.8641L222.162 22.9071H216.371L211.481 15.7006H207.653V22.9071H202.698ZM207.653 11.3252H212.672C213.873 11.3252 214.806 11.0356 215.471 10.4565C216.136 9.856 216.468 9.06242 216.468 8.07582C216.468 7.02487 216.125 6.23129 215.438 5.69509C214.752 5.13745 213.798 4.85862 212.575 4.85862H207.653V11.3252Z" fill="#314160"/>
<path d="M235.342 23.261C232.275 23.261 229.883 22.4138 228.168 20.7194C226.452 19.0036 225.594 16.5156 225.594 13.2555V0.386719H230.548V13.1268C230.548 14.9284 230.966 16.3118 231.803 17.277C232.661 18.2207 233.862 18.6926 235.406 18.6926C236.95 18.6926 238.141 18.2314 238.977 17.3092C239.835 16.3869 240.264 15.0464 240.264 13.2877V0.386719H245.219V13.0946C245.219 16.4405 244.339 18.9714 242.581 20.6872C240.843 22.4031 238.43 23.261 235.342 23.261Z" fill="#314160"/>
</g>
<g id="YAROSHOK.RU_2">
<path d="M8.65426 22.9064V14.027L0 0.386062H5.79095L11.1637 9.42638L16.6329 0.386062H22.263L13.6087 13.9305V22.9064H8.65426Z" fill="url(#paint0_linear_6002_427)"/>
<path d="M19.8652 22.9064L29.5168 0.225203H34.0852L43.7368 22.9064H38.5571L36.4981 17.8554H26.9752L24.9162 22.9064H19.8652ZM28.7446 13.4801H34.7286L31.7366 6.17702L28.7446 13.4801Z" fill="url(#paint1_linear_6002_427)"/>
<path d="M47.2126 22.9064V0.386062H57.5076C60.3602 0.386062 62.5479 1.14747 64.0707 2.67027C65.3576 3.95715 66.001 5.69444 66.001 7.88213C66.001 11.3353 64.3924 13.6624 61.1752 14.8634L66.6766 22.9064H60.8857L55.9955 15.6999H52.1671V22.9064H47.2126ZM52.1671 11.3245H57.1859C58.387 11.3245 59.32 11.035 59.9849 10.4559C60.6498 9.85534 60.9822 9.06177 60.9822 8.07516C60.9822 7.02421 60.639 6.23064 59.9527 5.69444C59.2664 5.13679 58.3119 4.85796 57.0894 4.85796H52.1671V11.3245Z" fill="url(#paint2_linear_6002_427)"/>
<path d="M89.9581 19.9144C87.6846 22.1665 84.832 23.2925 81.4003 23.2925C77.9687 23.2925 75.1161 22.1665 72.8426 19.9144C70.5906 17.6624 69.4645 14.9063 69.4645 11.6462C69.4645 8.4076 70.6013 5.66226 72.8748 3.41023C75.1697 1.13674 78.033 0 81.4647 0C84.8964 0 87.7382 1.12602 89.9902 3.37805C92.2637 5.63009 93.4005 8.38616 93.4005 11.6462C93.4005 14.8849 92.253 17.641 89.9581 19.9144ZM76.5745 16.6651C77.8614 18.0377 79.4915 18.7241 81.4647 18.7241C83.4379 18.7241 85.0572 18.0485 86.3226 16.6972C87.5881 15.3246 88.2208 13.6409 88.2208 11.6462C88.2208 9.67304 87.5774 8.00009 86.2905 6.62742C85.0036 5.25475 83.3736 4.56842 81.4003 4.56842C79.4271 4.56842 77.8078 5.25475 76.5424 6.62742C75.2769 7.97865 74.6442 9.65159 74.6442 11.6462C74.6442 13.6195 75.2877 15.2924 76.5745 16.6651Z" fill="url(#paint3_linear_6002_427)"/>
<path d="M105.649 23.2282C101.96 23.2282 98.7751 22.0271 96.0941 19.6249L99.0218 16.1182C101.231 17.9412 103.472 18.8528 105.746 18.8528C106.754 18.8528 107.547 18.6597 108.126 18.2737C108.706 17.8876 108.995 17.3514 108.995 16.6651C108.995 16.0216 108.695 15.5069 108.094 15.1208C107.494 14.7133 106.282 14.2736 104.459 13.8018C103.172 13.4801 102.132 13.1691 101.338 12.8688C100.545 12.5471 99.7832 12.1288 99.0539 11.6141C98.3462 11.0993 97.8207 10.4559 97.4775 9.68376C97.1558 8.89019 96.9949 7.94647 96.9949 6.85263C96.9949 4.81507 97.7242 3.1743 99.1826 1.93032C100.663 0.686335 102.561 0.0643431 104.877 0.0643431C108.073 0.0643431 110.861 1.01878 113.242 2.92765L110.668 6.6596C108.545 5.17969 106.593 4.43973 104.813 4.43973C103.89 4.43973 103.172 4.63276 102.657 5.01882C102.164 5.38344 101.917 5.86602 101.917 6.46656C101.917 7.19579 102.228 7.74272 102.85 8.10733C103.472 8.47195 104.781 8.91163 106.775 9.42638C109.22 10.0698 111.022 10.8956 112.18 11.9036C113.338 12.9117 113.917 14.3594 113.917 16.2468C113.917 18.4345 113.156 20.1504 111.633 21.3944C110.132 22.6169 108.137 23.2282 105.649 23.2282Z" fill="url(#paint4_linear_6002_427)"/>
<path d="M118.217 22.9064V0.386062H123.172V9.2977H132.308V0.386062H137.263V22.9064H132.308V13.8661H123.172V22.9064H118.217Z" fill="url(#paint5_linear_6002_427)"/>
<path d="M162.156 19.9144C159.883 22.1665 157.03 23.2925 153.599 23.2925C150.167 23.2925 147.314 22.1665 145.041 19.9144C142.789 17.6624 141.663 14.9063 141.663 11.6462C141.663 8.4076 142.8 5.66226 145.073 3.41023C147.368 1.13674 150.231 0 153.663 0C157.095 0 159.937 1.12602 162.189 3.37805C164.462 5.63009 165.599 8.38616 165.599 11.6462C165.599 14.8849 164.451 17.641 162.156 19.9144ZM148.773 16.6651C150.06 18.0377 151.69 18.7241 153.663 18.7241C155.636 18.7241 157.256 18.0485 158.521 16.6972C159.786 15.3246 160.419 13.6409 160.419 11.6462C160.419 9.67304 159.776 8.00009 158.489 6.62742C157.202 5.25475 155.572 4.56842 153.599 4.56842C151.626 4.56842 150.006 5.25475 148.741 6.62742C147.475 7.97865 146.843 9.65159 146.843 11.6462C146.843 13.6195 147.486 15.2924 148.773 16.6651Z" fill="url(#paint6_linear_6002_427)"/>
<path d="M169.994 22.9064V0.386062H174.948V10.2307L184.085 0.386062H190.069L180.9 9.94114L190.487 22.9064H184.536L177.554 13.3192L174.948 16.0216V22.9064H169.994Z" fill="url(#paint7_linear_6002_427)"/>
</g>
</g>
<g id="Union">
<path fill-rule="evenodd" clip-rule="evenodd" d="M161.761 47.2176C163.174 47.2176 164.359 46.7324 165.317 45.762C166.275 44.7793 166.754 43.6062 166.754 42.2426C166.754 40.8668 166.281 39.6937 165.336 38.7233C164.39 37.7529 163.21 37.2677 161.798 37.2677C160.385 37.2677 159.2 37.759 158.242 38.7417C157.296 39.7122 156.823 40.8791 156.823 42.2426C156.823 43.6184 157.29 44.7916 158.223 45.762C159.169 46.7324 160.348 47.2176 161.761 47.2176ZM164.304 44.8775C163.653 45.59 162.817 45.9462 161.798 45.9462C160.803 45.9462 159.967 45.59 159.292 44.8775C158.616 44.1528 158.278 43.2745 158.278 42.2426C158.278 41.1985 158.604 40.3202 159.255 39.6077C159.906 38.883 160.741 38.5206 161.761 38.5206C162.756 38.5206 163.591 38.883 164.267 39.6077C164.955 40.3325 165.299 41.2108 165.299 42.2426C165.299 43.2868 164.967 44.1651 164.304 44.8775Z" fill="url(#paint8_linear_6002_427)"/>
<path fill-rule="evenodd" clip-rule="evenodd" d="M170.283 45.7804C171.167 46.7386 172.34 47.2176 173.802 47.2176C175.19 47.2176 176.351 46.7386 177.284 45.7804C178.218 44.8223 178.685 43.6676 178.685 42.3163C178.685 41.0142 178.236 39.9026 177.34 38.9813C176.443 38.0477 175.368 37.5809 174.115 37.5809C172.297 37.5809 170.983 38.2688 170.172 39.6446C170.246 38.6987 170.485 37.9617 170.891 37.4335C171.308 36.893 171.996 36.4999 172.954 36.2542L178.114 34.9828L177.837 33.7852L172.531 35.0381C171.99 35.161 171.517 35.3452 171.112 35.5909C170.706 35.8366 170.375 36.1375 170.117 36.4938C169.871 36.85 169.668 37.2124 169.509 37.5809C169.349 37.9494 169.232 38.3916 169.159 38.9076C169.085 39.4235 169.036 39.8964 169.011 40.3263C168.987 40.744 168.974 41.2538 168.974 41.8557C168.974 43.5017 169.41 44.81 170.283 45.7804ZM176.253 44.9144C175.614 45.6023 174.809 45.9462 173.839 45.9462C172.881 45.9462 172.07 45.5962 171.407 44.896C170.756 44.1958 170.43 43.3482 170.43 42.3532C170.43 41.3459 170.749 40.4983 171.388 39.8104C172.027 39.1102 172.832 38.7601 173.802 38.7601C174.76 38.7601 175.565 39.1102 176.216 39.8104C176.879 40.5106 177.211 41.3582 177.211 42.3532C177.211 43.3605 176.891 44.2142 176.253 44.9144Z" fill="url(#paint9_linear_6002_427)"/>
<path d="M180.702 49.5209C181.365 49.8403 182.041 49.9999 182.729 49.9999C183.453 49.9999 184.061 49.7911 184.553 49.3735C185.044 48.9681 185.492 48.2802 185.898 47.3098L189.896 37.4703H188.385L185.327 45.4119L181.863 37.4703H180.296L184.626 46.9597C184.344 47.623 184.055 48.0837 183.76 48.3416C183.466 48.6119 183.103 48.747 182.673 48.747C182.133 48.747 181.635 48.6303 181.181 48.3969L180.702 49.5209Z" fill="url(#paint10_linear_6002_427)"/>
<path d="M198.185 43.0718V46.9965H199.603V37.4703H198.185V41.8004C197.312 42.4023 196.311 42.7033 195.181 42.7033C194.579 42.7033 194.106 42.5436 193.762 42.2242C193.431 41.8925 193.265 41.4442 193.265 40.8791V37.4703H191.846V41.0818C191.846 42.0031 192.129 42.7094 192.694 43.2008C193.271 43.6921 194.039 43.9378 194.997 43.9378C195.513 43.9378 196.078 43.8518 196.692 43.6799C197.306 43.4956 197.804 43.2929 198.185 43.0718Z" fill="url(#paint11_linear_6002_427)"/>
<path fill-rule="evenodd" clip-rule="evenodd" d="M203.549 45.8357C204.471 46.757 205.601 47.2176 206.94 47.2176C208.487 47.2176 209.796 46.6219 210.864 45.4303L209.98 44.638C209.12 45.5347 208.119 45.9831 206.976 45.9831C206.104 45.9831 205.349 45.7006 204.71 45.1355C204.084 44.5582 203.721 43.7843 203.623 42.8138H211.178C211.19 42.6664 211.196 42.5006 211.196 42.3163C211.196 40.8668 210.797 39.663 209.998 38.7049C209.2 37.7467 208.119 37.2677 206.755 37.2677C205.453 37.2677 204.366 37.7529 203.494 38.7233C202.622 39.6814 202.186 40.8546 202.186 42.2426C202.186 43.7044 202.64 44.9021 203.549 45.8357ZM209.759 41.6714H203.623C203.721 40.7379 204.059 39.9701 204.636 39.3682C205.214 38.7663 205.908 38.4653 206.719 38.4653C207.615 38.4653 208.322 38.7724 208.837 39.3866C209.366 39.9885 209.673 40.7501 209.759 41.6714Z" fill="url(#paint12_linear_6002_427)"/>
<path d="M213.68 37.4703V46.9965H215.099V42.8323H220.589V46.9965H222.008V37.4703H220.589V41.5793H215.099V37.4703H213.68Z" fill="url(#paint13_linear_6002_427)"/>
<path d="M225.178 37.4703V46.9965H226.541L232.217 39.4603V46.9965H233.635V37.4703H232.253L226.597 45.0065V37.4703H225.178Z" fill="url(#paint14_linear_6002_427)"/>
<path fill-rule="evenodd" clip-rule="evenodd" d="M237.576 45.8357C238.497 46.757 239.627 47.2176 240.966 47.2176C242.514 47.2176 243.822 46.6219 244.891 45.4303L244.007 44.638C243.147 45.5347 242.146 45.9831 241.003 45.9831C240.131 45.9831 239.376 45.7006 238.737 45.1355C238.11 44.5582 237.748 43.7843 237.65 42.8138H245.204C245.217 42.6664 245.223 42.5006 245.223 42.3163C245.223 40.8668 244.824 39.663 244.025 38.7049C243.227 37.7467 242.146 37.2677 240.782 37.2677C239.48 37.2677 238.393 37.7529 237.521 38.7233C236.649 39.6814 236.212 40.8546 236.212 42.2426C236.212 43.7044 236.667 44.9021 237.576 45.8357ZM243.786 41.6714H237.65C237.748 40.7379 238.086 39.9701 238.663 39.3682C239.24 38.7663 239.934 38.4653 240.745 38.4653C241.642 38.4653 242.348 38.7724 242.864 39.3866C243.392 39.9885 243.7 40.7501 243.786 41.6714Z" fill="url(#paint15_linear_6002_427)"/>
<path d="M3.94314 47.1808C3.25524 47.1808 2.55506 47.0579 1.84259 46.8123C1.14241 46.5543 0.52821 46.2104 0 45.7804L0.71861 44.767C1.7996 45.5777 2.89901 45.9831 4.01685 45.9831C4.59419 45.9831 5.06712 45.8418 5.43564 45.5593C5.80416 45.2768 5.98842 44.9021 5.98842 44.4353C5.98842 44.0054 5.78573 43.6737 5.38036 43.4403C4.98728 43.2069 4.39765 42.9797 3.61147 42.7586C3.1324 42.6234 2.7516 42.5006 2.46907 42.39C2.18654 42.2795 1.86716 42.1259 1.51092 41.9294C1.15469 41.7206 0.890586 41.4626 0.71861 41.1555C0.546635 40.8361 0.460647 40.4615 0.460647 40.0315C0.460647 39.2208 0.761603 38.5636 1.36352 38.06C1.97771 37.5563 2.75774 37.3045 3.7036 37.3045C4.932 37.3045 6.0744 37.6546 7.13082 38.3548L6.48591 39.4235C5.54005 38.8093 4.60033 38.5022 3.66675 38.5022C3.11398 38.5022 2.66561 38.6373 2.32166 38.9076C1.99 39.1655 1.82416 39.5033 1.82416 39.921C1.82416 40.093 1.8733 40.2526 1.97157 40.4001C2.06984 40.5475 2.1804 40.6703 2.30324 40.7686C2.42608 40.8668 2.61648 40.9713 2.87444 41.0818C3.14469 41.1924 3.35965 41.2722 3.51935 41.3213C3.67904 41.3705 3.93086 41.4503 4.27481 41.5609C4.72931 41.696 5.10397 41.825 5.39879 41.9478C5.6936 42.0707 6.00684 42.2365 6.33851 42.4453C6.67017 42.6542 6.91585 42.9183 7.07554 43.2376C7.24752 43.5447 7.33351 43.9071 7.33351 44.3248C7.33351 45.2092 7.01412 45.9094 6.37536 46.4253C5.7366 46.929 4.92586 47.1808 3.94314 47.1808Z" fill="url(#paint16_linear_6002_427)"/>
<path fill-rule="evenodd" clip-rule="evenodd" d="M10.8169 42.8138C10.9151 43.7843 11.2775 44.5582 11.904 45.1355C12.5428 45.7006 13.2982 45.9831 14.1704 45.9831C15.3128 45.9831 16.3139 45.5347 17.1738 44.638L18.0582 45.4303C16.9895 46.6219 15.6813 47.2176 14.1335 47.2176C12.7946 47.2176 11.6645 46.757 10.7432 45.8357C9.83415 44.9021 9.37964 43.7044 9.37964 42.2426C9.37964 40.8546 9.81572 39.6814 10.6879 38.7233C11.56 37.7529 12.6472 37.2677 13.9493 37.2677C15.3128 37.2677 16.3938 37.7467 17.1922 38.7049C17.9907 39.663 18.3899 40.8668 18.3899 42.3163C18.3899 42.5006 18.3838 42.6664 18.3715 42.8138H10.8169ZM10.8169 41.6714H16.9527C16.8667 40.7501 16.5596 39.9885 16.0314 39.3866C15.5155 38.7724 14.8091 38.4653 13.9124 38.4653C13.1017 38.4653 12.4076 38.7663 11.8303 39.3682C11.2529 39.9701 10.9151 40.7379 10.8169 41.6714Z" fill="url(#paint17_linear_6002_427)"/>
<path fill-rule="evenodd" clip-rule="evenodd" d="M28.7784 45.762C27.8202 46.7324 26.6348 47.2176 25.2222 47.2176C23.8095 47.2176 22.6303 46.7324 21.6844 45.762C20.7508 44.7916 20.284 43.6184 20.284 42.2426C20.284 40.8791 20.757 39.7122 21.7028 38.7417C22.661 37.759 23.8464 37.2677 25.259 37.2677C26.6717 37.2677 27.8509 37.7529 28.7968 38.7233C29.7427 39.6937 30.2156 40.8668 30.2156 42.2426C30.2156 43.6062 29.7365 44.7793 28.7784 45.762ZM25.259 45.9462C26.2786 45.9462 27.1139 45.59 27.7649 44.8775C28.4283 44.1651 28.7599 43.2868 28.7599 42.2426C28.7599 41.2108 28.416 40.3325 27.7281 39.6077C27.0525 38.883 26.2172 38.5206 25.2222 38.5206C24.2026 38.5206 23.3673 38.883 22.7162 39.6077C22.0652 40.3202 21.7397 41.1985 21.7397 42.2426C21.7397 43.2745 22.0775 44.1528 22.7531 44.8775C23.4287 45.59 24.264 45.9462 25.259 45.9462Z" fill="url(#paint18_linear_6002_427)"/>
<path d="M45.7054 46.9965V37.4703H47.0505L50.6067 42.4822L54.1629 37.4703H55.5264V46.9965H54.0892V39.7367L50.5699 44.5643L47.0874 39.7367V46.9965H45.7054Z" fill="url(#paint19_linear_6002_427)"/>
<path fill-rule="evenodd" clip-rule="evenodd" d="M61.5347 47.1992C60.5643 47.1992 59.729 46.9351 59.0288 46.4069C58.3286 45.8787 57.9785 45.1416 57.9785 44.1958C57.9785 43.2008 58.347 42.433 59.0841 41.8925C59.8211 41.3521 60.81 41.0818 62.0506 41.0818C63.0334 41.0818 64.0038 41.2169 64.9619 41.4872V41.1924C64.9619 40.3571 64.7163 39.7183 64.2249 39.2761C63.7335 38.8339 63.0395 38.6127 62.1428 38.6127C61.2092 38.6127 60.2449 38.84 59.2499 39.2945L58.8261 38.1337C60.0054 37.5932 61.16 37.3229 62.2902 37.3229C63.6414 37.3229 64.6671 37.673 65.3673 38.3732C66.0306 39.0365 66.3623 39.9701 66.3623 41.1739V46.9965H64.9619V45.5777C64.1143 46.6587 62.9719 47.1992 61.5347 47.1992ZM61.8111 46.0568C62.6955 46.0568 63.4449 45.8173 64.0591 45.3382C64.6733 44.8591 64.9804 44.2449 64.9804 43.4956V42.6112C64.0468 42.3409 63.1193 42.2058 62.198 42.2058C61.3259 42.2058 60.6441 42.3839 60.1528 42.7401C59.6614 43.0841 59.4157 43.557 59.4157 44.1589C59.4157 44.7363 59.643 45.1969 60.0975 45.5409C60.5643 45.8848 61.1355 46.0568 61.8111 46.0568Z" fill="url(#paint20_linear_6002_427)"/>
<path fill-rule="evenodd" clip-rule="evenodd" d="M69.3676 49.9447V37.4703H70.7864V39.3866C71.7445 37.974 72.9606 37.2677 74.4347 37.2677C75.6508 37.2677 76.7134 37.7222 77.6224 38.6312C78.5314 39.5279 78.9859 40.7317 78.9859 42.2426C78.9859 43.729 78.5314 44.9267 77.6224 45.8357C76.7134 46.7447 75.6508 47.1992 74.4347 47.1992C72.9361 47.1992 71.72 46.5236 70.7864 45.1724V49.9447H69.3676ZM74.1767 45.9278C75.1349 45.9278 75.9333 45.5962 76.5721 44.9328C77.2109 44.2572 77.5303 43.3543 77.5303 42.2242C77.5303 41.1309 77.2047 40.2465 76.5537 39.5709C75.9026 38.883 75.1103 38.539 74.1767 38.539C73.2554 38.539 72.4509 38.8891 71.763 39.5893C71.0751 40.2895 70.7311 41.1739 70.7311 42.2426C70.7311 43.3113 71.0751 44.1958 71.763 44.896C72.4509 45.5839 73.2554 45.9278 74.1767 45.9278Z" fill="url(#paint21_linear_6002_427)"/>
<path d="M81.6035 46.9965V37.4703H83.0223V42.9613L88.2369 37.4703H89.9873L86.0073 41.5977L90.0979 46.9965H88.4211L85.0308 42.6296L83.0223 44.6933V46.9965H81.6035Z" fill="url(#paint22_linear_6002_427)"/>
<path fill-rule="evenodd" clip-rule="evenodd" d="M96.2223 47.2176C94.8834 47.2176 93.7533 46.757 92.832 45.8357C91.923 44.9021 91.4684 43.7044 91.4684 42.2426C91.4684 40.8546 91.9045 39.6814 92.7767 38.7233C93.6488 37.7529 94.736 37.2677 96.0381 37.2677C97.4016 37.2677 98.4826 37.7467 99.281 38.7049C100.079 39.663 100.479 40.8668 100.479 42.3163C100.479 42.5006 100.473 42.6664 100.46 42.8138H92.9057C93.0039 43.7843 93.3663 44.5582 93.9928 45.1355C94.6315 45.7006 95.387 45.9831 96.2592 45.9831C97.4016 45.9831 98.4027 45.5347 99.2626 44.638L100.147 45.4303C99.0783 46.6219 97.7701 47.2176 96.2223 47.2176ZM92.9057 41.6714H99.0415C98.9555 40.7501 98.6484 39.9885 98.1202 39.3866C97.6043 38.7724 96.8979 38.4653 96.0012 38.4653C95.1905 38.4653 94.4964 38.7663 93.9191 39.3682C93.3417 39.9701 93.0039 40.7379 92.9057 41.6714Z" fill="url(#paint23_linear_6002_427)"/>
<path d="M105.266 46.9965V38.7233H101.857V37.4703H110.112V38.7233H106.703V46.9965H105.266Z" fill="url(#paint24_linear_6002_427)"/>
<path d="M112.175 46.9965V37.4703H113.594V45.0065L119.251 37.4703H120.633V46.9965H119.214V39.4603L113.539 46.9965H112.175Z" fill="url(#paint25_linear_6002_427)"/>
<path d="M123.8 46.9965V37.4703H125.218V41.5793H130.709V37.4703H132.128V46.9965H130.709V42.8323H125.218V46.9965H123.8Z" fill="url(#paint26_linear_6002_427)"/>
<path d="M135.298 46.9965V37.4703H141.765V38.7233H136.717V46.9965H135.298Z" fill="url(#paint27_linear_6002_427)"/>
<path d="M36.0595 40.0868H39.5143V43.5417H36.0595V40.0868Z" fill="url(#paint28_linear_6002_427)"/>
<path d="M151.221 40.0868H147.766V43.5417H151.221V40.0868Z" fill="url(#paint29_linear_6002_427)"/>
</g>
</g>
<defs>
<linearGradient id="paint0_linear_6002_427" x1="0" y1="11.6463" x2="190.487" y2="11.6463" gradientUnits="userSpaceOnUse">
<stop stop-color="#314160"/>
<stop offset="1" stop-color="#CE5656"/>
</linearGradient>
<linearGradient id="paint1_linear_6002_427" x1="0" y1="11.6463" x2="190.487" y2="11.6463" gradientUnits="userSpaceOnUse">
<stop stop-color="#314160"/>
<stop offset="1" stop-color="#CE5656"/>
</linearGradient>
<linearGradient id="paint2_linear_6002_427" x1="0" y1="11.6463" x2="190.487" y2="11.6463" gradientUnits="userSpaceOnUse">
<stop stop-color="#314160"/>
<stop offset="1" stop-color="#CE5656"/>
</linearGradient>
<linearGradient id="paint3_linear_6002_427" x1="0" y1="11.6463" x2="190.487" y2="11.6463" gradientUnits="userSpaceOnUse">
<stop stop-color="#314160"/>
<stop offset="1" stop-color="#CE5656"/>
</linearGradient>
<linearGradient id="paint4_linear_6002_427" x1="0" y1="11.6463" x2="190.487" y2="11.6463" gradientUnits="userSpaceOnUse">
<stop stop-color="#314160"/>
<stop offset="1" stop-color="#CE5656"/>
</linearGradient>
<linearGradient id="paint5_linear_6002_427" x1="0" y1="11.6463" x2="190.487" y2="11.6463" gradientUnits="userSpaceOnUse">
<stop stop-color="#314160"/>
<stop offset="1" stop-color="#CE5656"/>
</linearGradient>
<linearGradient id="paint6_linear_6002_427" x1="0" y1="11.6463" x2="190.487" y2="11.6463" gradientUnits="userSpaceOnUse">
<stop stop-color="#314160"/>
<stop offset="1" stop-color="#CE5656"/>
</linearGradient>
<linearGradient id="paint7_linear_6002_427" x1="0" y1="11.6463" x2="190.487" y2="11.6463" gradientUnits="userSpaceOnUse">
<stop stop-color="#314160"/>
<stop offset="1" stop-color="#CE5656"/>
</linearGradient>
<linearGradient id="paint8_linear_6002_427" x1="0" y1="41.8925" x2="245.223" y2="41.8925" gradientUnits="userSpaceOnUse">
<stop stop-color="#314160"/>
<stop offset="1" stop-color="#CE5656"/>
</linearGradient>
<linearGradient id="paint9_linear_6002_427" x1="0" y1="41.8925" x2="245.223" y2="41.8925" gradientUnits="userSpaceOnUse">
<stop stop-color="#314160"/>
<stop offset="1" stop-color="#CE5656"/>
</linearGradient>
<linearGradient id="paint10_linear_6002_427" x1="0" y1="41.8925" x2="245.223" y2="41.8925" gradientUnits="userSpaceOnUse">
<stop stop-color="#314160"/>
<stop offset="1" stop-color="#CE5656"/>
</linearGradient>
<linearGradient id="paint11_linear_6002_427" x1="0" y1="41.8925" x2="245.223" y2="41.8925" gradientUnits="userSpaceOnUse">
<stop stop-color="#314160"/>
<stop offset="1" stop-color="#CE5656"/>
</linearGradient>
<linearGradient id="paint12_linear_6002_427" x1="0" y1="41.8925" x2="245.223" y2="41.8925" gradientUnits="userSpaceOnUse">
<stop stop-color="#314160"/>
<stop offset="1" stop-color="#CE5656"/>
</linearGradient>
<linearGradient id="paint13_linear_6002_427" x1="0" y1="41.8925" x2="245.223" y2="41.8925" gradientUnits="userSpaceOnUse">
<stop stop-color="#314160"/>
<stop offset="1" stop-color="#CE5656"/>
</linearGradient>
<linearGradient id="paint14_linear_6002_427" x1="0" y1="41.8925" x2="245.223" y2="41.8925" gradientUnits="userSpaceOnUse">
<stop stop-color="#314160"/>
<stop offset="1" stop-color="#CE5656"/>
</linearGradient>
<linearGradient id="paint15_linear_6002_427" x1="0" y1="41.8925" x2="245.223" y2="41.8925" gradientUnits="userSpaceOnUse">
<stop stop-color="#314160"/>
<stop offset="1" stop-color="#CE5656"/>
</linearGradient>
<linearGradient id="paint16_linear_6002_427" x1="0" y1="41.8925" x2="245.223" y2="41.8925" gradientUnits="userSpaceOnUse">
<stop stop-color="#314160"/>
<stop offset="1" stop-color="#CE5656"/>
</linearGradient>
<linearGradient id="paint17_linear_6002_427" x1="0" y1="41.8925" x2="245.223" y2="41.8925" gradientUnits="userSpaceOnUse">
<stop stop-color="#314160"/>
<stop offset="1" stop-color="#CE5656"/>
</linearGradient>
<linearGradient id="paint18_linear_6002_427" x1="0" y1="41.8925" x2="245.223" y2="41.8925" gradientUnits="userSpaceOnUse">
<stop stop-color="#314160"/>
<stop offset="1" stop-color="#CE5656"/>
</linearGradient>
<linearGradient id="paint19_linear_6002_427" x1="0" y1="41.8925" x2="245.223" y2="41.8925" gradientUnits="userSpaceOnUse">
<stop stop-color="#314160"/>
<stop offset="1" stop-color="#CE5656"/>
</linearGradient>
<linearGradient id="paint20_linear_6002_427" x1="0" y1="41.8925" x2="245.223" y2="41.8925" gradientUnits="userSpaceOnUse">
<stop stop-color="#314160"/>
<stop offset="1" stop-color="#CE5656"/>
</linearGradient>
<linearGradient id="paint21_linear_6002_427" x1="0" y1="41.8925" x2="245.223" y2="41.8925" gradientUnits="userSpaceOnUse">
<stop stop-color="#314160"/>
<stop offset="1" stop-color="#CE5656"/>
</linearGradient>
<linearGradient id="paint22_linear_6002_427" x1="0" y1="41.8925" x2="245.223" y2="41.8925" gradientUnits="userSpaceOnUse">
<stop stop-color="#314160"/>
<stop offset="1" stop-color="#CE5656"/>
</linearGradient>
<linearGradient id="paint23_linear_6002_427" x1="0" y1="41.8925" x2="245.223" y2="41.8925" gradientUnits="userSpaceOnUse">
<stop stop-color="#314160"/>
<stop offset="1" stop-color="#CE5656"/>
</linearGradient>
<linearGradient id="paint24_linear_6002_427" x1="0" y1="41.8925" x2="245.223" y2="41.8925" gradientUnits="userSpaceOnUse">
<stop stop-color="#314160"/>
<stop offset="1" stop-color="#CE5656"/>
</linearGradient>
<linearGradient id="paint25_linear_6002_427" x1="0" y1="41.8925" x2="245.223" y2="41.8925" gradientUnits="userSpaceOnUse">
<stop stop-color="#314160"/>
<stop offset="1" stop-color="#CE5656"/>
</linearGradient>
<linearGradient id="paint26_linear_6002_427" x1="0" y1="41.8925" x2="245.223" y2="41.8925" gradientUnits="userSpaceOnUse">
<stop stop-color="#314160"/>
<stop offset="1" stop-color="#CE5656"/>
</linearGradient>
<linearGradient id="paint27_linear_6002_427" x1="0" y1="41.8925" x2="245.223" y2="41.8925" gradientUnits="userSpaceOnUse">
<stop stop-color="#314160"/>
<stop offset="1" stop-color="#CE5656"/>
</linearGradient>
<linearGradient id="paint28_linear_6002_427" x1="0" y1="41.8925" x2="245.223" y2="41.8925" gradientUnits="userSpaceOnUse">
<stop stop-color="#314160"/>
<stop offset="1" stop-color="#CE5656"/>
</linearGradient>
<linearGradient id="paint29_linear_6002_427" x1="0" y1="41.8925" x2="245.223" y2="41.8925" gradientUnits="userSpaceOnUse">
<stop stop-color="#314160"/>
<stop offset="1" stop-color="#CE5656"/>
</linearGradient>
</defs>
</svg>
