<svg width="80" height="60" viewBox="0 0 80 60" fill="none" xmlns="http://www.w3.org/2000/svg">
<g id="Frame 28">
<path id="Vector" d="M37.6828 0C22.9476 0 11 11.9451 11 26.6828C11 41.4205 22.9476 53.3656 37.6853 53.3656C41.6028 53.3656 45.4804 52.6331 51.1804 52.5906C56.263 52.5906 61.8481 54.3756 67.9756 59.8057C68.5956 60.3482 69.4106 59.6507 68.8681 58.9906C62.8556 51.3506 57.268 49.9155 51.6854 48.6755C44.8604 47.1605 41.3703 43.3605 38.9253 39.1329C38.4603 38.2804 38.2253 38.4354 38.1878 39.5229C38.1428 41.1205 38.2628 42.718 38.5378 44.293H37.7228C33.0429 44.289 28.5558 42.4282 25.2466 39.119C21.9374 35.8098 20.0766 31.3227 20.0726 26.6428C20.0779 21.964 21.9394 17.4784 25.2485 14.1707C28.5576 10.863 33.044 9.00341 37.7228 9.0001C40.2133 9.00141 42.6754 9.52949 44.9475 10.5497C47.2195 11.5698 49.25 13.059 50.9058 14.9195C52.5615 16.78 53.8051 18.9696 54.5547 21.3446C55.3044 23.7197 55.5432 26.2264 55.2555 28.7003C53.9355 28.4678 51.4129 28.4303 49.6304 28.5853C48.9704 28.6628 49.0479 28.9728 49.5529 29.0528C55.3705 30.1378 59.3655 33.7454 60.2955 40.3004C60.333 40.4554 60.528 40.4929 60.6055 40.3754C63.0655 36.2324 64.3651 31.5036 64.3681 26.6853C64.3681 11.9451 52.423 0 37.6828 0ZM56.793 37.6929C56.6411 37.6762 56.4875 37.7045 56.3515 37.7742C56.2155 37.844 56.103 37.9522 56.028 38.0854C55.718 38.6304 55.953 39.6754 56.533 40.6079C57.113 41.538 57.658 42.003 58.048 42.003C58.4355 42.003 58.783 41.538 58.628 40.3354C58.553 39.6754 58.163 38.1654 57.153 37.7754C57.0355 37.7229 56.9005 37.7179 56.793 37.6929ZM51.2579 42.1605C50.7154 42.1605 50.2879 42.3505 50.0154 42.7005C49.3179 43.553 49.6279 45.1055 50.7154 46.038C51.1804 46.463 51.8804 46.6955 52.5405 46.6955C52.8399 46.7033 53.1373 46.6451 53.4117 46.525C53.6861 46.4048 53.9306 46.2258 54.128 46.0005C54.7505 45.1455 54.403 43.9805 53.198 42.973C52.578 42.4305 51.8804 42.1605 51.2579 42.1605Z" fill="#F68900"/>
</g>
</svg>
