<svg width="0" height="0" class="hidden">
  <symbol fill="none" xmlns="http://www.w3.org/2000/svg" viewBox="0 0 8 12" id="ic_arr_hor">
    <path d="M4.15005 5.97456L0.0327649 10.0918L2.02446 12L7.94922 6.07524L1.89058 0L-0.000439644 1.87441L4.15005 5.97456Z" fill="currentColor"></path>
  </symbol>
  <symbol fill="none" xmlns="http://www.w3.org/2000/svg" viewBox="0 0 32 14" id="ic_arrow_hor">
    <path d="M31.0048 7.73789C31.4129 7.3298 31.4129 6.6702 31.0048 6.26212L24.7427 0L23.2669 1.47577L27.7474 5.95631L9.12419e-08 5.95631L0 8.04368L27.7474 8.04368L23.2669 12.5242L24.7427 14L31.0048 7.73789Z" fill="currentColor"></path>
  </symbol>
  <symbol fill="none" xmlns="http://www.w3.org/2000/svg" viewBox="0 0 10 7" id="ic_arr_ver">
    <path d="M4.99302 3.35309L1.98883 0.345333C1.8799 0.236331 1.75055 0.149861 1.60818 0.0908659C1.46581 0.0318704 1.31322 0.0015048 1.15911 0.00150481C1.005 0.00150482 0.852404 0.0318704 0.710036 0.0908659C0.567668 0.149861 0.43832 0.236331 0.329382 0.345333C0.117856 0.569104 -1.34597e-08 0.865349 0 1.17327C1.34597e-08 1.48119 0.117856 1.77744 0.329382 2.00121L4.73552 6.4145C4.80252 6.48111 4.89317 6.5185 4.98765 6.5185C5.08214 6.5185 5.17278 6.48111 5.23979 6.4145L9.64235 2.00121C9.7539 1.8942 9.84299 1.76602 9.9044 1.62416C9.96581 1.48231 9.9983 1.32963 9.99999 1.17506C10.0011 0.942948 9.9331 0.715758 9.80468 0.522411C9.67625 0.329065 9.49319 0.178308 9.27881 0.0893327C9.06442 0.00035794 8.82841 -0.0228094 8.60082 0.0227792C8.37323 0.0683679 8.16435 0.180651 8.00078 0.345333L4.99302 3.35309Z" fill="currentColor"></path>
  </symbol>
  <symbol fill="none" xmlns="http://www.w3.org/2000/svg" viewBox="0 0 30 30" id="ic_close">
    <path d="M15.0001 16.1538L28.8461 29.9999L30 28.846L16.1539 14.9999L29.9999 1.15396L28.846 0.000120896L15.0001 13.8461L1.15395 0L0.000103875 1.15384L13.8462 14.9999L0 28.8462L1.15384 30L15.0001 16.1538Z" fill="currentColor"></path>
  </symbol>
  <symbol fill="none" xmlns="http://www.w3.org/2000/svg" viewBox="0 0 10 10" id="ic_close2">
    <path d="M0.19887 0.198869C-0.0662896 0.464029 -0.0662893 0.893937 0.19887 1.1591L4.03977 5L0.198869 8.8409C-0.0662899 9.10606 -0.0662896 9.53597 0.198869 9.80113C0.464029 10.0663 0.893936 10.0663 1.1591 9.80113L5 5.96023L8.84091 9.80113C9.10606 10.0663 9.53597 10.0663 9.80113 9.80113C10.0663 9.53597 10.0663 9.10606 9.80113 8.8409L5.96023 5L9.80113 1.1591C10.0663 0.893937 10.0663 0.464029 9.80113 0.198869C9.53597 -0.0662899 9.10606 -0.0662895 8.84091 0.198869L5 4.03977L1.1591 0.198869C0.893937 -0.0662897 0.464029 -0.0662899 0.19887 0.198869Z" fill="currentColor"></path>
  </symbol>
  <symbol fill="none" xmlns="http://www.w3.org/2000/svg" viewBox="0 0 20 20" id="ic_education">
    <path d="M19.2714 17.6562H2.92969C2.6061 17.6562 2.34375 17.3939 2.34375 17.0703C2.34375 16.7467 2.6061 16.4844 2.92969 16.4844H19.2701C19.3897 15.8227 19.6873 15.3373 19.8817 15.0781C20.1715 14.6919 19.8958 14.1406 19.413 14.1406H2.92969C1.31168 14.1406 0 15.4523 0 17.0703C0 18.6883 1.31168 20 2.92969 20H19.413C19.8959 20 20.1715 19.4488 19.8818 19.0625C19.5138 18.5718 19.3453 18.0659 19.2714 17.6562Z" fill="currentColor"></path>
    <path d="M3.94531 9.86589V11.1329C3.94531 11.3636 4.0807 11.5728 4.29117 11.6673C6.07285 12.4677 8.04696 12.8907 10 12.8907C11.9531 12.8907 13.9272 12.4677 15.7088 11.6673C15.9193 11.5728 16.0547 11.3636 16.0547 11.1329V9.86589C14.1585 10.695 12.0685 11.1329 10 11.1329C7.93157 11.1328 5.84153 10.695 3.94531 9.86589Z" fill="currentColor"></path>
    <path d="M16.0547 5.97284L10.533 7.72976C10.1887 7.83996 9.81137 7.83996 9.46707 7.72976L3.94531 5.97284V8.5823L4.29117 8.73765C6.07285 9.53796 8.04696 9.96097 10 9.96097C11.9531 9.96097 13.9272 9.53796 15.7088 8.73765L16.0547 8.5823V5.97284Z" fill="currentColor"></path>
    <path d="M18.7714 2.76194L10.1777 0.0275684C10.0621 -0.00918946 9.93793 -0.00918946 9.82235 0.0275684L1.22859 2.76194C0.956368 2.84859 0.820274 3.08452 0.820313 3.32042V7.13144L0.0691407 9.38503C-0.0331641 9.69203 0.132734 10.0239 0.439727 10.1262C0.746641 10.2285 1.07856 10.0626 1.1809 9.75562L1.40625 9.07949L1.63164 9.75562C1.71352 10.0012 1.94207 10.1565 2.18746 10.1564C2.24887 10.1564 2.31137 10.1467 2.37281 10.1262C2.67981 10.0239 2.8457 9.6921 2.7434 9.38507L1.99219 7.13144V4.12159L9.82235 6.613C9.93793 6.6498 10.0621 6.6498 10.1777 6.613L18.7714 3.87862C19.3158 3.70546 19.3158 2.93515 18.7714 2.76194Z" fill="currentColor"></path>
  </symbol>
  <symbol fill="none" xmlns="http://www.w3.org/2000/svg" viewBox="0 0 16 13" id="ic_email">
    <path d="M16 7.83961L13.935 5.69461L16 3.91464V7.83961Z" fill="currentColor"></path>
    <path d="M2.0675 5.69461L0 7.84211V3.91464L2.0675 5.69461Z" fill="currentColor"></path>
    <path d="M16 9.78964V11.7646C16 12.2421 15.6125 12.6297 15.135 12.6297H0.865C0.387469 12.6297 0 12.2422 0 11.7646V9.78964L3.09247 6.57961L6.625 9.62208C6.9925 9.93714 7.47997 10.1121 8 10.1121C8.52003 10.1121 9.01 9.93714 9.3775 9.62208L12.9075 6.57961L16 9.78964Z" fill="currentColor"></path>
    <path d="M16 1.46211V2.32711L8.45494 8.82711C8.21244 9.03711 7.78747 9.03711 7.54497 8.82711L0 2.32711V1.46211C0 0.984641 0.387437 0.599609 0.865 0.599609H15.135C15.6125 0.599609 16 0.984641 16 1.46211Z" fill="currentColor"></path>
  </symbol>
  <symbol fill="none" xmlns="http://www.w3.org/2000/svg" viewBox="0 0 50 22" id="ic_menu">
    <rect width="50" height="2" fill="currentColor"></rect>
    <rect y="10" width="50" height="2" fill="currentColor"></rect>
    <rect y="20" width="50" height="2" fill="currentColor"></rect>
  </symbol>
  <symbol fill="none" xmlns="http://www.w3.org/2000/svg" viewBox="0 0 17 20" id="ic_phone">
    <path d="M10.7335 13.2395C9.91358 13.2395 9.1619 13.5963 8.46206 13.9617C8.39891 13.9948 8.33532 14.0108 8.26777 14.0108C7.85228 14.0109 7.05948 13.4415 5.64204 10.7284C4.43127 8.41082 4.11618 7.07956 4.70542 6.77157C6.30248 5.93745 7.06418 4.83808 5.92875 1.93913C5.41812 0.634273 4.71439 0 3.77714 0C3.04421 0 2.3195 0.402188 1.68003 0.756995C1.53974 0.83481 1.40725 0.908357 1.2789 0.975409C0.372705 1.44879 -0.0988857 2.95363 0.0174038 5.00094C0.145075 7.24725 0.955699 9.89061 2.29996 12.4639C4.88882 17.4182 8.3412 20 10.4135 20C10.4136 20 10.4137 20 10.4138 20C10.6783 20 10.9191 19.9675 11.1295 19.8817C12.0447 19.5088 13.7483 18.82 14.1539 17.4951C14.3715 16.7845 14.193 15.9954 13.6235 15.1442C12.7642 13.8607 11.8189 13.2395 10.7335 13.2395Z" fill="currentColor"></path>
    <path d="M14.7478 5.2989C13.9323 4.00537 12.6988 2.86864 11.5286 2.33235C11.0629 2.11894 10.5121 2.32332 10.2986 2.78922C10.085 3.25505 10.2895 3.80576 10.7554 4.01929C11.5898 4.40174 12.5634 5.31369 13.1781 6.28866C13.7984 7.27242 14.2014 8.55526 14.181 9.48081C14.1696 9.9931 14.5757 10.4176 15.088 10.4289C15.095 10.4291 15.102 10.4292 15.109 10.4292C15.6118 10.4292 16.025 10.0272 16.0362 9.52182C16.0649 8.2229 15.5712 6.60475 14.7478 5.2989Z" fill="currentColor"></path>
    <path d="M8.76992 6.85118C9.20328 7.04987 9.80069 7.6289 10.1596 8.19804C10.5214 8.772 10.7862 9.56704 10.7755 10.0473C10.764 10.5596 11.1701 10.9842 11.6824 10.9956C11.6894 10.9958 11.6965 10.9959 11.7035 10.9959C12.2063 10.9959 12.6195 10.5939 12.6307 10.0887C12.6523 9.12093 12.1935 7.9448 11.7293 7.2084C11.2695 6.479 10.4151 5.56402 9.54325 5.16437C9.07747 4.95078 8.5267 5.1554 8.31311 5.62111C8.09959 6.08689 8.30414 6.63766 8.76992 6.85118Z" fill="currentColor"></path>
  </symbol>
  <symbol fill="none" xmlns="http://www.w3.org/2000/svg" viewBox="0 0 20 20" id="ic_portfolio">
    <path d="M13.3333 13.2127V14.2424C13.3333 14.7445 12.9264 15.1515 12.4242 15.1515H7.57574C7.07375 15.1515 6.66664 14.7445 6.66664 14.2424V13.2127L1.21207 12.2209V18.4849C1.21207 18.987 1.61918 19.394 2.12117 19.394H17.8787C18.3809 19.394 18.7879 18.987 18.7879 18.4849V12.2211L13.3333 13.2127Z" fill="currentColor"></path>
    <path d="M19.0909 3.63637H14.5455V0.909102C14.5455 0.407031 14.1385 0 13.6364 0H6.36363C5.86164 0 5.45453 0.407031 5.45453 0.909102V3.63641H0.909102C0.407109 3.63637 0 4.04348 0 4.54547V9.39395C0 9.83328 0.314297 10.2098 0.746484 10.2884L6.66664 11.3648V10.6061C6.66664 10.104 7.07375 9.69699 7.57574 9.69699H12.4243C12.9264 9.69699 13.3334 10.104 13.3334 10.6061V11.3648L19.2536 10.2884C19.6859 10.2098 20 9.83328 20 9.39395V4.54547C20 4.04348 19.5931 3.63637 19.0909 3.63637ZM12.7273 3.63641H7.27273V1.8182H12.7273V3.63641Z" fill="currentColor"></path>
  </symbol>
  <symbol fill="none" xmlns="http://www.w3.org/2000/svg" viewBox="0 0 20 20" id="ic_services">
    <path d="M19.955 18.5626L18.5184 15.6902C18.3059 15.2644 17.8776 14.9994 17.401 14.9994H16.8385L12.047 10.2079L12.3878 9.86709C12.7745 9.48129 12.7745 8.85214 12.3703 8.44797C11.852 7.92967 11.3704 7.60801 10.8546 7.43634C10.4829 7.31216 10.1879 7.01717 10.0638 6.64555C9.89127 6.12889 9.57047 5.64727 9.05213 5.12979L4.63231 0.710791C3.71817 -0.203351 2.11823 -0.207492 1.19995 0.710791L0.709971 1.19995C0.25249 1.65825 0 2.26741 0 2.9182C0 3.56567 0.25249 4.17483 0.709971 4.63313L5.12897 9.05213C5.64727 9.57043 6.12893 9.89209 6.64473 10.0638C7.01639 10.1879 7.31138 10.4829 7.43552 10.8546C7.60719 11.3712 7.92967 11.8528 8.46297 12.3862C8.65215 12.5753 8.90128 12.6795 9.16712 12.6795C9.43129 12.6795 9.6796 12.5762 9.86709 12.3887L10.2079 12.0479L14.9994 16.8393V17.4018C14.9994 17.8784 15.2644 18.3067 15.6902 18.5201L18.5626 19.9567C18.6226 19.985 18.6859 19.9992 18.7492 19.9992C18.8567 19.9992 18.9634 19.9575 19.0442 19.8775L19.8775 19.0442C20.0042 18.9167 20.035 18.7234 19.955 18.5626Z" fill="currentColor"></path>
    <path d="M19.9925 3.91566C19.9842 3.77149 19.8858 3.63399 19.7592 3.56567C19.6292 3.49568 19.4717 3.49818 19.345 3.57399L17.0643 4.94144C16.3718 4.58313 15.9193 3.91148 15.8435 3.14569L18.3901 1.61825C18.5068 1.54826 18.5818 1.42576 18.5918 1.28995C18.601 1.15413 18.5435 1.02246 18.4376 0.936641C17.6935 0.335807 16.811 0.0124995 15.841 0C14.8086 0 13.7678 0.478301 12.9853 1.31327C12.0554 2.30405 11.6254 3.28651 11.6696 4.31482C11.6937 4.87898 11.4412 5.46896 10.9496 5.96226C10.8504 6.06557 10.8104 6.21224 10.8454 6.35056C10.8787 6.48973 10.9821 6.60137 11.1179 6.64637C11.7521 6.85636 12.3537 7.25302 12.9586 7.85882C13.202 8.10213 13.3661 8.3988 13.4469 8.7421C13.4819 8.88878 13.5936 9.00541 13.7386 9.04709C13.7761 9.05791 13.8144 9.06291 13.8528 9.06291C13.962 9.06291 14.0678 9.02041 14.1478 8.94123L14.8802 8.20877C15.2186 8.29294 15.526 8.33294 15.8327 8.33294C16.9752 8.33294 18.0801 7.85628 18.8651 7.02467C19.66 6.18143 20.0609 5.07729 19.9925 3.91566Z" fill="currentColor"></path>
    <path d="M9.05045 13.7419C9.00627 13.6003 8.89128 13.4903 8.74714 13.4569C8.41298 13.3786 8.11135 13.212 7.87386 12.9745C7.25888 12.3603 6.85722 11.7528 6.64559 11.117C6.59977 10.9795 6.48641 10.8762 6.34642 10.8429C6.20643 10.8087 6.05811 10.8521 5.95562 10.9537L5.8773 11.0329C5.46813 11.4412 4.86984 11.6662 4.16655 11.6662C1.8691 11.6662 0 13.5353 0 15.8327C0 15.9785 0.0183196 16.1185 0.0374985 16.2593L0.0508182 16.3577C0.0683175 16.4968 0.155814 16.6185 0.282488 16.6793C0.409163 16.741 0.557477 16.7343 0.679152 16.6618L3.35154 15.0586C4.04401 15.4169 4.4965 16.0885 4.57231 16.8543L1.78493 18.5267C1.66411 18.5992 1.58826 18.7276 1.58326 18.8675C1.57744 19.0075 1.64325 19.1417 1.75743 19.2234C2.46908 19.7292 3.29904 19.9983 4.15901 20H4.16401C5.19897 20 6.24392 19.5142 7.03221 18.6684C7.94967 17.6842 8.37384 16.7093 8.33048 15.6877C8.30798 15.1577 8.53129 14.6102 8.95877 14.1461C9.05963 14.0377 9.09463 13.8836 9.05045 13.7419Z" fill="currentColor"></path>
  </symbol>
  <symbol fill="none" xmlns="http://www.w3.org/2000/svg" viewBox="0 0 20 20" id="ic_skype">
    <path d="M18.7678 11.6903C18.8728 11.1428 18.9283 10.578 18.9283 9.99997C18.9283 5.06911 14.9308 1.07189 10.0001 1.07189C9.42204 1.07189 8.85709 1.12747 8.30959 1.23245C6.33853 -0.48574 3.34594 -0.407855 1.46907 1.46895C-0.407862 3.3457 -0.485807 6.33848 1.23257 8.30966C1.12765 8.85703 1.07207 9.42199 1.07207 9.99997C1.07207 14.9309 5.06953 18.9281 10.0001 18.9281C10.5782 18.9281 11.1433 18.8725 11.6908 18.7675C13.6618 20.4857 16.6544 20.4079 18.5313 18.531C20.408 16.6542 20.486 13.6615 18.7678 11.6903ZM10.1702 15.4989C7.52596 15.4989 5.32245 14.317 5.32245 12.8746C5.32245 12.2337 5.68285 11.6525 6.50406 11.6525C7.76634 11.6525 7.88665 13.4554 10.0505 13.4554C11.0919 13.4554 11.7531 12.9947 11.7531 12.3938C11.7531 11.6525 11.112 11.5324 10.0704 11.272L8.34759 10.8514C6.6445 10.4306 5.32245 9.72952 5.32245 7.76622C5.32245 5.38228 7.68615 4.50094 9.70952 4.50094C11.9334 4.50094 14.177 5.38228 14.177 6.72439C14.177 7.40541 13.7159 8.00679 12.9549 8.00679C11.813 8.00679 11.7726 6.6645 9.93002 6.6645C8.90843 6.6645 8.24734 6.94489 8.24734 7.56603C8.24734 8.24705 8.90843 8.40712 9.81013 8.60762L11.0318 8.88819C12.6942 9.26852 14.6779 9.96979 14.6779 12.0135C14.6779 14.397 12.3737 15.4989 10.1702 15.4989Z" fill="currentColor"></path>
  </symbol>
  <symbol fill="none" xmlns="http://www.w3.org/2000/svg" viewBox="0 0 18 20" id="ic_user">
    <path d="M8.95257 10.3855C11.8097 10.3855 14.1453 8.04991 14.1453 5.19275C14.1453 2.33559 11.8097 0 8.95257 0C6.09541 0 3.75986 2.33559 3.75986 5.19275C3.75986 8.04991 6.09545 10.3855 8.95257 10.3855Z" fill="currentColor"></path>
    <path d="M17.8642 14.5352C17.7281 14.195 17.5467 13.8776 17.3426 13.5828C16.2995 12.0408 14.6896 11.0204 12.8755 10.771C12.6488 10.7483 12.3994 10.7936 12.2179 10.9297C11.2655 11.6326 10.1318 11.9954 8.95262 11.9954C7.77345 11.9954 6.63968 11.6326 5.6873 10.9297C5.50587 10.7936 5.25644 10.7256 5.0297 10.771C3.21564 11.0204 1.583 12.0408 0.562599 13.5828C0.358519 13.8776 0.177095 14.2177 0.041071 14.5352C-0.0269412 14.6712 -0.00428496 14.8299 0.0637272 14.966C0.245151 15.2835 0.471887 15.601 0.675967 15.873C0.993415 16.3039 1.33356 16.6894 1.71907 17.0522C2.03651 17.3696 2.39932 17.6644 2.76216 17.9592C4.55353 19.2971 6.70774 20 8.92996 20C11.1522 20 13.3064 19.297 15.0978 17.9592C15.4606 17.6871 15.8234 17.3696 16.1409 17.0522C16.5037 16.6894 16.8665 16.3039 17.184 15.873C17.4107 15.5783 17.6148 15.2835 17.7962 14.966C17.9095 14.8299 17.9322 14.6712 17.8642 14.5352Z" fill="currentColor"></path>
  </symbol>
  <symbol fill="none" xmlns="http://www.w3.org/2000/svg" viewBox="0 0 16 16" id="ic_website">
    <path d="M8 0C3.58172 0 0 3.58172 0 8C0 12.4183 3.58172 16 8 16C12.4183 16 16 12.4183 16 8C16 3.58172 12.4183 0 8 0ZM13.0711 4.5625H11.6128C11.4451 3.85897 11.2276 3.21209 10.9694 2.64019C11.4627 2.91444 11.9209 3.25884 12.331 3.66897C12.6082 3.94616 12.8552 4.24544 13.0711 4.5625ZM14.125 8C14.125 8.53463 14.0565 9.05866 13.9246 9.5625H11.9235C11.9735 9.05713 12 8.53478 12 8C12 7.46522 11.9735 6.94287 11.9235 6.4375H13.9246C14.0565 6.94134 14.125 7.46537 14.125 8ZM8 14.125C7.8375 14.125 7.34225 13.8056 6.84863 12.8183C6.64416 12.4094 6.46869 11.9435 6.32513 11.4375H9.67484C9.53128 11.9435 9.35584 12.4094 9.15134 12.8183C8.65775 13.8056 8.1625 14.125 8 14.125ZM5.96291 9.5625C5.90519 9.05478 5.875 8.53034 5.875 8C5.875 7.46966 5.90519 6.94522 5.96291 6.4375H10.0371C10.0948 6.94522 10.125 7.46966 10.125 8C10.125 8.53034 10.0948 9.05478 10.0371 9.5625H5.96291ZM1.875 8C1.875 7.46537 1.94347 6.94134 2.07544 6.4375H4.0765C4.02647 6.94287 4 7.46522 4 8C4 8.53478 4.02647 9.05713 4.0765 9.5625H2.07544C1.94347 9.05866 1.875 8.53463 1.875 8ZM8 1.875C8.1625 1.875 8.65775 2.19441 9.15137 3.18166C9.35584 3.59063 9.53131 4.05647 9.67488 4.5625H6.32513C6.46869 4.0565 6.64413 3.59063 6.84863 3.18166C7.34225 2.19441 7.8375 1.875 8 1.875ZM5.03059 2.64019C4.77234 3.21209 4.55491 3.85894 4.38725 4.5625H2.92891C3.14481 4.24544 3.39178 3.94616 3.66897 3.66897C4.07909 3.25884 4.53728 2.91444 5.03059 2.64019ZM2.92891 11.4375H4.38725C4.55491 12.141 4.77238 12.7879 5.03059 13.3598C4.53728 13.0856 4.07906 12.7412 3.66897 12.331C3.39178 12.0538 3.14478 11.7546 2.92891 11.4375ZM10.9694 13.3598C11.2277 12.7879 11.4451 12.1411 11.6128 11.4375H13.0711C12.8552 11.7546 12.6082 12.0538 12.331 12.331C11.9209 12.7412 11.4627 13.0856 10.9694 13.3598Z" fill="currentColor"></path>
  </symbol>
  <symbol fill="none" xmlns="http://www.w3.org/2000/svg" viewBox="0 0 85 60" id="ic_youtube">
    <path fill-rule="evenodd" clip-rule="evenodd" d="M33.6071 41.0646L33.6044 17.096L56.4909 29.1216L33.6071 41.0646ZM83.8588 12.9426C83.8588 12.9426 83.0303 7.06449 80.4918 4.47596C77.2703 1.07702 73.6597 1.06099 72.0053 0.863719C60.1518 -1.25212e-05 42.3715 0 42.3715 0H42.3344C42.3344 0 24.5541 -1.25212e-05 12.7006 0.863719C11.0435 1.06099 7.4356 1.07702 4.21148 4.47596C1.67295 7.06449 0.847051 12.9426 0.847051 12.9426C0.847051 12.9426 0 19.8472 0 26.749V33.2217C0 40.1262 0.847051 47.0281 0.847051 47.0281C0.847051 47.0281 1.67295 52.9062 4.21148 55.4947C7.4356 58.8937 11.6682 58.7871 13.5529 59.1416C20.3294 59.7974 42.3529 60 42.3529 60C42.3529 60 60.1518 59.9734 72.0053 59.1096C73.6597 58.9097 77.2703 58.8937 80.4918 55.4947C83.0303 52.9062 83.8588 47.0281 83.8588 47.0281C83.8588 47.0281 84.7059 40.1262 84.7059 33.2217V26.749C84.7059 19.8472 83.8588 12.9426 83.8588 12.9426Z" fill="currentColor"></path>
  </symbol>
</svg>