<svg width="80" height="60" viewBox="0 0 80 60" fill="none" xmlns="http://www.w3.org/2000/svg">
<g id="Frame 28">
<path id="Vector" fill-rule="evenodd" clip-rule="evenodd" d="M39.8564 0C44.7011 0 49.2897 1.09693 53.3762 3.04442C54.018 3.34042 54.6585 3.66612 55.3003 4.02572L52.4596 6.49742L48.1918 2.20718L40.9888 8.4534L36.7106 3.91372L23.2925 15.6724L31.8948 24.8893L28.5143 27.7799L36.9871 37.0106L33.6265 39.8944L45.7337 52.9965L52.9205 46.564L59.1341 53.4571C57.8982 54.3913 56.5518 55.2702 55.0686 56.0826C50.5753 58.5738 45.3823 60 39.8564 60C22.861 60 9 46.5222 9 30.0009C9 13.4761 22.861 0 39.8564 0ZM34.2328 28.1045L41.5705 21.6803L48.1777 28.8157L40.8406 35.2374L34.2328 28.1045ZM46.7884 34.0084L39.4504 40.4309L46.0586 47.5662L53.3963 41.1421L46.7884 34.0084ZM28.9827 15.9218L36.3201 9.49948L42.9255 16.6331L35.5878 23.0554L28.9827 15.9218ZM47.9501 7.64824L42.447 12.4646L47.4019 17.8167L52.905 12.9985L47.9501 7.64824ZM52.2249 34.5297L57.73 29.7116L62.6846 35.0631L57.1815 39.8799L52.2249 34.5297ZM62.5679 40.5179L57.0662 45.3367L62.0207 50.6851L67.5238 45.8684L62.5679 40.5179ZM59.2829 20.5679L62.9518 17.3565L66.2543 20.9235L62.5872 24.1342L59.2829 20.5679ZM58.2641 6.75897L54.5953 9.96983L57.8982 13.5367L61.5674 10.3258L58.2641 6.75897ZM63.9733 31.1657L67.6422 27.9543L70.9454 31.5203L67.2766 34.732L63.9733 31.1657ZM53.0224 18.4057L47.52 23.2245L52.4759 28.573L57.9772 23.7558L53.0224 18.4057Z" fill="#0068A3"/>
</g>
</svg>
