<svg width="80" height="60" viewBox="0 0 80 60" fill="none" xmlns="http://www.w3.org/2000/svg">
<g id="Frame 28">
<g id="Vector">
<path d="M48.637 9C36.7937 9 27.2767 18.5808 27.2767 30.2907C27.2767 42.097 36.8873 51.5813 48.6341 51.5813C60.3809 51.5813 70 42.0005 70 30.2907C70 18.5808 60.3837 9 48.637 9ZM48.637 38.2264C44.2681 38.2264 40.6771 34.6453 40.6771 30.2907C40.6771 25.936 44.2681 22.3549 48.637 22.3549C53.0058 22.3549 56.5982 25.936 56.5982 30.2907C56.5003 34.6453 53.0058 38.2264 48.637 38.2264Z" fill="#8B3FFD"/>
<path d="M27.2767 15.1856V46.1536H19.7085L10 15.1856H27.2767Z" fill="#8B3FFD"/>
</g>
</g>
</svg>
